%
M48
M72
T01C0.02362
T02C0.03200
T03C0.03937
T04C0.05906
T05C0.11024
T06C0.11811
%
T01
X37454Y22500
X54954Y12500
X72454Y64375
X104329Y86250
X139954Y112500
X139954Y120000
X122454Y130000
X122454Y165000
X102454Y170625
X104954Y199375
X87454Y207500
X54329Y170000
X24954Y202500
X37454Y121875
X33079Y116875
X37454Y71250
X33079Y65000
X142454Y90000
X144954Y60000
X181829Y93125
X203079Y111250
X207454Y118750
X186204Y136875
X203704Y161250
X208079Y170000
X186204Y185625
X203704Y213750
X217454Y222500
X162454Y232500
X129954Y200000
X134954Y195000
X139954Y190000
X144954Y185000
X152454Y178750
X208079Y67500
X203704Y61875
X186204Y64375
X182454Y42500
X201829Y26875
T02
X173704Y25500
X173704Y59500
X173079Y74250
X173079Y108250
X173704Y124250
X173704Y158250
X173704Y175500
X173704Y209500
X66204Y153250
X66204Y119250
X66204Y103250
X66204Y69250
X66204Y53250
X66204Y19250
T03
X79954Y70000
X79954Y80000
X79954Y90000
X79954Y100000
X79954Y110000
X79954Y120000
X79954Y130000
X79954Y140000
X79954Y150000
X79954Y160000
X79954Y170000
X79954Y180000
X65579Y177500
X65579Y167500
X65579Y187500
X129954Y211250
X139954Y211250
X149954Y211250
X149954Y221250
X139954Y221250
X129954Y221250
X159954Y180000
X159954Y170000
X159954Y160000
X159954Y150000
X159954Y140000
X159954Y130000
X159954Y120000
X159954Y110000
X159954Y100000
X159954Y90000
X159954Y80000
X159954Y70000
X159954Y60000
X159954Y50000
X159954Y40000
X159954Y30000
T04
X25583Y19921
X25583Y39606
X25583Y59291
X25583Y71171
X25583Y90856
X25583Y110541
X25583Y122421
X25583Y142106
X25583Y161791
X45269Y162185
X45269Y151555
X45269Y142106
X45269Y132657
X45269Y122028
X45269Y110935
X45269Y100305
X45269Y90856
X45269Y81407
X45269Y70778
X45269Y59685
X45269Y49055
X45269Y39606
X45269Y30157
X45269Y19528
X194639Y21565
X194639Y32195
X194639Y41644
X194639Y51093
X194639Y61722
X194639Y72815
X194639Y83445
X194639Y92894
X194639Y102343
X194639Y112972
X194639Y124065
X194639Y134695
X194639Y144144
X194639Y153593
X194639Y164222
X194639Y175315
X194639Y185945
X194639Y195394
X194639Y204843
X194639Y215472
X214324Y215079
X214324Y195394
X214324Y175709
X214324Y163829
X214324Y144144
X214324Y124459
X214324Y112579
X214324Y92894
X214324Y73209
X214324Y61329
X214324Y41644
X214324Y21959
T05
X154954Y15000
X84954Y15000
X84954Y195000
X24954Y235000
X154954Y195000
X214954Y235000
T06
X66528Y209606
X54717Y228110
X43300Y209606
M30
