G75*
%MOIN*%
%OFA0B0*%
%FSLAX25Y25*%
%IPPOS*%
%LPD*%
%AMOC8*
5,1,8,0,0,1.08239X$1,22.5*
%
%ADD10OC8,0.06600*%
%ADD11C,0.05937*%
%ADD12C,0.10000*%
%ADD13C,0.08858*%
%ADD14C,0.18898*%
%ADD15C,0.07000*%
%ADD16C,0.03962*%
%ADD17C,0.01000*%
D10*
X0066204Y0019250D03*
X0066204Y0053250D03*
X0066204Y0069250D03*
X0066204Y0103250D03*
X0066204Y0119250D03*
X0066204Y0153250D03*
X0173704Y0158250D03*
X0173704Y0175500D03*
X0173704Y0209500D03*
X0173704Y0124250D03*
X0173079Y0108250D03*
X0173079Y0074250D03*
X0173704Y0059500D03*
X0173704Y0025500D03*
D11*
X0065579Y0167500D03*
X0065579Y0177500D03*
X0065579Y0187500D03*
X0129954Y0211250D03*
X0139954Y0211250D03*
X0149954Y0211250D03*
X0149954Y0221250D03*
X0139954Y0221250D03*
X0129954Y0221250D03*
D12*
X0214324Y0195394D03*
X0214324Y0144144D03*
X0214324Y0092894D03*
X0214324Y0041644D03*
X0025583Y0039606D03*
X0025583Y0090856D03*
X0025583Y0142106D03*
D13*
X0025583Y0161791D03*
X0045269Y0162185D03*
X0045269Y0151555D03*
X0045269Y0132657D03*
X0045269Y0122028D03*
X0045269Y0110935D03*
X0045269Y0100305D03*
X0045269Y0081407D03*
X0045269Y0070778D03*
X0045269Y0059685D03*
X0045269Y0049055D03*
X0045269Y0030157D03*
X0045269Y0019528D03*
X0025583Y0059291D03*
X0025583Y0110541D03*
X0194639Y0112972D03*
X0194639Y0102343D03*
X0194639Y0083445D03*
X0194639Y0072815D03*
X0194639Y0061722D03*
X0194639Y0051093D03*
X0194639Y0032195D03*
X0194639Y0021565D03*
X0214324Y0021959D03*
X0214324Y0073209D03*
X0214324Y0124459D03*
X0194639Y0124065D03*
X0194639Y0134695D03*
X0194639Y0153593D03*
X0194639Y0164222D03*
X0194639Y0175315D03*
X0194639Y0185945D03*
X0194639Y0204843D03*
X0194639Y0215472D03*
X0214324Y0175709D03*
D14*
X0066528Y0209606D03*
X0054717Y0228110D03*
X0043300Y0209606D03*
D15*
X0079954Y0180000D03*
X0079954Y0170000D03*
X0079954Y0160000D03*
X0079954Y0150000D03*
X0079954Y0140000D03*
X0079954Y0130000D03*
X0079954Y0120000D03*
X0079954Y0110000D03*
X0079954Y0100000D03*
X0079954Y0090000D03*
X0079954Y0080000D03*
X0079954Y0070000D03*
X0159954Y0070000D03*
X0159954Y0060000D03*
X0159954Y0050000D03*
X0159954Y0040000D03*
X0159954Y0030000D03*
X0159954Y0080000D03*
X0159954Y0090000D03*
X0159954Y0100000D03*
X0159954Y0110000D03*
X0159954Y0120000D03*
X0159954Y0130000D03*
X0159954Y0140000D03*
X0159954Y0150000D03*
X0159954Y0160000D03*
X0159954Y0170000D03*
X0159954Y0180000D03*
D16*
X0152454Y0178750D03*
X0144954Y0185000D03*
X0139954Y0190000D03*
X0134954Y0195000D03*
X0129954Y0200000D03*
X0104954Y0199375D03*
X0087454Y0207500D03*
X0102454Y0170625D03*
X0122454Y0165000D03*
X0122454Y0130000D03*
X0139954Y0120000D03*
X0139954Y0112500D03*
X0142454Y0090000D03*
X0144954Y0060000D03*
X0181829Y0093125D03*
X0203079Y0111250D03*
X0207454Y0118750D03*
X0186204Y0136875D03*
X0203704Y0161250D03*
X0208079Y0170000D03*
X0186204Y0185625D03*
X0203704Y0213750D03*
X0217454Y0222500D03*
X0162454Y0232500D03*
X0054329Y0170000D03*
X0024954Y0202500D03*
X0037454Y0121875D03*
X0033079Y0116875D03*
X0037454Y0071250D03*
X0033079Y0065000D03*
X0072454Y0064375D03*
X0104329Y0086250D03*
X0037454Y0022500D03*
X0054954Y0012500D03*
X0182454Y0042500D03*
X0186204Y0064375D03*
X0203704Y0061875D03*
X0208079Y0067500D03*
X0201829Y0026875D03*
D17*
X0017454Y0007500D02*
X0017454Y0232171D01*
X0018161Y0230462D01*
X0020415Y0228208D01*
X0023360Y0226988D01*
X0026547Y0226988D01*
X0029492Y0228208D01*
X0031746Y0230462D01*
X0032965Y0233406D01*
X0032965Y0236594D01*
X0031746Y0239538D01*
X0029492Y0241792D01*
X0027971Y0242422D01*
X0210623Y0241878D01*
X0210415Y0241792D01*
X0208161Y0239538D01*
X0206942Y0236594D01*
X0206942Y0233406D01*
X0208161Y0230462D01*
X0210415Y0228208D01*
X0213360Y0226988D01*
X0216547Y0226988D01*
X0219492Y0228208D01*
X0221746Y0230462D01*
X0222468Y0232205D01*
X0223641Y0007500D01*
X0157783Y0007500D01*
X0159492Y0008208D01*
X0161746Y0010462D01*
X0162965Y0013406D01*
X0162965Y0016594D01*
X0161746Y0019538D01*
X0159492Y0021792D01*
X0156547Y0023012D01*
X0153360Y0023012D01*
X0150415Y0021792D01*
X0148161Y0019538D01*
X0146942Y0016594D01*
X0146942Y0013406D01*
X0148161Y0010462D01*
X0150415Y0008208D01*
X0152124Y0007500D01*
X0087783Y0007500D01*
X0089492Y0008208D01*
X0091746Y0010462D01*
X0092965Y0013406D01*
X0092965Y0016594D01*
X0091746Y0019538D01*
X0089492Y0021792D01*
X0086547Y0023012D01*
X0083360Y0023012D01*
X0080415Y0021792D01*
X0078161Y0019538D01*
X0076942Y0016594D01*
X0076942Y0013406D01*
X0078161Y0010462D01*
X0080415Y0008208D01*
X0082124Y0007500D01*
X0017454Y0007500D01*
X0017454Y0007996D02*
X0080928Y0007996D01*
X0079629Y0008994D02*
X0017454Y0008994D01*
X0017454Y0009993D02*
X0078631Y0009993D01*
X0077942Y0010991D02*
X0017454Y0010991D01*
X0017454Y0011990D02*
X0077529Y0011990D01*
X0077115Y0012988D02*
X0017454Y0012988D01*
X0017454Y0013987D02*
X0043675Y0013987D01*
X0044129Y0013798D02*
X0046408Y0013798D01*
X0048514Y0014671D01*
X0050125Y0016282D01*
X0050998Y0018388D01*
X0050998Y0020667D01*
X0050125Y0022773D01*
X0048514Y0024384D01*
X0047408Y0024843D01*
X0048514Y0025301D01*
X0050125Y0026912D01*
X0050998Y0029018D01*
X0050998Y0031297D01*
X0050287Y0033013D01*
X0064463Y0048650D01*
X0068109Y0048650D01*
X0070804Y0051345D01*
X0070804Y0055155D01*
X0068109Y0057850D01*
X0064298Y0057850D01*
X0061604Y0055155D01*
X0061604Y0051345D01*
X0061836Y0051112D01*
X0050721Y0038852D01*
X0050721Y0040691D01*
X0049891Y0042695D01*
X0048425Y0044161D01*
X0048514Y0044198D01*
X0050125Y0045810D01*
X0050998Y0047916D01*
X0050998Y0050195D01*
X0050125Y0052300D01*
X0048514Y0053912D01*
X0047408Y0054370D01*
X0048514Y0054828D01*
X0050125Y0056440D01*
X0050998Y0058545D01*
X0050998Y0060825D01*
X0050125Y0062930D01*
X0048514Y0064542D01*
X0046850Y0065231D01*
X0048514Y0065921D01*
X0050125Y0067532D01*
X0050998Y0069638D01*
X0050998Y0071917D01*
X0050125Y0074023D01*
X0048514Y0075634D01*
X0047408Y0076093D01*
X0048514Y0076551D01*
X0050125Y0078162D01*
X0050998Y0080268D01*
X0050998Y0082547D01*
X0050351Y0084109D01*
X0064293Y0098655D01*
X0064298Y0098650D01*
X0068109Y0098650D01*
X0070804Y0101345D01*
X0070804Y0105155D01*
X0068109Y0107850D01*
X0064298Y0107850D01*
X0061604Y0105155D01*
X0061604Y0101345D01*
X0061747Y0101201D01*
X0050667Y0089642D01*
X0050721Y0089772D01*
X0050721Y0091941D01*
X0049891Y0093945D01*
X0048425Y0095411D01*
X0048514Y0095448D01*
X0050125Y0097060D01*
X0050998Y0099166D01*
X0050998Y0101445D01*
X0050125Y0103550D01*
X0048514Y0105162D01*
X0047408Y0105620D01*
X0048514Y0106078D01*
X0050125Y0107690D01*
X0050998Y0109795D01*
X0050998Y0112075D01*
X0050125Y0114180D01*
X0048514Y0115792D01*
X0046850Y0116481D01*
X0048514Y0117171D01*
X0050125Y0118782D01*
X0050998Y0120888D01*
X0050998Y0123167D01*
X0050125Y0125273D01*
X0048514Y0126884D01*
X0047408Y0127343D01*
X0048514Y0127801D01*
X0050125Y0129412D01*
X0050998Y0131518D01*
X0050998Y0133797D01*
X0050418Y0135197D01*
X0064197Y0148751D01*
X0064298Y0148650D01*
X0068109Y0148650D01*
X0070804Y0151345D01*
X0070804Y0155155D01*
X0068109Y0157850D01*
X0064298Y0157850D01*
X0061604Y0155155D01*
X0061604Y0151345D01*
X0061651Y0151297D01*
X0050389Y0140219D01*
X0050721Y0141022D01*
X0050721Y0143191D01*
X0049891Y0145195D01*
X0048425Y0146661D01*
X0048514Y0146698D01*
X0050125Y0148310D01*
X0050998Y0150416D01*
X0050998Y0152695D01*
X0050399Y0154140D01*
X0055074Y0158815D01*
X0056129Y0159870D01*
X0056129Y0167194D01*
X0056187Y0167218D01*
X0057110Y0168141D01*
X0057610Y0169347D01*
X0057610Y0170653D01*
X0057110Y0171859D01*
X0056187Y0172782D01*
X0054981Y0173281D01*
X0053676Y0173281D01*
X0052470Y0172782D01*
X0051547Y0171859D01*
X0051047Y0170653D01*
X0051047Y0169347D01*
X0051547Y0168141D01*
X0052470Y0167218D01*
X0052529Y0167194D01*
X0052529Y0161361D01*
X0050138Y0158970D01*
X0050998Y0161045D01*
X0050998Y0163325D01*
X0050125Y0165430D01*
X0048514Y0167042D01*
X0046408Y0167914D01*
X0044129Y0167914D01*
X0042023Y0167042D01*
X0040412Y0165430D01*
X0039539Y0163325D01*
X0039539Y0161045D01*
X0040412Y0158940D01*
X0042023Y0157328D01*
X0043129Y0156870D01*
X0042023Y0156412D01*
X0040412Y0154800D01*
X0039539Y0152695D01*
X0039539Y0150416D01*
X0040412Y0148310D01*
X0042023Y0146698D01*
X0042112Y0146661D01*
X0040646Y0145195D01*
X0039816Y0143191D01*
X0039816Y0141022D01*
X0040646Y0139018D01*
X0042112Y0137551D01*
X0042023Y0137514D01*
X0040412Y0135903D01*
X0039539Y0133797D01*
X0039539Y0131518D01*
X0040412Y0129412D01*
X0042023Y0127801D01*
X0043129Y0127343D01*
X0042023Y0126884D01*
X0040412Y0125273D01*
X0039909Y0124060D01*
X0039312Y0124657D01*
X0039254Y0124681D01*
X0039254Y0192500D01*
X0039277Y0192681D01*
X0039459Y0192995D01*
X0039772Y0193176D01*
X0039954Y0193200D01*
X0070699Y0193200D01*
X0079449Y0201950D01*
X0080796Y0201950D01*
X0080415Y0201792D01*
X0078161Y0199538D01*
X0076942Y0196594D01*
X0076942Y0193406D01*
X0078161Y0190462D01*
X0080415Y0188208D01*
X0083360Y0186988D01*
X0086547Y0186988D01*
X0089492Y0188208D01*
X0091746Y0190462D01*
X0092965Y0193406D01*
X0092965Y0196594D01*
X0091746Y0199538D01*
X0089492Y0201792D01*
X0089111Y0201950D01*
X0102888Y0201950D01*
X0102172Y0201234D01*
X0101672Y0200028D01*
X0101672Y0198722D01*
X0102172Y0197516D01*
X0103095Y0196593D01*
X0104301Y0196094D01*
X0105606Y0196094D01*
X0106812Y0196593D01*
X0107735Y0197516D01*
X0108235Y0198722D01*
X0108235Y0200028D01*
X0107735Y0201234D01*
X0107019Y0201950D01*
X0120654Y0201950D01*
X0120654Y0167806D01*
X0120595Y0167782D01*
X0119672Y0166859D01*
X0119172Y0165653D01*
X0119172Y0164347D01*
X0119672Y0163141D01*
X0120595Y0162218D01*
X0121801Y0161719D01*
X0123106Y0161719D01*
X0124312Y0162218D01*
X0125235Y0163141D01*
X0125735Y0164347D01*
X0125735Y0165653D01*
X0125235Y0166859D01*
X0124312Y0167782D01*
X0124254Y0167806D01*
X0124254Y0201950D01*
X0127263Y0201950D01*
X0127172Y0201859D01*
X0126672Y0200653D01*
X0126672Y0199347D01*
X0127172Y0198141D01*
X0128095Y0197218D01*
X0128154Y0197194D01*
X0128154Y0162500D01*
X0128092Y0161876D01*
X0127614Y0160722D01*
X0126731Y0159839D01*
X0125578Y0159361D01*
X0124954Y0159300D01*
X0084754Y0159300D01*
X0084754Y0160955D01*
X0084023Y0162719D01*
X0082673Y0164069D01*
X0080908Y0164800D01*
X0078999Y0164800D01*
X0077235Y0164069D01*
X0075884Y0162719D01*
X0075154Y0160955D01*
X0075154Y0159045D01*
X0075884Y0157281D01*
X0077235Y0155931D01*
X0078999Y0155200D01*
X0080908Y0155200D01*
X0082115Y0155700D01*
X0126306Y0155700D01*
X0128805Y0156735D01*
X0128805Y0156735D01*
X0130718Y0158648D01*
X0130718Y0158648D01*
X0131754Y0161147D01*
X0131754Y0194152D01*
X0132172Y0193141D01*
X0133095Y0192218D01*
X0133154Y0192194D01*
X0133154Y0152500D01*
X0133130Y0152319D01*
X0132949Y0152005D01*
X0132635Y0151824D01*
X0132454Y0151800D01*
X0084403Y0151800D01*
X0084023Y0152719D01*
X0082673Y0154069D01*
X0080908Y0154800D01*
X0078999Y0154800D01*
X0077235Y0154069D01*
X0075884Y0152719D01*
X0075154Y0150955D01*
X0075154Y0149045D01*
X0075884Y0147281D01*
X0077235Y0145931D01*
X0078999Y0145200D01*
X0080908Y0145200D01*
X0082673Y0145931D01*
X0084023Y0147281D01*
X0084403Y0148200D01*
X0133606Y0148200D01*
X0135601Y0149352D01*
X0135601Y0149352D01*
X0136754Y0151348D01*
X0136754Y0189152D01*
X0137172Y0188141D01*
X0138095Y0187218D01*
X0138154Y0187194D01*
X0138154Y0142500D01*
X0138130Y0142319D01*
X0137949Y0142005D01*
X0137635Y0141824D01*
X0137454Y0141800D01*
X0084403Y0141800D01*
X0084023Y0142719D01*
X0082673Y0144069D01*
X0080908Y0144800D01*
X0078999Y0144800D01*
X0077235Y0144069D01*
X0075884Y0142719D01*
X0075154Y0140955D01*
X0075154Y0139045D01*
X0075884Y0137281D01*
X0077235Y0135931D01*
X0078999Y0135200D01*
X0080908Y0135200D01*
X0082673Y0135931D01*
X0084023Y0137281D01*
X0084403Y0138200D01*
X0138606Y0138200D01*
X0140601Y0139352D01*
X0140601Y0139352D01*
X0141754Y0141348D01*
X0141754Y0184152D01*
X0142172Y0183141D01*
X0143095Y0182218D01*
X0143154Y0182194D01*
X0143154Y0122500D01*
X0143130Y0122319D01*
X0142949Y0122005D01*
X0142720Y0121873D01*
X0141812Y0122782D01*
X0140606Y0123281D01*
X0139301Y0123281D01*
X0138095Y0122782D01*
X0137172Y0121859D01*
X0136672Y0120653D01*
X0136672Y0119347D01*
X0137172Y0118141D01*
X0138095Y0117218D01*
X0139301Y0116719D01*
X0140606Y0116719D01*
X0141812Y0117218D01*
X0142735Y0118141D01*
X0142759Y0118200D01*
X0143606Y0118200D01*
X0145601Y0119352D01*
X0145601Y0119352D01*
X0146754Y0121348D01*
X0146754Y0182194D01*
X0146812Y0182218D01*
X0147735Y0183141D01*
X0148235Y0184347D01*
X0148235Y0185653D01*
X0147735Y0186859D01*
X0146812Y0187782D01*
X0145606Y0188281D01*
X0144301Y0188281D01*
X0143095Y0187782D01*
X0142172Y0186859D01*
X0141754Y0185848D01*
X0141754Y0187194D01*
X0141812Y0187218D01*
X0142735Y0188141D01*
X0143235Y0189347D01*
X0143235Y0190653D01*
X0142735Y0191859D01*
X0141812Y0192782D01*
X0140606Y0193281D01*
X0139301Y0193281D01*
X0138095Y0192782D01*
X0137172Y0191859D01*
X0136754Y0190848D01*
X0136754Y0192194D01*
X0136812Y0192218D01*
X0137735Y0193141D01*
X0138235Y0194347D01*
X0138235Y0195653D01*
X0137735Y0196859D01*
X0136812Y0197782D01*
X0135606Y0198281D01*
X0134301Y0198281D01*
X0133095Y0197782D01*
X0132172Y0196859D01*
X0131754Y0195848D01*
X0131754Y0197194D01*
X0131812Y0197218D01*
X0132735Y0198141D01*
X0133235Y0199347D01*
X0133235Y0200653D01*
X0132735Y0201859D01*
X0132644Y0201950D01*
X0150796Y0201950D01*
X0150415Y0201792D01*
X0148161Y0199538D01*
X0146942Y0196594D01*
X0146942Y0193406D01*
X0148161Y0190462D01*
X0150415Y0188208D01*
X0153360Y0186988D01*
X0156547Y0186988D01*
X0159492Y0188208D01*
X0161746Y0190462D01*
X0162965Y0193406D01*
X0162965Y0196594D01*
X0161746Y0199538D01*
X0159492Y0201792D01*
X0159111Y0201950D01*
X0164521Y0201950D01*
X0165936Y0202767D01*
X0165936Y0202767D01*
X0165936Y0202767D01*
X0166754Y0204183D01*
X0166754Y0222500D01*
X0166777Y0222681D01*
X0166959Y0222995D01*
X0167272Y0223176D01*
X0167454Y0223200D01*
X0198704Y0223200D01*
X0199328Y0223139D01*
X0200481Y0222661D01*
X0201364Y0221778D01*
X0201842Y0220624D01*
X0201904Y0220000D01*
X0201904Y0216556D01*
X0201845Y0216532D01*
X0200922Y0215609D01*
X0200422Y0214403D01*
X0200422Y0213097D01*
X0200922Y0211891D01*
X0201845Y0210968D01*
X0201904Y0210944D01*
X0201904Y0164056D01*
X0201845Y0164032D01*
X0200922Y0163109D01*
X0200422Y0161903D01*
X0200422Y0160597D01*
X0200922Y0159391D01*
X0201845Y0158468D01*
X0201869Y0158459D01*
X0201314Y0114070D01*
X0201220Y0114032D01*
X0200368Y0113179D01*
X0200368Y0114112D01*
X0199495Y0116218D01*
X0197884Y0117829D01*
X0196220Y0118519D01*
X0197884Y0119208D01*
X0199495Y0120820D01*
X0200368Y0122925D01*
X0200368Y0125205D01*
X0199495Y0127310D01*
X0197884Y0128922D01*
X0196778Y0129380D01*
X0197884Y0129838D01*
X0199495Y0131450D01*
X0200368Y0133555D01*
X0200368Y0135834D01*
X0199495Y0137940D01*
X0197884Y0139552D01*
X0197795Y0139589D01*
X0199261Y0141055D01*
X0200091Y0143059D01*
X0200091Y0145228D01*
X0199261Y0147232D01*
X0197795Y0148699D01*
X0197884Y0148736D01*
X0199495Y0150347D01*
X0200368Y0152453D01*
X0200368Y0154732D01*
X0199495Y0156838D01*
X0197884Y0158449D01*
X0196778Y0158907D01*
X0197884Y0159366D01*
X0199495Y0160977D01*
X0200368Y0163083D01*
X0200368Y0165362D01*
X0199495Y0167468D01*
X0197884Y0169079D01*
X0196220Y0169769D01*
X0197884Y0170458D01*
X0199495Y0172070D01*
X0200368Y0174175D01*
X0200368Y0176455D01*
X0199495Y0178560D01*
X0197884Y0180172D01*
X0196778Y0180630D01*
X0197884Y0181088D01*
X0199495Y0182700D01*
X0200368Y0184805D01*
X0200368Y0187084D01*
X0199495Y0189190D01*
X0197884Y0190802D01*
X0197795Y0190839D01*
X0199261Y0192305D01*
X0200091Y0194309D01*
X0200091Y0196478D01*
X0199261Y0198482D01*
X0197795Y0199949D01*
X0197884Y0199986D01*
X0199495Y0201597D01*
X0200368Y0203703D01*
X0200368Y0205982D01*
X0199495Y0208088D01*
X0197884Y0209699D01*
X0196778Y0210157D01*
X0197884Y0210616D01*
X0199495Y0212227D01*
X0200368Y0214333D01*
X0200368Y0216612D01*
X0199495Y0218718D01*
X0197884Y0220329D01*
X0195778Y0221202D01*
X0193499Y0221202D01*
X0191393Y0220329D01*
X0189782Y0218718D01*
X0188909Y0216612D01*
X0188909Y0214333D01*
X0189782Y0212227D01*
X0191393Y0210616D01*
X0192499Y0210157D01*
X0191393Y0209699D01*
X0189782Y0208088D01*
X0188909Y0205982D01*
X0188909Y0203703D01*
X0189782Y0201597D01*
X0189974Y0201404D01*
X0174774Y0180100D01*
X0171798Y0180100D01*
X0169104Y0177405D01*
X0169104Y0173595D01*
X0171798Y0170900D01*
X0175609Y0170900D01*
X0178304Y0173595D01*
X0178304Y0177405D01*
X0177703Y0178006D01*
X0189240Y0194177D01*
X0190016Y0192305D01*
X0191482Y0190839D01*
X0191393Y0190802D01*
X0189782Y0189190D01*
X0188909Y0187084D01*
X0188909Y0184805D01*
X0189782Y0182700D01*
X0191393Y0181088D01*
X0192499Y0180630D01*
X0191393Y0180172D01*
X0189782Y0178560D01*
X0188909Y0176455D01*
X0188909Y0174175D01*
X0189782Y0172070D01*
X0191393Y0170458D01*
X0193058Y0169769D01*
X0191393Y0169079D01*
X0189782Y0167468D01*
X0188909Y0165362D01*
X0188909Y0163083D01*
X0189782Y0160977D01*
X0191393Y0159366D01*
X0192499Y0158907D01*
X0191393Y0158449D01*
X0189782Y0156838D01*
X0188909Y0154732D01*
X0188909Y0152453D01*
X0189326Y0151448D01*
X0186605Y0149141D01*
X0186284Y0149058D01*
X0186058Y0148677D01*
X0185721Y0148391D01*
X0185694Y0148060D01*
X0174333Y0128850D01*
X0171798Y0128850D01*
X0169104Y0126155D01*
X0169104Y0122345D01*
X0171798Y0119650D01*
X0175609Y0119650D01*
X0178304Y0122345D01*
X0178304Y0126155D01*
X0177435Y0127024D01*
X0188849Y0146323D01*
X0190545Y0147761D01*
X0190016Y0147232D01*
X0189186Y0145228D01*
X0189186Y0143059D01*
X0190016Y0141055D01*
X0191482Y0139589D01*
X0191393Y0139552D01*
X0189782Y0137940D01*
X0188909Y0135834D01*
X0188909Y0133555D01*
X0189782Y0131450D01*
X0191393Y0129838D01*
X0192499Y0129380D01*
X0191393Y0128922D01*
X0189782Y0127310D01*
X0188909Y0125205D01*
X0188909Y0122925D01*
X0189782Y0120820D01*
X0191393Y0119208D01*
X0193058Y0118519D01*
X0191393Y0117829D01*
X0189782Y0116218D01*
X0188909Y0114112D01*
X0188909Y0111833D01*
X0189782Y0109727D01*
X0191393Y0108116D01*
X0192499Y0107657D01*
X0191393Y0107199D01*
X0189782Y0105588D01*
X0188909Y0103482D01*
X0188909Y0101203D01*
X0189782Y0099097D01*
X0189837Y0099042D01*
X0174340Y0078850D01*
X0171173Y0078850D01*
X0168479Y0076155D01*
X0168479Y0072345D01*
X0171173Y0069650D01*
X0174984Y0069650D01*
X0177679Y0072345D01*
X0177679Y0076155D01*
X0177187Y0076647D01*
X0189186Y0092281D01*
X0189186Y0091809D01*
X0190016Y0089805D01*
X0191482Y0088339D01*
X0191393Y0088302D01*
X0189782Y0086690D01*
X0188909Y0084584D01*
X0188909Y0082305D01*
X0189782Y0080200D01*
X0191393Y0078588D01*
X0192499Y0078130D01*
X0191393Y0077672D01*
X0189782Y0076060D01*
X0188909Y0073955D01*
X0188909Y0071675D01*
X0189782Y0069570D01*
X0191393Y0067958D01*
X0193058Y0067269D01*
X0191393Y0066579D01*
X0189782Y0064968D01*
X0188909Y0062862D01*
X0188909Y0060583D01*
X0189782Y0058477D01*
X0191393Y0056866D01*
X0192499Y0056407D01*
X0191393Y0055949D01*
X0189782Y0054338D01*
X0188909Y0052232D01*
X0188909Y0049953D01*
X0189740Y0047947D01*
X0175141Y0030100D01*
X0171798Y0030100D01*
X0169104Y0027405D01*
X0169104Y0023595D01*
X0171798Y0020900D01*
X0175609Y0020900D01*
X0178304Y0023595D01*
X0178304Y0027405D01*
X0177910Y0027799D01*
X0189186Y0041584D01*
X0189186Y0040559D01*
X0190016Y0038555D01*
X0191482Y0037089D01*
X0191393Y0037052D01*
X0189782Y0035440D01*
X0188909Y0033334D01*
X0188909Y0031055D01*
X0189782Y0028950D01*
X0191393Y0027338D01*
X0192499Y0026880D01*
X0191393Y0026422D01*
X0189782Y0024810D01*
X0188909Y0022705D01*
X0188909Y0020425D01*
X0189782Y0018320D01*
X0191393Y0016708D01*
X0193499Y0015836D01*
X0195778Y0015836D01*
X0197884Y0016708D01*
X0199495Y0018320D01*
X0200368Y0020425D01*
X0200368Y0022705D01*
X0199495Y0024810D01*
X0197884Y0026422D01*
X0196778Y0026880D01*
X0197884Y0027338D01*
X0199495Y0028950D01*
X0200368Y0031055D01*
X0200368Y0033334D01*
X0199495Y0035440D01*
X0197884Y0037052D01*
X0197795Y0037089D01*
X0199261Y0038555D01*
X0200091Y0040559D01*
X0200091Y0042728D01*
X0199261Y0044732D01*
X0197795Y0046199D01*
X0197884Y0046236D01*
X0199495Y0047847D01*
X0200368Y0049953D01*
X0200368Y0052232D01*
X0199495Y0054338D01*
X0197884Y0055949D01*
X0196778Y0056407D01*
X0197884Y0056866D01*
X0199495Y0058477D01*
X0200368Y0060583D01*
X0200368Y0062862D01*
X0199495Y0064968D01*
X0197884Y0066579D01*
X0196220Y0067269D01*
X0197884Y0067958D01*
X0199495Y0069570D01*
X0200368Y0071675D01*
X0200368Y0073955D01*
X0199495Y0076060D01*
X0197884Y0077672D01*
X0196778Y0078130D01*
X0197884Y0078588D01*
X0199495Y0080200D01*
X0200368Y0082305D01*
X0200368Y0084584D01*
X0199495Y0086690D01*
X0197884Y0088302D01*
X0197795Y0088339D01*
X0199261Y0089805D01*
X0200091Y0091809D01*
X0200091Y0093978D01*
X0199261Y0095982D01*
X0197795Y0097449D01*
X0197884Y0097486D01*
X0199495Y0099097D01*
X0200368Y0101203D01*
X0200368Y0103482D01*
X0199495Y0105588D01*
X0197884Y0107199D01*
X0196778Y0107657D01*
X0197884Y0108116D01*
X0199495Y0109727D01*
X0199827Y0110527D01*
X0200297Y0109391D01*
X0201220Y0108468D01*
X0201314Y0108429D01*
X0201868Y0064666D01*
X0201845Y0064657D01*
X0200922Y0063734D01*
X0200422Y0062528D01*
X0200422Y0061222D01*
X0200922Y0060016D01*
X0201845Y0059093D01*
X0203051Y0058594D01*
X0204356Y0058594D01*
X0205562Y0059093D01*
X0206485Y0060016D01*
X0206985Y0061222D01*
X0206985Y0062528D01*
X0206485Y0063734D01*
X0205562Y0064657D01*
X0205468Y0064696D01*
X0204914Y0108459D01*
X0204937Y0108468D01*
X0205860Y0109391D01*
X0206360Y0110597D01*
X0206360Y0111903D01*
X0205860Y0113109D01*
X0204937Y0114032D01*
X0204914Y0114041D01*
X0205468Y0158430D01*
X0205562Y0158468D01*
X0206485Y0159391D01*
X0206985Y0160597D01*
X0206985Y0161903D01*
X0206485Y0163109D01*
X0205562Y0164032D01*
X0205504Y0164056D01*
X0205504Y0210944D01*
X0205562Y0210968D01*
X0206485Y0211891D01*
X0206985Y0213097D01*
X0206985Y0214403D01*
X0206485Y0215609D01*
X0205562Y0216532D01*
X0205504Y0216556D01*
X0205504Y0221353D01*
X0204468Y0223852D01*
X0202555Y0225765D01*
X0200056Y0226800D01*
X0166301Y0226800D01*
X0164306Y0225648D01*
X0164306Y0225648D01*
X0163154Y0223652D01*
X0163154Y0205550D01*
X0077958Y0205550D01*
X0076904Y0204496D01*
X0069208Y0196800D01*
X0038801Y0196800D01*
X0036806Y0195648D01*
X0036806Y0195648D01*
X0036806Y0195648D01*
X0035654Y0193652D01*
X0035654Y0124681D01*
X0035595Y0124657D01*
X0034672Y0123734D01*
X0034172Y0122528D01*
X0034172Y0121222D01*
X0034672Y0120016D01*
X0035595Y0119093D01*
X0035654Y0119069D01*
X0035654Y0074056D01*
X0035595Y0074032D01*
X0034672Y0073109D01*
X0034172Y0071903D01*
X0034172Y0070597D01*
X0034672Y0069391D01*
X0035595Y0068468D01*
X0035654Y0068444D01*
X0035654Y0025306D01*
X0035595Y0025282D01*
X0034672Y0024359D01*
X0034172Y0023153D01*
X0034172Y0021847D01*
X0034672Y0020641D01*
X0035595Y0019718D01*
X0036801Y0019219D01*
X0038106Y0019219D01*
X0039312Y0019718D01*
X0039539Y0019946D01*
X0039539Y0018388D01*
X0040412Y0016282D01*
X0042023Y0014671D01*
X0044129Y0013798D01*
X0041709Y0014985D02*
X0027915Y0014985D01*
X0028672Y0015299D02*
X0030206Y0016833D01*
X0031036Y0018837D01*
X0031036Y0021006D01*
X0030206Y0023010D01*
X0028672Y0024544D01*
X0026668Y0025374D01*
X0024499Y0025374D01*
X0022495Y0024544D01*
X0020961Y0023010D01*
X0020131Y0021006D01*
X0020131Y0018837D01*
X0020961Y0016833D01*
X0022495Y0015299D01*
X0024499Y0014469D01*
X0026668Y0014469D01*
X0028672Y0015299D01*
X0029357Y0015984D02*
X0040710Y0015984D01*
X0040122Y0016982D02*
X0030268Y0016982D01*
X0030682Y0017981D02*
X0039708Y0017981D01*
X0039539Y0018979D02*
X0031036Y0018979D01*
X0031036Y0019978D02*
X0035336Y0019978D01*
X0034533Y0020976D02*
X0031036Y0020976D01*
X0030635Y0021975D02*
X0034172Y0021975D01*
X0034172Y0022973D02*
X0030221Y0022973D01*
X0029244Y0023972D02*
X0034512Y0023972D01*
X0035284Y0024970D02*
X0027643Y0024970D01*
X0023524Y0024970D02*
X0017454Y0024970D01*
X0017454Y0023972D02*
X0021923Y0023972D01*
X0020946Y0022973D02*
X0017454Y0022973D01*
X0017454Y0021975D02*
X0020532Y0021975D01*
X0020131Y0020976D02*
X0017454Y0020976D01*
X0017454Y0019978D02*
X0020131Y0019978D01*
X0020131Y0018979D02*
X0017454Y0018979D01*
X0017454Y0017981D02*
X0020485Y0017981D01*
X0020899Y0016982D02*
X0017454Y0016982D01*
X0017454Y0015984D02*
X0021810Y0015984D01*
X0023252Y0014985D02*
X0017454Y0014985D01*
X0017454Y0025969D02*
X0035654Y0025969D01*
X0035654Y0026967D02*
X0017454Y0026967D01*
X0017454Y0027966D02*
X0035654Y0027966D01*
X0035654Y0028964D02*
X0017454Y0028964D01*
X0017454Y0029963D02*
X0035654Y0029963D01*
X0035654Y0030961D02*
X0017454Y0030961D01*
X0017454Y0031960D02*
X0035654Y0031960D01*
X0035654Y0032958D02*
X0017454Y0032958D01*
X0017454Y0033957D02*
X0022760Y0033957D01*
X0022015Y0034265D02*
X0024330Y0033306D01*
X0026837Y0033306D01*
X0029152Y0034265D01*
X0030924Y0036038D01*
X0031883Y0038353D01*
X0031883Y0040859D01*
X0030924Y0043175D01*
X0029152Y0044947D01*
X0026837Y0045906D01*
X0024330Y0045906D01*
X0022015Y0044947D01*
X0020243Y0043175D01*
X0019283Y0040859D01*
X0019283Y0038353D01*
X0020243Y0036038D01*
X0022015Y0034265D01*
X0021325Y0034955D02*
X0017454Y0034955D01*
X0017454Y0035954D02*
X0020326Y0035954D01*
X0019864Y0036952D02*
X0017454Y0036952D01*
X0017454Y0037951D02*
X0019450Y0037951D01*
X0019283Y0038949D02*
X0017454Y0038949D01*
X0017454Y0039948D02*
X0019283Y0039948D01*
X0019319Y0040946D02*
X0017454Y0040946D01*
X0017454Y0041945D02*
X0019733Y0041945D01*
X0020147Y0042943D02*
X0017454Y0042943D01*
X0017454Y0043942D02*
X0021010Y0043942D01*
X0022008Y0044940D02*
X0017454Y0044940D01*
X0017454Y0045939D02*
X0035654Y0045939D01*
X0035654Y0046937D02*
X0017454Y0046937D01*
X0017454Y0047936D02*
X0035654Y0047936D01*
X0035654Y0048934D02*
X0017454Y0048934D01*
X0017454Y0049933D02*
X0035654Y0049933D01*
X0035654Y0050932D02*
X0017454Y0050932D01*
X0017454Y0051930D02*
X0035654Y0051930D01*
X0035654Y0052929D02*
X0017454Y0052929D01*
X0017454Y0053927D02*
X0023563Y0053927D01*
X0024444Y0053562D02*
X0022338Y0054434D01*
X0020727Y0056046D01*
X0019854Y0058152D01*
X0019854Y0060431D01*
X0020727Y0062537D01*
X0022338Y0064148D01*
X0024444Y0065020D01*
X0026723Y0065020D01*
X0028829Y0064148D01*
X0030440Y0062537D01*
X0031313Y0060431D01*
X0031313Y0058152D01*
X0030440Y0056046D01*
X0028829Y0054434D01*
X0026723Y0053562D01*
X0024444Y0053562D01*
X0021847Y0054926D02*
X0017454Y0054926D01*
X0017454Y0055924D02*
X0020848Y0055924D01*
X0020363Y0056923D02*
X0017454Y0056923D01*
X0017454Y0057921D02*
X0019950Y0057921D01*
X0019854Y0058920D02*
X0017454Y0058920D01*
X0017454Y0059918D02*
X0019854Y0059918D01*
X0020056Y0060917D02*
X0017454Y0060917D01*
X0017454Y0061915D02*
X0020469Y0061915D01*
X0021104Y0062914D02*
X0017454Y0062914D01*
X0017454Y0063912D02*
X0022102Y0063912D01*
X0024179Y0064911D02*
X0017454Y0064911D01*
X0017454Y0065909D02*
X0024038Y0065909D01*
X0024499Y0065719D02*
X0026668Y0065719D01*
X0028672Y0066549D01*
X0030206Y0068083D01*
X0031036Y0070087D01*
X0031036Y0072256D01*
X0030206Y0074260D01*
X0028672Y0075794D01*
X0026668Y0076624D01*
X0024499Y0076624D01*
X0022495Y0075794D01*
X0020961Y0074260D01*
X0020131Y0072256D01*
X0020131Y0070087D01*
X0020961Y0068083D01*
X0022495Y0066549D01*
X0024499Y0065719D01*
X0026988Y0064911D02*
X0035654Y0064911D01*
X0035654Y0065909D02*
X0027128Y0065909D01*
X0029031Y0066908D02*
X0035654Y0066908D01*
X0035654Y0067906D02*
X0030030Y0067906D01*
X0030547Y0068905D02*
X0035159Y0068905D01*
X0034460Y0069903D02*
X0030960Y0069903D01*
X0031036Y0070902D02*
X0034172Y0070902D01*
X0034172Y0071900D02*
X0031036Y0071900D01*
X0030770Y0072899D02*
X0034585Y0072899D01*
X0035461Y0073897D02*
X0030356Y0073897D01*
X0029570Y0074896D02*
X0035654Y0074896D01*
X0035654Y0075894D02*
X0028430Y0075894D01*
X0022737Y0075894D02*
X0017454Y0075894D01*
X0017454Y0074896D02*
X0021597Y0074896D01*
X0020811Y0073897D02*
X0017454Y0073897D01*
X0017454Y0072899D02*
X0020397Y0072899D01*
X0020131Y0071900D02*
X0017454Y0071900D01*
X0017454Y0070902D02*
X0020131Y0070902D01*
X0020207Y0069903D02*
X0017454Y0069903D01*
X0017454Y0068905D02*
X0020620Y0068905D01*
X0021137Y0067906D02*
X0017454Y0067906D01*
X0017454Y0066908D02*
X0022136Y0066908D01*
X0029065Y0063912D02*
X0035654Y0063912D01*
X0035654Y0062914D02*
X0030063Y0062914D01*
X0030698Y0061915D02*
X0035654Y0061915D01*
X0035654Y0060917D02*
X0031111Y0060917D01*
X0031313Y0059918D02*
X0035654Y0059918D01*
X0035654Y0058920D02*
X0031313Y0058920D01*
X0031217Y0057921D02*
X0035654Y0057921D01*
X0035654Y0056923D02*
X0030803Y0056923D01*
X0030318Y0055924D02*
X0035654Y0055924D01*
X0035654Y0054926D02*
X0029320Y0054926D01*
X0027604Y0053927D02*
X0035654Y0053927D01*
X0035654Y0044940D02*
X0029159Y0044940D01*
X0030157Y0043942D02*
X0035654Y0043942D01*
X0035654Y0042943D02*
X0031020Y0042943D01*
X0031434Y0041945D02*
X0035654Y0041945D01*
X0035654Y0040946D02*
X0031847Y0040946D01*
X0031883Y0039948D02*
X0035654Y0039948D01*
X0035654Y0038949D02*
X0031883Y0038949D01*
X0031717Y0037951D02*
X0035654Y0037951D01*
X0035654Y0036952D02*
X0031303Y0036952D01*
X0030841Y0035954D02*
X0035654Y0035954D01*
X0035654Y0034955D02*
X0029842Y0034955D01*
X0028407Y0033957D02*
X0035654Y0033957D01*
X0045269Y0030157D02*
X0066204Y0053250D01*
X0069392Y0049933D02*
X0150654Y0049933D01*
X0150654Y0048934D02*
X0068393Y0048934D01*
X0070390Y0050932D02*
X0150654Y0050932D01*
X0150654Y0051930D02*
X0070804Y0051930D01*
X0070804Y0052929D02*
X0150654Y0052929D01*
X0150654Y0053927D02*
X0070804Y0053927D01*
X0070804Y0054926D02*
X0150654Y0054926D01*
X0150654Y0055924D02*
X0070035Y0055924D01*
X0069036Y0056923D02*
X0150654Y0056923D01*
X0150654Y0057921D02*
X0050739Y0057921D01*
X0050998Y0058920D02*
X0150654Y0058920D01*
X0150654Y0059918D02*
X0050998Y0059918D01*
X0050960Y0060917D02*
X0150654Y0060917D01*
X0150654Y0061915D02*
X0050546Y0061915D01*
X0050132Y0062914D02*
X0150654Y0062914D01*
X0150654Y0063912D02*
X0049144Y0063912D01*
X0047624Y0064911D02*
X0064037Y0064911D01*
X0064298Y0064650D02*
X0061604Y0067345D01*
X0061604Y0071155D01*
X0064298Y0073850D01*
X0068109Y0073850D01*
X0070804Y0071155D01*
X0070804Y0067345D01*
X0068109Y0064650D01*
X0064298Y0064650D01*
X0063039Y0065909D02*
X0048486Y0065909D01*
X0049501Y0066908D02*
X0062040Y0066908D01*
X0061604Y0067906D02*
X0050280Y0067906D01*
X0050694Y0068905D02*
X0061604Y0068905D01*
X0061604Y0069903D02*
X0050998Y0069903D01*
X0050998Y0070902D02*
X0061604Y0070902D01*
X0062348Y0071900D02*
X0050998Y0071900D01*
X0050591Y0072899D02*
X0063347Y0072899D01*
X0069060Y0072899D02*
X0076064Y0072899D01*
X0075884Y0072719D02*
X0075154Y0070955D01*
X0075154Y0069045D01*
X0075884Y0067281D01*
X0077235Y0065931D01*
X0078999Y0065200D01*
X0080908Y0065200D01*
X0082673Y0065931D01*
X0084023Y0067281D01*
X0084754Y0069045D01*
X0084754Y0070955D01*
X0084023Y0072719D01*
X0082673Y0074069D01*
X0080908Y0074800D01*
X0078999Y0074800D01*
X0077235Y0074069D01*
X0075884Y0072719D01*
X0075545Y0071900D02*
X0070059Y0071900D01*
X0070804Y0070902D02*
X0075154Y0070902D01*
X0075154Y0069903D02*
X0070804Y0069903D01*
X0070804Y0068905D02*
X0075212Y0068905D01*
X0075625Y0067906D02*
X0070804Y0067906D01*
X0070367Y0066908D02*
X0076258Y0066908D01*
X0077287Y0065909D02*
X0069368Y0065909D01*
X0068370Y0064911D02*
X0150654Y0064911D01*
X0150654Y0065909D02*
X0082620Y0065909D01*
X0083649Y0066908D02*
X0150654Y0066908D01*
X0150654Y0067906D02*
X0084282Y0067906D01*
X0084695Y0068905D02*
X0150654Y0068905D01*
X0150654Y0069903D02*
X0084754Y0069903D01*
X0084754Y0070902D02*
X0150654Y0070902D01*
X0150654Y0071900D02*
X0084362Y0071900D01*
X0083843Y0072899D02*
X0150654Y0072899D01*
X0150654Y0073897D02*
X0082844Y0073897D01*
X0082584Y0075894D02*
X0150654Y0075894D01*
X0150654Y0074896D02*
X0049252Y0074896D01*
X0050177Y0073897D02*
X0077063Y0073897D01*
X0077323Y0075894D02*
X0047887Y0075894D01*
X0048856Y0076893D02*
X0076273Y0076893D01*
X0075884Y0077281D02*
X0077235Y0075931D01*
X0078999Y0075200D01*
X0080908Y0075200D01*
X0082673Y0075931D01*
X0084023Y0077281D01*
X0084754Y0079045D01*
X0084754Y0080955D01*
X0084023Y0082719D01*
X0082673Y0084069D01*
X0080908Y0084800D01*
X0078999Y0084800D01*
X0077235Y0084069D01*
X0075884Y0082719D01*
X0075154Y0080955D01*
X0075154Y0079045D01*
X0075884Y0077281D01*
X0075631Y0077891D02*
X0049855Y0077891D01*
X0050427Y0078890D02*
X0075218Y0078890D01*
X0075154Y0079888D02*
X0050840Y0079888D01*
X0050998Y0080887D02*
X0075154Y0080887D01*
X0075539Y0081885D02*
X0050998Y0081885D01*
X0050858Y0082884D02*
X0076049Y0082884D01*
X0077048Y0083882D02*
X0050445Y0083882D01*
X0051091Y0084881D02*
X0150654Y0084881D01*
X0150654Y0085879D02*
X0082549Y0085879D01*
X0082673Y0085931D02*
X0084023Y0087281D01*
X0084754Y0089045D01*
X0084754Y0090955D01*
X0084023Y0092719D01*
X0082673Y0094069D01*
X0080908Y0094800D01*
X0078999Y0094800D01*
X0077235Y0094069D01*
X0075884Y0092719D01*
X0075154Y0090955D01*
X0075154Y0089045D01*
X0075884Y0087281D01*
X0077235Y0085931D01*
X0078999Y0085200D01*
X0080908Y0085200D01*
X0082673Y0085931D01*
X0083620Y0086878D02*
X0141417Y0086878D01*
X0141801Y0086719D02*
X0140595Y0087218D01*
X0139672Y0088141D01*
X0139172Y0089347D01*
X0139172Y0090653D01*
X0139672Y0091859D01*
X0140595Y0092782D01*
X0141801Y0093281D01*
X0143106Y0093281D01*
X0144312Y0092782D01*
X0145235Y0091859D01*
X0145259Y0091800D01*
X0150654Y0091800D01*
X0150654Y0175944D01*
X0150595Y0175968D01*
X0149672Y0176891D01*
X0149172Y0178097D01*
X0149172Y0179403D01*
X0149672Y0180609D01*
X0150595Y0181532D01*
X0151801Y0182031D01*
X0153106Y0182031D01*
X0154312Y0181532D01*
X0155154Y0180690D01*
X0155154Y0180955D01*
X0155884Y0182719D01*
X0157235Y0184069D01*
X0158999Y0184800D01*
X0160908Y0184800D01*
X0162673Y0184069D01*
X0164023Y0182719D01*
X0164754Y0180955D01*
X0164754Y0179045D01*
X0164023Y0177281D01*
X0162673Y0175931D01*
X0160908Y0175200D01*
X0158999Y0175200D01*
X0157235Y0175931D01*
X0155884Y0177281D01*
X0155640Y0177870D01*
X0155235Y0176891D01*
X0154312Y0175968D01*
X0154254Y0175944D01*
X0154254Y0042500D01*
X0154277Y0042319D01*
X0154459Y0042005D01*
X0154772Y0041824D01*
X0154954Y0041800D01*
X0155504Y0041800D01*
X0155884Y0042719D01*
X0157235Y0044069D01*
X0158999Y0044800D01*
X0160908Y0044800D01*
X0162673Y0044069D01*
X0164023Y0042719D01*
X0164754Y0040955D01*
X0164754Y0039045D01*
X0164023Y0037281D01*
X0162673Y0035931D01*
X0160908Y0035200D01*
X0158999Y0035200D01*
X0157235Y0035931D01*
X0155884Y0037281D01*
X0155504Y0038200D01*
X0153801Y0038200D01*
X0151806Y0039352D01*
X0151806Y0039352D01*
X0150654Y0041348D01*
X0150654Y0088200D01*
X0145259Y0088200D01*
X0145235Y0088141D01*
X0144312Y0087218D01*
X0143106Y0086719D01*
X0141801Y0086719D01*
X0143490Y0086878D02*
X0150654Y0086878D01*
X0150654Y0087876D02*
X0144970Y0087876D01*
X0142454Y0090000D02*
X0152454Y0090000D01*
X0152454Y0178750D01*
X0149172Y0178741D02*
X0146754Y0178741D01*
X0146754Y0179739D02*
X0149312Y0179739D01*
X0149801Y0180738D02*
X0146754Y0180738D01*
X0146754Y0181737D02*
X0151090Y0181737D01*
X0147980Y0183734D02*
X0156899Y0183734D01*
X0155900Y0182735D02*
X0147329Y0182735D01*
X0148235Y0184732D02*
X0158835Y0184732D01*
X0161072Y0184732D02*
X0178079Y0184732D01*
X0177367Y0183734D02*
X0163008Y0183734D01*
X0164007Y0182735D02*
X0176654Y0182735D01*
X0175942Y0181737D02*
X0164430Y0181737D01*
X0164754Y0180738D02*
X0175230Y0180738D01*
X0178227Y0178741D02*
X0189962Y0178741D01*
X0189443Y0177742D02*
X0177966Y0177742D01*
X0178304Y0176744D02*
X0189029Y0176744D01*
X0188909Y0175745D02*
X0178304Y0175745D01*
X0178304Y0174747D02*
X0188909Y0174747D01*
X0189086Y0173748D02*
X0178304Y0173748D01*
X0177459Y0172750D02*
X0189500Y0172750D01*
X0190100Y0171751D02*
X0176460Y0171751D01*
X0173704Y0175500D02*
X0194639Y0204843D01*
X0198887Y0208696D02*
X0201904Y0208696D01*
X0201904Y0207698D02*
X0199657Y0207698D01*
X0200071Y0206699D02*
X0201904Y0206699D01*
X0201904Y0205701D02*
X0200368Y0205701D01*
X0200368Y0204702D02*
X0201904Y0204702D01*
X0201904Y0203704D02*
X0200368Y0203704D01*
X0199954Y0202705D02*
X0201904Y0202705D01*
X0201904Y0201707D02*
X0199541Y0201707D01*
X0198606Y0200708D02*
X0201904Y0200708D01*
X0201904Y0199710D02*
X0198034Y0199710D01*
X0199032Y0198711D02*
X0201904Y0198711D01*
X0201904Y0197713D02*
X0199580Y0197713D01*
X0199994Y0196714D02*
X0201904Y0196714D01*
X0201904Y0195716D02*
X0200091Y0195716D01*
X0200091Y0194717D02*
X0201904Y0194717D01*
X0201904Y0193719D02*
X0199847Y0193719D01*
X0199433Y0192720D02*
X0201904Y0192720D01*
X0201904Y0191722D02*
X0198678Y0191722D01*
X0197963Y0190723D02*
X0201904Y0190723D01*
X0201904Y0189725D02*
X0198961Y0189725D01*
X0199688Y0188726D02*
X0201904Y0188726D01*
X0201904Y0187728D02*
X0200101Y0187728D01*
X0200368Y0186729D02*
X0201904Y0186729D01*
X0201904Y0185731D02*
X0200368Y0185731D01*
X0200337Y0184732D02*
X0201904Y0184732D01*
X0201904Y0183734D02*
X0199924Y0183734D01*
X0199510Y0182735D02*
X0201904Y0182735D01*
X0201904Y0181737D02*
X0198532Y0181737D01*
X0197039Y0180738D02*
X0201904Y0180738D01*
X0201904Y0179739D02*
X0198316Y0179739D01*
X0199315Y0178741D02*
X0201904Y0178741D01*
X0201904Y0177742D02*
X0199834Y0177742D01*
X0200248Y0176744D02*
X0201904Y0176744D01*
X0201904Y0175745D02*
X0200368Y0175745D01*
X0200368Y0174747D02*
X0201904Y0174747D01*
X0201904Y0173748D02*
X0200191Y0173748D01*
X0199777Y0172750D02*
X0201904Y0172750D01*
X0201904Y0171751D02*
X0199177Y0171751D01*
X0198179Y0170753D02*
X0201904Y0170753D01*
X0201904Y0169754D02*
X0196254Y0169754D01*
X0198207Y0168756D02*
X0201904Y0168756D01*
X0201904Y0167757D02*
X0199206Y0167757D01*
X0199789Y0166759D02*
X0201904Y0166759D01*
X0201904Y0165760D02*
X0200203Y0165760D01*
X0200368Y0164762D02*
X0201904Y0164762D01*
X0201577Y0163763D02*
X0200368Y0163763D01*
X0200236Y0162765D02*
X0200780Y0162765D01*
X0200422Y0161766D02*
X0199822Y0161766D01*
X0199286Y0160768D02*
X0200422Y0160768D01*
X0200765Y0159769D02*
X0198288Y0159769D01*
X0197108Y0158771D02*
X0201543Y0158771D01*
X0201860Y0157772D02*
X0198561Y0157772D01*
X0199522Y0156774D02*
X0201847Y0156774D01*
X0201835Y0155775D02*
X0199936Y0155775D01*
X0200349Y0154777D02*
X0201823Y0154777D01*
X0201810Y0153778D02*
X0200368Y0153778D01*
X0200368Y0152780D02*
X0201798Y0152780D01*
X0201785Y0151781D02*
X0200089Y0151781D01*
X0199676Y0150783D02*
X0201773Y0150783D01*
X0201760Y0149784D02*
X0198932Y0149784D01*
X0197934Y0148786D02*
X0201748Y0148786D01*
X0201735Y0147787D02*
X0198707Y0147787D01*
X0199445Y0146789D02*
X0201723Y0146789D01*
X0201710Y0145790D02*
X0199859Y0145790D01*
X0200091Y0144792D02*
X0201698Y0144792D01*
X0201685Y0143793D02*
X0200091Y0143793D01*
X0199982Y0142795D02*
X0201673Y0142795D01*
X0201660Y0141796D02*
X0199568Y0141796D01*
X0199004Y0140798D02*
X0201648Y0140798D01*
X0201635Y0139799D02*
X0198005Y0139799D01*
X0198635Y0138801D02*
X0201623Y0138801D01*
X0201610Y0137802D02*
X0199553Y0137802D01*
X0199966Y0136803D02*
X0201598Y0136803D01*
X0201585Y0135805D02*
X0200368Y0135805D01*
X0200368Y0134806D02*
X0201573Y0134806D01*
X0201560Y0133808D02*
X0200368Y0133808D01*
X0200059Y0132809D02*
X0201548Y0132809D01*
X0201535Y0131811D02*
X0199645Y0131811D01*
X0198858Y0130812D02*
X0201523Y0130812D01*
X0201510Y0129814D02*
X0197826Y0129814D01*
X0197990Y0128815D02*
X0201498Y0128815D01*
X0201486Y0127817D02*
X0198989Y0127817D01*
X0199699Y0126818D02*
X0201473Y0126818D01*
X0201461Y0125820D02*
X0200113Y0125820D01*
X0200368Y0124821D02*
X0201448Y0124821D01*
X0201436Y0123823D02*
X0200368Y0123823D01*
X0200326Y0122824D02*
X0201423Y0122824D01*
X0201411Y0121826D02*
X0199912Y0121826D01*
X0199499Y0120827D02*
X0201398Y0120827D01*
X0201386Y0119829D02*
X0198505Y0119829D01*
X0196972Y0118830D02*
X0201373Y0118830D01*
X0201361Y0117832D02*
X0197878Y0117832D01*
X0198880Y0116833D02*
X0201348Y0116833D01*
X0201336Y0115835D02*
X0199654Y0115835D01*
X0200068Y0114836D02*
X0201323Y0114836D01*
X0201026Y0113838D02*
X0200368Y0113838D01*
X0203079Y0111250D02*
X0203704Y0061875D01*
X0200422Y0061915D02*
X0200368Y0061915D01*
X0200368Y0060917D02*
X0200549Y0060917D01*
X0200092Y0059918D02*
X0201020Y0059918D01*
X0202265Y0058920D02*
X0199679Y0058920D01*
X0198939Y0057921D02*
X0210020Y0057921D01*
X0209701Y0058240D02*
X0211235Y0056706D01*
X0213239Y0055876D01*
X0215408Y0055876D01*
X0217412Y0056706D01*
X0218946Y0058240D01*
X0219776Y0060244D01*
X0219776Y0062413D01*
X0218946Y0064417D01*
X0217412Y0065951D01*
X0215408Y0066781D01*
X0213239Y0066781D01*
X0211235Y0065951D01*
X0209701Y0064417D01*
X0208871Y0062413D01*
X0208871Y0060244D01*
X0209701Y0058240D01*
X0209419Y0058920D02*
X0205143Y0058920D01*
X0206387Y0059918D02*
X0209006Y0059918D01*
X0208871Y0060917D02*
X0206858Y0060917D01*
X0206985Y0061915D02*
X0208871Y0061915D01*
X0209078Y0062914D02*
X0206825Y0062914D01*
X0206307Y0063912D02*
X0209492Y0063912D01*
X0210194Y0064911D02*
X0205465Y0064911D01*
X0205453Y0065909D02*
X0211193Y0065909D01*
X0212154Y0067906D02*
X0205427Y0067906D01*
X0205440Y0066908D02*
X0223331Y0066908D01*
X0223326Y0067906D02*
X0216493Y0067906D01*
X0215463Y0067480D02*
X0217569Y0068352D01*
X0219181Y0069963D01*
X0220053Y0072069D01*
X0220053Y0074348D01*
X0219181Y0076454D01*
X0217569Y0078066D01*
X0215463Y0078938D01*
X0213184Y0078938D01*
X0211078Y0078066D01*
X0209467Y0076454D01*
X0208594Y0074348D01*
X0208594Y0072069D01*
X0209467Y0069963D01*
X0211078Y0068352D01*
X0213184Y0067480D01*
X0215463Y0067480D01*
X0217455Y0065909D02*
X0223336Y0065909D01*
X0223341Y0064911D02*
X0218453Y0064911D01*
X0219156Y0063912D02*
X0223347Y0063912D01*
X0223352Y0062914D02*
X0219569Y0062914D01*
X0219776Y0061915D02*
X0223357Y0061915D01*
X0223362Y0060917D02*
X0219776Y0060917D01*
X0219641Y0059918D02*
X0223367Y0059918D01*
X0223373Y0058920D02*
X0219228Y0058920D01*
X0218627Y0057921D02*
X0223378Y0057921D01*
X0223383Y0056923D02*
X0217629Y0056923D01*
X0215524Y0055924D02*
X0223388Y0055924D01*
X0223394Y0054926D02*
X0198908Y0054926D01*
X0199666Y0053927D02*
X0223399Y0053927D01*
X0223404Y0052929D02*
X0200079Y0052929D01*
X0200368Y0051930D02*
X0223409Y0051930D01*
X0223414Y0050932D02*
X0200368Y0050932D01*
X0200359Y0049933D02*
X0223420Y0049933D01*
X0223425Y0048934D02*
X0199946Y0048934D01*
X0199532Y0047936D02*
X0213052Y0047936D01*
X0213070Y0047944D02*
X0210755Y0046985D01*
X0208983Y0045212D01*
X0208024Y0042897D01*
X0208024Y0040391D01*
X0208983Y0038075D01*
X0210755Y0036303D01*
X0213070Y0035344D01*
X0215577Y0035344D01*
X0217892Y0036303D01*
X0219664Y0038075D01*
X0220624Y0040391D01*
X0220624Y0042897D01*
X0219664Y0045212D01*
X0217892Y0046985D01*
X0215577Y0047944D01*
X0213070Y0047944D01*
X0215595Y0047936D02*
X0223430Y0047936D01*
X0223435Y0046937D02*
X0217939Y0046937D01*
X0218938Y0045939D02*
X0223440Y0045939D01*
X0223446Y0044940D02*
X0219777Y0044940D01*
X0220191Y0043942D02*
X0223451Y0043942D01*
X0223456Y0042943D02*
X0220604Y0042943D01*
X0220624Y0041945D02*
X0223461Y0041945D01*
X0223467Y0040946D02*
X0220624Y0040946D01*
X0220440Y0039948D02*
X0223472Y0039948D01*
X0223477Y0038949D02*
X0220027Y0038949D01*
X0219540Y0037951D02*
X0223482Y0037951D01*
X0223487Y0036952D02*
X0218542Y0036952D01*
X0217050Y0035954D02*
X0223493Y0035954D01*
X0223498Y0034955D02*
X0199696Y0034955D01*
X0200110Y0033957D02*
X0223503Y0033957D01*
X0223508Y0032958D02*
X0200368Y0032958D01*
X0200368Y0031960D02*
X0223513Y0031960D01*
X0223519Y0030961D02*
X0200329Y0030961D01*
X0199915Y0029963D02*
X0223524Y0029963D01*
X0223529Y0028964D02*
X0199502Y0028964D01*
X0198512Y0027966D02*
X0223534Y0027966D01*
X0223540Y0026967D02*
X0217203Y0026967D01*
X0217569Y0026816D02*
X0215463Y0027688D01*
X0213184Y0027688D01*
X0211078Y0026816D01*
X0209467Y0025204D01*
X0208594Y0023098D01*
X0208594Y0020819D01*
X0209467Y0018713D01*
X0211078Y0017102D01*
X0213184Y0016230D01*
X0215463Y0016230D01*
X0217569Y0017102D01*
X0219181Y0018713D01*
X0220053Y0020819D01*
X0220053Y0023098D01*
X0219181Y0025204D01*
X0217569Y0026816D01*
X0218416Y0025969D02*
X0223545Y0025969D01*
X0223550Y0024970D02*
X0219277Y0024970D01*
X0219691Y0023972D02*
X0223555Y0023972D01*
X0223560Y0022973D02*
X0220053Y0022973D01*
X0220053Y0021975D02*
X0223566Y0021975D01*
X0223571Y0020976D02*
X0220053Y0020976D01*
X0219704Y0019978D02*
X0223576Y0019978D01*
X0223581Y0018979D02*
X0219291Y0018979D01*
X0218448Y0017981D02*
X0223587Y0017981D01*
X0223592Y0016982D02*
X0217280Y0016982D01*
X0211367Y0016982D02*
X0198158Y0016982D01*
X0199156Y0017981D02*
X0210199Y0017981D01*
X0209357Y0018979D02*
X0199769Y0018979D01*
X0200182Y0019978D02*
X0208943Y0019978D01*
X0208594Y0020976D02*
X0200368Y0020976D01*
X0200368Y0021975D02*
X0208594Y0021975D01*
X0208594Y0022973D02*
X0200256Y0022973D01*
X0199843Y0023972D02*
X0208956Y0023972D01*
X0209370Y0024970D02*
X0199336Y0024970D01*
X0198337Y0025969D02*
X0210231Y0025969D01*
X0211445Y0026967D02*
X0196989Y0026967D01*
X0192288Y0026967D02*
X0178304Y0026967D01*
X0178304Y0025969D02*
X0190940Y0025969D01*
X0189942Y0024970D02*
X0178304Y0024970D01*
X0178304Y0023972D02*
X0189434Y0023972D01*
X0189021Y0022973D02*
X0177682Y0022973D01*
X0176684Y0021975D02*
X0188909Y0021975D01*
X0188909Y0020976D02*
X0175685Y0020976D01*
X0171722Y0020976D02*
X0160308Y0020976D01*
X0161306Y0019978D02*
X0189095Y0019978D01*
X0189508Y0018979D02*
X0161977Y0018979D01*
X0162391Y0017981D02*
X0190121Y0017981D01*
X0191119Y0016982D02*
X0162804Y0016982D01*
X0162965Y0015984D02*
X0193142Y0015984D01*
X0196135Y0015984D02*
X0223597Y0015984D01*
X0223602Y0014985D02*
X0162965Y0014985D01*
X0162965Y0013987D02*
X0223607Y0013987D01*
X0223613Y0012988D02*
X0162792Y0012988D01*
X0162378Y0011990D02*
X0223618Y0011990D01*
X0223623Y0010991D02*
X0161965Y0010991D01*
X0161277Y0009993D02*
X0223628Y0009993D01*
X0223633Y0008994D02*
X0160278Y0008994D01*
X0158979Y0007996D02*
X0223639Y0007996D01*
X0211597Y0035954D02*
X0198982Y0035954D01*
X0197983Y0036952D02*
X0210105Y0036952D01*
X0209107Y0037951D02*
X0198657Y0037951D01*
X0199425Y0038949D02*
X0208621Y0038949D01*
X0208207Y0039948D02*
X0199838Y0039948D01*
X0200091Y0040946D02*
X0208024Y0040946D01*
X0208024Y0041945D02*
X0200091Y0041945D01*
X0200002Y0042943D02*
X0208043Y0042943D01*
X0208457Y0043942D02*
X0199589Y0043942D01*
X0199053Y0044940D02*
X0208870Y0044940D01*
X0209709Y0045939D02*
X0198055Y0045939D01*
X0198586Y0046937D02*
X0210708Y0046937D01*
X0213123Y0055924D02*
X0197909Y0055924D01*
X0197941Y0056923D02*
X0211018Y0056923D01*
X0200582Y0062914D02*
X0200346Y0062914D01*
X0199933Y0063912D02*
X0201101Y0063912D01*
X0201865Y0064911D02*
X0199519Y0064911D01*
X0198554Y0065909D02*
X0201852Y0065909D01*
X0201840Y0066908D02*
X0197091Y0066908D01*
X0197759Y0067906D02*
X0201827Y0067906D01*
X0201814Y0068905D02*
X0198831Y0068905D01*
X0199634Y0069903D02*
X0201802Y0069903D01*
X0201789Y0070902D02*
X0200047Y0070902D01*
X0200368Y0071900D02*
X0201777Y0071900D01*
X0201764Y0072899D02*
X0200368Y0072899D01*
X0200368Y0073897D02*
X0201751Y0073897D01*
X0201739Y0074896D02*
X0199978Y0074896D01*
X0199564Y0075894D02*
X0201726Y0075894D01*
X0201713Y0076893D02*
X0198663Y0076893D01*
X0197354Y0077891D02*
X0201701Y0077891D01*
X0201688Y0078890D02*
X0198186Y0078890D01*
X0199184Y0079888D02*
X0201675Y0079888D01*
X0201663Y0080887D02*
X0199780Y0080887D01*
X0200194Y0081885D02*
X0201650Y0081885D01*
X0201637Y0082884D02*
X0200368Y0082884D01*
X0200368Y0083882D02*
X0201625Y0083882D01*
X0201612Y0084881D02*
X0200245Y0084881D01*
X0199831Y0085879D02*
X0201600Y0085879D01*
X0201587Y0086878D02*
X0199308Y0086878D01*
X0198309Y0087876D02*
X0201574Y0087876D01*
X0201562Y0088875D02*
X0198331Y0088875D01*
X0199290Y0089873D02*
X0201549Y0089873D01*
X0201536Y0090872D02*
X0199703Y0090872D01*
X0200091Y0091870D02*
X0201524Y0091870D01*
X0201511Y0092869D02*
X0200091Y0092869D01*
X0200091Y0093868D02*
X0201498Y0093868D01*
X0201486Y0094866D02*
X0199724Y0094866D01*
X0199310Y0095865D02*
X0201473Y0095865D01*
X0201461Y0096863D02*
X0198381Y0096863D01*
X0198260Y0097862D02*
X0201448Y0097862D01*
X0201435Y0098860D02*
X0199258Y0098860D01*
X0199811Y0099859D02*
X0201423Y0099859D01*
X0201410Y0100857D02*
X0200224Y0100857D01*
X0200368Y0101856D02*
X0201397Y0101856D01*
X0201385Y0102854D02*
X0200368Y0102854D01*
X0200214Y0103853D02*
X0201372Y0103853D01*
X0201359Y0104851D02*
X0199801Y0104851D01*
X0199234Y0105850D02*
X0201347Y0105850D01*
X0201334Y0106848D02*
X0198235Y0106848D01*
X0197235Y0107847D02*
X0201321Y0107847D01*
X0200843Y0108845D02*
X0198614Y0108845D01*
X0199544Y0109844D02*
X0200110Y0109844D01*
X0203079Y0111250D02*
X0203704Y0161250D01*
X0203704Y0213750D01*
X0203704Y0220000D01*
X0205504Y0219680D02*
X0211213Y0219680D01*
X0211235Y0219701D02*
X0209701Y0218167D01*
X0208871Y0216163D01*
X0208871Y0213994D01*
X0209701Y0211990D01*
X0211235Y0210456D01*
X0213239Y0209626D01*
X0215408Y0209626D01*
X0217412Y0210456D01*
X0218946Y0211990D01*
X0219776Y0213994D01*
X0219776Y0216163D01*
X0218946Y0218167D01*
X0217412Y0219701D01*
X0215408Y0220531D01*
X0213239Y0220531D01*
X0211235Y0219701D01*
X0210215Y0218681D02*
X0205504Y0218681D01*
X0205504Y0217683D02*
X0209500Y0217683D01*
X0209087Y0216684D02*
X0205504Y0216684D01*
X0206408Y0215686D02*
X0208871Y0215686D01*
X0208871Y0214687D02*
X0206867Y0214687D01*
X0206985Y0213689D02*
X0208997Y0213689D01*
X0209411Y0212690D02*
X0206816Y0212690D01*
X0206286Y0211692D02*
X0209999Y0211692D01*
X0210998Y0210693D02*
X0205504Y0210693D01*
X0205504Y0209695D02*
X0213073Y0209695D01*
X0215574Y0209695D02*
X0222585Y0209695D01*
X0222580Y0210693D02*
X0217650Y0210693D01*
X0218648Y0211692D02*
X0222575Y0211692D01*
X0222570Y0212690D02*
X0219236Y0212690D01*
X0219650Y0213689D02*
X0222564Y0213689D01*
X0222559Y0214687D02*
X0219776Y0214687D01*
X0219776Y0215686D02*
X0222554Y0215686D01*
X0222549Y0216684D02*
X0219561Y0216684D01*
X0219147Y0217683D02*
X0222544Y0217683D01*
X0222538Y0218681D02*
X0218432Y0218681D01*
X0217434Y0219680D02*
X0222533Y0219680D01*
X0222528Y0220678D02*
X0205504Y0220678D01*
X0205369Y0221677D02*
X0222523Y0221677D01*
X0222517Y0222675D02*
X0204956Y0222675D01*
X0204542Y0223674D02*
X0222512Y0223674D01*
X0222507Y0224672D02*
X0203648Y0224672D01*
X0204468Y0223852D02*
X0204468Y0223852D01*
X0202649Y0225671D02*
X0222502Y0225671D01*
X0222497Y0226670D02*
X0200371Y0226670D01*
X0198704Y0225000D02*
X0167454Y0225000D01*
X0166075Y0226670D02*
X0065459Y0226670D01*
X0065466Y0226695D02*
X0064734Y0223961D01*
X0063319Y0221510D01*
X0061317Y0219509D01*
X0058866Y0218094D01*
X0056132Y0217361D01*
X0053302Y0217361D01*
X0050568Y0218094D01*
X0048117Y0219509D01*
X0046116Y0221510D01*
X0044701Y0223961D01*
X0043969Y0226695D01*
X0043969Y0229525D01*
X0044701Y0232259D01*
X0046116Y0234710D01*
X0048117Y0236711D01*
X0050568Y0238127D01*
X0053302Y0238859D01*
X0056132Y0238859D01*
X0058866Y0238127D01*
X0061317Y0236711D01*
X0063319Y0234710D01*
X0064734Y0232259D01*
X0065466Y0229525D01*
X0065466Y0226695D01*
X0065466Y0227668D02*
X0211719Y0227668D01*
X0209957Y0228667D02*
X0065466Y0228667D01*
X0065429Y0229665D02*
X0208958Y0229665D01*
X0208078Y0230664D02*
X0065161Y0230664D01*
X0064894Y0231662D02*
X0207664Y0231662D01*
X0207251Y0232661D02*
X0064502Y0232661D01*
X0063925Y0233659D02*
X0206942Y0233659D01*
X0206942Y0234658D02*
X0063349Y0234658D01*
X0062373Y0235656D02*
X0206942Y0235656D01*
X0206967Y0236655D02*
X0061374Y0236655D01*
X0059686Y0237653D02*
X0207381Y0237653D01*
X0207794Y0238652D02*
X0056906Y0238652D01*
X0052528Y0238652D02*
X0032113Y0238652D01*
X0032527Y0237653D02*
X0049748Y0237653D01*
X0048061Y0236655D02*
X0032940Y0236655D01*
X0032965Y0235656D02*
X0047062Y0235656D01*
X0046086Y0234658D02*
X0032965Y0234658D01*
X0032965Y0233659D02*
X0045509Y0233659D01*
X0044933Y0232661D02*
X0032656Y0232661D01*
X0032243Y0231662D02*
X0044541Y0231662D01*
X0044273Y0230664D02*
X0031829Y0230664D01*
X0030949Y0229665D02*
X0044006Y0229665D01*
X0043969Y0228667D02*
X0029950Y0228667D01*
X0028188Y0227668D02*
X0043969Y0227668D01*
X0043975Y0226670D02*
X0017454Y0226670D01*
X0017454Y0227668D02*
X0021719Y0227668D01*
X0019957Y0228667D02*
X0017454Y0228667D01*
X0017454Y0229665D02*
X0018958Y0229665D01*
X0018078Y0230664D02*
X0017454Y0230664D01*
X0017454Y0231662D02*
X0017664Y0231662D01*
X0017454Y0225671D02*
X0044243Y0225671D01*
X0044510Y0224672D02*
X0017454Y0224672D01*
X0017454Y0223674D02*
X0044867Y0223674D01*
X0045443Y0222675D02*
X0017454Y0222675D01*
X0017454Y0221677D02*
X0046020Y0221677D01*
X0046948Y0220678D02*
X0017454Y0220678D01*
X0017454Y0219680D02*
X0039365Y0219680D01*
X0039151Y0219623D02*
X0036700Y0218207D01*
X0034699Y0216206D01*
X0033284Y0213755D01*
X0032551Y0211021D01*
X0032551Y0208191D01*
X0033284Y0205457D01*
X0034699Y0203006D01*
X0036700Y0201005D01*
X0039151Y0199590D01*
X0041885Y0198857D01*
X0044715Y0198857D01*
X0047449Y0199590D01*
X0049900Y0201005D01*
X0051901Y0203006D01*
X0053316Y0205457D01*
X0054049Y0208191D01*
X0054049Y0211021D01*
X0053316Y0213755D01*
X0051901Y0216206D01*
X0049900Y0218207D01*
X0047449Y0219623D01*
X0044715Y0220355D01*
X0041885Y0220355D01*
X0039151Y0219623D01*
X0037521Y0218681D02*
X0017454Y0218681D01*
X0017454Y0217683D02*
X0036175Y0217683D01*
X0035177Y0216684D02*
X0017454Y0216684D01*
X0017454Y0215686D02*
X0034398Y0215686D01*
X0033822Y0214687D02*
X0017454Y0214687D01*
X0017454Y0213689D02*
X0033266Y0213689D01*
X0032998Y0212690D02*
X0017454Y0212690D01*
X0017454Y0211692D02*
X0032731Y0211692D01*
X0032551Y0210693D02*
X0017454Y0210693D01*
X0017454Y0209695D02*
X0032551Y0209695D01*
X0032551Y0208696D02*
X0017454Y0208696D01*
X0017454Y0207698D02*
X0032683Y0207698D01*
X0032951Y0206699D02*
X0017454Y0206699D01*
X0017454Y0205701D02*
X0033218Y0205701D01*
X0033720Y0204702D02*
X0017454Y0204702D01*
X0017454Y0203704D02*
X0034296Y0203704D01*
X0035000Y0202705D02*
X0017454Y0202705D01*
X0017454Y0201707D02*
X0035998Y0201707D01*
X0037214Y0200708D02*
X0017454Y0200708D01*
X0017454Y0199710D02*
X0038944Y0199710D01*
X0038653Y0196714D02*
X0017454Y0196714D01*
X0017454Y0195716D02*
X0036923Y0195716D01*
X0036268Y0194717D02*
X0017454Y0194717D01*
X0017454Y0193719D02*
X0035692Y0193719D01*
X0035654Y0192720D02*
X0017454Y0192720D01*
X0017454Y0191722D02*
X0035654Y0191722D01*
X0035654Y0190723D02*
X0017454Y0190723D01*
X0017454Y0189725D02*
X0035654Y0189725D01*
X0035654Y0188726D02*
X0017454Y0188726D01*
X0017454Y0187728D02*
X0035654Y0187728D01*
X0035654Y0186729D02*
X0017454Y0186729D01*
X0017454Y0185731D02*
X0035654Y0185731D01*
X0035654Y0184732D02*
X0017454Y0184732D01*
X0017454Y0183734D02*
X0035654Y0183734D01*
X0035654Y0182735D02*
X0017454Y0182735D01*
X0017454Y0181737D02*
X0035654Y0181737D01*
X0035654Y0180738D02*
X0017454Y0180738D01*
X0017454Y0179739D02*
X0035654Y0179739D01*
X0035654Y0178741D02*
X0017454Y0178741D01*
X0017454Y0177742D02*
X0035654Y0177742D01*
X0035654Y0176744D02*
X0017454Y0176744D01*
X0017454Y0175745D02*
X0035654Y0175745D01*
X0035654Y0174747D02*
X0017454Y0174747D01*
X0017454Y0173748D02*
X0035654Y0173748D01*
X0035654Y0172750D02*
X0017454Y0172750D01*
X0017454Y0171751D02*
X0035654Y0171751D01*
X0035654Y0170753D02*
X0017454Y0170753D01*
X0017454Y0169754D02*
X0035654Y0169754D01*
X0035654Y0168756D02*
X0017454Y0168756D01*
X0017454Y0167757D02*
X0035654Y0167757D01*
X0035654Y0166759D02*
X0028562Y0166759D01*
X0028829Y0166648D02*
X0026723Y0167520D01*
X0024444Y0167520D01*
X0022338Y0166648D01*
X0020727Y0165037D01*
X0019854Y0162931D01*
X0019854Y0160652D01*
X0020727Y0158546D01*
X0022338Y0156934D01*
X0024444Y0156062D01*
X0026723Y0156062D01*
X0028829Y0156934D01*
X0030440Y0158546D01*
X0031313Y0160652D01*
X0031313Y0162931D01*
X0030440Y0165037D01*
X0028829Y0166648D01*
X0029717Y0165760D02*
X0035654Y0165760D01*
X0035654Y0164762D02*
X0030554Y0164762D01*
X0030968Y0163763D02*
X0035654Y0163763D01*
X0035654Y0162765D02*
X0031313Y0162765D01*
X0031313Y0161766D02*
X0035654Y0161766D01*
X0035654Y0160768D02*
X0031313Y0160768D01*
X0030947Y0159769D02*
X0035654Y0159769D01*
X0035654Y0158771D02*
X0030533Y0158771D01*
X0029667Y0157772D02*
X0035654Y0157772D01*
X0035654Y0156774D02*
X0028441Y0156774D01*
X0022726Y0156774D02*
X0017454Y0156774D01*
X0017454Y0157772D02*
X0021500Y0157772D01*
X0020633Y0158771D02*
X0017454Y0158771D01*
X0017454Y0159769D02*
X0020220Y0159769D01*
X0019854Y0160768D02*
X0017454Y0160768D01*
X0017454Y0161766D02*
X0019854Y0161766D01*
X0019854Y0162765D02*
X0017454Y0162765D01*
X0017454Y0163763D02*
X0020199Y0163763D01*
X0020613Y0164762D02*
X0017454Y0164762D01*
X0017454Y0165760D02*
X0021450Y0165760D01*
X0022605Y0166759D02*
X0017454Y0166759D01*
X0017454Y0155775D02*
X0035654Y0155775D01*
X0035654Y0154777D02*
X0017454Y0154777D01*
X0017454Y0153778D02*
X0035654Y0153778D01*
X0035654Y0152780D02*
X0017454Y0152780D01*
X0017454Y0151781D02*
X0035654Y0151781D01*
X0035654Y0150783D02*
X0017454Y0150783D01*
X0017454Y0149784D02*
X0035654Y0149784D01*
X0035654Y0148786D02*
X0017454Y0148786D01*
X0017454Y0147787D02*
X0022836Y0147787D01*
X0022015Y0147447D02*
X0020243Y0145675D01*
X0019283Y0143359D01*
X0019283Y0140853D01*
X0020243Y0138538D01*
X0022015Y0136765D01*
X0024330Y0135806D01*
X0026837Y0135806D01*
X0029152Y0136765D01*
X0030924Y0138538D01*
X0031883Y0140853D01*
X0031883Y0143359D01*
X0030924Y0145675D01*
X0029152Y0147447D01*
X0026837Y0148406D01*
X0024330Y0148406D01*
X0022015Y0147447D01*
X0021356Y0146789D02*
X0017454Y0146789D01*
X0017454Y0145790D02*
X0020358Y0145790D01*
X0019877Y0144792D02*
X0017454Y0144792D01*
X0017454Y0143793D02*
X0019463Y0143793D01*
X0019283Y0142795D02*
X0017454Y0142795D01*
X0017454Y0141796D02*
X0019283Y0141796D01*
X0019306Y0140798D02*
X0017454Y0140798D01*
X0017454Y0139799D02*
X0019720Y0139799D01*
X0020134Y0138801D02*
X0017454Y0138801D01*
X0017454Y0137802D02*
X0020978Y0137802D01*
X0021977Y0136803D02*
X0017454Y0136803D01*
X0017454Y0135805D02*
X0035654Y0135805D01*
X0035654Y0136803D02*
X0029190Y0136803D01*
X0030189Y0137802D02*
X0035654Y0137802D01*
X0035654Y0138801D02*
X0031033Y0138801D01*
X0031447Y0139799D02*
X0035654Y0139799D01*
X0035654Y0140798D02*
X0031860Y0140798D01*
X0031883Y0141796D02*
X0035654Y0141796D01*
X0035654Y0142795D02*
X0031883Y0142795D01*
X0031704Y0143793D02*
X0035654Y0143793D01*
X0035654Y0144792D02*
X0031290Y0144792D01*
X0030809Y0145790D02*
X0035654Y0145790D01*
X0035654Y0146789D02*
X0029811Y0146789D01*
X0028331Y0147787D02*
X0035654Y0147787D01*
X0039254Y0147787D02*
X0040934Y0147787D01*
X0040214Y0148786D02*
X0039254Y0148786D01*
X0039254Y0149784D02*
X0039801Y0149784D01*
X0039539Y0150783D02*
X0039254Y0150783D01*
X0039254Y0151781D02*
X0039539Y0151781D01*
X0039575Y0152780D02*
X0039254Y0152780D01*
X0039254Y0153778D02*
X0039988Y0153778D01*
X0040402Y0154777D02*
X0039254Y0154777D01*
X0039254Y0155775D02*
X0041386Y0155775D01*
X0042896Y0156774D02*
X0039254Y0156774D01*
X0039254Y0157772D02*
X0041579Y0157772D01*
X0040581Y0158771D02*
X0039254Y0158771D01*
X0039254Y0159769D02*
X0040068Y0159769D01*
X0039654Y0160768D02*
X0039254Y0160768D01*
X0039254Y0161766D02*
X0039539Y0161766D01*
X0039539Y0162765D02*
X0039254Y0162765D01*
X0039254Y0163763D02*
X0039721Y0163763D01*
X0040135Y0164762D02*
X0039254Y0164762D01*
X0039254Y0165760D02*
X0040742Y0165760D01*
X0041740Y0166759D02*
X0039254Y0166759D01*
X0039254Y0167757D02*
X0043750Y0167757D01*
X0046787Y0167757D02*
X0051931Y0167757D01*
X0052529Y0166759D02*
X0048797Y0166759D01*
X0049795Y0165760D02*
X0052529Y0165760D01*
X0052529Y0164762D02*
X0050402Y0164762D01*
X0050816Y0163763D02*
X0052529Y0163763D01*
X0052529Y0162765D02*
X0050998Y0162765D01*
X0050998Y0161766D02*
X0052529Y0161766D01*
X0051936Y0160768D02*
X0050883Y0160768D01*
X0050937Y0159769D02*
X0050469Y0159769D01*
X0054329Y0160615D02*
X0054329Y0170000D01*
X0057365Y0168756D02*
X0061479Y0168756D01*
X0061310Y0168349D02*
X0061310Y0166651D01*
X0061960Y0165082D01*
X0063161Y0163881D01*
X0064729Y0163231D01*
X0066428Y0163231D01*
X0067996Y0163881D01*
X0069197Y0165082D01*
X0069847Y0166651D01*
X0069847Y0168349D01*
X0069197Y0169918D01*
X0067996Y0171119D01*
X0066428Y0171768D01*
X0064729Y0171768D01*
X0063161Y0171119D01*
X0061960Y0169918D01*
X0061310Y0168349D01*
X0061310Y0167757D02*
X0056726Y0167757D01*
X0056129Y0166759D02*
X0061310Y0166759D01*
X0061679Y0165760D02*
X0056129Y0165760D01*
X0056129Y0164762D02*
X0062280Y0164762D01*
X0063446Y0163763D02*
X0056129Y0163763D01*
X0056129Y0162765D02*
X0075930Y0162765D01*
X0075490Y0161766D02*
X0056129Y0161766D01*
X0056129Y0160768D02*
X0075154Y0160768D01*
X0075154Y0159769D02*
X0056028Y0159769D01*
X0055030Y0158771D02*
X0075267Y0158771D01*
X0075681Y0157772D02*
X0068187Y0157772D01*
X0069185Y0156774D02*
X0076392Y0156774D01*
X0077610Y0155775D02*
X0070184Y0155775D01*
X0070804Y0154777D02*
X0078943Y0154777D01*
X0080965Y0154777D02*
X0133154Y0154777D01*
X0133154Y0155775D02*
X0126488Y0155775D01*
X0124954Y0157500D02*
X0082454Y0157500D01*
X0082356Y0157502D01*
X0082258Y0157508D01*
X0082160Y0157517D01*
X0082063Y0157531D01*
X0081966Y0157548D01*
X0081870Y0157569D01*
X0081775Y0157594D01*
X0081681Y0157622D01*
X0081589Y0157655D01*
X0081497Y0157690D01*
X0081407Y0157730D01*
X0081319Y0157772D01*
X0081232Y0157819D01*
X0081148Y0157868D01*
X0081065Y0157921D01*
X0080985Y0157977D01*
X0080906Y0158037D01*
X0080830Y0158099D01*
X0080757Y0158164D01*
X0080686Y0158232D01*
X0080618Y0158303D01*
X0080553Y0158376D01*
X0080491Y0158452D01*
X0080431Y0158531D01*
X0080375Y0158611D01*
X0080322Y0158694D01*
X0080273Y0158778D01*
X0080226Y0158865D01*
X0080184Y0158953D01*
X0080144Y0159043D01*
X0080109Y0159135D01*
X0080076Y0159227D01*
X0080048Y0159321D01*
X0080023Y0159416D01*
X0080002Y0159512D01*
X0079985Y0159609D01*
X0079971Y0159706D01*
X0079962Y0159804D01*
X0079956Y0159902D01*
X0079954Y0160000D01*
X0082978Y0163763D02*
X0119414Y0163763D01*
X0119172Y0164762D02*
X0081000Y0164762D01*
X0080908Y0165200D02*
X0082673Y0165931D01*
X0084023Y0167281D01*
X0084754Y0169045D01*
X0084754Y0170955D01*
X0084023Y0172719D01*
X0082673Y0174069D01*
X0080908Y0174800D01*
X0078999Y0174800D01*
X0077235Y0174069D01*
X0075884Y0172719D01*
X0075154Y0170955D01*
X0075154Y0169045D01*
X0075884Y0167281D01*
X0077235Y0165931D01*
X0078999Y0165200D01*
X0080908Y0165200D01*
X0082261Y0165760D02*
X0119217Y0165760D01*
X0119631Y0166759D02*
X0083501Y0166759D01*
X0084220Y0167757D02*
X0120571Y0167757D01*
X0120654Y0168756D02*
X0084634Y0168756D01*
X0084754Y0169754D02*
X0120654Y0169754D01*
X0120654Y0170753D02*
X0084754Y0170753D01*
X0084424Y0171751D02*
X0120654Y0171751D01*
X0120654Y0172750D02*
X0083992Y0172750D01*
X0082993Y0173748D02*
X0120654Y0173748D01*
X0120654Y0174747D02*
X0081036Y0174747D01*
X0080908Y0175200D02*
X0082673Y0175931D01*
X0084023Y0177281D01*
X0084754Y0179045D01*
X0084754Y0180955D01*
X0084023Y0182719D01*
X0082673Y0184069D01*
X0080908Y0184800D01*
X0078999Y0184800D01*
X0077235Y0184069D01*
X0075884Y0182719D01*
X0075154Y0180955D01*
X0075154Y0179045D01*
X0075884Y0177281D01*
X0077235Y0175931D01*
X0078999Y0175200D01*
X0080908Y0175200D01*
X0082225Y0175745D02*
X0120654Y0175745D01*
X0120654Y0176744D02*
X0083486Y0176744D01*
X0084214Y0177742D02*
X0120654Y0177742D01*
X0120654Y0178741D02*
X0084627Y0178741D01*
X0084754Y0179739D02*
X0120654Y0179739D01*
X0120654Y0180738D02*
X0084754Y0180738D01*
X0084430Y0181737D02*
X0120654Y0181737D01*
X0120654Y0182735D02*
X0084007Y0182735D01*
X0083008Y0183734D02*
X0120654Y0183734D01*
X0120654Y0184732D02*
X0081072Y0184732D01*
X0078835Y0184732D02*
X0068847Y0184732D01*
X0069197Y0185082D02*
X0069847Y0186651D01*
X0069847Y0188349D01*
X0069197Y0189918D01*
X0067996Y0191119D01*
X0066428Y0191768D01*
X0064729Y0191768D01*
X0063161Y0191119D01*
X0061960Y0189918D01*
X0061310Y0188349D01*
X0061310Y0186651D01*
X0061960Y0185082D01*
X0063161Y0183881D01*
X0064729Y0183231D01*
X0066428Y0183231D01*
X0067996Y0183881D01*
X0069197Y0185082D01*
X0069466Y0185731D02*
X0120654Y0185731D01*
X0120654Y0186729D02*
X0069847Y0186729D01*
X0069847Y0187728D02*
X0081575Y0187728D01*
X0079897Y0188726D02*
X0069691Y0188726D01*
X0069277Y0189725D02*
X0078899Y0189725D01*
X0078053Y0190723D02*
X0068392Y0190723D01*
X0066541Y0191722D02*
X0077640Y0191722D01*
X0077226Y0192720D02*
X0039300Y0192720D01*
X0037454Y0192500D02*
X0037456Y0192598D01*
X0037462Y0192696D01*
X0037471Y0192794D01*
X0037485Y0192891D01*
X0037502Y0192988D01*
X0037523Y0193084D01*
X0037548Y0193179D01*
X0037576Y0193273D01*
X0037609Y0193365D01*
X0037644Y0193457D01*
X0037684Y0193547D01*
X0037726Y0193635D01*
X0037773Y0193722D01*
X0037822Y0193806D01*
X0037875Y0193889D01*
X0037931Y0193969D01*
X0037991Y0194048D01*
X0038053Y0194124D01*
X0038118Y0194197D01*
X0038186Y0194268D01*
X0038257Y0194336D01*
X0038330Y0194401D01*
X0038406Y0194463D01*
X0038485Y0194523D01*
X0038565Y0194579D01*
X0038648Y0194632D01*
X0038732Y0194681D01*
X0038819Y0194728D01*
X0038907Y0194770D01*
X0038997Y0194810D01*
X0039089Y0194845D01*
X0039181Y0194878D01*
X0039275Y0194906D01*
X0039370Y0194931D01*
X0039466Y0194952D01*
X0039563Y0194969D01*
X0039660Y0194983D01*
X0039758Y0194992D01*
X0039856Y0194998D01*
X0039954Y0195000D01*
X0069954Y0195000D01*
X0078704Y0203750D01*
X0104954Y0203750D01*
X0104954Y0199375D01*
X0107262Y0201707D02*
X0120654Y0201707D01*
X0120654Y0200708D02*
X0107953Y0200708D01*
X0108235Y0199710D02*
X0120654Y0199710D01*
X0120654Y0198711D02*
X0108230Y0198711D01*
X0107816Y0197713D02*
X0120654Y0197713D01*
X0120654Y0196714D02*
X0106933Y0196714D01*
X0102974Y0196714D02*
X0092915Y0196714D01*
X0092965Y0195716D02*
X0120654Y0195716D01*
X0120654Y0194717D02*
X0092965Y0194717D01*
X0092965Y0193719D02*
X0120654Y0193719D01*
X0120654Y0192720D02*
X0092681Y0192720D01*
X0092268Y0191722D02*
X0120654Y0191722D01*
X0120654Y0190723D02*
X0091854Y0190723D01*
X0091009Y0189725D02*
X0120654Y0189725D01*
X0120654Y0188726D02*
X0090010Y0188726D01*
X0088332Y0187728D02*
X0120654Y0187728D01*
X0124254Y0187728D02*
X0128154Y0187728D01*
X0128154Y0188726D02*
X0124254Y0188726D01*
X0124254Y0189725D02*
X0128154Y0189725D01*
X0128154Y0190723D02*
X0124254Y0190723D01*
X0124254Y0191722D02*
X0128154Y0191722D01*
X0128154Y0192720D02*
X0124254Y0192720D01*
X0124254Y0193719D02*
X0128154Y0193719D01*
X0128154Y0194717D02*
X0124254Y0194717D01*
X0124254Y0195716D02*
X0128154Y0195716D01*
X0128154Y0196714D02*
X0124254Y0196714D01*
X0124254Y0197713D02*
X0127601Y0197713D01*
X0126936Y0198711D02*
X0124254Y0198711D01*
X0124254Y0199710D02*
X0126672Y0199710D01*
X0126695Y0200708D02*
X0124254Y0200708D01*
X0124254Y0201707D02*
X0127109Y0201707D01*
X0122454Y0203750D02*
X0122454Y0165000D01*
X0125493Y0163763D02*
X0128154Y0163763D01*
X0128154Y0162765D02*
X0124859Y0162765D01*
X0129954Y0162500D02*
X0129952Y0162360D01*
X0129946Y0162220D01*
X0129936Y0162080D01*
X0129923Y0161940D01*
X0129905Y0161801D01*
X0129883Y0161662D01*
X0129858Y0161525D01*
X0129829Y0161387D01*
X0129796Y0161251D01*
X0129759Y0161116D01*
X0129718Y0160982D01*
X0129673Y0160849D01*
X0129625Y0160717D01*
X0129573Y0160587D01*
X0129518Y0160458D01*
X0129459Y0160331D01*
X0129396Y0160205D01*
X0129330Y0160081D01*
X0129261Y0159960D01*
X0129188Y0159840D01*
X0129111Y0159722D01*
X0129032Y0159607D01*
X0128949Y0159493D01*
X0128863Y0159383D01*
X0128774Y0159274D01*
X0128682Y0159168D01*
X0128587Y0159065D01*
X0128490Y0158964D01*
X0128389Y0158867D01*
X0128286Y0158772D01*
X0128180Y0158680D01*
X0128071Y0158591D01*
X0127961Y0158505D01*
X0127847Y0158422D01*
X0127732Y0158343D01*
X0127614Y0158266D01*
X0127494Y0158193D01*
X0127373Y0158124D01*
X0127249Y0158058D01*
X0127123Y0157995D01*
X0126996Y0157936D01*
X0126867Y0157881D01*
X0126737Y0157829D01*
X0126605Y0157781D01*
X0126472Y0157736D01*
X0126338Y0157695D01*
X0126203Y0157658D01*
X0126067Y0157625D01*
X0125929Y0157596D01*
X0125792Y0157571D01*
X0125653Y0157549D01*
X0125514Y0157531D01*
X0125374Y0157518D01*
X0125234Y0157508D01*
X0125094Y0157502D01*
X0124954Y0157500D01*
X0126562Y0159769D02*
X0084754Y0159769D01*
X0084754Y0160768D02*
X0127633Y0160768D01*
X0128047Y0161766D02*
X0123221Y0161766D01*
X0121686Y0161766D02*
X0084417Y0161766D01*
X0083977Y0162765D02*
X0120049Y0162765D01*
X0125735Y0164762D02*
X0128154Y0164762D01*
X0128154Y0165760D02*
X0125690Y0165760D01*
X0125276Y0166759D02*
X0128154Y0166759D01*
X0128154Y0167757D02*
X0124336Y0167757D01*
X0124254Y0168756D02*
X0128154Y0168756D01*
X0128154Y0169754D02*
X0124254Y0169754D01*
X0124254Y0170753D02*
X0128154Y0170753D01*
X0128154Y0171751D02*
X0124254Y0171751D01*
X0124254Y0172750D02*
X0128154Y0172750D01*
X0128154Y0173748D02*
X0124254Y0173748D01*
X0124254Y0174747D02*
X0128154Y0174747D01*
X0128154Y0175745D02*
X0124254Y0175745D01*
X0124254Y0176744D02*
X0128154Y0176744D01*
X0128154Y0177742D02*
X0124254Y0177742D01*
X0124254Y0178741D02*
X0128154Y0178741D01*
X0128154Y0179739D02*
X0124254Y0179739D01*
X0124254Y0180738D02*
X0128154Y0180738D01*
X0128154Y0181737D02*
X0124254Y0181737D01*
X0124254Y0182735D02*
X0128154Y0182735D01*
X0128154Y0183734D02*
X0124254Y0183734D01*
X0124254Y0184732D02*
X0128154Y0184732D01*
X0128154Y0185731D02*
X0124254Y0185731D01*
X0124254Y0186729D02*
X0128154Y0186729D01*
X0131754Y0186729D02*
X0133154Y0186729D01*
X0133154Y0185731D02*
X0131754Y0185731D01*
X0131754Y0184732D02*
X0133154Y0184732D01*
X0133154Y0183734D02*
X0131754Y0183734D01*
X0131754Y0182735D02*
X0133154Y0182735D01*
X0133154Y0181737D02*
X0131754Y0181737D01*
X0131754Y0180738D02*
X0133154Y0180738D01*
X0133154Y0179739D02*
X0131754Y0179739D01*
X0131754Y0178741D02*
X0133154Y0178741D01*
X0133154Y0177742D02*
X0131754Y0177742D01*
X0131754Y0176744D02*
X0133154Y0176744D01*
X0133154Y0175745D02*
X0131754Y0175745D01*
X0131754Y0174747D02*
X0133154Y0174747D01*
X0133154Y0173748D02*
X0131754Y0173748D01*
X0131754Y0172750D02*
X0133154Y0172750D01*
X0133154Y0171751D02*
X0131754Y0171751D01*
X0131754Y0170753D02*
X0133154Y0170753D01*
X0133154Y0169754D02*
X0131754Y0169754D01*
X0131754Y0168756D02*
X0133154Y0168756D01*
X0133154Y0167757D02*
X0131754Y0167757D01*
X0131754Y0166759D02*
X0133154Y0166759D01*
X0133154Y0165760D02*
X0131754Y0165760D01*
X0131754Y0164762D02*
X0133154Y0164762D01*
X0133154Y0163763D02*
X0131754Y0163763D01*
X0131754Y0162765D02*
X0133154Y0162765D01*
X0133154Y0161766D02*
X0131754Y0161766D01*
X0131596Y0160768D02*
X0133154Y0160768D01*
X0133154Y0159769D02*
X0131183Y0159769D01*
X0130769Y0158771D02*
X0133154Y0158771D01*
X0133154Y0157772D02*
X0129842Y0157772D01*
X0128844Y0156774D02*
X0133154Y0156774D01*
X0133154Y0153778D02*
X0082964Y0153778D01*
X0083962Y0152780D02*
X0133154Y0152780D01*
X0134954Y0152500D02*
X0134952Y0152402D01*
X0134946Y0152304D01*
X0134937Y0152206D01*
X0134923Y0152109D01*
X0134906Y0152012D01*
X0134885Y0151916D01*
X0134860Y0151821D01*
X0134832Y0151727D01*
X0134799Y0151635D01*
X0134764Y0151543D01*
X0134724Y0151453D01*
X0134682Y0151365D01*
X0134635Y0151278D01*
X0134586Y0151194D01*
X0134533Y0151111D01*
X0134477Y0151031D01*
X0134417Y0150952D01*
X0134355Y0150876D01*
X0134290Y0150803D01*
X0134222Y0150732D01*
X0134151Y0150664D01*
X0134078Y0150599D01*
X0134002Y0150537D01*
X0133923Y0150477D01*
X0133843Y0150421D01*
X0133760Y0150368D01*
X0133676Y0150319D01*
X0133589Y0150272D01*
X0133501Y0150230D01*
X0133411Y0150190D01*
X0133319Y0150155D01*
X0133227Y0150122D01*
X0133133Y0150094D01*
X0133038Y0150069D01*
X0132942Y0150048D01*
X0132845Y0150031D01*
X0132748Y0150017D01*
X0132650Y0150008D01*
X0132552Y0150002D01*
X0132454Y0150000D01*
X0079954Y0150000D01*
X0076944Y0153778D02*
X0070804Y0153778D01*
X0070804Y0152780D02*
X0075945Y0152780D01*
X0075496Y0151781D02*
X0070804Y0151781D01*
X0070242Y0150783D02*
X0075154Y0150783D01*
X0075154Y0149784D02*
X0069243Y0149784D01*
X0068245Y0148786D02*
X0075261Y0148786D01*
X0075675Y0147787D02*
X0063217Y0147787D01*
X0062201Y0146789D02*
X0076377Y0146789D01*
X0077574Y0145790D02*
X0061186Y0145790D01*
X0060171Y0144792D02*
X0078978Y0144792D01*
X0080929Y0144792D02*
X0138154Y0144792D01*
X0138154Y0145790D02*
X0082333Y0145790D01*
X0083530Y0146789D02*
X0138154Y0146789D01*
X0138154Y0147787D02*
X0084232Y0147787D01*
X0082949Y0143793D02*
X0138154Y0143793D01*
X0138154Y0142795D02*
X0083947Y0142795D01*
X0079954Y0140000D02*
X0137454Y0140000D01*
X0139646Y0138801D02*
X0143154Y0138801D01*
X0143154Y0139799D02*
X0140859Y0139799D01*
X0140601Y0139352D02*
X0140601Y0139352D01*
X0141436Y0140798D02*
X0143154Y0140798D01*
X0143154Y0141796D02*
X0141754Y0141796D01*
X0141754Y0142795D02*
X0143154Y0142795D01*
X0143154Y0143793D02*
X0141754Y0143793D01*
X0141754Y0144792D02*
X0143154Y0144792D01*
X0143154Y0145790D02*
X0141754Y0145790D01*
X0141754Y0146789D02*
X0143154Y0146789D01*
X0143154Y0147787D02*
X0141754Y0147787D01*
X0141754Y0148786D02*
X0143154Y0148786D01*
X0143154Y0149784D02*
X0141754Y0149784D01*
X0141754Y0150783D02*
X0143154Y0150783D01*
X0143154Y0151781D02*
X0141754Y0151781D01*
X0141754Y0152780D02*
X0143154Y0152780D01*
X0143154Y0153778D02*
X0141754Y0153778D01*
X0141754Y0154777D02*
X0143154Y0154777D01*
X0143154Y0155775D02*
X0141754Y0155775D01*
X0141754Y0156774D02*
X0143154Y0156774D01*
X0143154Y0157772D02*
X0141754Y0157772D01*
X0141754Y0158771D02*
X0143154Y0158771D01*
X0143154Y0159769D02*
X0141754Y0159769D01*
X0141754Y0160768D02*
X0143154Y0160768D01*
X0143154Y0161766D02*
X0141754Y0161766D01*
X0141754Y0162765D02*
X0143154Y0162765D01*
X0143154Y0163763D02*
X0141754Y0163763D01*
X0141754Y0164762D02*
X0143154Y0164762D01*
X0143154Y0165760D02*
X0141754Y0165760D01*
X0141754Y0166759D02*
X0143154Y0166759D01*
X0143154Y0167757D02*
X0141754Y0167757D01*
X0141754Y0168756D02*
X0143154Y0168756D01*
X0143154Y0169754D02*
X0141754Y0169754D01*
X0141754Y0170753D02*
X0143154Y0170753D01*
X0143154Y0171751D02*
X0141754Y0171751D01*
X0141754Y0172750D02*
X0143154Y0172750D01*
X0143154Y0173748D02*
X0141754Y0173748D01*
X0141754Y0174747D02*
X0143154Y0174747D01*
X0143154Y0175745D02*
X0141754Y0175745D01*
X0141754Y0176744D02*
X0143154Y0176744D01*
X0143154Y0177742D02*
X0141754Y0177742D01*
X0141754Y0178741D02*
X0143154Y0178741D01*
X0143154Y0179739D02*
X0141754Y0179739D01*
X0141754Y0180738D02*
X0143154Y0180738D01*
X0143154Y0181737D02*
X0141754Y0181737D01*
X0141754Y0182735D02*
X0142578Y0182735D01*
X0141927Y0183734D02*
X0141754Y0183734D01*
X0141754Y0186729D02*
X0142118Y0186729D01*
X0142321Y0187728D02*
X0143041Y0187728D01*
X0142977Y0188726D02*
X0149897Y0188726D01*
X0148899Y0189725D02*
X0143235Y0189725D01*
X0143205Y0190723D02*
X0148053Y0190723D01*
X0147640Y0191722D02*
X0142792Y0191722D01*
X0141874Y0192720D02*
X0147226Y0192720D01*
X0146942Y0193719D02*
X0137974Y0193719D01*
X0138034Y0192720D02*
X0137314Y0192720D01*
X0137115Y0191722D02*
X0136754Y0191722D01*
X0136754Y0188726D02*
X0136930Y0188726D01*
X0136754Y0187728D02*
X0137586Y0187728D01*
X0138154Y0186729D02*
X0136754Y0186729D01*
X0136754Y0185731D02*
X0138154Y0185731D01*
X0138154Y0184732D02*
X0136754Y0184732D01*
X0136754Y0183734D02*
X0138154Y0183734D01*
X0138154Y0182735D02*
X0136754Y0182735D01*
X0136754Y0181737D02*
X0138154Y0181737D01*
X0138154Y0180738D02*
X0136754Y0180738D01*
X0136754Y0179739D02*
X0138154Y0179739D01*
X0138154Y0178741D02*
X0136754Y0178741D01*
X0136754Y0177742D02*
X0138154Y0177742D01*
X0138154Y0176744D02*
X0136754Y0176744D01*
X0136754Y0175745D02*
X0138154Y0175745D01*
X0138154Y0174747D02*
X0136754Y0174747D01*
X0136754Y0173748D02*
X0138154Y0173748D01*
X0138154Y0172750D02*
X0136754Y0172750D01*
X0136754Y0171751D02*
X0138154Y0171751D01*
X0138154Y0170753D02*
X0136754Y0170753D01*
X0136754Y0169754D02*
X0138154Y0169754D01*
X0138154Y0168756D02*
X0136754Y0168756D01*
X0136754Y0167757D02*
X0138154Y0167757D01*
X0138154Y0166759D02*
X0136754Y0166759D01*
X0136754Y0165760D02*
X0138154Y0165760D01*
X0138154Y0164762D02*
X0136754Y0164762D01*
X0136754Y0163763D02*
X0138154Y0163763D01*
X0138154Y0162765D02*
X0136754Y0162765D01*
X0136754Y0161766D02*
X0138154Y0161766D01*
X0138154Y0160768D02*
X0136754Y0160768D01*
X0136754Y0159769D02*
X0138154Y0159769D01*
X0138154Y0158771D02*
X0136754Y0158771D01*
X0136754Y0157772D02*
X0138154Y0157772D01*
X0138154Y0156774D02*
X0136754Y0156774D01*
X0136754Y0155775D02*
X0138154Y0155775D01*
X0138154Y0154777D02*
X0136754Y0154777D01*
X0136754Y0153778D02*
X0138154Y0153778D01*
X0138154Y0152780D02*
X0136754Y0152780D01*
X0136754Y0151781D02*
X0138154Y0151781D01*
X0138154Y0150783D02*
X0136427Y0150783D01*
X0135851Y0149784D02*
X0138154Y0149784D01*
X0138154Y0148786D02*
X0134620Y0148786D01*
X0135601Y0149352D02*
X0135601Y0149352D01*
X0134954Y0152500D02*
X0134954Y0195000D01*
X0132593Y0192720D02*
X0131754Y0192720D01*
X0131754Y0191722D02*
X0133154Y0191722D01*
X0133154Y0190723D02*
X0131754Y0190723D01*
X0131754Y0189725D02*
X0133154Y0189725D01*
X0133154Y0188726D02*
X0131754Y0188726D01*
X0131754Y0187728D02*
X0133154Y0187728D01*
X0131933Y0193719D02*
X0131754Y0193719D01*
X0131754Y0196714D02*
X0132112Y0196714D01*
X0132306Y0197713D02*
X0133026Y0197713D01*
X0132971Y0198711D02*
X0147819Y0198711D01*
X0147405Y0197713D02*
X0136881Y0197713D01*
X0137795Y0196714D02*
X0146992Y0196714D01*
X0146942Y0195716D02*
X0138209Y0195716D01*
X0138235Y0194717D02*
X0146942Y0194717D01*
X0148333Y0199710D02*
X0133235Y0199710D01*
X0133212Y0200708D02*
X0149331Y0200708D01*
X0150330Y0201707D02*
X0132798Y0201707D01*
X0129954Y0200000D02*
X0129954Y0162500D01*
X0146754Y0162765D02*
X0150654Y0162765D01*
X0150654Y0163763D02*
X0146754Y0163763D01*
X0146754Y0164762D02*
X0150654Y0164762D01*
X0150654Y0165760D02*
X0146754Y0165760D01*
X0146754Y0166759D02*
X0150654Y0166759D01*
X0150654Y0167757D02*
X0146754Y0167757D01*
X0146754Y0168756D02*
X0150654Y0168756D01*
X0150654Y0169754D02*
X0146754Y0169754D01*
X0146754Y0170753D02*
X0150654Y0170753D01*
X0150654Y0171751D02*
X0146754Y0171751D01*
X0146754Y0172750D02*
X0150654Y0172750D01*
X0150654Y0173748D02*
X0146754Y0173748D01*
X0146754Y0174747D02*
X0150654Y0174747D01*
X0150654Y0175745D02*
X0146754Y0175745D01*
X0146754Y0176744D02*
X0149819Y0176744D01*
X0149319Y0177742D02*
X0146754Y0177742D01*
X0144954Y0185000D02*
X0144954Y0122500D01*
X0146754Y0122824D02*
X0150654Y0122824D01*
X0150654Y0121826D02*
X0146754Y0121826D01*
X0146453Y0120827D02*
X0150654Y0120827D01*
X0150654Y0119829D02*
X0145877Y0119829D01*
X0145601Y0119352D02*
X0145601Y0119352D01*
X0144697Y0118830D02*
X0150654Y0118830D01*
X0150654Y0117832D02*
X0142425Y0117832D01*
X0140882Y0116833D02*
X0150654Y0116833D01*
X0150654Y0115835D02*
X0082441Y0115835D01*
X0082673Y0115931D02*
X0084023Y0117281D01*
X0084754Y0119045D01*
X0084754Y0120955D01*
X0084023Y0122719D01*
X0082673Y0124069D01*
X0080908Y0124800D01*
X0078999Y0124800D01*
X0077235Y0124069D01*
X0075884Y0122719D01*
X0075154Y0120955D01*
X0075154Y0119045D01*
X0075884Y0117281D01*
X0077235Y0115931D01*
X0078999Y0115200D01*
X0080908Y0115200D01*
X0082673Y0115931D01*
X0083575Y0116833D02*
X0139025Y0116833D01*
X0137482Y0117832D02*
X0084251Y0117832D01*
X0084665Y0118830D02*
X0136887Y0118830D01*
X0136672Y0119829D02*
X0084754Y0119829D01*
X0084754Y0120827D02*
X0136745Y0120827D01*
X0137158Y0121826D02*
X0084393Y0121826D01*
X0083917Y0122824D02*
X0138198Y0122824D01*
X0139954Y0120000D02*
X0142454Y0120000D01*
X0142552Y0120002D01*
X0142650Y0120008D01*
X0142748Y0120017D01*
X0142845Y0120031D01*
X0142942Y0120048D01*
X0143038Y0120069D01*
X0143133Y0120094D01*
X0143227Y0120122D01*
X0143319Y0120155D01*
X0143411Y0120190D01*
X0143501Y0120230D01*
X0143589Y0120272D01*
X0143676Y0120319D01*
X0143760Y0120368D01*
X0143843Y0120421D01*
X0143923Y0120477D01*
X0144002Y0120537D01*
X0144078Y0120599D01*
X0144151Y0120664D01*
X0144222Y0120732D01*
X0144290Y0120803D01*
X0144355Y0120876D01*
X0144417Y0120952D01*
X0144477Y0121031D01*
X0144533Y0121111D01*
X0144586Y0121194D01*
X0144635Y0121278D01*
X0144682Y0121365D01*
X0144724Y0121453D01*
X0144764Y0121543D01*
X0144799Y0121635D01*
X0144832Y0121727D01*
X0144860Y0121821D01*
X0144885Y0121916D01*
X0144906Y0122012D01*
X0144923Y0122109D01*
X0144937Y0122206D01*
X0144946Y0122304D01*
X0144952Y0122402D01*
X0144954Y0122500D01*
X0143154Y0122824D02*
X0141709Y0122824D01*
X0143154Y0123823D02*
X0082919Y0123823D01*
X0082405Y0125820D02*
X0143154Y0125820D01*
X0143154Y0126818D02*
X0083560Y0126818D01*
X0084023Y0127281D02*
X0082673Y0125931D01*
X0080908Y0125200D01*
X0078999Y0125200D01*
X0077235Y0125931D01*
X0075884Y0127281D01*
X0075154Y0129045D01*
X0075154Y0130955D01*
X0075884Y0132719D01*
X0077235Y0134069D01*
X0078999Y0134800D01*
X0080908Y0134800D01*
X0082673Y0134069D01*
X0084023Y0132719D01*
X0084754Y0130955D01*
X0084754Y0129045D01*
X0084023Y0127281D01*
X0084245Y0127817D02*
X0143154Y0127817D01*
X0143154Y0128815D02*
X0084658Y0128815D01*
X0084754Y0129814D02*
X0143154Y0129814D01*
X0143154Y0130812D02*
X0084754Y0130812D01*
X0084399Y0131811D02*
X0143154Y0131811D01*
X0143154Y0132809D02*
X0083932Y0132809D01*
X0082934Y0133808D02*
X0143154Y0133808D01*
X0143154Y0134806D02*
X0050580Y0134806D01*
X0050993Y0133808D02*
X0076973Y0133808D01*
X0075975Y0132809D02*
X0050998Y0132809D01*
X0050998Y0131811D02*
X0075508Y0131811D01*
X0075154Y0130812D02*
X0050705Y0130812D01*
X0050292Y0129814D02*
X0075154Y0129814D01*
X0075249Y0128815D02*
X0049529Y0128815D01*
X0048530Y0127817D02*
X0075662Y0127817D01*
X0076347Y0126818D02*
X0048580Y0126818D01*
X0049578Y0125820D02*
X0077502Y0125820D01*
X0076988Y0123823D02*
X0068136Y0123823D01*
X0068109Y0123850D02*
X0064298Y0123850D01*
X0061604Y0121155D01*
X0061604Y0117345D01*
X0064298Y0114650D01*
X0068109Y0114650D01*
X0070804Y0117345D01*
X0070804Y0121155D01*
X0068109Y0123850D01*
X0069135Y0122824D02*
X0075990Y0122824D01*
X0075514Y0121826D02*
X0070133Y0121826D01*
X0070804Y0120827D02*
X0075154Y0120827D01*
X0075154Y0119829D02*
X0070804Y0119829D01*
X0070804Y0118830D02*
X0075243Y0118830D01*
X0075656Y0117832D02*
X0070804Y0117832D01*
X0070292Y0116833D02*
X0076332Y0116833D01*
X0077466Y0115835D02*
X0069294Y0115835D01*
X0068295Y0114836D02*
X0150654Y0114836D01*
X0150654Y0113838D02*
X0082904Y0113838D01*
X0082673Y0114069D02*
X0080908Y0114800D01*
X0078999Y0114800D01*
X0077235Y0114069D01*
X0075884Y0112719D01*
X0075154Y0110955D01*
X0075154Y0109045D01*
X0075884Y0107281D01*
X0077235Y0105931D01*
X0078999Y0105200D01*
X0080908Y0105200D01*
X0082673Y0105931D01*
X0084023Y0107281D01*
X0084754Y0109045D01*
X0084754Y0110955D01*
X0084023Y0112719D01*
X0082673Y0114069D01*
X0083903Y0112839D02*
X0150654Y0112839D01*
X0150654Y0111841D02*
X0084387Y0111841D01*
X0084754Y0110842D02*
X0150654Y0110842D01*
X0150654Y0109844D02*
X0084754Y0109844D01*
X0084671Y0108845D02*
X0150654Y0108845D01*
X0150654Y0107847D02*
X0084257Y0107847D01*
X0083590Y0106848D02*
X0150654Y0106848D01*
X0150654Y0105850D02*
X0082477Y0105850D01*
X0082673Y0104069D02*
X0080908Y0104800D01*
X0078999Y0104800D01*
X0077235Y0104069D01*
X0075884Y0102719D01*
X0075154Y0100955D01*
X0075154Y0099045D01*
X0075884Y0097281D01*
X0077235Y0095931D01*
X0078999Y0095200D01*
X0080908Y0095200D01*
X0082673Y0095931D01*
X0084023Y0097281D01*
X0084754Y0099045D01*
X0084754Y0100955D01*
X0084023Y0102719D01*
X0082673Y0104069D01*
X0082889Y0103853D02*
X0150654Y0103853D01*
X0150654Y0104851D02*
X0070804Y0104851D01*
X0070804Y0103853D02*
X0077018Y0103853D01*
X0076019Y0102854D02*
X0070804Y0102854D01*
X0070804Y0101856D02*
X0075527Y0101856D01*
X0075154Y0100857D02*
X0070316Y0100857D01*
X0069317Y0099859D02*
X0075154Y0099859D01*
X0075230Y0098860D02*
X0068319Y0098860D01*
X0066204Y0103250D02*
X0045269Y0081407D01*
X0052048Y0085879D02*
X0077359Y0085879D01*
X0076287Y0086878D02*
X0053005Y0086878D01*
X0053962Y0087876D02*
X0075638Y0087876D01*
X0075224Y0088875D02*
X0054919Y0088875D01*
X0055876Y0089873D02*
X0075154Y0089873D01*
X0075154Y0090872D02*
X0056833Y0090872D01*
X0057790Y0091870D02*
X0075533Y0091870D01*
X0076034Y0092869D02*
X0058747Y0092869D01*
X0059704Y0093868D02*
X0077033Y0093868D01*
X0077394Y0095865D02*
X0061618Y0095865D01*
X0062575Y0096863D02*
X0076302Y0096863D01*
X0075644Y0097862D02*
X0063532Y0097862D01*
X0060460Y0099859D02*
X0050998Y0099859D01*
X0050998Y0100857D02*
X0061417Y0100857D01*
X0061604Y0101856D02*
X0050827Y0101856D01*
X0050414Y0102854D02*
X0061604Y0102854D01*
X0061604Y0103853D02*
X0049823Y0103853D01*
X0048825Y0104851D02*
X0061604Y0104851D01*
X0062298Y0105850D02*
X0047962Y0105850D01*
X0049284Y0106848D02*
X0063296Y0106848D01*
X0064295Y0107847D02*
X0050190Y0107847D01*
X0050604Y0108845D02*
X0075236Y0108845D01*
X0075154Y0109844D02*
X0050998Y0109844D01*
X0050998Y0110842D02*
X0075154Y0110842D01*
X0075521Y0111841D02*
X0050998Y0111841D01*
X0050681Y0112839D02*
X0076005Y0112839D01*
X0077003Y0113838D02*
X0050267Y0113838D01*
X0049470Y0114836D02*
X0064112Y0114836D01*
X0063113Y0115835D02*
X0048410Y0115835D01*
X0047699Y0116833D02*
X0062115Y0116833D01*
X0061604Y0117832D02*
X0049175Y0117832D01*
X0050145Y0118830D02*
X0061604Y0118830D01*
X0061604Y0119829D02*
X0050559Y0119829D01*
X0050973Y0120827D02*
X0061604Y0120827D01*
X0062274Y0121826D02*
X0050998Y0121826D01*
X0050998Y0122824D02*
X0063273Y0122824D01*
X0064271Y0123823D02*
X0050726Y0123823D01*
X0050312Y0124821D02*
X0143154Y0124821D01*
X0146754Y0124821D02*
X0150654Y0124821D01*
X0150654Y0123823D02*
X0146754Y0123823D01*
X0146754Y0125820D02*
X0150654Y0125820D01*
X0150654Y0126818D02*
X0146754Y0126818D01*
X0146754Y0127817D02*
X0150654Y0127817D01*
X0150654Y0128815D02*
X0146754Y0128815D01*
X0146754Y0129814D02*
X0150654Y0129814D01*
X0150654Y0130812D02*
X0146754Y0130812D01*
X0146754Y0131811D02*
X0150654Y0131811D01*
X0150654Y0132809D02*
X0146754Y0132809D01*
X0146754Y0133808D02*
X0150654Y0133808D01*
X0150654Y0134806D02*
X0146754Y0134806D01*
X0146754Y0135805D02*
X0150654Y0135805D01*
X0150654Y0136803D02*
X0146754Y0136803D01*
X0146754Y0137802D02*
X0150654Y0137802D01*
X0150654Y0138801D02*
X0146754Y0138801D01*
X0146754Y0139799D02*
X0150654Y0139799D01*
X0150654Y0140798D02*
X0146754Y0140798D01*
X0146754Y0141796D02*
X0150654Y0141796D01*
X0150654Y0142795D02*
X0146754Y0142795D01*
X0146754Y0143793D02*
X0150654Y0143793D01*
X0150654Y0144792D02*
X0146754Y0144792D01*
X0146754Y0145790D02*
X0150654Y0145790D01*
X0150654Y0146789D02*
X0146754Y0146789D01*
X0146754Y0147787D02*
X0150654Y0147787D01*
X0150654Y0148786D02*
X0146754Y0148786D01*
X0146754Y0149784D02*
X0150654Y0149784D01*
X0150654Y0150783D02*
X0146754Y0150783D01*
X0146754Y0151781D02*
X0150654Y0151781D01*
X0150654Y0152780D02*
X0146754Y0152780D01*
X0146754Y0153778D02*
X0150654Y0153778D01*
X0150654Y0154777D02*
X0146754Y0154777D01*
X0146754Y0155775D02*
X0150654Y0155775D01*
X0150654Y0156774D02*
X0146754Y0156774D01*
X0146754Y0157772D02*
X0150654Y0157772D01*
X0150654Y0158771D02*
X0146754Y0158771D01*
X0146754Y0159769D02*
X0150654Y0159769D01*
X0150654Y0160768D02*
X0146754Y0160768D01*
X0146754Y0161766D02*
X0150654Y0161766D01*
X0154254Y0161766D02*
X0155490Y0161766D01*
X0155154Y0160955D02*
X0155154Y0159045D01*
X0155884Y0157281D01*
X0157235Y0155931D01*
X0158999Y0155200D01*
X0160908Y0155200D01*
X0162673Y0155931D01*
X0164023Y0157281D01*
X0164754Y0159045D01*
X0164754Y0160955D01*
X0164023Y0162719D01*
X0162673Y0164069D01*
X0160908Y0164800D01*
X0158999Y0164800D01*
X0157235Y0164069D01*
X0155884Y0162719D01*
X0155154Y0160955D01*
X0155154Y0160768D02*
X0154254Y0160768D01*
X0154254Y0159769D02*
X0155154Y0159769D01*
X0155267Y0158771D02*
X0154254Y0158771D01*
X0154254Y0157772D02*
X0155681Y0157772D01*
X0156392Y0156774D02*
X0154254Y0156774D01*
X0154254Y0155775D02*
X0157610Y0155775D01*
X0158943Y0154777D02*
X0154254Y0154777D01*
X0154254Y0153778D02*
X0156944Y0153778D01*
X0157235Y0154069D02*
X0155884Y0152719D01*
X0155154Y0150955D01*
X0155154Y0149045D01*
X0155884Y0147281D01*
X0157235Y0145931D01*
X0158999Y0145200D01*
X0160908Y0145200D01*
X0162673Y0145931D01*
X0164023Y0147281D01*
X0164754Y0149045D01*
X0164754Y0150955D01*
X0164023Y0152719D01*
X0162673Y0154069D01*
X0160908Y0154800D01*
X0158999Y0154800D01*
X0157235Y0154069D01*
X0155945Y0152780D02*
X0154254Y0152780D01*
X0154254Y0151781D02*
X0155496Y0151781D01*
X0155154Y0150783D02*
X0154254Y0150783D01*
X0154254Y0149784D02*
X0155154Y0149784D01*
X0155261Y0148786D02*
X0154254Y0148786D01*
X0154254Y0147787D02*
X0155675Y0147787D01*
X0156377Y0146789D02*
X0154254Y0146789D01*
X0154254Y0145790D02*
X0157574Y0145790D01*
X0158978Y0144792D02*
X0154254Y0144792D01*
X0154254Y0143793D02*
X0156958Y0143793D01*
X0157235Y0144069D02*
X0155884Y0142719D01*
X0155154Y0140955D01*
X0155154Y0139045D01*
X0155884Y0137281D01*
X0157235Y0135931D01*
X0158999Y0135200D01*
X0160908Y0135200D01*
X0162673Y0135931D01*
X0164023Y0137281D01*
X0164754Y0139045D01*
X0164754Y0140955D01*
X0164023Y0142719D01*
X0162673Y0144069D01*
X0160908Y0144800D01*
X0158999Y0144800D01*
X0157235Y0144069D01*
X0155960Y0142795D02*
X0154254Y0142795D01*
X0154254Y0141796D02*
X0155502Y0141796D01*
X0155154Y0140798D02*
X0154254Y0140798D01*
X0154254Y0139799D02*
X0155154Y0139799D01*
X0155255Y0138801D02*
X0154254Y0138801D01*
X0154254Y0137802D02*
X0155668Y0137802D01*
X0156362Y0136803D02*
X0154254Y0136803D01*
X0154254Y0135805D02*
X0157538Y0135805D01*
X0157235Y0134069D02*
X0155884Y0132719D01*
X0155154Y0130955D01*
X0155154Y0129045D01*
X0155884Y0127281D01*
X0157235Y0125931D01*
X0158999Y0125200D01*
X0160908Y0125200D01*
X0162673Y0125931D01*
X0164023Y0127281D01*
X0164754Y0129045D01*
X0164754Y0130955D01*
X0164023Y0132719D01*
X0162673Y0134069D01*
X0160908Y0134800D01*
X0158999Y0134800D01*
X0157235Y0134069D01*
X0156973Y0133808D02*
X0154254Y0133808D01*
X0154254Y0134806D02*
X0177855Y0134806D01*
X0177265Y0133808D02*
X0162934Y0133808D01*
X0163932Y0132809D02*
X0176674Y0132809D01*
X0176084Y0131811D02*
X0164399Y0131811D01*
X0164754Y0130812D02*
X0175493Y0130812D01*
X0174903Y0129814D02*
X0164754Y0129814D01*
X0164658Y0128815D02*
X0171764Y0128815D01*
X0170765Y0127817D02*
X0164245Y0127817D01*
X0163560Y0126818D02*
X0169767Y0126818D01*
X0169104Y0125820D02*
X0162405Y0125820D01*
X0162673Y0124069D02*
X0160908Y0124800D01*
X0158999Y0124800D01*
X0157235Y0124069D01*
X0155884Y0122719D01*
X0155154Y0120955D01*
X0155154Y0119045D01*
X0155884Y0117281D01*
X0157235Y0115931D01*
X0158999Y0115200D01*
X0160908Y0115200D01*
X0162673Y0115931D01*
X0164023Y0117281D01*
X0164754Y0119045D01*
X0164754Y0120955D01*
X0164023Y0122719D01*
X0162673Y0124069D01*
X0162919Y0123823D02*
X0169104Y0123823D01*
X0169104Y0124821D02*
X0154254Y0124821D01*
X0154254Y0123823D02*
X0156988Y0123823D01*
X0155990Y0122824D02*
X0154254Y0122824D01*
X0154254Y0121826D02*
X0155514Y0121826D01*
X0155154Y0120827D02*
X0154254Y0120827D01*
X0154254Y0119829D02*
X0155154Y0119829D01*
X0155243Y0118830D02*
X0154254Y0118830D01*
X0154254Y0117832D02*
X0155656Y0117832D01*
X0156332Y0116833D02*
X0154254Y0116833D01*
X0154254Y0115835D02*
X0157466Y0115835D01*
X0157235Y0114069D02*
X0155884Y0112719D01*
X0155154Y0110955D01*
X0155154Y0109045D01*
X0155884Y0107281D01*
X0157235Y0105931D01*
X0158999Y0105200D01*
X0160908Y0105200D01*
X0162673Y0105931D01*
X0164023Y0107281D01*
X0164754Y0109045D01*
X0164754Y0110955D01*
X0164023Y0112719D01*
X0162673Y0114069D01*
X0160908Y0114800D01*
X0158999Y0114800D01*
X0157235Y0114069D01*
X0157003Y0113838D02*
X0154254Y0113838D01*
X0154254Y0114836D02*
X0189209Y0114836D01*
X0188909Y0113838D02*
X0162904Y0113838D01*
X0163903Y0112839D02*
X0171162Y0112839D01*
X0171173Y0112850D02*
X0168479Y0110155D01*
X0168479Y0106345D01*
X0171173Y0103650D01*
X0174984Y0103650D01*
X0177679Y0106345D01*
X0177679Y0110155D01*
X0174984Y0112850D01*
X0171173Y0112850D01*
X0170164Y0111841D02*
X0164387Y0111841D01*
X0164754Y0110842D02*
X0169165Y0110842D01*
X0168479Y0109844D02*
X0164754Y0109844D01*
X0164671Y0108845D02*
X0168479Y0108845D01*
X0168479Y0107847D02*
X0164257Y0107847D01*
X0163590Y0106848D02*
X0168479Y0106848D01*
X0168974Y0105850D02*
X0162477Y0105850D01*
X0162673Y0104069D02*
X0160908Y0104800D01*
X0158999Y0104800D01*
X0157235Y0104069D01*
X0155884Y0102719D01*
X0155154Y0100955D01*
X0155154Y0099045D01*
X0155884Y0097281D01*
X0157235Y0095931D01*
X0158999Y0095200D01*
X0160908Y0095200D01*
X0162673Y0095931D01*
X0164023Y0097281D01*
X0164754Y0099045D01*
X0164754Y0100955D01*
X0164023Y0102719D01*
X0162673Y0104069D01*
X0162889Y0103853D02*
X0170971Y0103853D01*
X0169972Y0104851D02*
X0154254Y0104851D01*
X0154254Y0103853D02*
X0157018Y0103853D01*
X0156019Y0102854D02*
X0154254Y0102854D01*
X0154254Y0101856D02*
X0155527Y0101856D01*
X0155154Y0100857D02*
X0154254Y0100857D01*
X0154254Y0099859D02*
X0155154Y0099859D01*
X0155230Y0098860D02*
X0154254Y0098860D01*
X0154254Y0097862D02*
X0155644Y0097862D01*
X0156302Y0096863D02*
X0154254Y0096863D01*
X0154254Y0095865D02*
X0157394Y0095865D01*
X0157235Y0094069D02*
X0155884Y0092719D01*
X0155154Y0090955D01*
X0155154Y0089045D01*
X0155884Y0087281D01*
X0157235Y0085931D01*
X0158999Y0085200D01*
X0160908Y0085200D01*
X0162673Y0085931D01*
X0164023Y0087281D01*
X0164754Y0089045D01*
X0164754Y0090955D01*
X0164023Y0092719D01*
X0162673Y0094069D01*
X0160908Y0094800D01*
X0158999Y0094800D01*
X0157235Y0094069D01*
X0157033Y0093868D02*
X0154254Y0093868D01*
X0154254Y0094866D02*
X0186632Y0094866D01*
X0187398Y0095865D02*
X0162513Y0095865D01*
X0163605Y0096863D02*
X0188164Y0096863D01*
X0188931Y0097862D02*
X0164263Y0097862D01*
X0164677Y0098860D02*
X0189697Y0098860D01*
X0189466Y0099859D02*
X0164754Y0099859D01*
X0164754Y0100857D02*
X0189053Y0100857D01*
X0188909Y0101856D02*
X0164380Y0101856D01*
X0163888Y0102854D02*
X0188909Y0102854D01*
X0189063Y0103853D02*
X0175187Y0103853D01*
X0176185Y0104851D02*
X0189477Y0104851D01*
X0190043Y0105850D02*
X0177184Y0105850D01*
X0177679Y0106848D02*
X0191042Y0106848D01*
X0192042Y0107847D02*
X0177679Y0107847D01*
X0177679Y0108845D02*
X0190664Y0108845D01*
X0189733Y0109844D02*
X0177679Y0109844D01*
X0176992Y0110842D02*
X0189320Y0110842D01*
X0188909Y0111841D02*
X0175993Y0111841D01*
X0174995Y0112839D02*
X0188909Y0112839D01*
X0189623Y0115835D02*
X0162441Y0115835D01*
X0163575Y0116833D02*
X0190397Y0116833D01*
X0191399Y0117832D02*
X0164251Y0117832D01*
X0164665Y0118830D02*
X0192305Y0118830D01*
X0190773Y0119829D02*
X0175788Y0119829D01*
X0176786Y0120827D02*
X0189778Y0120827D01*
X0189365Y0121826D02*
X0177785Y0121826D01*
X0178304Y0122824D02*
X0188951Y0122824D01*
X0188909Y0123823D02*
X0178304Y0123823D01*
X0178304Y0124821D02*
X0188909Y0124821D01*
X0189164Y0125820D02*
X0178304Y0125820D01*
X0177641Y0126818D02*
X0189578Y0126818D01*
X0190288Y0127817D02*
X0177904Y0127817D01*
X0178495Y0128815D02*
X0191287Y0128815D01*
X0191451Y0129814D02*
X0179085Y0129814D01*
X0179676Y0130812D02*
X0190419Y0130812D01*
X0189632Y0131811D02*
X0180266Y0131811D01*
X0180857Y0132809D02*
X0189218Y0132809D01*
X0188909Y0133808D02*
X0181447Y0133808D01*
X0182038Y0134806D02*
X0188909Y0134806D01*
X0188909Y0135805D02*
X0182628Y0135805D01*
X0183219Y0136803D02*
X0189311Y0136803D01*
X0189724Y0137802D02*
X0183809Y0137802D01*
X0184400Y0138801D02*
X0190642Y0138801D01*
X0191272Y0139799D02*
X0184990Y0139799D01*
X0185581Y0140798D02*
X0190273Y0140798D01*
X0189709Y0141796D02*
X0186171Y0141796D01*
X0186762Y0142795D02*
X0189295Y0142795D01*
X0189186Y0143793D02*
X0187352Y0143793D01*
X0187943Y0144792D02*
X0189186Y0144792D01*
X0189419Y0145790D02*
X0188534Y0145790D01*
X0189398Y0146789D02*
X0189832Y0146789D01*
X0187454Y0147500D02*
X0173704Y0124250D01*
X0170621Y0120827D02*
X0164754Y0120827D01*
X0164754Y0119829D02*
X0171619Y0119829D01*
X0169622Y0121826D02*
X0164393Y0121826D01*
X0163917Y0122824D02*
X0169104Y0122824D01*
X0157502Y0125820D02*
X0154254Y0125820D01*
X0154254Y0126818D02*
X0156347Y0126818D01*
X0155662Y0127817D02*
X0154254Y0127817D01*
X0154254Y0128815D02*
X0155249Y0128815D01*
X0155154Y0129814D02*
X0154254Y0129814D01*
X0154254Y0130812D02*
X0155154Y0130812D01*
X0155508Y0131811D02*
X0154254Y0131811D01*
X0154254Y0132809D02*
X0155975Y0132809D01*
X0162369Y0135805D02*
X0178446Y0135805D01*
X0179036Y0136803D02*
X0163545Y0136803D01*
X0164239Y0137802D02*
X0179627Y0137802D01*
X0180217Y0138801D02*
X0164652Y0138801D01*
X0164754Y0139799D02*
X0180808Y0139799D01*
X0181399Y0140798D02*
X0164754Y0140798D01*
X0164405Y0141796D02*
X0181989Y0141796D01*
X0182580Y0142795D02*
X0163947Y0142795D01*
X0162949Y0143793D02*
X0183170Y0143793D01*
X0183761Y0144792D02*
X0160929Y0144792D01*
X0162333Y0145790D02*
X0184351Y0145790D01*
X0184942Y0146789D02*
X0163530Y0146789D01*
X0164232Y0147787D02*
X0185532Y0147787D01*
X0186123Y0148786D02*
X0164646Y0148786D01*
X0164754Y0149784D02*
X0187364Y0149784D01*
X0188542Y0150783D02*
X0164754Y0150783D01*
X0164411Y0151781D02*
X0189188Y0151781D01*
X0188909Y0152780D02*
X0163962Y0152780D01*
X0162964Y0153778D02*
X0171670Y0153778D01*
X0171798Y0153650D02*
X0175609Y0153650D01*
X0178304Y0156345D01*
X0178304Y0160155D01*
X0175609Y0162850D01*
X0171798Y0162850D01*
X0169104Y0160155D01*
X0169104Y0156345D01*
X0171798Y0153650D01*
X0170671Y0154777D02*
X0160965Y0154777D01*
X0162297Y0155775D02*
X0169673Y0155775D01*
X0169104Y0156774D02*
X0163515Y0156774D01*
X0164226Y0157772D02*
X0169104Y0157772D01*
X0169104Y0158771D02*
X0164640Y0158771D01*
X0164754Y0159769D02*
X0169104Y0159769D01*
X0169716Y0160768D02*
X0164754Y0160768D01*
X0164417Y0161766D02*
X0170714Y0161766D01*
X0171713Y0162765D02*
X0163977Y0162765D01*
X0162978Y0163763D02*
X0188909Y0163763D01*
X0188909Y0164762D02*
X0161000Y0164762D01*
X0160908Y0165200D02*
X0162673Y0165931D01*
X0164023Y0167281D01*
X0164754Y0169045D01*
X0164754Y0170955D01*
X0164023Y0172719D01*
X0162673Y0174069D01*
X0160908Y0174800D01*
X0158999Y0174800D01*
X0157235Y0174069D01*
X0155884Y0172719D01*
X0155154Y0170955D01*
X0155154Y0169045D01*
X0155884Y0167281D01*
X0157235Y0165931D01*
X0158999Y0165200D01*
X0160908Y0165200D01*
X0162261Y0165760D02*
X0189074Y0165760D01*
X0189488Y0166759D02*
X0163501Y0166759D01*
X0164220Y0167757D02*
X0190071Y0167757D01*
X0191070Y0168756D02*
X0164634Y0168756D01*
X0164754Y0169754D02*
X0193023Y0169754D01*
X0191098Y0170753D02*
X0164754Y0170753D01*
X0164424Y0171751D02*
X0170947Y0171751D01*
X0169948Y0172750D02*
X0163992Y0172750D01*
X0162993Y0173748D02*
X0169104Y0173748D01*
X0169104Y0174747D02*
X0161036Y0174747D01*
X0162225Y0175745D02*
X0169104Y0175745D01*
X0169104Y0176744D02*
X0163486Y0176744D01*
X0164214Y0177742D02*
X0169441Y0177742D01*
X0170439Y0178741D02*
X0164627Y0178741D01*
X0164754Y0179739D02*
X0171438Y0179739D01*
X0178939Y0179739D02*
X0190961Y0179739D01*
X0192238Y0180738D02*
X0179652Y0180738D01*
X0180364Y0181737D02*
X0190745Y0181737D01*
X0189767Y0182735D02*
X0181077Y0182735D01*
X0181789Y0183734D02*
X0189353Y0183734D01*
X0188940Y0184732D02*
X0182501Y0184732D01*
X0183214Y0185731D02*
X0188909Y0185731D01*
X0188909Y0186729D02*
X0183926Y0186729D01*
X0184639Y0187728D02*
X0189176Y0187728D01*
X0189589Y0188726D02*
X0185351Y0188726D01*
X0186064Y0189725D02*
X0190316Y0189725D01*
X0191315Y0190723D02*
X0186776Y0190723D01*
X0187488Y0191722D02*
X0190599Y0191722D01*
X0189844Y0192720D02*
X0188201Y0192720D01*
X0188913Y0193719D02*
X0189430Y0193719D01*
X0185916Y0195716D02*
X0162965Y0195716D01*
X0162965Y0194717D02*
X0185203Y0194717D01*
X0184491Y0193719D02*
X0162965Y0193719D01*
X0162681Y0192720D02*
X0183778Y0192720D01*
X0183066Y0191722D02*
X0162268Y0191722D01*
X0161854Y0190723D02*
X0182354Y0190723D01*
X0181641Y0189725D02*
X0161009Y0189725D01*
X0160010Y0188726D02*
X0180929Y0188726D01*
X0180216Y0187728D02*
X0158332Y0187728D01*
X0151575Y0187728D02*
X0146866Y0187728D01*
X0147789Y0186729D02*
X0179504Y0186729D01*
X0178792Y0185731D02*
X0148202Y0185731D01*
X0153817Y0181737D02*
X0155477Y0181737D01*
X0155154Y0180738D02*
X0155106Y0180738D01*
X0155588Y0177742D02*
X0155693Y0177742D01*
X0155088Y0176744D02*
X0156421Y0176744D01*
X0157682Y0175745D02*
X0154254Y0175745D01*
X0154254Y0174747D02*
X0158871Y0174747D01*
X0156914Y0173748D02*
X0154254Y0173748D01*
X0154254Y0172750D02*
X0155915Y0172750D01*
X0155484Y0171751D02*
X0154254Y0171751D01*
X0154254Y0170753D02*
X0155154Y0170753D01*
X0155154Y0169754D02*
X0154254Y0169754D01*
X0154254Y0168756D02*
X0155273Y0168756D01*
X0155687Y0167757D02*
X0154254Y0167757D01*
X0154254Y0166759D02*
X0156406Y0166759D01*
X0157646Y0165760D02*
X0154254Y0165760D01*
X0154254Y0164762D02*
X0158907Y0164762D01*
X0156929Y0163763D02*
X0154254Y0163763D01*
X0154254Y0162765D02*
X0155930Y0162765D01*
X0139954Y0142500D02*
X0139954Y0190000D01*
X0139104Y0206981D02*
X0140803Y0206981D01*
X0142371Y0207631D01*
X0143572Y0208832D01*
X0144222Y0210401D01*
X0144222Y0212099D01*
X0143572Y0213668D01*
X0142371Y0214869D01*
X0140803Y0215518D01*
X0139104Y0215518D01*
X0137536Y0214869D01*
X0136335Y0213668D01*
X0135685Y0212099D01*
X0135685Y0210401D01*
X0136335Y0208832D01*
X0137536Y0207631D01*
X0139104Y0206981D01*
X0137469Y0207698D02*
X0132438Y0207698D01*
X0132371Y0207631D02*
X0133572Y0208832D01*
X0134222Y0210401D01*
X0134222Y0212099D01*
X0133572Y0213668D01*
X0132371Y0214869D01*
X0130803Y0215518D01*
X0129104Y0215518D01*
X0127536Y0214869D01*
X0126335Y0213668D01*
X0125685Y0212099D01*
X0125685Y0210401D01*
X0126335Y0208832D01*
X0127536Y0207631D01*
X0129104Y0206981D01*
X0130803Y0206981D01*
X0132371Y0207631D01*
X0133436Y0208696D02*
X0136471Y0208696D01*
X0135978Y0209695D02*
X0133930Y0209695D01*
X0134222Y0210693D02*
X0135685Y0210693D01*
X0135685Y0211692D02*
X0134222Y0211692D01*
X0133977Y0212690D02*
X0135930Y0212690D01*
X0136356Y0213689D02*
X0133551Y0213689D01*
X0132553Y0214687D02*
X0137354Y0214687D01*
X0139104Y0216981D02*
X0140803Y0216981D01*
X0142371Y0217631D01*
X0143572Y0218832D01*
X0144222Y0220401D01*
X0144222Y0222099D01*
X0143572Y0223668D01*
X0142371Y0224869D01*
X0140803Y0225518D01*
X0139104Y0225518D01*
X0137536Y0224869D01*
X0136335Y0223668D01*
X0135685Y0222099D01*
X0135685Y0220401D01*
X0136335Y0218832D01*
X0137536Y0217631D01*
X0139104Y0216981D01*
X0137484Y0217683D02*
X0132423Y0217683D01*
X0132371Y0217631D02*
X0133572Y0218832D01*
X0134222Y0220401D01*
X0134222Y0222099D01*
X0133572Y0223668D01*
X0132371Y0224869D01*
X0130803Y0225518D01*
X0129104Y0225518D01*
X0127536Y0224869D01*
X0126335Y0223668D01*
X0125685Y0222099D01*
X0125685Y0220401D01*
X0126335Y0218832D01*
X0127536Y0217631D01*
X0129104Y0216981D01*
X0130803Y0216981D01*
X0132371Y0217631D01*
X0133422Y0218681D02*
X0136486Y0218681D01*
X0135984Y0219680D02*
X0133923Y0219680D01*
X0134222Y0220678D02*
X0135685Y0220678D01*
X0135685Y0221677D02*
X0134222Y0221677D01*
X0133983Y0222675D02*
X0135924Y0222675D01*
X0136341Y0223674D02*
X0133566Y0223674D01*
X0132568Y0224672D02*
X0137339Y0224672D01*
X0142568Y0224672D02*
X0147339Y0224672D01*
X0147536Y0224869D02*
X0146335Y0223668D01*
X0145685Y0222099D01*
X0145685Y0220401D01*
X0146335Y0218832D01*
X0147536Y0217631D01*
X0149104Y0216981D01*
X0150803Y0216981D01*
X0152371Y0217631D01*
X0153572Y0218832D01*
X0154222Y0220401D01*
X0154222Y0222099D01*
X0153572Y0223668D01*
X0152371Y0224869D01*
X0150803Y0225518D01*
X0149104Y0225518D01*
X0147536Y0224869D01*
X0146341Y0223674D02*
X0143566Y0223674D01*
X0143983Y0222675D02*
X0145924Y0222675D01*
X0145685Y0221677D02*
X0144222Y0221677D01*
X0144222Y0220678D02*
X0145685Y0220678D01*
X0145984Y0219680D02*
X0143923Y0219680D01*
X0143422Y0218681D02*
X0146486Y0218681D01*
X0147484Y0217683D02*
X0142423Y0217683D01*
X0142553Y0214687D02*
X0147354Y0214687D01*
X0147536Y0214869D02*
X0146335Y0213668D01*
X0145685Y0212099D01*
X0145685Y0210401D01*
X0146335Y0208832D01*
X0147536Y0207631D01*
X0149104Y0206981D01*
X0150803Y0206981D01*
X0152371Y0207631D01*
X0153572Y0208832D01*
X0154222Y0210401D01*
X0154222Y0212099D01*
X0153572Y0213668D01*
X0152371Y0214869D01*
X0150803Y0215518D01*
X0149104Y0215518D01*
X0147536Y0214869D01*
X0146356Y0213689D02*
X0143551Y0213689D01*
X0143977Y0212690D02*
X0145930Y0212690D01*
X0145685Y0211692D02*
X0144222Y0211692D01*
X0144222Y0210693D02*
X0145685Y0210693D01*
X0145978Y0209695D02*
X0143930Y0209695D01*
X0143436Y0208696D02*
X0146471Y0208696D01*
X0147469Y0207698D02*
X0142438Y0207698D01*
X0152438Y0207698D02*
X0163154Y0207698D01*
X0163154Y0208696D02*
X0153436Y0208696D01*
X0153930Y0209695D02*
X0163154Y0209695D01*
X0163154Y0210693D02*
X0154222Y0210693D01*
X0154222Y0211692D02*
X0163154Y0211692D01*
X0163154Y0212690D02*
X0153977Y0212690D01*
X0153551Y0213689D02*
X0163154Y0213689D01*
X0163154Y0214687D02*
X0152553Y0214687D01*
X0152423Y0217683D02*
X0163154Y0217683D01*
X0163154Y0218681D02*
X0153422Y0218681D01*
X0153923Y0219680D02*
X0163154Y0219680D01*
X0163154Y0220678D02*
X0154222Y0220678D01*
X0154222Y0221677D02*
X0163154Y0221677D01*
X0163154Y0222675D02*
X0153983Y0222675D01*
X0153566Y0223674D02*
X0163166Y0223674D01*
X0163743Y0224672D02*
X0152568Y0224672D01*
X0164346Y0225671D02*
X0065192Y0225671D01*
X0064924Y0224672D02*
X0127339Y0224672D01*
X0126341Y0223674D02*
X0064568Y0223674D01*
X0063991Y0222675D02*
X0125924Y0222675D01*
X0125685Y0221677D02*
X0063415Y0221677D01*
X0062487Y0220678D02*
X0125685Y0220678D01*
X0125984Y0219680D02*
X0070463Y0219680D01*
X0070677Y0219623D02*
X0067943Y0220355D01*
X0065113Y0220355D01*
X0062379Y0219623D01*
X0059928Y0218207D01*
X0057927Y0216206D01*
X0056512Y0213755D01*
X0055780Y0211021D01*
X0055780Y0208191D01*
X0056512Y0205457D01*
X0057927Y0203006D01*
X0059928Y0201005D01*
X0062379Y0199590D01*
X0065113Y0198857D01*
X0067943Y0198857D01*
X0070677Y0199590D01*
X0073128Y0201005D01*
X0075130Y0203006D01*
X0076545Y0205457D01*
X0077277Y0208191D01*
X0077277Y0211021D01*
X0076545Y0213755D01*
X0075130Y0216206D01*
X0073128Y0218207D01*
X0070677Y0219623D01*
X0072307Y0218681D02*
X0126486Y0218681D01*
X0127484Y0217683D02*
X0073653Y0217683D01*
X0074651Y0216684D02*
X0163154Y0216684D01*
X0163154Y0215686D02*
X0075430Y0215686D01*
X0076006Y0214687D02*
X0127354Y0214687D01*
X0126356Y0213689D02*
X0076562Y0213689D01*
X0076830Y0212690D02*
X0125930Y0212690D01*
X0125685Y0211692D02*
X0077098Y0211692D01*
X0077277Y0210693D02*
X0125685Y0210693D01*
X0125978Y0209695D02*
X0077277Y0209695D01*
X0077277Y0208696D02*
X0126471Y0208696D01*
X0127469Y0207698D02*
X0077145Y0207698D01*
X0076877Y0206699D02*
X0163154Y0206699D01*
X0163154Y0205701D02*
X0076610Y0205701D01*
X0076109Y0204702D02*
X0077110Y0204702D01*
X0076904Y0204496D02*
X0076904Y0204496D01*
X0076112Y0203704D02*
X0075532Y0203704D01*
X0075113Y0202705D02*
X0074828Y0202705D01*
X0074115Y0201707D02*
X0073830Y0201707D01*
X0073116Y0200708D02*
X0072614Y0200708D01*
X0072118Y0199710D02*
X0070885Y0199710D01*
X0071119Y0198711D02*
X0017454Y0198711D01*
X0017454Y0197713D02*
X0070121Y0197713D01*
X0072216Y0194717D02*
X0076942Y0194717D01*
X0076942Y0193719D02*
X0071218Y0193719D01*
X0073215Y0195716D02*
X0076942Y0195716D01*
X0076992Y0196714D02*
X0074213Y0196714D01*
X0075212Y0197713D02*
X0077405Y0197713D01*
X0077819Y0198711D02*
X0076210Y0198711D01*
X0077209Y0199710D02*
X0078333Y0199710D01*
X0078207Y0200708D02*
X0079331Y0200708D01*
X0079206Y0201707D02*
X0080330Y0201707D01*
X0089577Y0201707D02*
X0102645Y0201707D01*
X0101954Y0200708D02*
X0090576Y0200708D01*
X0091574Y0199710D02*
X0101672Y0199710D01*
X0101677Y0198711D02*
X0092088Y0198711D01*
X0092502Y0197713D02*
X0102091Y0197713D01*
X0104954Y0203750D02*
X0122454Y0203750D01*
X0163704Y0203750D01*
X0163772Y0203752D01*
X0163839Y0203757D01*
X0163906Y0203766D01*
X0163973Y0203779D01*
X0164038Y0203796D01*
X0164103Y0203815D01*
X0164167Y0203839D01*
X0164229Y0203866D01*
X0164290Y0203896D01*
X0164348Y0203929D01*
X0164405Y0203965D01*
X0164460Y0204005D01*
X0164513Y0204047D01*
X0164564Y0204093D01*
X0164611Y0204140D01*
X0164657Y0204191D01*
X0164699Y0204244D01*
X0164739Y0204299D01*
X0164775Y0204356D01*
X0164808Y0204414D01*
X0164838Y0204475D01*
X0164865Y0204537D01*
X0164889Y0204601D01*
X0164908Y0204666D01*
X0164925Y0204731D01*
X0164938Y0204798D01*
X0164947Y0204865D01*
X0164952Y0204932D01*
X0164954Y0205000D01*
X0164954Y0222500D01*
X0166777Y0222675D02*
X0200446Y0222675D01*
X0201406Y0221677D02*
X0166754Y0221677D01*
X0166754Y0220678D02*
X0192236Y0220678D01*
X0190744Y0219680D02*
X0166754Y0219680D01*
X0166754Y0218681D02*
X0189767Y0218681D01*
X0189353Y0217683D02*
X0166754Y0217683D01*
X0166754Y0216684D02*
X0188939Y0216684D01*
X0188909Y0215686D02*
X0166754Y0215686D01*
X0166754Y0214687D02*
X0188909Y0214687D01*
X0189176Y0213689D02*
X0176020Y0213689D01*
X0175609Y0214100D02*
X0171798Y0214100D01*
X0169104Y0211405D01*
X0169104Y0207595D01*
X0171798Y0204900D01*
X0175609Y0204900D01*
X0178304Y0207595D01*
X0178304Y0211405D01*
X0175609Y0214100D01*
X0177019Y0212690D02*
X0189590Y0212690D01*
X0190317Y0211692D02*
X0178017Y0211692D01*
X0178304Y0210693D02*
X0191315Y0210693D01*
X0191389Y0209695D02*
X0178304Y0209695D01*
X0178304Y0208696D02*
X0190390Y0208696D01*
X0189620Y0207698D02*
X0178304Y0207698D01*
X0177408Y0206699D02*
X0189207Y0206699D01*
X0188909Y0205701D02*
X0176410Y0205701D01*
X0170997Y0205701D02*
X0166754Y0205701D01*
X0166754Y0206699D02*
X0169999Y0206699D01*
X0169104Y0207698D02*
X0166754Y0207698D01*
X0166754Y0208696D02*
X0169104Y0208696D01*
X0169104Y0209695D02*
X0166754Y0209695D01*
X0166754Y0210693D02*
X0169104Y0210693D01*
X0169390Y0211692D02*
X0166754Y0211692D01*
X0166754Y0212690D02*
X0170389Y0212690D01*
X0171387Y0213689D02*
X0166754Y0213689D01*
X0166754Y0204702D02*
X0188909Y0204702D01*
X0188909Y0203704D02*
X0166477Y0203704D01*
X0165829Y0202705D02*
X0189323Y0202705D01*
X0189736Y0201707D02*
X0159577Y0201707D01*
X0160576Y0200708D02*
X0189478Y0200708D01*
X0188765Y0199710D02*
X0161574Y0199710D01*
X0162088Y0198711D02*
X0188053Y0198711D01*
X0187340Y0197713D02*
X0162502Y0197713D01*
X0162915Y0196714D02*
X0186628Y0196714D01*
X0197888Y0209695D02*
X0201904Y0209695D01*
X0201904Y0210693D02*
X0197962Y0210693D01*
X0198960Y0211692D02*
X0201122Y0211692D01*
X0200591Y0212690D02*
X0199687Y0212690D01*
X0200101Y0213689D02*
X0200422Y0213689D01*
X0200368Y0214687D02*
X0200540Y0214687D01*
X0200368Y0215686D02*
X0200999Y0215686D01*
X0200338Y0216684D02*
X0201904Y0216684D01*
X0201904Y0217683D02*
X0199924Y0217683D01*
X0199511Y0218681D02*
X0201904Y0218681D01*
X0201904Y0219680D02*
X0198533Y0219680D01*
X0203704Y0220000D02*
X0203702Y0220140D01*
X0203696Y0220280D01*
X0203686Y0220420D01*
X0203673Y0220560D01*
X0203655Y0220699D01*
X0203633Y0220838D01*
X0203608Y0220975D01*
X0203579Y0221113D01*
X0203546Y0221249D01*
X0203509Y0221384D01*
X0203468Y0221518D01*
X0203423Y0221651D01*
X0203375Y0221783D01*
X0203323Y0221913D01*
X0203268Y0222042D01*
X0203209Y0222169D01*
X0203146Y0222295D01*
X0203080Y0222419D01*
X0203011Y0222540D01*
X0202938Y0222660D01*
X0202861Y0222778D01*
X0202782Y0222893D01*
X0202699Y0223007D01*
X0202613Y0223117D01*
X0202524Y0223226D01*
X0202432Y0223332D01*
X0202337Y0223435D01*
X0202240Y0223536D01*
X0202139Y0223633D01*
X0202036Y0223728D01*
X0201930Y0223820D01*
X0201821Y0223909D01*
X0201711Y0223995D01*
X0201597Y0224078D01*
X0201482Y0224157D01*
X0201364Y0224234D01*
X0201244Y0224307D01*
X0201123Y0224376D01*
X0200999Y0224442D01*
X0200873Y0224505D01*
X0200746Y0224564D01*
X0200617Y0224619D01*
X0200487Y0224671D01*
X0200355Y0224719D01*
X0200222Y0224764D01*
X0200088Y0224805D01*
X0199953Y0224842D01*
X0199817Y0224875D01*
X0199679Y0224904D01*
X0199542Y0224929D01*
X0199403Y0224951D01*
X0199264Y0224969D01*
X0199124Y0224982D01*
X0198984Y0224992D01*
X0198844Y0224998D01*
X0198704Y0225000D01*
X0202555Y0225765D02*
X0202555Y0225765D01*
X0201820Y0220678D02*
X0197041Y0220678D01*
X0205504Y0208696D02*
X0222590Y0208696D01*
X0222596Y0207698D02*
X0205504Y0207698D01*
X0205504Y0206699D02*
X0222601Y0206699D01*
X0222606Y0205701D02*
X0205504Y0205701D01*
X0205504Y0204702D02*
X0222611Y0204702D01*
X0222617Y0203704D02*
X0205504Y0203704D01*
X0205504Y0202705D02*
X0222622Y0202705D01*
X0222627Y0201707D02*
X0205504Y0201707D01*
X0205504Y0200708D02*
X0210729Y0200708D01*
X0210755Y0200735D02*
X0208983Y0198962D01*
X0208024Y0196647D01*
X0208024Y0194141D01*
X0208983Y0191825D01*
X0210755Y0190053D01*
X0213070Y0189094D01*
X0215577Y0189094D01*
X0217892Y0190053D01*
X0219664Y0191825D01*
X0220624Y0194141D01*
X0220624Y0196647D01*
X0219664Y0198962D01*
X0217892Y0200735D01*
X0215577Y0201694D01*
X0213070Y0201694D01*
X0210755Y0200735D01*
X0209730Y0199710D02*
X0205504Y0199710D01*
X0205504Y0198711D02*
X0208879Y0198711D01*
X0208465Y0197713D02*
X0205504Y0197713D01*
X0205504Y0196714D02*
X0208052Y0196714D01*
X0208024Y0195716D02*
X0205504Y0195716D01*
X0205504Y0194717D02*
X0208024Y0194717D01*
X0208198Y0193719D02*
X0205504Y0193719D01*
X0205504Y0192720D02*
X0208612Y0192720D01*
X0209086Y0191722D02*
X0205504Y0191722D01*
X0205504Y0190723D02*
X0210085Y0190723D01*
X0211547Y0189725D02*
X0205504Y0189725D01*
X0205504Y0188726D02*
X0222695Y0188726D01*
X0222700Y0187728D02*
X0205504Y0187728D01*
X0205504Y0186729D02*
X0222705Y0186729D01*
X0222710Y0185731D02*
X0205504Y0185731D01*
X0205504Y0184732D02*
X0222716Y0184732D01*
X0222721Y0183734D02*
X0205504Y0183734D01*
X0205504Y0182735D02*
X0222726Y0182735D01*
X0222731Y0181737D02*
X0205504Y0181737D01*
X0205504Y0180738D02*
X0211495Y0180738D01*
X0211078Y0180566D02*
X0213184Y0181438D01*
X0215463Y0181438D01*
X0217569Y0180566D01*
X0219181Y0178954D01*
X0220053Y0176848D01*
X0220053Y0174569D01*
X0219181Y0172463D01*
X0217569Y0170852D01*
X0215463Y0169980D01*
X0213184Y0169980D01*
X0211078Y0170852D01*
X0209467Y0172463D01*
X0208594Y0174569D01*
X0208594Y0176848D01*
X0209467Y0178954D01*
X0211078Y0180566D01*
X0210252Y0179739D02*
X0205504Y0179739D01*
X0205504Y0178741D02*
X0209378Y0178741D01*
X0208965Y0177742D02*
X0205504Y0177742D01*
X0205504Y0176744D02*
X0208594Y0176744D01*
X0208594Y0175745D02*
X0205504Y0175745D01*
X0205504Y0174747D02*
X0208594Y0174747D01*
X0208934Y0173748D02*
X0205504Y0173748D01*
X0205504Y0172750D02*
X0209348Y0172750D01*
X0210179Y0171751D02*
X0205504Y0171751D01*
X0205504Y0170753D02*
X0211317Y0170753D01*
X0211970Y0168756D02*
X0205504Y0168756D01*
X0205504Y0169754D02*
X0222794Y0169754D01*
X0222799Y0168756D02*
X0216677Y0168756D01*
X0217412Y0168451D02*
X0215408Y0169281D01*
X0213239Y0169281D01*
X0211235Y0168451D01*
X0209701Y0166917D01*
X0208871Y0164913D01*
X0208871Y0162744D01*
X0209701Y0160740D01*
X0211235Y0159206D01*
X0213239Y0158376D01*
X0215408Y0158376D01*
X0217412Y0159206D01*
X0218946Y0160740D01*
X0219776Y0162744D01*
X0219776Y0164913D01*
X0218946Y0166917D01*
X0217412Y0168451D01*
X0218106Y0167757D02*
X0222804Y0167757D01*
X0222809Y0166759D02*
X0219012Y0166759D01*
X0219426Y0165760D02*
X0222815Y0165760D01*
X0222820Y0164762D02*
X0219776Y0164762D01*
X0219776Y0163763D02*
X0222825Y0163763D01*
X0222830Y0162765D02*
X0219776Y0162765D01*
X0219371Y0161766D02*
X0222836Y0161766D01*
X0222841Y0160768D02*
X0218958Y0160768D01*
X0217975Y0159769D02*
X0222846Y0159769D01*
X0222851Y0158771D02*
X0216361Y0158771D01*
X0212286Y0158771D02*
X0205864Y0158771D01*
X0205460Y0157772D02*
X0222856Y0157772D01*
X0222862Y0156774D02*
X0205448Y0156774D01*
X0205435Y0155775D02*
X0222867Y0155775D01*
X0222872Y0154777D02*
X0205423Y0154777D01*
X0205410Y0153778D02*
X0222877Y0153778D01*
X0222882Y0152780D02*
X0205398Y0152780D01*
X0205385Y0151781D02*
X0222888Y0151781D01*
X0222893Y0150783D02*
X0205373Y0150783D01*
X0205360Y0149784D02*
X0211478Y0149784D01*
X0210755Y0149485D02*
X0213070Y0150444D01*
X0215577Y0150444D01*
X0217892Y0149485D01*
X0219664Y0147712D01*
X0220624Y0145397D01*
X0220624Y0142891D01*
X0219664Y0140575D01*
X0217892Y0138803D01*
X0215577Y0137844D01*
X0213070Y0137844D01*
X0210755Y0138803D01*
X0208983Y0140575D01*
X0208024Y0142891D01*
X0208024Y0145397D01*
X0208983Y0147712D01*
X0210755Y0149485D01*
X0210056Y0148786D02*
X0205348Y0148786D01*
X0205335Y0147787D02*
X0209058Y0147787D01*
X0208600Y0146789D02*
X0205323Y0146789D01*
X0205310Y0145790D02*
X0208187Y0145790D01*
X0208024Y0144792D02*
X0205298Y0144792D01*
X0205285Y0143793D02*
X0208024Y0143793D01*
X0208063Y0142795D02*
X0205273Y0142795D01*
X0205260Y0141796D02*
X0208477Y0141796D01*
X0208891Y0140798D02*
X0205248Y0140798D01*
X0205236Y0139799D02*
X0209759Y0139799D01*
X0210761Y0138801D02*
X0205223Y0138801D01*
X0205211Y0137802D02*
X0222961Y0137802D01*
X0222966Y0136803D02*
X0205198Y0136803D01*
X0205186Y0135805D02*
X0222971Y0135805D01*
X0222976Y0134806D02*
X0205173Y0134806D01*
X0205161Y0133808D02*
X0222982Y0133808D01*
X0222987Y0132809D02*
X0205148Y0132809D01*
X0205136Y0131811D02*
X0222992Y0131811D01*
X0222997Y0130812D02*
X0205123Y0130812D01*
X0205111Y0129814D02*
X0212281Y0129814D01*
X0213184Y0130188D02*
X0211078Y0129316D01*
X0209467Y0127704D01*
X0208594Y0125598D01*
X0208594Y0123319D01*
X0209467Y0121213D01*
X0211078Y0119602D01*
X0213184Y0118730D01*
X0215463Y0118730D01*
X0217569Y0119602D01*
X0219181Y0121213D01*
X0220053Y0123319D01*
X0220053Y0125598D01*
X0219181Y0127704D01*
X0217569Y0129316D01*
X0215463Y0130188D01*
X0213184Y0130188D01*
X0210578Y0128815D02*
X0205098Y0128815D01*
X0205086Y0127817D02*
X0209580Y0127817D01*
X0209100Y0126818D02*
X0205073Y0126818D01*
X0205061Y0125820D02*
X0208686Y0125820D01*
X0208594Y0124821D02*
X0205048Y0124821D01*
X0205036Y0123823D02*
X0208594Y0123823D01*
X0208799Y0122824D02*
X0205023Y0122824D01*
X0205011Y0121826D02*
X0209213Y0121826D01*
X0209853Y0120827D02*
X0204998Y0120827D01*
X0204986Y0119829D02*
X0210851Y0119829D01*
X0212941Y0118830D02*
X0204973Y0118830D01*
X0204961Y0117832D02*
X0212757Y0117832D01*
X0213239Y0118031D02*
X0211235Y0117201D01*
X0209701Y0115667D01*
X0208871Y0113663D01*
X0208871Y0111494D01*
X0209701Y0109490D01*
X0211235Y0107956D01*
X0213239Y0107126D01*
X0215408Y0107126D01*
X0217412Y0107956D01*
X0218946Y0109490D01*
X0219776Y0111494D01*
X0219776Y0113663D01*
X0218946Y0115667D01*
X0217412Y0117201D01*
X0215408Y0118031D01*
X0213239Y0118031D01*
X0215706Y0118830D02*
X0223060Y0118830D01*
X0223065Y0117832D02*
X0215890Y0117832D01*
X0217780Y0116833D02*
X0223070Y0116833D01*
X0223075Y0115835D02*
X0218779Y0115835D01*
X0219291Y0114836D02*
X0223081Y0114836D01*
X0223086Y0113838D02*
X0219704Y0113838D01*
X0219776Y0112839D02*
X0223091Y0112839D01*
X0223096Y0111841D02*
X0219776Y0111841D01*
X0219506Y0110842D02*
X0223102Y0110842D01*
X0223107Y0109844D02*
X0219093Y0109844D01*
X0218301Y0108845D02*
X0223112Y0108845D01*
X0223117Y0107847D02*
X0217148Y0107847D01*
X0211499Y0107847D02*
X0204922Y0107847D01*
X0204934Y0106848D02*
X0223122Y0106848D01*
X0223128Y0105850D02*
X0204947Y0105850D01*
X0204960Y0104851D02*
X0223133Y0104851D01*
X0223138Y0103853D02*
X0204972Y0103853D01*
X0204985Y0102854D02*
X0223143Y0102854D01*
X0223148Y0101856D02*
X0204998Y0101856D01*
X0205010Y0100857D02*
X0223154Y0100857D01*
X0223159Y0099859D02*
X0205023Y0099859D01*
X0205036Y0098860D02*
X0212265Y0098860D01*
X0213070Y0099194D02*
X0210755Y0098235D01*
X0208983Y0096462D01*
X0208024Y0094147D01*
X0208024Y0091641D01*
X0208983Y0089325D01*
X0210755Y0087553D01*
X0213070Y0086594D01*
X0215577Y0086594D01*
X0217892Y0087553D01*
X0219664Y0089325D01*
X0220624Y0091641D01*
X0220624Y0094147D01*
X0219664Y0096462D01*
X0217892Y0098235D01*
X0215577Y0099194D01*
X0213070Y0099194D01*
X0210382Y0097862D02*
X0205048Y0097862D01*
X0205061Y0096863D02*
X0209383Y0096863D01*
X0208735Y0095865D02*
X0205073Y0095865D01*
X0205086Y0094866D02*
X0208322Y0094866D01*
X0208024Y0093868D02*
X0205099Y0093868D01*
X0205111Y0092869D02*
X0208024Y0092869D01*
X0208024Y0091870D02*
X0205124Y0091870D01*
X0205137Y0090872D02*
X0208342Y0090872D01*
X0208756Y0089873D02*
X0205149Y0089873D01*
X0205162Y0088875D02*
X0209433Y0088875D01*
X0210431Y0087876D02*
X0205175Y0087876D01*
X0205187Y0086878D02*
X0212384Y0086878D01*
X0216263Y0086878D02*
X0223227Y0086878D01*
X0223221Y0087876D02*
X0218216Y0087876D01*
X0219214Y0088875D02*
X0223216Y0088875D01*
X0223211Y0089873D02*
X0219892Y0089873D01*
X0220305Y0090872D02*
X0223206Y0090872D01*
X0223201Y0091870D02*
X0220624Y0091870D01*
X0220624Y0092869D02*
X0223195Y0092869D01*
X0223190Y0093868D02*
X0220624Y0093868D01*
X0220326Y0094866D02*
X0223185Y0094866D01*
X0223180Y0095865D02*
X0219912Y0095865D01*
X0219264Y0096863D02*
X0223175Y0096863D01*
X0223169Y0097862D02*
X0218265Y0097862D01*
X0216382Y0098860D02*
X0223164Y0098860D01*
X0223232Y0085879D02*
X0205200Y0085879D01*
X0205212Y0084881D02*
X0223237Y0084881D01*
X0223242Y0083882D02*
X0205225Y0083882D01*
X0205238Y0082884D02*
X0223248Y0082884D01*
X0223253Y0081885D02*
X0205250Y0081885D01*
X0205263Y0080887D02*
X0223258Y0080887D01*
X0223263Y0079888D02*
X0205276Y0079888D01*
X0205288Y0078890D02*
X0213068Y0078890D01*
X0210904Y0077891D02*
X0205301Y0077891D01*
X0205314Y0076893D02*
X0209906Y0076893D01*
X0209235Y0075894D02*
X0205326Y0075894D01*
X0205339Y0074896D02*
X0208821Y0074896D01*
X0208594Y0073897D02*
X0205351Y0073897D01*
X0205364Y0072899D02*
X0208594Y0072899D01*
X0208664Y0071900D02*
X0205377Y0071900D01*
X0205389Y0070902D02*
X0209078Y0070902D01*
X0209527Y0069903D02*
X0205402Y0069903D01*
X0205415Y0068905D02*
X0210525Y0068905D01*
X0218122Y0068905D02*
X0223321Y0068905D01*
X0223315Y0069903D02*
X0219120Y0069903D01*
X0219569Y0070902D02*
X0223310Y0070902D01*
X0223305Y0071900D02*
X0219983Y0071900D01*
X0220053Y0072899D02*
X0223300Y0072899D01*
X0223294Y0073897D02*
X0220053Y0073897D01*
X0219826Y0074896D02*
X0223289Y0074896D01*
X0223284Y0075894D02*
X0219412Y0075894D01*
X0218742Y0076893D02*
X0223279Y0076893D01*
X0223274Y0077891D02*
X0217743Y0077891D01*
X0215579Y0078890D02*
X0223268Y0078890D01*
X0210346Y0108845D02*
X0205314Y0108845D01*
X0206047Y0109844D02*
X0209554Y0109844D01*
X0209141Y0110842D02*
X0206360Y0110842D01*
X0206360Y0111841D02*
X0208871Y0111841D01*
X0208871Y0112839D02*
X0205972Y0112839D01*
X0205131Y0113838D02*
X0208943Y0113838D01*
X0209357Y0114836D02*
X0204923Y0114836D01*
X0204936Y0115835D02*
X0209868Y0115835D01*
X0210867Y0116833D02*
X0204948Y0116833D01*
X0217796Y0119829D02*
X0223055Y0119829D01*
X0223049Y0120827D02*
X0218794Y0120827D01*
X0219434Y0121826D02*
X0223044Y0121826D01*
X0223039Y0122824D02*
X0219848Y0122824D01*
X0220053Y0123823D02*
X0223034Y0123823D01*
X0223029Y0124821D02*
X0220053Y0124821D01*
X0219961Y0125820D02*
X0223023Y0125820D01*
X0223018Y0126818D02*
X0219547Y0126818D01*
X0219068Y0127817D02*
X0223013Y0127817D01*
X0223008Y0128815D02*
X0218069Y0128815D01*
X0216366Y0129814D02*
X0223002Y0129814D01*
X0222955Y0138801D02*
X0217887Y0138801D01*
X0218888Y0139799D02*
X0222950Y0139799D01*
X0222945Y0140798D02*
X0219757Y0140798D01*
X0220170Y0141796D02*
X0222940Y0141796D01*
X0222935Y0142795D02*
X0220584Y0142795D01*
X0220624Y0143793D02*
X0222929Y0143793D01*
X0222924Y0144792D02*
X0220624Y0144792D01*
X0220461Y0145790D02*
X0222919Y0145790D01*
X0222914Y0146789D02*
X0220047Y0146789D01*
X0219590Y0147787D02*
X0222909Y0147787D01*
X0222903Y0148786D02*
X0218591Y0148786D01*
X0217169Y0149784D02*
X0222898Y0149784D01*
X0210672Y0159769D02*
X0206642Y0159769D01*
X0206985Y0160768D02*
X0209689Y0160768D01*
X0209276Y0161766D02*
X0206985Y0161766D01*
X0206628Y0162765D02*
X0208871Y0162765D01*
X0208871Y0163763D02*
X0205830Y0163763D01*
X0205504Y0164762D02*
X0208871Y0164762D01*
X0209222Y0165760D02*
X0205504Y0165760D01*
X0205504Y0166759D02*
X0209635Y0166759D01*
X0210541Y0167757D02*
X0205504Y0167757D01*
X0217330Y0170753D02*
X0222789Y0170753D01*
X0222783Y0171751D02*
X0218469Y0171751D01*
X0219299Y0172750D02*
X0222778Y0172750D01*
X0222773Y0173748D02*
X0219713Y0173748D01*
X0220053Y0174747D02*
X0222768Y0174747D01*
X0222763Y0175745D02*
X0220053Y0175745D01*
X0220053Y0176744D02*
X0222757Y0176744D01*
X0222752Y0177742D02*
X0219682Y0177742D01*
X0219269Y0178741D02*
X0222747Y0178741D01*
X0222742Y0179739D02*
X0218395Y0179739D01*
X0217153Y0180738D02*
X0222736Y0180738D01*
X0222690Y0189725D02*
X0217100Y0189725D01*
X0218563Y0190723D02*
X0222684Y0190723D01*
X0222679Y0191722D02*
X0219561Y0191722D01*
X0220035Y0192720D02*
X0222674Y0192720D01*
X0222669Y0193719D02*
X0220449Y0193719D01*
X0220624Y0194717D02*
X0222663Y0194717D01*
X0222658Y0195716D02*
X0220624Y0195716D01*
X0220596Y0196714D02*
X0222653Y0196714D01*
X0222648Y0197713D02*
X0220182Y0197713D01*
X0219769Y0198711D02*
X0222643Y0198711D01*
X0222637Y0199710D02*
X0218917Y0199710D01*
X0217919Y0200708D02*
X0222632Y0200708D01*
X0222491Y0227668D02*
X0218188Y0227668D01*
X0219950Y0228667D02*
X0222486Y0228667D01*
X0222481Y0229665D02*
X0220949Y0229665D01*
X0221829Y0230664D02*
X0222476Y0230664D01*
X0222470Y0231662D02*
X0222243Y0231662D01*
X0210270Y0241647D02*
X0029637Y0241647D01*
X0030635Y0240649D02*
X0209272Y0240649D01*
X0208273Y0239650D02*
X0031634Y0239650D01*
X0047235Y0219680D02*
X0047946Y0219680D01*
X0049079Y0218681D02*
X0049551Y0218681D01*
X0050424Y0217683D02*
X0052102Y0217683D01*
X0051423Y0216684D02*
X0058405Y0216684D01*
X0057627Y0215686D02*
X0052202Y0215686D01*
X0052778Y0214687D02*
X0057050Y0214687D01*
X0056494Y0213689D02*
X0053334Y0213689D01*
X0053602Y0212690D02*
X0056227Y0212690D01*
X0055959Y0211692D02*
X0053869Y0211692D01*
X0054049Y0210693D02*
X0055780Y0210693D01*
X0055780Y0209695D02*
X0054049Y0209695D01*
X0054049Y0208696D02*
X0055780Y0208696D01*
X0055912Y0207698D02*
X0053917Y0207698D01*
X0053649Y0206699D02*
X0056179Y0206699D01*
X0056447Y0205701D02*
X0053381Y0205701D01*
X0052880Y0204702D02*
X0056948Y0204702D01*
X0057525Y0203704D02*
X0052304Y0203704D01*
X0051600Y0202705D02*
X0058228Y0202705D01*
X0059227Y0201707D02*
X0050602Y0201707D01*
X0049386Y0200708D02*
X0060443Y0200708D01*
X0062172Y0199710D02*
X0047656Y0199710D01*
X0039254Y0191722D02*
X0064616Y0191722D01*
X0062765Y0190723D02*
X0039254Y0190723D01*
X0039254Y0189725D02*
X0061880Y0189725D01*
X0061466Y0188726D02*
X0039254Y0188726D01*
X0039254Y0187728D02*
X0061310Y0187728D01*
X0061310Y0186729D02*
X0039254Y0186729D01*
X0039254Y0185731D02*
X0061691Y0185731D01*
X0062310Y0184732D02*
X0039254Y0184732D01*
X0039254Y0183734D02*
X0063517Y0183734D01*
X0064652Y0181737D02*
X0039254Y0181737D01*
X0039254Y0182735D02*
X0075900Y0182735D01*
X0075477Y0181737D02*
X0066505Y0181737D01*
X0066428Y0181768D02*
X0064729Y0181768D01*
X0063161Y0181119D01*
X0061960Y0179918D01*
X0061310Y0178349D01*
X0061310Y0176651D01*
X0061960Y0175082D01*
X0063161Y0173881D01*
X0064729Y0173231D01*
X0066428Y0173231D01*
X0067996Y0173881D01*
X0069197Y0175082D01*
X0069847Y0176651D01*
X0069847Y0178349D01*
X0069197Y0179918D01*
X0067996Y0181119D01*
X0066428Y0181768D01*
X0068377Y0180738D02*
X0075154Y0180738D01*
X0075154Y0179739D02*
X0069271Y0179739D01*
X0069685Y0178741D02*
X0075280Y0178741D01*
X0075693Y0177742D02*
X0069847Y0177742D01*
X0069847Y0176744D02*
X0076421Y0176744D01*
X0077682Y0175745D02*
X0069472Y0175745D01*
X0068862Y0174747D02*
X0078871Y0174747D01*
X0076914Y0173748D02*
X0067676Y0173748D01*
X0066469Y0171751D02*
X0075484Y0171751D01*
X0075154Y0170753D02*
X0068362Y0170753D01*
X0069265Y0169754D02*
X0075154Y0169754D01*
X0075273Y0168756D02*
X0069679Y0168756D01*
X0069847Y0167757D02*
X0075687Y0167757D01*
X0076406Y0166759D02*
X0069847Y0166759D01*
X0069478Y0165760D02*
X0077646Y0165760D01*
X0078907Y0164762D02*
X0068877Y0164762D01*
X0067711Y0163763D02*
X0076929Y0163763D01*
X0075915Y0172750D02*
X0056219Y0172750D01*
X0057155Y0171751D02*
X0064688Y0171751D01*
X0062795Y0170753D02*
X0057568Y0170753D01*
X0057610Y0169754D02*
X0061892Y0169754D01*
X0063482Y0173748D02*
X0039254Y0173748D01*
X0039254Y0172750D02*
X0052438Y0172750D01*
X0051503Y0171751D02*
X0039254Y0171751D01*
X0039254Y0170753D02*
X0051089Y0170753D01*
X0051047Y0169754D02*
X0039254Y0169754D01*
X0039254Y0168756D02*
X0051292Y0168756D01*
X0054329Y0160615D02*
X0045269Y0151555D01*
X0049603Y0147787D02*
X0058083Y0147787D01*
X0057068Y0146789D02*
X0048604Y0146789D01*
X0049296Y0145790D02*
X0056053Y0145790D01*
X0055038Y0144792D02*
X0050058Y0144792D01*
X0050472Y0143793D02*
X0054023Y0143793D01*
X0053007Y0142795D02*
X0050721Y0142795D01*
X0050721Y0141796D02*
X0051992Y0141796D01*
X0050977Y0140798D02*
X0050628Y0140798D01*
X0053065Y0137802D02*
X0075668Y0137802D01*
X0075255Y0138801D02*
X0054081Y0138801D01*
X0055096Y0139799D02*
X0075154Y0139799D01*
X0075154Y0140798D02*
X0056111Y0140798D01*
X0057126Y0141796D02*
X0075502Y0141796D01*
X0075960Y0142795D02*
X0058141Y0142795D01*
X0059156Y0143793D02*
X0076958Y0143793D01*
X0076362Y0136803D02*
X0052050Y0136803D01*
X0051035Y0135805D02*
X0077538Y0135805D01*
X0082369Y0135805D02*
X0143154Y0135805D01*
X0143154Y0136803D02*
X0083545Y0136803D01*
X0084239Y0137802D02*
X0143154Y0137802D01*
X0139954Y0142500D02*
X0139952Y0142402D01*
X0139946Y0142304D01*
X0139937Y0142206D01*
X0139923Y0142109D01*
X0139906Y0142012D01*
X0139885Y0141916D01*
X0139860Y0141821D01*
X0139832Y0141727D01*
X0139799Y0141635D01*
X0139764Y0141543D01*
X0139724Y0141453D01*
X0139682Y0141365D01*
X0139635Y0141278D01*
X0139586Y0141194D01*
X0139533Y0141111D01*
X0139477Y0141031D01*
X0139417Y0140952D01*
X0139355Y0140876D01*
X0139290Y0140803D01*
X0139222Y0140732D01*
X0139151Y0140664D01*
X0139078Y0140599D01*
X0139002Y0140537D01*
X0138923Y0140477D01*
X0138843Y0140421D01*
X0138760Y0140368D01*
X0138676Y0140319D01*
X0138589Y0140272D01*
X0138501Y0140230D01*
X0138411Y0140190D01*
X0138319Y0140155D01*
X0138227Y0140122D01*
X0138133Y0140094D01*
X0138038Y0140069D01*
X0137942Y0140048D01*
X0137845Y0140031D01*
X0137748Y0140017D01*
X0137650Y0140008D01*
X0137552Y0140002D01*
X0137454Y0140000D01*
X0154254Y0112839D02*
X0156005Y0112839D01*
X0155521Y0111841D02*
X0154254Y0111841D01*
X0154254Y0110842D02*
X0155154Y0110842D01*
X0155154Y0109844D02*
X0154254Y0109844D01*
X0154254Y0108845D02*
X0155236Y0108845D01*
X0155650Y0107847D02*
X0154254Y0107847D01*
X0154254Y0106848D02*
X0156317Y0106848D01*
X0157430Y0105850D02*
X0154254Y0105850D01*
X0150654Y0102854D02*
X0083888Y0102854D01*
X0084380Y0101856D02*
X0150654Y0101856D01*
X0150654Y0100857D02*
X0084754Y0100857D01*
X0084754Y0099859D02*
X0150654Y0099859D01*
X0150654Y0098860D02*
X0084677Y0098860D01*
X0084263Y0097862D02*
X0150654Y0097862D01*
X0150654Y0096863D02*
X0083605Y0096863D01*
X0082513Y0095865D02*
X0150654Y0095865D01*
X0150654Y0094866D02*
X0060661Y0094866D01*
X0057589Y0096863D02*
X0049929Y0096863D01*
X0050458Y0097862D02*
X0058546Y0097862D01*
X0059503Y0098860D02*
X0050871Y0098860D01*
X0048930Y0095865D02*
X0056632Y0095865D01*
X0055675Y0094866D02*
X0048970Y0094866D01*
X0049923Y0093868D02*
X0054718Y0093868D01*
X0053761Y0092869D02*
X0050337Y0092869D01*
X0050721Y0091870D02*
X0052804Y0091870D01*
X0051847Y0090872D02*
X0050721Y0090872D01*
X0050721Y0089873D02*
X0050890Y0089873D01*
X0035654Y0089873D02*
X0031883Y0089873D01*
X0031883Y0089603D02*
X0031883Y0092109D01*
X0030924Y0094425D01*
X0029152Y0096197D01*
X0026837Y0097156D01*
X0024330Y0097156D01*
X0022015Y0096197D01*
X0020243Y0094425D01*
X0019283Y0092109D01*
X0019283Y0089603D01*
X0020243Y0087288D01*
X0022015Y0085515D01*
X0024330Y0084556D01*
X0026837Y0084556D01*
X0029152Y0085515D01*
X0030924Y0087288D01*
X0031883Y0089603D01*
X0031582Y0088875D02*
X0035654Y0088875D01*
X0035654Y0087876D02*
X0031168Y0087876D01*
X0030515Y0086878D02*
X0035654Y0086878D01*
X0035654Y0085879D02*
X0029516Y0085879D01*
X0027620Y0084881D02*
X0035654Y0084881D01*
X0035654Y0083882D02*
X0017454Y0083882D01*
X0017454Y0082884D02*
X0035654Y0082884D01*
X0035654Y0081885D02*
X0017454Y0081885D01*
X0017454Y0080887D02*
X0035654Y0080887D01*
X0035654Y0079888D02*
X0017454Y0079888D01*
X0017454Y0078890D02*
X0035654Y0078890D01*
X0035654Y0077891D02*
X0017454Y0077891D01*
X0017454Y0076893D02*
X0035654Y0076893D01*
X0037454Y0071250D02*
X0037454Y0022500D01*
X0047716Y0024970D02*
X0169104Y0024970D01*
X0169104Y0023972D02*
X0048927Y0023972D01*
X0049925Y0022973D02*
X0063421Y0022973D01*
X0064298Y0023850D02*
X0061604Y0021155D01*
X0061604Y0017345D01*
X0064298Y0014650D01*
X0068109Y0014650D01*
X0070804Y0017345D01*
X0070804Y0021155D01*
X0068109Y0023850D01*
X0064298Y0023850D01*
X0062423Y0021975D02*
X0050456Y0021975D01*
X0050870Y0020976D02*
X0061604Y0020976D01*
X0061604Y0019978D02*
X0050998Y0019978D01*
X0050998Y0018979D02*
X0061604Y0018979D01*
X0061604Y0017981D02*
X0050829Y0017981D01*
X0050415Y0016982D02*
X0061966Y0016982D01*
X0062965Y0015984D02*
X0049827Y0015984D01*
X0048828Y0014985D02*
X0063963Y0014985D01*
X0068444Y0014985D02*
X0076942Y0014985D01*
X0076942Y0013987D02*
X0046862Y0013987D01*
X0049182Y0025969D02*
X0157197Y0025969D01*
X0157235Y0025931D02*
X0158999Y0025200D01*
X0160908Y0025200D01*
X0162673Y0025931D01*
X0164023Y0027281D01*
X0164754Y0029045D01*
X0164754Y0030955D01*
X0164023Y0032719D01*
X0162673Y0034069D01*
X0160908Y0034800D01*
X0158999Y0034800D01*
X0157235Y0034069D01*
X0155884Y0032719D01*
X0155154Y0030955D01*
X0155154Y0029045D01*
X0155884Y0027281D01*
X0157235Y0025931D01*
X0156198Y0026967D02*
X0050148Y0026967D01*
X0050562Y0027966D02*
X0155601Y0027966D01*
X0155187Y0028964D02*
X0050975Y0028964D01*
X0050998Y0029963D02*
X0155154Y0029963D01*
X0155156Y0030961D02*
X0050998Y0030961D01*
X0050723Y0031960D02*
X0155570Y0031960D01*
X0156124Y0032958D02*
X0050310Y0032958D01*
X0051142Y0033957D02*
X0157122Y0033957D01*
X0157211Y0035954D02*
X0052953Y0035954D01*
X0053858Y0036952D02*
X0156213Y0036952D01*
X0155607Y0037951D02*
X0054763Y0037951D01*
X0055669Y0038949D02*
X0152503Y0038949D01*
X0151462Y0039948D02*
X0056574Y0039948D01*
X0057479Y0040946D02*
X0150885Y0040946D01*
X0150654Y0041945D02*
X0058384Y0041945D01*
X0059289Y0042943D02*
X0150654Y0042943D01*
X0150654Y0043942D02*
X0060195Y0043942D01*
X0061100Y0044940D02*
X0150654Y0044940D01*
X0150654Y0045939D02*
X0062005Y0045939D01*
X0062910Y0046937D02*
X0150654Y0046937D01*
X0150654Y0047936D02*
X0063816Y0047936D01*
X0060767Y0049933D02*
X0050998Y0049933D01*
X0050998Y0048934D02*
X0059862Y0048934D01*
X0058956Y0047936D02*
X0050998Y0047936D01*
X0050593Y0046937D02*
X0058051Y0046937D01*
X0057146Y0045939D02*
X0050179Y0045939D01*
X0049256Y0044940D02*
X0056241Y0044940D01*
X0055336Y0043942D02*
X0048644Y0043942D01*
X0049643Y0042943D02*
X0054430Y0042943D01*
X0053525Y0041945D02*
X0050202Y0041945D01*
X0050615Y0040946D02*
X0052620Y0040946D01*
X0051715Y0039948D02*
X0050721Y0039948D01*
X0050721Y0038949D02*
X0050809Y0038949D01*
X0052048Y0034955D02*
X0179113Y0034955D01*
X0178296Y0033957D02*
X0162785Y0033957D01*
X0163783Y0032958D02*
X0177479Y0032958D01*
X0176662Y0031960D02*
X0164337Y0031960D01*
X0164751Y0030961D02*
X0175845Y0030961D01*
X0178863Y0028964D02*
X0189776Y0028964D01*
X0189362Y0029963D02*
X0179680Y0029963D01*
X0180496Y0030961D02*
X0188948Y0030961D01*
X0188909Y0031960D02*
X0181313Y0031960D01*
X0182130Y0032958D02*
X0188909Y0032958D01*
X0189167Y0033957D02*
X0182947Y0033957D01*
X0183764Y0034955D02*
X0189581Y0034955D01*
X0190295Y0035954D02*
X0184580Y0035954D01*
X0185397Y0036952D02*
X0191294Y0036952D01*
X0190620Y0037951D02*
X0186214Y0037951D01*
X0187031Y0038949D02*
X0189853Y0038949D01*
X0189439Y0039948D02*
X0187848Y0039948D01*
X0188664Y0040946D02*
X0189186Y0040946D01*
X0186464Y0043942D02*
X0162800Y0043942D01*
X0163798Y0042943D02*
X0185647Y0042943D01*
X0184830Y0041945D02*
X0164343Y0041945D01*
X0164754Y0040946D02*
X0184013Y0040946D01*
X0183197Y0039948D02*
X0164754Y0039948D01*
X0164714Y0038949D02*
X0182380Y0038949D01*
X0181563Y0037951D02*
X0164300Y0037951D01*
X0163694Y0036952D02*
X0180746Y0036952D01*
X0179929Y0035954D02*
X0162696Y0035954D01*
X0159954Y0040000D02*
X0154954Y0040000D01*
X0154563Y0041945D02*
X0155564Y0041945D01*
X0154954Y0040000D02*
X0154856Y0040002D01*
X0154758Y0040008D01*
X0154660Y0040017D01*
X0154563Y0040031D01*
X0154466Y0040048D01*
X0154370Y0040069D01*
X0154275Y0040094D01*
X0154181Y0040122D01*
X0154089Y0040155D01*
X0153997Y0040190D01*
X0153907Y0040230D01*
X0153819Y0040272D01*
X0153732Y0040319D01*
X0153648Y0040368D01*
X0153565Y0040421D01*
X0153485Y0040477D01*
X0153406Y0040537D01*
X0153330Y0040599D01*
X0153257Y0040664D01*
X0153186Y0040732D01*
X0153118Y0040803D01*
X0153053Y0040876D01*
X0152991Y0040952D01*
X0152931Y0041031D01*
X0152875Y0041111D01*
X0152822Y0041194D01*
X0152773Y0041278D01*
X0152726Y0041365D01*
X0152684Y0041453D01*
X0152644Y0041543D01*
X0152609Y0041635D01*
X0152576Y0041727D01*
X0152548Y0041821D01*
X0152523Y0041916D01*
X0152502Y0042012D01*
X0152485Y0042109D01*
X0152471Y0042206D01*
X0152462Y0042304D01*
X0152456Y0042402D01*
X0152454Y0042500D01*
X0152454Y0090000D01*
X0154254Y0089873D02*
X0155154Y0089873D01*
X0155154Y0090872D02*
X0154254Y0090872D01*
X0154254Y0091870D02*
X0155533Y0091870D01*
X0156034Y0092869D02*
X0154254Y0092869D01*
X0150654Y0092869D02*
X0144101Y0092869D01*
X0145223Y0091870D02*
X0150654Y0091870D01*
X0150654Y0093868D02*
X0082874Y0093868D01*
X0083873Y0092869D02*
X0140806Y0092869D01*
X0139684Y0091870D02*
X0084374Y0091870D01*
X0084754Y0090872D02*
X0139263Y0090872D01*
X0139172Y0089873D02*
X0084754Y0089873D01*
X0084683Y0088875D02*
X0139368Y0088875D01*
X0139937Y0087876D02*
X0084269Y0087876D01*
X0082859Y0083882D02*
X0150654Y0083882D01*
X0150654Y0082884D02*
X0083858Y0082884D01*
X0084368Y0081885D02*
X0150654Y0081885D01*
X0150654Y0080887D02*
X0084754Y0080887D01*
X0084754Y0079888D02*
X0150654Y0079888D01*
X0150654Y0078890D02*
X0084689Y0078890D01*
X0084276Y0077891D02*
X0150654Y0077891D01*
X0150654Y0076893D02*
X0083635Y0076893D01*
X0063371Y0056923D02*
X0050325Y0056923D01*
X0049610Y0055924D02*
X0062372Y0055924D01*
X0061604Y0054926D02*
X0048611Y0054926D01*
X0048478Y0053927D02*
X0061604Y0053927D01*
X0061604Y0052929D02*
X0049497Y0052929D01*
X0050279Y0051930D02*
X0061604Y0051930D01*
X0061672Y0050932D02*
X0050692Y0050932D01*
X0037454Y0071250D02*
X0037454Y0121875D01*
X0037454Y0192500D01*
X0039254Y0180738D02*
X0062780Y0180738D01*
X0061886Y0179739D02*
X0039254Y0179739D01*
X0039254Y0178741D02*
X0061472Y0178741D01*
X0061310Y0177742D02*
X0039254Y0177742D01*
X0039254Y0176744D02*
X0061310Y0176744D01*
X0061685Y0175745D02*
X0039254Y0175745D01*
X0039254Y0174747D02*
X0062295Y0174747D01*
X0067640Y0183734D02*
X0076899Y0183734D01*
X0064220Y0157772D02*
X0054031Y0157772D01*
X0053033Y0156774D02*
X0063222Y0156774D01*
X0062223Y0155775D02*
X0052034Y0155775D01*
X0051036Y0154777D02*
X0061604Y0154777D01*
X0061604Y0153778D02*
X0050549Y0153778D01*
X0050962Y0152780D02*
X0061604Y0152780D01*
X0061604Y0151781D02*
X0050998Y0151781D01*
X0050998Y0150783D02*
X0061128Y0150783D01*
X0060113Y0149784D02*
X0050736Y0149784D01*
X0050323Y0148786D02*
X0059098Y0148786D01*
X0066204Y0153250D02*
X0045269Y0132657D01*
X0041312Y0136803D02*
X0039254Y0136803D01*
X0039254Y0135805D02*
X0040371Y0135805D01*
X0039957Y0134806D02*
X0039254Y0134806D01*
X0039254Y0133808D02*
X0039544Y0133808D01*
X0039539Y0132809D02*
X0039254Y0132809D01*
X0039254Y0131811D02*
X0039539Y0131811D01*
X0039254Y0130812D02*
X0039832Y0130812D01*
X0040245Y0129814D02*
X0039254Y0129814D01*
X0039254Y0128815D02*
X0041008Y0128815D01*
X0042007Y0127817D02*
X0039254Y0127817D01*
X0039254Y0126818D02*
X0041957Y0126818D01*
X0040959Y0125820D02*
X0039254Y0125820D01*
X0039254Y0124821D02*
X0040225Y0124821D01*
X0035654Y0124821D02*
X0030491Y0124821D01*
X0030206Y0125510D02*
X0028672Y0127044D01*
X0026668Y0127874D01*
X0024499Y0127874D01*
X0022495Y0127044D01*
X0020961Y0125510D01*
X0020131Y0123506D01*
X0020131Y0121337D01*
X0020961Y0119333D01*
X0022495Y0117799D01*
X0024499Y0116969D01*
X0026668Y0116969D01*
X0028672Y0117799D01*
X0030206Y0119333D01*
X0031036Y0121337D01*
X0031036Y0123506D01*
X0030206Y0125510D01*
X0029896Y0125820D02*
X0035654Y0125820D01*
X0035654Y0126818D02*
X0028898Y0126818D01*
X0026806Y0127817D02*
X0035654Y0127817D01*
X0035654Y0128815D02*
X0017454Y0128815D01*
X0017454Y0127817D02*
X0024361Y0127817D01*
X0022269Y0126818D02*
X0017454Y0126818D01*
X0017454Y0125820D02*
X0021271Y0125820D01*
X0020676Y0124821D02*
X0017454Y0124821D01*
X0017454Y0123823D02*
X0020262Y0123823D01*
X0020131Y0122824D02*
X0017454Y0122824D01*
X0017454Y0121826D02*
X0020131Y0121826D01*
X0020342Y0120827D02*
X0017454Y0120827D01*
X0017454Y0119829D02*
X0020755Y0119829D01*
X0021463Y0118830D02*
X0017454Y0118830D01*
X0017454Y0117832D02*
X0022462Y0117832D01*
X0023392Y0115835D02*
X0017454Y0115835D01*
X0017454Y0116833D02*
X0035654Y0116833D01*
X0035654Y0115835D02*
X0027775Y0115835D01*
X0026723Y0116270D02*
X0024444Y0116270D01*
X0022338Y0115398D01*
X0020727Y0113787D01*
X0019854Y0111681D01*
X0019854Y0109402D01*
X0020727Y0107296D01*
X0022338Y0105684D01*
X0024444Y0104812D01*
X0026723Y0104812D01*
X0028829Y0105684D01*
X0030440Y0107296D01*
X0031313Y0109402D01*
X0031313Y0111681D01*
X0030440Y0113787D01*
X0028829Y0115398D01*
X0026723Y0116270D01*
X0028705Y0117832D02*
X0035654Y0117832D01*
X0035654Y0118830D02*
X0029704Y0118830D01*
X0030412Y0119829D02*
X0034860Y0119829D01*
X0034336Y0120827D02*
X0030825Y0120827D01*
X0031036Y0121826D02*
X0034172Y0121826D01*
X0034295Y0122824D02*
X0031036Y0122824D01*
X0030905Y0123823D02*
X0034761Y0123823D01*
X0035654Y0129814D02*
X0017454Y0129814D01*
X0017454Y0130812D02*
X0035654Y0130812D01*
X0035654Y0131811D02*
X0017454Y0131811D01*
X0017454Y0132809D02*
X0035654Y0132809D01*
X0035654Y0133808D02*
X0017454Y0133808D01*
X0017454Y0134806D02*
X0035654Y0134806D01*
X0039254Y0137802D02*
X0041861Y0137802D01*
X0040863Y0138801D02*
X0039254Y0138801D01*
X0039254Y0139799D02*
X0040322Y0139799D01*
X0039909Y0140798D02*
X0039254Y0140798D01*
X0039254Y0141796D02*
X0039816Y0141796D01*
X0039816Y0142795D02*
X0039254Y0142795D01*
X0039254Y0143793D02*
X0040065Y0143793D01*
X0040479Y0144792D02*
X0039254Y0144792D01*
X0039254Y0145790D02*
X0041241Y0145790D01*
X0041933Y0146789D02*
X0039254Y0146789D01*
X0035654Y0114836D02*
X0029391Y0114836D01*
X0030389Y0113838D02*
X0035654Y0113838D01*
X0035654Y0112839D02*
X0030833Y0112839D01*
X0031246Y0111841D02*
X0035654Y0111841D01*
X0035654Y0110842D02*
X0031313Y0110842D01*
X0031313Y0109844D02*
X0035654Y0109844D01*
X0035654Y0108845D02*
X0031082Y0108845D01*
X0030668Y0107847D02*
X0035654Y0107847D01*
X0035654Y0106848D02*
X0029992Y0106848D01*
X0028994Y0105850D02*
X0035654Y0105850D01*
X0035654Y0104851D02*
X0026817Y0104851D01*
X0024350Y0104851D02*
X0017454Y0104851D01*
X0017454Y0103853D02*
X0035654Y0103853D01*
X0035654Y0102854D02*
X0017454Y0102854D01*
X0017454Y0101856D02*
X0035654Y0101856D01*
X0035654Y0100857D02*
X0017454Y0100857D01*
X0017454Y0099859D02*
X0035654Y0099859D01*
X0035654Y0098860D02*
X0017454Y0098860D01*
X0017454Y0097862D02*
X0035654Y0097862D01*
X0035654Y0096863D02*
X0027545Y0096863D01*
X0029485Y0095865D02*
X0035654Y0095865D01*
X0035654Y0094866D02*
X0030483Y0094866D01*
X0031155Y0093868D02*
X0035654Y0093868D01*
X0035654Y0092869D02*
X0031569Y0092869D01*
X0031883Y0091870D02*
X0035654Y0091870D01*
X0035654Y0090872D02*
X0031883Y0090872D01*
X0023622Y0096863D02*
X0017454Y0096863D01*
X0017454Y0095865D02*
X0021682Y0095865D01*
X0020684Y0094866D02*
X0017454Y0094866D01*
X0017454Y0093868D02*
X0020012Y0093868D01*
X0019598Y0092869D02*
X0017454Y0092869D01*
X0017454Y0091870D02*
X0019283Y0091870D01*
X0019283Y0090872D02*
X0017454Y0090872D01*
X0017454Y0089873D02*
X0019283Y0089873D01*
X0019585Y0088875D02*
X0017454Y0088875D01*
X0017454Y0087876D02*
X0019999Y0087876D01*
X0020652Y0086878D02*
X0017454Y0086878D01*
X0017454Y0085879D02*
X0021651Y0085879D01*
X0023547Y0084881D02*
X0017454Y0084881D01*
X0017454Y0105850D02*
X0022173Y0105850D01*
X0021174Y0106848D02*
X0017454Y0106848D01*
X0017454Y0107847D02*
X0020498Y0107847D01*
X0020085Y0108845D02*
X0017454Y0108845D01*
X0017454Y0109844D02*
X0019854Y0109844D01*
X0019854Y0110842D02*
X0017454Y0110842D01*
X0017454Y0111841D02*
X0019921Y0111841D01*
X0020334Y0112839D02*
X0017454Y0112839D01*
X0017454Y0113838D02*
X0020778Y0113838D01*
X0021776Y0114836D02*
X0017454Y0114836D01*
X0068112Y0107847D02*
X0075650Y0107847D01*
X0076317Y0106848D02*
X0069111Y0106848D01*
X0070109Y0105850D02*
X0077430Y0105850D01*
X0154254Y0088875D02*
X0155224Y0088875D01*
X0155638Y0087876D02*
X0154254Y0087876D01*
X0154254Y0086878D02*
X0156287Y0086878D01*
X0157359Y0085879D02*
X0154254Y0085879D01*
X0154254Y0084881D02*
X0178968Y0084881D01*
X0178202Y0083882D02*
X0162859Y0083882D01*
X0162673Y0084069D02*
X0160908Y0084800D01*
X0158999Y0084800D01*
X0157235Y0084069D01*
X0155884Y0082719D01*
X0155154Y0080955D01*
X0155154Y0079045D01*
X0155884Y0077281D01*
X0157235Y0075931D01*
X0158999Y0075200D01*
X0160908Y0075200D01*
X0162673Y0075931D01*
X0164023Y0077281D01*
X0164754Y0079045D01*
X0164754Y0080955D01*
X0164023Y0082719D01*
X0162673Y0084069D01*
X0163858Y0082884D02*
X0177436Y0082884D01*
X0176669Y0081885D02*
X0164368Y0081885D01*
X0164754Y0080887D02*
X0175903Y0080887D01*
X0175137Y0079888D02*
X0164754Y0079888D01*
X0164689Y0078890D02*
X0174370Y0078890D01*
X0177376Y0076893D02*
X0190614Y0076893D01*
X0189713Y0075894D02*
X0177679Y0075894D01*
X0177679Y0074896D02*
X0189299Y0074896D01*
X0188909Y0073897D02*
X0177679Y0073897D01*
X0177679Y0072899D02*
X0188909Y0072899D01*
X0188909Y0071900D02*
X0177234Y0071900D01*
X0176236Y0070902D02*
X0189230Y0070902D01*
X0189643Y0069903D02*
X0175237Y0069903D01*
X0173079Y0074250D02*
X0194639Y0102343D01*
X0185865Y0093868D02*
X0162874Y0093868D01*
X0163873Y0092869D02*
X0185099Y0092869D01*
X0184333Y0091870D02*
X0164374Y0091870D01*
X0164754Y0090872D02*
X0183566Y0090872D01*
X0182800Y0089873D02*
X0164754Y0089873D01*
X0164683Y0088875D02*
X0182034Y0088875D01*
X0181267Y0087876D02*
X0164269Y0087876D01*
X0163620Y0086878D02*
X0180501Y0086878D01*
X0179735Y0085879D02*
X0162549Y0085879D01*
X0157048Y0083882D02*
X0154254Y0083882D01*
X0154254Y0082884D02*
X0156049Y0082884D01*
X0155539Y0081885D02*
X0154254Y0081885D01*
X0154254Y0080887D02*
X0155154Y0080887D01*
X0155154Y0079888D02*
X0154254Y0079888D01*
X0154254Y0078890D02*
X0155218Y0078890D01*
X0155631Y0077891D02*
X0154254Y0077891D01*
X0154254Y0076893D02*
X0156273Y0076893D01*
X0157323Y0075894D02*
X0154254Y0075894D01*
X0154254Y0074896D02*
X0168479Y0074896D01*
X0168479Y0075894D02*
X0162584Y0075894D01*
X0163635Y0076893D02*
X0169216Y0076893D01*
X0170214Y0077891D02*
X0164276Y0077891D01*
X0162673Y0074069D02*
X0160908Y0074800D01*
X0158999Y0074800D01*
X0157235Y0074069D01*
X0155884Y0072719D01*
X0155154Y0070955D01*
X0155154Y0069045D01*
X0155884Y0067281D01*
X0157235Y0065931D01*
X0158999Y0065200D01*
X0160908Y0065200D01*
X0162673Y0065931D01*
X0164023Y0067281D01*
X0164754Y0069045D01*
X0164754Y0070955D01*
X0164023Y0072719D01*
X0162673Y0074069D01*
X0162844Y0073897D02*
X0168479Y0073897D01*
X0168479Y0072899D02*
X0163843Y0072899D01*
X0164362Y0071900D02*
X0168923Y0071900D01*
X0169921Y0070902D02*
X0164754Y0070902D01*
X0164754Y0069903D02*
X0170920Y0069903D01*
X0171798Y0064100D02*
X0169104Y0061405D01*
X0169104Y0057595D01*
X0171798Y0054900D01*
X0175609Y0054900D01*
X0178304Y0057595D01*
X0178304Y0061405D01*
X0175609Y0064100D01*
X0171798Y0064100D01*
X0171610Y0063912D02*
X0163075Y0063912D01*
X0163211Y0063814D02*
X0162574Y0064276D01*
X0161873Y0064634D01*
X0161124Y0064877D01*
X0160438Y0064986D01*
X0160438Y0060484D01*
X0164939Y0060484D01*
X0164830Y0061171D01*
X0164587Y0061919D01*
X0164230Y0062621D01*
X0163767Y0063257D01*
X0163211Y0063814D01*
X0164017Y0062914D02*
X0170612Y0062914D01*
X0169613Y0061915D02*
X0164589Y0061915D01*
X0164871Y0060917D02*
X0169104Y0060917D01*
X0169104Y0059918D02*
X0160438Y0059918D01*
X0160438Y0059516D02*
X0160438Y0060484D01*
X0159469Y0060484D01*
X0159469Y0059516D01*
X0154968Y0059516D01*
X0155077Y0058829D01*
X0155320Y0058081D01*
X0155677Y0057379D01*
X0156140Y0056743D01*
X0156696Y0056186D01*
X0157333Y0055724D01*
X0158034Y0055366D01*
X0158783Y0055123D01*
X0159469Y0055014D01*
X0159469Y0059516D01*
X0160438Y0059516D01*
X0164939Y0059516D01*
X0164830Y0058829D01*
X0164587Y0058081D01*
X0164230Y0057379D01*
X0163767Y0056743D01*
X0163211Y0056186D01*
X0162574Y0055724D01*
X0161873Y0055366D01*
X0161124Y0055123D01*
X0160438Y0055014D01*
X0160438Y0059516D01*
X0160438Y0058920D02*
X0159469Y0058920D01*
X0159469Y0059918D02*
X0154254Y0059918D01*
X0154968Y0060484D02*
X0159469Y0060484D01*
X0159469Y0064986D01*
X0158783Y0064877D01*
X0158034Y0064634D01*
X0157333Y0064276D01*
X0156696Y0063814D01*
X0156140Y0063257D01*
X0155677Y0062621D01*
X0155320Y0061919D01*
X0155077Y0061171D01*
X0154968Y0060484D01*
X0155036Y0060917D02*
X0154254Y0060917D01*
X0154254Y0061915D02*
X0155319Y0061915D01*
X0155890Y0062914D02*
X0154254Y0062914D01*
X0154254Y0063912D02*
X0156832Y0063912D01*
X0157287Y0065909D02*
X0154254Y0065909D01*
X0154254Y0064911D02*
X0158996Y0064911D01*
X0159469Y0064911D02*
X0160438Y0064911D01*
X0160911Y0064911D02*
X0189758Y0064911D01*
X0189344Y0063912D02*
X0175797Y0063912D01*
X0176795Y0062914D02*
X0188931Y0062914D01*
X0188909Y0061915D02*
X0177794Y0061915D01*
X0178304Y0060917D02*
X0188909Y0060917D01*
X0189185Y0059918D02*
X0178304Y0059918D01*
X0178304Y0058920D02*
X0189598Y0058920D01*
X0190338Y0057921D02*
X0178304Y0057921D01*
X0177632Y0056923D02*
X0191336Y0056923D01*
X0191368Y0055924D02*
X0176633Y0055924D01*
X0175634Y0054926D02*
X0190369Y0054926D01*
X0189612Y0053927D02*
X0162815Y0053927D01*
X0162673Y0054069D02*
X0160908Y0054800D01*
X0158999Y0054800D01*
X0157235Y0054069D01*
X0155884Y0052719D01*
X0155154Y0050955D01*
X0155154Y0049045D01*
X0155884Y0047281D01*
X0157235Y0045931D01*
X0158999Y0045200D01*
X0160908Y0045200D01*
X0162673Y0045931D01*
X0164023Y0047281D01*
X0164754Y0049045D01*
X0164754Y0050955D01*
X0164023Y0052719D01*
X0162673Y0054069D01*
X0163813Y0052929D02*
X0189198Y0052929D01*
X0188909Y0051930D02*
X0164350Y0051930D01*
X0164754Y0050932D02*
X0188909Y0050932D01*
X0188918Y0049933D02*
X0164754Y0049933D01*
X0164708Y0048934D02*
X0189331Y0048934D01*
X0189731Y0047936D02*
X0164294Y0047936D01*
X0163679Y0046937D02*
X0188914Y0046937D01*
X0188097Y0045939D02*
X0162681Y0045939D01*
X0157226Y0045939D02*
X0154254Y0045939D01*
X0154254Y0046937D02*
X0156228Y0046937D01*
X0155613Y0047936D02*
X0154254Y0047936D01*
X0154254Y0048934D02*
X0155199Y0048934D01*
X0155154Y0049933D02*
X0154254Y0049933D01*
X0154254Y0050932D02*
X0155154Y0050932D01*
X0155558Y0051930D02*
X0154254Y0051930D01*
X0154254Y0052929D02*
X0156094Y0052929D01*
X0157092Y0053927D02*
X0154254Y0053927D01*
X0154254Y0054926D02*
X0171773Y0054926D01*
X0170774Y0055924D02*
X0162850Y0055924D01*
X0163898Y0056923D02*
X0169776Y0056923D01*
X0169104Y0057921D02*
X0164506Y0057921D01*
X0164845Y0058920D02*
X0169104Y0058920D01*
X0162620Y0065909D02*
X0190723Y0065909D01*
X0192186Y0066908D02*
X0163649Y0066908D01*
X0164282Y0067906D02*
X0191518Y0067906D01*
X0190447Y0068905D02*
X0164695Y0068905D01*
X0160438Y0063912D02*
X0159469Y0063912D01*
X0159469Y0062914D02*
X0160438Y0062914D01*
X0160438Y0061915D02*
X0159469Y0061915D01*
X0159469Y0060917D02*
X0160438Y0060917D01*
X0160438Y0057921D02*
X0159469Y0057921D01*
X0159469Y0056923D02*
X0160438Y0056923D01*
X0160438Y0055924D02*
X0159469Y0055924D01*
X0157057Y0055924D02*
X0154254Y0055924D01*
X0154254Y0056923D02*
X0156009Y0056923D01*
X0155401Y0057921D02*
X0154254Y0057921D01*
X0154254Y0058920D02*
X0155062Y0058920D01*
X0154254Y0066908D02*
X0156258Y0066908D01*
X0155625Y0067906D02*
X0154254Y0067906D01*
X0154254Y0068905D02*
X0155212Y0068905D01*
X0155154Y0069903D02*
X0154254Y0069903D01*
X0154254Y0070902D02*
X0155154Y0070902D01*
X0155545Y0071900D02*
X0154254Y0071900D01*
X0154254Y0072899D02*
X0156064Y0072899D01*
X0157063Y0073897D02*
X0154254Y0073897D01*
X0178142Y0077891D02*
X0191923Y0077891D01*
X0191091Y0078890D02*
X0178908Y0078890D01*
X0179675Y0079888D02*
X0190093Y0079888D01*
X0189497Y0080887D02*
X0180441Y0080887D01*
X0181207Y0081885D02*
X0189083Y0081885D01*
X0188909Y0082884D02*
X0181974Y0082884D01*
X0182740Y0083882D02*
X0188909Y0083882D01*
X0189032Y0084881D02*
X0183506Y0084881D01*
X0184273Y0085879D02*
X0189446Y0085879D01*
X0189969Y0086878D02*
X0185039Y0086878D01*
X0185805Y0087876D02*
X0190968Y0087876D01*
X0190946Y0088875D02*
X0186572Y0088875D01*
X0187338Y0089873D02*
X0189988Y0089873D01*
X0189574Y0090872D02*
X0188104Y0090872D01*
X0188871Y0091870D02*
X0189186Y0091870D01*
X0194639Y0051093D02*
X0173704Y0025500D01*
X0170662Y0028964D02*
X0164720Y0028964D01*
X0164754Y0029963D02*
X0171661Y0029963D01*
X0169664Y0027966D02*
X0164306Y0027966D01*
X0163709Y0026967D02*
X0169104Y0026967D01*
X0169104Y0025969D02*
X0162710Y0025969D01*
X0159051Y0021975D02*
X0170723Y0021975D01*
X0169725Y0022973D02*
X0156640Y0022973D01*
X0153267Y0022973D02*
X0086640Y0022973D01*
X0089051Y0021975D02*
X0150856Y0021975D01*
X0149599Y0020976D02*
X0090308Y0020976D01*
X0091306Y0019978D02*
X0148601Y0019978D01*
X0147930Y0018979D02*
X0091977Y0018979D01*
X0092391Y0017981D02*
X0147516Y0017981D01*
X0147103Y0016982D02*
X0092804Y0016982D01*
X0092965Y0015984D02*
X0146942Y0015984D01*
X0146942Y0014985D02*
X0092965Y0014985D01*
X0092965Y0013987D02*
X0146942Y0013987D01*
X0147115Y0012988D02*
X0092792Y0012988D01*
X0092378Y0011990D02*
X0147529Y0011990D01*
X0147942Y0010991D02*
X0091965Y0010991D01*
X0091277Y0009993D02*
X0148631Y0009993D01*
X0149629Y0008994D02*
X0090278Y0008994D01*
X0088979Y0007996D02*
X0150928Y0007996D01*
X0178046Y0027966D02*
X0190765Y0027966D01*
X0187281Y0044940D02*
X0154254Y0044940D01*
X0154254Y0043942D02*
X0157107Y0043942D01*
X0156109Y0042943D02*
X0154254Y0042943D01*
X0083267Y0022973D02*
X0068986Y0022973D01*
X0069984Y0021975D02*
X0080856Y0021975D01*
X0079599Y0020976D02*
X0070804Y0020976D01*
X0070804Y0019978D02*
X0078601Y0019978D01*
X0077930Y0018979D02*
X0070804Y0018979D01*
X0070804Y0017981D02*
X0077516Y0017981D01*
X0077103Y0016982D02*
X0070441Y0016982D01*
X0069443Y0015984D02*
X0076942Y0015984D01*
X0187454Y0147500D02*
X0194639Y0153593D01*
X0190716Y0157772D02*
X0178304Y0157772D01*
X0178304Y0156774D02*
X0189755Y0156774D01*
X0189342Y0155775D02*
X0177734Y0155775D01*
X0176736Y0154777D02*
X0188928Y0154777D01*
X0188909Y0153778D02*
X0175737Y0153778D01*
X0178304Y0158771D02*
X0192169Y0158771D01*
X0190990Y0159769D02*
X0178304Y0159769D01*
X0177691Y0160768D02*
X0189991Y0160768D01*
X0189455Y0161766D02*
X0176693Y0161766D01*
X0175694Y0162765D02*
X0189041Y0162765D01*
X0164954Y0222500D02*
X0164956Y0222598D01*
X0164962Y0222696D01*
X0164971Y0222794D01*
X0164985Y0222891D01*
X0165002Y0222988D01*
X0165023Y0223084D01*
X0165048Y0223179D01*
X0165076Y0223273D01*
X0165109Y0223365D01*
X0165144Y0223457D01*
X0165184Y0223547D01*
X0165226Y0223635D01*
X0165273Y0223722D01*
X0165322Y0223806D01*
X0165375Y0223889D01*
X0165431Y0223969D01*
X0165491Y0224048D01*
X0165553Y0224124D01*
X0165618Y0224197D01*
X0165686Y0224268D01*
X0165757Y0224336D01*
X0165830Y0224401D01*
X0165906Y0224463D01*
X0165985Y0224523D01*
X0166065Y0224579D01*
X0166148Y0224632D01*
X0166232Y0224681D01*
X0166319Y0224728D01*
X0166407Y0224770D01*
X0166497Y0224810D01*
X0166589Y0224845D01*
X0166681Y0224878D01*
X0166775Y0224906D01*
X0166870Y0224931D01*
X0166966Y0224952D01*
X0167063Y0224969D01*
X0167160Y0224983D01*
X0167258Y0224992D01*
X0167356Y0224998D01*
X0167454Y0225000D01*
X0062593Y0219680D02*
X0061488Y0219680D01*
X0060749Y0218681D02*
X0059884Y0218681D01*
X0059404Y0217683D02*
X0057332Y0217683D01*
M02*
