G75*
%MOIN*%
%OFA0B0*%
%FSLAX25Y25*%
%IPPOS*%
%LPD*%
%AMOC8*
5,1,8,0,0,1.08239X$1,22.5*
%
%ADD10C,0.11824*%
%ADD11R,0.04934X0.03359*%
%ADD12R,0.06706X0.05918*%
%ADD13R,0.05918X0.06706*%
%ADD14R,0.03162X0.05131*%
%ADD15OC8,0.07400*%
%ADD16R,0.06299X0.05512*%
%ADD17R,0.05131X0.06312*%
%ADD18R,0.06312X0.05131*%
%ADD19R,0.06706X0.03162*%
%ADD20C,0.06737*%
%ADD21C,0.10800*%
%ADD22C,0.09658*%
%ADD23C,0.06706*%
%ADD24C,0.19698*%
%ADD25C,0.07800*%
%ADD26R,0.05524X0.08674*%
%ADD27C,0.04762*%
D10*
X0084954Y0015000D03*
X0154954Y0015000D03*
X0154954Y0195000D03*
X0214954Y0235000D03*
X0084954Y0195000D03*
X0024954Y0235000D03*
D11*
X0122926Y0104365D03*
X0122926Y0096885D03*
X0131981Y0100625D03*
D12*
X0184954Y0100404D03*
X0184954Y0107096D03*
X0184954Y0150404D03*
X0184954Y0157096D03*
X0184954Y0200404D03*
X0184954Y0207096D03*
X0115579Y0195221D03*
X0115579Y0188529D03*
X0114954Y0172096D03*
X0114954Y0165404D03*
X0054954Y0128346D03*
X0054954Y0121654D03*
X0054954Y0078346D03*
X0054954Y0071654D03*
X0054954Y0028346D03*
X0054954Y0021654D03*
X0184954Y0050404D03*
X0184954Y0057096D03*
D13*
X0038300Y0189375D03*
X0031607Y0189375D03*
D14*
X0101213Y0189887D03*
X0108694Y0189887D03*
X0108694Y0178863D03*
X0104954Y0178863D03*
X0101213Y0178863D03*
D15*
X0066204Y0153250D03*
X0066204Y0119250D03*
X0066204Y0103250D03*
X0066204Y0069250D03*
X0066204Y0053250D03*
X0066204Y0019250D03*
X0173704Y0025500D03*
X0173704Y0059500D03*
X0173079Y0074250D03*
X0173079Y0108250D03*
X0173704Y0124250D03*
X0173704Y0158250D03*
X0173704Y0175500D03*
X0173704Y0209500D03*
D16*
X0173704Y0196537D03*
X0173704Y0188463D03*
X0173704Y0145287D03*
X0173704Y0137213D03*
X0173079Y0095287D03*
X0173079Y0087213D03*
X0173704Y0046537D03*
X0173704Y0038463D03*
X0066204Y0040287D03*
X0066204Y0032213D03*
X0066204Y0082213D03*
X0066204Y0090287D03*
X0066204Y0132213D03*
X0066204Y0140287D03*
D17*
X0031391Y0131250D03*
X0023517Y0131250D03*
X0023517Y0152500D03*
X0031391Y0152500D03*
X0031017Y0180000D03*
X0038891Y0180000D03*
X0031391Y0101250D03*
X0023517Y0101250D03*
X0023517Y0080625D03*
X0031391Y0080625D03*
X0031391Y0050000D03*
X0023517Y0050000D03*
X0023517Y0029375D03*
X0031391Y0029375D03*
X0208517Y0082500D03*
X0216391Y0082500D03*
X0216391Y0103750D03*
X0208517Y0103750D03*
X0209142Y0133750D03*
X0217016Y0133750D03*
X0217016Y0154375D03*
X0209142Y0154375D03*
X0208517Y0185000D03*
X0216391Y0185000D03*
X0216391Y0205625D03*
X0208517Y0205625D03*
X0209142Y0051875D03*
X0217016Y0051875D03*
X0217016Y0030625D03*
X0209142Y0030625D03*
D18*
X0184954Y0027687D03*
X0184954Y0019813D03*
X0184954Y0070438D03*
X0184954Y0078312D03*
X0184954Y0121063D03*
X0184954Y0128937D03*
X0184954Y0169813D03*
X0184954Y0177687D03*
X0109329Y0104562D03*
X0109329Y0096688D03*
X0054954Y0101063D03*
X0054954Y0108937D03*
X0054954Y0151063D03*
X0054954Y0158937D03*
X0048704Y0179813D03*
X0048704Y0187687D03*
X0079954Y0222313D03*
X0079954Y0230187D03*
X0054954Y0058937D03*
X0054954Y0051063D03*
D19*
X0109324Y0114646D03*
X0109324Y0119764D03*
X0109324Y0124882D03*
X0109324Y0130000D03*
X0109324Y0135118D03*
X0109324Y0140236D03*
X0109324Y0145354D03*
X0109324Y0150472D03*
X0130583Y0150472D03*
X0130583Y0145354D03*
X0130583Y0140236D03*
X0130583Y0135118D03*
X0130583Y0130000D03*
X0130583Y0124882D03*
X0130583Y0119764D03*
X0130583Y0114646D03*
D20*
X0065579Y0167500D03*
X0065579Y0177500D03*
X0065579Y0187500D03*
X0129954Y0211250D03*
X0139954Y0211250D03*
X0149954Y0211250D03*
X0149954Y0221250D03*
X0139954Y0221250D03*
X0129954Y0221250D03*
D21*
X0214324Y0195394D03*
X0214324Y0144144D03*
X0214324Y0092894D03*
X0214324Y0041644D03*
X0025583Y0039606D03*
X0025583Y0090856D03*
X0025583Y0142106D03*
D22*
X0025583Y0161791D03*
X0045269Y0162185D03*
X0045269Y0151555D03*
X0045269Y0132657D03*
X0045269Y0122028D03*
X0045269Y0110935D03*
X0045269Y0100305D03*
X0045269Y0081407D03*
X0045269Y0070778D03*
X0045269Y0059685D03*
X0045269Y0049055D03*
X0045269Y0030157D03*
X0045269Y0019528D03*
X0025583Y0059291D03*
X0025583Y0110541D03*
X0194639Y0112972D03*
X0194639Y0102343D03*
X0194639Y0083445D03*
X0194639Y0072815D03*
X0194639Y0061722D03*
X0194639Y0051093D03*
X0194639Y0032195D03*
X0194639Y0021565D03*
X0214324Y0021959D03*
X0214324Y0073209D03*
X0214324Y0124459D03*
X0194639Y0124065D03*
X0194639Y0134695D03*
X0194639Y0153593D03*
X0194639Y0164222D03*
X0194639Y0175315D03*
X0194639Y0185945D03*
X0194639Y0204843D03*
X0194639Y0215472D03*
X0214324Y0175709D03*
D23*
X0025583Y0019921D03*
X0045269Y0039606D03*
X0025583Y0071171D03*
X0045269Y0090856D03*
X0025583Y0122421D03*
X0045269Y0142106D03*
X0194639Y0144144D03*
X0214324Y0163829D03*
X0194639Y0195394D03*
X0214324Y0215079D03*
X0214324Y0112579D03*
X0194639Y0092894D03*
X0214324Y0061329D03*
X0194639Y0041644D03*
D24*
X0066528Y0209606D03*
X0054717Y0228110D03*
X0043300Y0209606D03*
D25*
X0079954Y0180000D03*
X0079954Y0170000D03*
X0079954Y0160000D03*
X0079954Y0150000D03*
X0079954Y0140000D03*
X0079954Y0130000D03*
X0079954Y0120000D03*
X0079954Y0110000D03*
X0079954Y0100000D03*
X0079954Y0090000D03*
X0079954Y0080000D03*
X0079954Y0070000D03*
X0159954Y0070000D03*
X0159954Y0060000D03*
X0159954Y0050000D03*
X0159954Y0040000D03*
X0159954Y0030000D03*
X0159954Y0080000D03*
X0159954Y0090000D03*
X0159954Y0100000D03*
X0159954Y0110000D03*
X0159954Y0120000D03*
X0159954Y0130000D03*
X0159954Y0140000D03*
X0159954Y0150000D03*
X0159954Y0160000D03*
X0159954Y0170000D03*
X0159954Y0180000D03*
D26*
X0114796Y0207657D03*
X0104954Y0207657D03*
X0095111Y0207657D03*
X0095111Y0227343D03*
X0104954Y0227343D03*
X0114796Y0227343D03*
D27*
X0104954Y0199375D03*
X0087454Y0207500D03*
X0102454Y0170625D03*
X0122454Y0165000D03*
X0144954Y0185000D03*
X0139954Y0190000D03*
X0134954Y0195000D03*
X0129954Y0200000D03*
X0152454Y0178750D03*
X0186204Y0185625D03*
X0208079Y0170000D03*
X0203704Y0161250D03*
X0186204Y0136875D03*
X0207454Y0118750D03*
X0203079Y0111250D03*
X0181829Y0093125D03*
X0208079Y0067500D03*
X0203704Y0061875D03*
X0186204Y0064375D03*
X0182454Y0042500D03*
X0201829Y0026875D03*
X0144954Y0060000D03*
X0142454Y0090000D03*
X0139954Y0112500D03*
X0139954Y0120000D03*
X0122454Y0130000D03*
X0104329Y0086250D03*
X0072454Y0064375D03*
X0037454Y0071250D03*
X0033079Y0065000D03*
X0037454Y0022500D03*
X0054954Y0012500D03*
X0033079Y0116875D03*
X0037454Y0121875D03*
X0054329Y0170000D03*
X0024954Y0202500D03*
X0162454Y0232500D03*
X0203704Y0213750D03*
X0217454Y0222500D03*
M02*
