G75*
%MOIN*%
%OFA0B0*%
%FSLAX25Y25*%
%IPPOS*%
%LPD*%
%AMOC8*
5,1,8,0,0,1.08239X$1,22.5*
%
%ADD10C,0.00600*%
%ADD11C,0.00300*%
%ADD12C,0.00400*%
%ADD13C,0.00500*%
%ADD14C,0.00100*%
%ADD15R,0.02400X0.03400*%
%ADD16R,0.05512X0.02559*%
%ADD17R,0.02559X0.05512*%
D10*
X0014119Y0015819D02*
X0034269Y0015819D01*
X0042769Y0015819D02*
X0060276Y0015819D01*
X0060276Y0063394D01*
X0060269Y0063394D01*
X0060276Y0067069D02*
X0042769Y0067069D01*
X0034269Y0067069D02*
X0014119Y0067069D01*
X0014119Y0078856D01*
X0014119Y0102856D01*
X0014119Y0114644D01*
X0052769Y0114644D01*
X0060269Y0114644D02*
X0060276Y0114644D01*
X0060276Y0067069D01*
X0052769Y0063394D02*
X0014119Y0063394D01*
X0014119Y0051606D01*
X0014119Y0027606D01*
X0003300Y0027606D01*
X0003300Y0051606D01*
X0001300Y0049606D01*
X0001300Y0029606D01*
X0003300Y0027606D01*
X0014119Y0027606D02*
X0014119Y0015819D01*
X0014119Y0051606D02*
X0003300Y0051606D01*
X0003300Y0078856D02*
X0003300Y0102856D01*
X0001300Y0100856D01*
X0001300Y0080856D01*
X0003300Y0078856D01*
X0014119Y0078856D01*
X0014119Y0102856D02*
X0003300Y0102856D01*
X0014119Y0118319D02*
X0034269Y0118319D01*
X0042769Y0118319D02*
X0060276Y0118319D01*
X0060276Y0165894D01*
X0060269Y0165894D01*
X0052769Y0165894D02*
X0014119Y0165894D01*
X0014119Y0154106D01*
X0014119Y0130106D01*
X0003300Y0130106D01*
X0003300Y0154106D01*
X0001300Y0152106D01*
X0001300Y0132106D01*
X0003300Y0130106D01*
X0014119Y0130106D02*
X0014119Y0118319D01*
X0014119Y0154106D02*
X0003300Y0154106D01*
X0061704Y0144750D02*
X0061704Y0143250D01*
X0062204Y0142750D01*
X0062204Y0129750D01*
X0061704Y0129250D01*
X0061704Y0127750D01*
X0061706Y0127690D01*
X0061711Y0127629D01*
X0061720Y0127570D01*
X0061733Y0127511D01*
X0061749Y0127452D01*
X0061769Y0127395D01*
X0061792Y0127340D01*
X0061819Y0127285D01*
X0061848Y0127233D01*
X0061881Y0127182D01*
X0061917Y0127133D01*
X0061955Y0127087D01*
X0061997Y0127043D01*
X0062041Y0127001D01*
X0062087Y0126963D01*
X0062136Y0126927D01*
X0062187Y0126894D01*
X0062239Y0126865D01*
X0062294Y0126838D01*
X0062349Y0126815D01*
X0062406Y0126795D01*
X0062465Y0126779D01*
X0062524Y0126766D01*
X0062583Y0126757D01*
X0062644Y0126752D01*
X0062704Y0126750D01*
X0069704Y0126750D01*
X0069764Y0126752D01*
X0069825Y0126757D01*
X0069884Y0126766D01*
X0069943Y0126779D01*
X0070002Y0126795D01*
X0070059Y0126815D01*
X0070114Y0126838D01*
X0070169Y0126865D01*
X0070221Y0126894D01*
X0070272Y0126927D01*
X0070321Y0126963D01*
X0070367Y0127001D01*
X0070411Y0127043D01*
X0070453Y0127087D01*
X0070491Y0127133D01*
X0070527Y0127182D01*
X0070560Y0127233D01*
X0070589Y0127285D01*
X0070616Y0127340D01*
X0070639Y0127395D01*
X0070659Y0127452D01*
X0070675Y0127511D01*
X0070688Y0127570D01*
X0070697Y0127629D01*
X0070702Y0127690D01*
X0070704Y0127750D01*
X0070704Y0129250D01*
X0070204Y0129750D01*
X0070204Y0142750D01*
X0070704Y0143250D01*
X0070704Y0144750D01*
X0070702Y0144810D01*
X0070697Y0144871D01*
X0070688Y0144930D01*
X0070675Y0144989D01*
X0070659Y0145048D01*
X0070639Y0145105D01*
X0070616Y0145160D01*
X0070589Y0145215D01*
X0070560Y0145267D01*
X0070527Y0145318D01*
X0070491Y0145367D01*
X0070453Y0145413D01*
X0070411Y0145457D01*
X0070367Y0145499D01*
X0070321Y0145537D01*
X0070272Y0145573D01*
X0070221Y0145606D01*
X0070169Y0145635D01*
X0070114Y0145662D01*
X0070059Y0145685D01*
X0070002Y0145705D01*
X0069943Y0145721D01*
X0069884Y0145734D01*
X0069825Y0145743D01*
X0069764Y0145748D01*
X0069704Y0145750D01*
X0062704Y0145750D01*
X0062644Y0145748D01*
X0062583Y0145743D01*
X0062524Y0145734D01*
X0062465Y0145721D01*
X0062406Y0145705D01*
X0062349Y0145685D01*
X0062294Y0145662D01*
X0062239Y0145635D01*
X0062187Y0145606D01*
X0062136Y0145573D01*
X0062087Y0145537D01*
X0062041Y0145499D01*
X0061997Y0145457D01*
X0061955Y0145413D01*
X0061917Y0145367D01*
X0061881Y0145318D01*
X0061848Y0145267D01*
X0061819Y0145215D01*
X0061792Y0145160D01*
X0061769Y0145105D01*
X0061749Y0145048D01*
X0061733Y0144989D01*
X0061720Y0144930D01*
X0061711Y0144871D01*
X0061706Y0144810D01*
X0061704Y0144750D01*
X0062704Y0095750D02*
X0069704Y0095750D01*
X0069764Y0095748D01*
X0069825Y0095743D01*
X0069884Y0095734D01*
X0069943Y0095721D01*
X0070002Y0095705D01*
X0070059Y0095685D01*
X0070114Y0095662D01*
X0070169Y0095635D01*
X0070221Y0095606D01*
X0070272Y0095573D01*
X0070321Y0095537D01*
X0070367Y0095499D01*
X0070411Y0095457D01*
X0070453Y0095413D01*
X0070491Y0095367D01*
X0070527Y0095318D01*
X0070560Y0095267D01*
X0070589Y0095215D01*
X0070616Y0095160D01*
X0070639Y0095105D01*
X0070659Y0095048D01*
X0070675Y0094989D01*
X0070688Y0094930D01*
X0070697Y0094871D01*
X0070702Y0094810D01*
X0070704Y0094750D01*
X0070704Y0093250D01*
X0070204Y0092750D01*
X0070204Y0079750D01*
X0070704Y0079250D01*
X0070704Y0077750D01*
X0070702Y0077690D01*
X0070697Y0077629D01*
X0070688Y0077570D01*
X0070675Y0077511D01*
X0070659Y0077452D01*
X0070639Y0077395D01*
X0070616Y0077340D01*
X0070589Y0077285D01*
X0070560Y0077233D01*
X0070527Y0077182D01*
X0070491Y0077133D01*
X0070453Y0077087D01*
X0070411Y0077043D01*
X0070367Y0077001D01*
X0070321Y0076963D01*
X0070272Y0076927D01*
X0070221Y0076894D01*
X0070169Y0076865D01*
X0070114Y0076838D01*
X0070059Y0076815D01*
X0070002Y0076795D01*
X0069943Y0076779D01*
X0069884Y0076766D01*
X0069825Y0076757D01*
X0069764Y0076752D01*
X0069704Y0076750D01*
X0062704Y0076750D01*
X0062644Y0076752D01*
X0062583Y0076757D01*
X0062524Y0076766D01*
X0062465Y0076779D01*
X0062406Y0076795D01*
X0062349Y0076815D01*
X0062294Y0076838D01*
X0062239Y0076865D01*
X0062187Y0076894D01*
X0062136Y0076927D01*
X0062087Y0076963D01*
X0062041Y0077001D01*
X0061997Y0077043D01*
X0061955Y0077087D01*
X0061917Y0077133D01*
X0061881Y0077182D01*
X0061848Y0077233D01*
X0061819Y0077285D01*
X0061792Y0077340D01*
X0061769Y0077395D01*
X0061749Y0077452D01*
X0061733Y0077511D01*
X0061720Y0077570D01*
X0061711Y0077629D01*
X0061706Y0077690D01*
X0061704Y0077750D01*
X0061704Y0079250D01*
X0062204Y0079750D01*
X0062204Y0092750D01*
X0061704Y0093250D01*
X0061704Y0094750D01*
X0061706Y0094810D01*
X0061711Y0094871D01*
X0061720Y0094930D01*
X0061733Y0094989D01*
X0061749Y0095048D01*
X0061769Y0095105D01*
X0061792Y0095160D01*
X0061819Y0095215D01*
X0061848Y0095267D01*
X0061881Y0095318D01*
X0061917Y0095367D01*
X0061955Y0095413D01*
X0061997Y0095457D01*
X0062041Y0095499D01*
X0062087Y0095537D01*
X0062136Y0095573D01*
X0062187Y0095606D01*
X0062239Y0095635D01*
X0062294Y0095662D01*
X0062349Y0095685D01*
X0062406Y0095705D01*
X0062465Y0095721D01*
X0062524Y0095734D01*
X0062583Y0095743D01*
X0062644Y0095748D01*
X0062704Y0095750D01*
X0062704Y0045750D02*
X0069704Y0045750D01*
X0069764Y0045748D01*
X0069825Y0045743D01*
X0069884Y0045734D01*
X0069943Y0045721D01*
X0070002Y0045705D01*
X0070059Y0045685D01*
X0070114Y0045662D01*
X0070169Y0045635D01*
X0070221Y0045606D01*
X0070272Y0045573D01*
X0070321Y0045537D01*
X0070367Y0045499D01*
X0070411Y0045457D01*
X0070453Y0045413D01*
X0070491Y0045367D01*
X0070527Y0045318D01*
X0070560Y0045267D01*
X0070589Y0045215D01*
X0070616Y0045160D01*
X0070639Y0045105D01*
X0070659Y0045048D01*
X0070675Y0044989D01*
X0070688Y0044930D01*
X0070697Y0044871D01*
X0070702Y0044810D01*
X0070704Y0044750D01*
X0070704Y0043250D01*
X0070204Y0042750D01*
X0070204Y0029750D01*
X0070704Y0029250D01*
X0070704Y0027750D01*
X0070702Y0027690D01*
X0070697Y0027629D01*
X0070688Y0027570D01*
X0070675Y0027511D01*
X0070659Y0027452D01*
X0070639Y0027395D01*
X0070616Y0027340D01*
X0070589Y0027285D01*
X0070560Y0027233D01*
X0070527Y0027182D01*
X0070491Y0027133D01*
X0070453Y0027087D01*
X0070411Y0027043D01*
X0070367Y0027001D01*
X0070321Y0026963D01*
X0070272Y0026927D01*
X0070221Y0026894D01*
X0070169Y0026865D01*
X0070114Y0026838D01*
X0070059Y0026815D01*
X0070002Y0026795D01*
X0069943Y0026779D01*
X0069884Y0026766D01*
X0069825Y0026757D01*
X0069764Y0026752D01*
X0069704Y0026750D01*
X0062704Y0026750D01*
X0062644Y0026752D01*
X0062583Y0026757D01*
X0062524Y0026766D01*
X0062465Y0026779D01*
X0062406Y0026795D01*
X0062349Y0026815D01*
X0062294Y0026838D01*
X0062239Y0026865D01*
X0062187Y0026894D01*
X0062136Y0026927D01*
X0062087Y0026963D01*
X0062041Y0027001D01*
X0061997Y0027043D01*
X0061955Y0027087D01*
X0061917Y0027133D01*
X0061881Y0027182D01*
X0061848Y0027233D01*
X0061819Y0027285D01*
X0061792Y0027340D01*
X0061769Y0027395D01*
X0061749Y0027452D01*
X0061733Y0027511D01*
X0061720Y0027570D01*
X0061711Y0027629D01*
X0061706Y0027690D01*
X0061704Y0027750D01*
X0061704Y0029250D01*
X0062204Y0029750D01*
X0062204Y0042750D01*
X0061704Y0043250D01*
X0061704Y0044750D01*
X0061706Y0044810D01*
X0061711Y0044871D01*
X0061720Y0044930D01*
X0061733Y0044989D01*
X0061749Y0045048D01*
X0061769Y0045105D01*
X0061792Y0045160D01*
X0061819Y0045215D01*
X0061848Y0045267D01*
X0061881Y0045318D01*
X0061917Y0045367D01*
X0061955Y0045413D01*
X0061997Y0045457D01*
X0062041Y0045499D01*
X0062087Y0045537D01*
X0062136Y0045573D01*
X0062187Y0045606D01*
X0062239Y0045635D01*
X0062294Y0045662D01*
X0062349Y0045685D01*
X0062406Y0045705D01*
X0062465Y0045721D01*
X0062524Y0045734D01*
X0062583Y0045743D01*
X0062644Y0045748D01*
X0062704Y0045750D01*
X0169204Y0049500D02*
X0169704Y0049000D01*
X0169704Y0036000D01*
X0169204Y0035500D01*
X0169204Y0034000D01*
X0169206Y0033940D01*
X0169211Y0033879D01*
X0169220Y0033820D01*
X0169233Y0033761D01*
X0169249Y0033702D01*
X0169269Y0033645D01*
X0169292Y0033590D01*
X0169319Y0033535D01*
X0169348Y0033483D01*
X0169381Y0033432D01*
X0169417Y0033383D01*
X0169455Y0033337D01*
X0169497Y0033293D01*
X0169541Y0033251D01*
X0169587Y0033213D01*
X0169636Y0033177D01*
X0169687Y0033144D01*
X0169739Y0033115D01*
X0169794Y0033088D01*
X0169849Y0033065D01*
X0169906Y0033045D01*
X0169965Y0033029D01*
X0170024Y0033016D01*
X0170083Y0033007D01*
X0170144Y0033002D01*
X0170204Y0033000D01*
X0177204Y0033000D01*
X0177264Y0033002D01*
X0177325Y0033007D01*
X0177384Y0033016D01*
X0177443Y0033029D01*
X0177502Y0033045D01*
X0177559Y0033065D01*
X0177614Y0033088D01*
X0177669Y0033115D01*
X0177721Y0033144D01*
X0177772Y0033177D01*
X0177821Y0033213D01*
X0177867Y0033251D01*
X0177911Y0033293D01*
X0177953Y0033337D01*
X0177991Y0033383D01*
X0178027Y0033432D01*
X0178060Y0033483D01*
X0178089Y0033535D01*
X0178116Y0033590D01*
X0178139Y0033645D01*
X0178159Y0033702D01*
X0178175Y0033761D01*
X0178188Y0033820D01*
X0178197Y0033879D01*
X0178202Y0033940D01*
X0178204Y0034000D01*
X0178204Y0035500D01*
X0177704Y0036000D01*
X0177704Y0049000D01*
X0178204Y0049500D01*
X0178204Y0051000D01*
X0178202Y0051060D01*
X0178197Y0051121D01*
X0178188Y0051180D01*
X0178175Y0051239D01*
X0178159Y0051298D01*
X0178139Y0051355D01*
X0178116Y0051410D01*
X0178089Y0051465D01*
X0178060Y0051517D01*
X0178027Y0051568D01*
X0177991Y0051617D01*
X0177953Y0051663D01*
X0177911Y0051707D01*
X0177867Y0051749D01*
X0177821Y0051787D01*
X0177772Y0051823D01*
X0177721Y0051856D01*
X0177669Y0051885D01*
X0177614Y0051912D01*
X0177559Y0051935D01*
X0177502Y0051955D01*
X0177443Y0051971D01*
X0177384Y0051984D01*
X0177325Y0051993D01*
X0177264Y0051998D01*
X0177204Y0052000D01*
X0170204Y0052000D01*
X0170144Y0051998D01*
X0170083Y0051993D01*
X0170024Y0051984D01*
X0169965Y0051971D01*
X0169906Y0051955D01*
X0169849Y0051935D01*
X0169794Y0051912D01*
X0169739Y0051885D01*
X0169687Y0051856D01*
X0169636Y0051823D01*
X0169587Y0051787D01*
X0169541Y0051749D01*
X0169497Y0051707D01*
X0169455Y0051663D01*
X0169417Y0051617D01*
X0169381Y0051568D01*
X0169348Y0051517D01*
X0169319Y0051465D01*
X0169292Y0051410D01*
X0169269Y0051355D01*
X0169249Y0051298D01*
X0169233Y0051239D01*
X0169220Y0051180D01*
X0169211Y0051121D01*
X0169206Y0051060D01*
X0169204Y0051000D01*
X0169204Y0049500D01*
X0179631Y0065431D02*
X0197139Y0065431D01*
X0205639Y0065431D02*
X0225788Y0065431D01*
X0225788Y0053644D01*
X0225788Y0029644D01*
X0225788Y0017856D01*
X0187139Y0017856D01*
X0179639Y0017856D02*
X0179631Y0017856D01*
X0179631Y0065431D01*
X0179631Y0069106D02*
X0179639Y0069106D01*
X0179631Y0069106D02*
X0179631Y0116681D01*
X0197139Y0116681D01*
X0205639Y0116681D02*
X0225788Y0116681D01*
X0225788Y0104894D01*
X0225788Y0080894D01*
X0225788Y0069106D01*
X0187139Y0069106D01*
X0176579Y0081750D02*
X0169579Y0081750D01*
X0169519Y0081752D01*
X0169458Y0081757D01*
X0169399Y0081766D01*
X0169340Y0081779D01*
X0169281Y0081795D01*
X0169224Y0081815D01*
X0169169Y0081838D01*
X0169114Y0081865D01*
X0169062Y0081894D01*
X0169011Y0081927D01*
X0168962Y0081963D01*
X0168916Y0082001D01*
X0168872Y0082043D01*
X0168830Y0082087D01*
X0168792Y0082133D01*
X0168756Y0082182D01*
X0168723Y0082233D01*
X0168694Y0082285D01*
X0168667Y0082340D01*
X0168644Y0082395D01*
X0168624Y0082452D01*
X0168608Y0082511D01*
X0168595Y0082570D01*
X0168586Y0082629D01*
X0168581Y0082690D01*
X0168579Y0082750D01*
X0168579Y0084250D01*
X0169079Y0084750D01*
X0169079Y0097750D01*
X0168579Y0098250D01*
X0168579Y0099750D01*
X0168581Y0099810D01*
X0168586Y0099871D01*
X0168595Y0099930D01*
X0168608Y0099989D01*
X0168624Y0100048D01*
X0168644Y0100105D01*
X0168667Y0100160D01*
X0168694Y0100215D01*
X0168723Y0100267D01*
X0168756Y0100318D01*
X0168792Y0100367D01*
X0168830Y0100413D01*
X0168872Y0100457D01*
X0168916Y0100499D01*
X0168962Y0100537D01*
X0169011Y0100573D01*
X0169062Y0100606D01*
X0169114Y0100635D01*
X0169169Y0100662D01*
X0169224Y0100685D01*
X0169281Y0100705D01*
X0169340Y0100721D01*
X0169399Y0100734D01*
X0169458Y0100743D01*
X0169519Y0100748D01*
X0169579Y0100750D01*
X0176579Y0100750D01*
X0176639Y0100748D01*
X0176700Y0100743D01*
X0176759Y0100734D01*
X0176818Y0100721D01*
X0176877Y0100705D01*
X0176934Y0100685D01*
X0176989Y0100662D01*
X0177044Y0100635D01*
X0177096Y0100606D01*
X0177147Y0100573D01*
X0177196Y0100537D01*
X0177242Y0100499D01*
X0177286Y0100457D01*
X0177328Y0100413D01*
X0177366Y0100367D01*
X0177402Y0100318D01*
X0177435Y0100267D01*
X0177464Y0100215D01*
X0177491Y0100160D01*
X0177514Y0100105D01*
X0177534Y0100048D01*
X0177550Y0099989D01*
X0177563Y0099930D01*
X0177572Y0099871D01*
X0177577Y0099810D01*
X0177579Y0099750D01*
X0177579Y0098250D01*
X0177079Y0097750D01*
X0177079Y0084750D01*
X0177579Y0084250D01*
X0177579Y0082750D01*
X0177577Y0082690D01*
X0177572Y0082629D01*
X0177563Y0082570D01*
X0177550Y0082511D01*
X0177534Y0082452D01*
X0177514Y0082395D01*
X0177491Y0082340D01*
X0177464Y0082285D01*
X0177435Y0082233D01*
X0177402Y0082182D01*
X0177366Y0082133D01*
X0177328Y0082087D01*
X0177286Y0082043D01*
X0177242Y0082001D01*
X0177196Y0081963D01*
X0177147Y0081927D01*
X0177096Y0081894D01*
X0177044Y0081865D01*
X0176989Y0081838D01*
X0176934Y0081815D01*
X0176877Y0081795D01*
X0176818Y0081779D01*
X0176759Y0081766D01*
X0176700Y0081757D01*
X0176639Y0081752D01*
X0176579Y0081750D01*
X0179631Y0120356D02*
X0179639Y0120356D01*
X0179631Y0120356D02*
X0179631Y0167931D01*
X0197139Y0167931D01*
X0205639Y0167931D02*
X0225788Y0167931D01*
X0225788Y0156144D01*
X0225788Y0132144D01*
X0225788Y0120356D01*
X0187139Y0120356D01*
X0177204Y0131750D02*
X0170204Y0131750D01*
X0170144Y0131752D01*
X0170083Y0131757D01*
X0170024Y0131766D01*
X0169965Y0131779D01*
X0169906Y0131795D01*
X0169849Y0131815D01*
X0169794Y0131838D01*
X0169739Y0131865D01*
X0169687Y0131894D01*
X0169636Y0131927D01*
X0169587Y0131963D01*
X0169541Y0132001D01*
X0169497Y0132043D01*
X0169455Y0132087D01*
X0169417Y0132133D01*
X0169381Y0132182D01*
X0169348Y0132233D01*
X0169319Y0132285D01*
X0169292Y0132340D01*
X0169269Y0132395D01*
X0169249Y0132452D01*
X0169233Y0132511D01*
X0169220Y0132570D01*
X0169211Y0132629D01*
X0169206Y0132690D01*
X0169204Y0132750D01*
X0169204Y0134250D01*
X0169704Y0134750D01*
X0169704Y0147750D01*
X0169204Y0148250D01*
X0169204Y0149750D01*
X0169206Y0149810D01*
X0169211Y0149871D01*
X0169220Y0149930D01*
X0169233Y0149989D01*
X0169249Y0150048D01*
X0169269Y0150105D01*
X0169292Y0150160D01*
X0169319Y0150215D01*
X0169348Y0150267D01*
X0169381Y0150318D01*
X0169417Y0150367D01*
X0169455Y0150413D01*
X0169497Y0150457D01*
X0169541Y0150499D01*
X0169587Y0150537D01*
X0169636Y0150573D01*
X0169687Y0150606D01*
X0169739Y0150635D01*
X0169794Y0150662D01*
X0169849Y0150685D01*
X0169906Y0150705D01*
X0169965Y0150721D01*
X0170024Y0150734D01*
X0170083Y0150743D01*
X0170144Y0150748D01*
X0170204Y0150750D01*
X0177204Y0150750D01*
X0177264Y0150748D01*
X0177325Y0150743D01*
X0177384Y0150734D01*
X0177443Y0150721D01*
X0177502Y0150705D01*
X0177559Y0150685D01*
X0177614Y0150662D01*
X0177669Y0150635D01*
X0177721Y0150606D01*
X0177772Y0150573D01*
X0177821Y0150537D01*
X0177867Y0150499D01*
X0177911Y0150457D01*
X0177953Y0150413D01*
X0177991Y0150367D01*
X0178027Y0150318D01*
X0178060Y0150267D01*
X0178089Y0150215D01*
X0178116Y0150160D01*
X0178139Y0150105D01*
X0178159Y0150048D01*
X0178175Y0149989D01*
X0178188Y0149930D01*
X0178197Y0149871D01*
X0178202Y0149810D01*
X0178204Y0149750D01*
X0178204Y0148250D01*
X0177704Y0147750D01*
X0177704Y0134750D01*
X0178204Y0134250D01*
X0178204Y0132750D01*
X0178202Y0132690D01*
X0178197Y0132629D01*
X0178188Y0132570D01*
X0178175Y0132511D01*
X0178159Y0132452D01*
X0178139Y0132395D01*
X0178116Y0132340D01*
X0178089Y0132285D01*
X0178060Y0132233D01*
X0178027Y0132182D01*
X0177991Y0132133D01*
X0177953Y0132087D01*
X0177911Y0132043D01*
X0177867Y0132001D01*
X0177821Y0131963D01*
X0177772Y0131927D01*
X0177721Y0131894D01*
X0177669Y0131865D01*
X0177614Y0131838D01*
X0177559Y0131815D01*
X0177502Y0131795D01*
X0177443Y0131779D01*
X0177384Y0131766D01*
X0177325Y0131757D01*
X0177264Y0131752D01*
X0177204Y0131750D01*
X0179631Y0171606D02*
X0179639Y0171606D01*
X0179631Y0171606D02*
X0179631Y0219181D01*
X0197139Y0219181D01*
X0195343Y0221862D02*
X0195343Y0226132D01*
X0194276Y0227200D01*
X0192114Y0226132D02*
X0191046Y0225065D01*
X0187844Y0225065D01*
X0187844Y0223997D02*
X0187844Y0227200D01*
X0191046Y0227200D01*
X0192114Y0226132D01*
X0191046Y0222930D02*
X0188911Y0222930D01*
X0187844Y0223997D01*
X0185669Y0220795D02*
X0185669Y0227200D01*
X0183533Y0225065D01*
X0181398Y0227200D01*
X0181398Y0220795D01*
X0178155Y0222930D02*
X0176020Y0222930D01*
X0174953Y0223997D01*
X0174953Y0227200D01*
X0178155Y0227200D01*
X0179223Y0226132D01*
X0178155Y0225065D01*
X0174953Y0225065D01*
X0172778Y0222930D02*
X0170642Y0222930D01*
X0171710Y0221862D02*
X0171710Y0226132D01*
X0170642Y0227200D01*
X0172544Y0230795D02*
X0174679Y0230795D01*
X0175747Y0231862D01*
X0172544Y0230795D02*
X0171476Y0231862D01*
X0171476Y0232930D01*
X0175747Y0237200D01*
X0171476Y0237200D01*
X0169301Y0237200D02*
X0169301Y0236132D01*
X0168233Y0236132D01*
X0168233Y0237200D01*
X0169301Y0237200D01*
X0166078Y0237200D02*
X0161808Y0237200D01*
X0163943Y0237200D02*
X0163943Y0230795D01*
X0166078Y0232930D01*
X0166345Y0227200D02*
X0167413Y0226132D01*
X0167413Y0221862D01*
X0168481Y0222930D02*
X0166345Y0222930D01*
X0184367Y0232930D02*
X0186502Y0237200D01*
X0188638Y0232930D01*
X0190813Y0233997D02*
X0190813Y0235065D01*
X0195083Y0235065D01*
X0195083Y0236132D02*
X0195083Y0233997D01*
X0194015Y0232930D01*
X0191880Y0232930D01*
X0190813Y0233997D01*
X0191880Y0237200D02*
X0194015Y0237200D01*
X0195083Y0236132D01*
X0197258Y0237200D02*
X0199393Y0235065D01*
X0198326Y0235065D02*
X0197258Y0233997D01*
X0197258Y0231862D01*
X0198326Y0230795D01*
X0201529Y0230795D01*
X0201529Y0237200D01*
X0201529Y0235065D02*
X0198326Y0235065D01*
X0199654Y0227200D02*
X0198586Y0226132D01*
X0198586Y0223997D01*
X0199654Y0222930D01*
X0201789Y0222930D01*
X0202857Y0223997D01*
X0202857Y0226132D01*
X0201789Y0227200D01*
X0199654Y0227200D01*
X0196411Y0222930D02*
X0194276Y0222930D01*
X0205018Y0220795D02*
X0207154Y0220795D01*
X0206086Y0220795D02*
X0206086Y0227200D01*
X0207154Y0227200D02*
X0205018Y0227200D01*
X0205639Y0219181D02*
X0225788Y0219181D01*
X0225788Y0207394D01*
X0225788Y0183394D01*
X0225788Y0171606D01*
X0187139Y0171606D01*
X0177204Y0183000D02*
X0170204Y0183000D01*
X0170144Y0183002D01*
X0170083Y0183007D01*
X0170024Y0183016D01*
X0169965Y0183029D01*
X0169906Y0183045D01*
X0169849Y0183065D01*
X0169794Y0183088D01*
X0169739Y0183115D01*
X0169687Y0183144D01*
X0169636Y0183177D01*
X0169587Y0183213D01*
X0169541Y0183251D01*
X0169497Y0183293D01*
X0169455Y0183337D01*
X0169417Y0183383D01*
X0169381Y0183432D01*
X0169348Y0183483D01*
X0169319Y0183535D01*
X0169292Y0183590D01*
X0169269Y0183645D01*
X0169249Y0183702D01*
X0169233Y0183761D01*
X0169220Y0183820D01*
X0169211Y0183879D01*
X0169206Y0183940D01*
X0169204Y0184000D01*
X0169204Y0185500D01*
X0169704Y0186000D01*
X0169704Y0199000D01*
X0169204Y0199500D01*
X0169204Y0201000D01*
X0169206Y0201060D01*
X0169211Y0201121D01*
X0169220Y0201180D01*
X0169233Y0201239D01*
X0169249Y0201298D01*
X0169269Y0201355D01*
X0169292Y0201410D01*
X0169319Y0201465D01*
X0169348Y0201517D01*
X0169381Y0201568D01*
X0169417Y0201617D01*
X0169455Y0201663D01*
X0169497Y0201707D01*
X0169541Y0201749D01*
X0169587Y0201787D01*
X0169636Y0201823D01*
X0169687Y0201856D01*
X0169739Y0201885D01*
X0169794Y0201912D01*
X0169849Y0201935D01*
X0169906Y0201955D01*
X0169965Y0201971D01*
X0170024Y0201984D01*
X0170083Y0201993D01*
X0170144Y0201998D01*
X0170204Y0202000D01*
X0177204Y0202000D01*
X0177264Y0201998D01*
X0177325Y0201993D01*
X0177384Y0201984D01*
X0177443Y0201971D01*
X0177502Y0201955D01*
X0177559Y0201935D01*
X0177614Y0201912D01*
X0177669Y0201885D01*
X0177721Y0201856D01*
X0177772Y0201823D01*
X0177821Y0201787D01*
X0177867Y0201749D01*
X0177911Y0201707D01*
X0177953Y0201663D01*
X0177991Y0201617D01*
X0178027Y0201568D01*
X0178060Y0201517D01*
X0178089Y0201465D01*
X0178116Y0201410D01*
X0178139Y0201355D01*
X0178159Y0201298D01*
X0178175Y0201239D01*
X0178188Y0201180D01*
X0178197Y0201121D01*
X0178202Y0201060D01*
X0178204Y0201000D01*
X0178204Y0199500D01*
X0177704Y0199000D01*
X0177704Y0186000D01*
X0178204Y0185500D01*
X0178204Y0184000D01*
X0178202Y0183940D01*
X0178197Y0183879D01*
X0178188Y0183820D01*
X0178175Y0183761D01*
X0178159Y0183702D01*
X0178139Y0183645D01*
X0178116Y0183590D01*
X0178089Y0183535D01*
X0178060Y0183483D01*
X0178027Y0183432D01*
X0177991Y0183383D01*
X0177953Y0183337D01*
X0177911Y0183293D01*
X0177867Y0183251D01*
X0177821Y0183213D01*
X0177772Y0183177D01*
X0177721Y0183144D01*
X0177669Y0183115D01*
X0177614Y0183088D01*
X0177559Y0183065D01*
X0177502Y0183045D01*
X0177443Y0183029D01*
X0177384Y0183016D01*
X0177325Y0183007D01*
X0177264Y0183002D01*
X0177204Y0183000D01*
X0225788Y0183394D02*
X0236607Y0183394D01*
X0236607Y0207394D01*
X0238607Y0205394D01*
X0238607Y0185394D01*
X0236607Y0183394D01*
X0236607Y0207394D02*
X0225788Y0207394D01*
X0225788Y0156144D02*
X0236607Y0156144D01*
X0236607Y0132144D01*
X0238607Y0134144D01*
X0238607Y0154144D01*
X0236607Y0156144D01*
X0236607Y0132144D02*
X0225788Y0132144D01*
X0225788Y0104894D02*
X0236607Y0104894D01*
X0236607Y0080894D01*
X0238607Y0082894D01*
X0238607Y0102894D01*
X0236607Y0104894D01*
X0236607Y0080894D02*
X0225788Y0080894D01*
X0225788Y0053644D02*
X0236607Y0053644D01*
X0236607Y0029644D01*
X0238607Y0031644D01*
X0238607Y0051644D01*
X0236607Y0053644D01*
X0236607Y0029644D02*
X0225788Y0029644D01*
D11*
X0134054Y0155150D02*
X0132820Y0155150D01*
X0132202Y0155767D01*
X0132202Y0156384D01*
X0132820Y0157002D01*
X0134054Y0157002D01*
X0134671Y0156384D01*
X0134671Y0155767D01*
X0134054Y0155150D01*
X0134054Y0157002D02*
X0134671Y0157619D01*
X0134671Y0158236D01*
X0134054Y0158853D01*
X0132820Y0158853D01*
X0132202Y0158236D01*
X0132202Y0157619D01*
X0132820Y0157002D01*
X0130988Y0158236D02*
X0130988Y0155767D01*
X0130371Y0155150D01*
X0129136Y0155150D01*
X0128519Y0155767D01*
X0130988Y0158236D01*
X0130371Y0158853D01*
X0129136Y0158853D01*
X0128519Y0158236D01*
X0128519Y0155767D01*
X0127305Y0155150D02*
X0124836Y0155150D01*
X0127305Y0157619D01*
X0127305Y0158236D01*
X0126688Y0158853D01*
X0125453Y0158853D01*
X0124836Y0158236D01*
X0123622Y0158236D02*
X0123622Y0157619D01*
X0123005Y0157002D01*
X0123622Y0156384D01*
X0123622Y0155767D01*
X0123005Y0155150D01*
X0121770Y0155150D01*
X0121153Y0155767D01*
X0119939Y0157002D02*
X0119321Y0156384D01*
X0117470Y0156384D01*
X0117470Y0155150D02*
X0117470Y0158853D01*
X0119321Y0158853D01*
X0119939Y0158236D01*
X0119939Y0157002D01*
X0121153Y0158236D02*
X0121770Y0158853D01*
X0123005Y0158853D01*
X0123622Y0158236D01*
X0123005Y0157002D02*
X0122387Y0157002D01*
X0116255Y0158236D02*
X0115638Y0158853D01*
X0114404Y0158853D01*
X0113787Y0158236D01*
X0113787Y0155767D01*
X0114404Y0155150D01*
X0115638Y0155150D01*
X0116255Y0155767D01*
X0112572Y0155150D02*
X0112572Y0158853D01*
X0111338Y0157619D01*
X0110104Y0158853D01*
X0110104Y0155150D01*
X0129827Y0226772D02*
X0129210Y0227389D01*
X0129210Y0228006D01*
X0131679Y0230475D01*
X0129210Y0230475D01*
X0129827Y0226772D02*
X0131061Y0226772D01*
X0131679Y0227389D01*
X0139210Y0230475D02*
X0141679Y0230475D01*
X0140444Y0230475D02*
X0140444Y0226772D01*
X0141679Y0228006D01*
X0148585Y0227389D02*
X0151054Y0229858D01*
X0150436Y0230475D01*
X0149202Y0230475D01*
X0148585Y0229858D01*
X0148585Y0227389D01*
X0149202Y0226772D01*
X0150436Y0226772D01*
X0151054Y0227389D01*
X0151054Y0229858D01*
X0119179Y0234256D02*
X0117944Y0233022D01*
X0117944Y0236725D01*
X0116710Y0236725D02*
X0119179Y0236725D01*
X0115495Y0236725D02*
X0115495Y0236108D01*
X0114878Y0236108D01*
X0114878Y0236725D01*
X0115495Y0236725D01*
X0113654Y0236725D02*
X0111185Y0234256D01*
X0111185Y0233639D01*
X0111802Y0233022D01*
X0113037Y0233022D01*
X0113654Y0233639D01*
X0113654Y0236725D02*
X0111185Y0236725D01*
X0108736Y0236725D02*
X0109971Y0234256D01*
X0107502Y0234256D02*
X0108736Y0236725D01*
X0098921Y0234873D02*
X0096452Y0234873D01*
X0087872Y0233639D02*
X0087255Y0233022D01*
X0086020Y0233022D01*
X0085403Y0233639D01*
X0085403Y0234256D01*
X0086020Y0234873D01*
X0085403Y0235491D01*
X0085403Y0236108D01*
X0086020Y0236725D01*
X0087255Y0236725D01*
X0087872Y0236108D01*
X0086637Y0234873D02*
X0086020Y0234873D01*
X0084189Y0236108D02*
X0083571Y0236108D01*
X0083571Y0236725D01*
X0084189Y0236725D01*
X0084189Y0236108D01*
X0082347Y0236108D02*
X0081730Y0236725D01*
X0080496Y0236725D01*
X0079878Y0236108D01*
X0079878Y0235491D01*
X0080496Y0234873D01*
X0081113Y0234873D01*
X0080496Y0234873D02*
X0079878Y0234256D01*
X0079878Y0233639D01*
X0080496Y0233022D01*
X0081730Y0233022D01*
X0082347Y0233639D01*
X0078664Y0234256D02*
X0077430Y0236725D01*
X0076195Y0234256D01*
D12*
X0075754Y0227915D02*
X0073452Y0225613D01*
X0074219Y0224846D02*
X0071150Y0227915D01*
X0071150Y0224846D02*
X0075754Y0224846D01*
X0075754Y0222544D02*
X0071150Y0222544D01*
X0073452Y0220242D01*
X0073452Y0223311D01*
X0072684Y0218707D02*
X0071917Y0218707D01*
X0071150Y0217940D01*
X0071150Y0216406D01*
X0071917Y0215638D01*
X0072684Y0218707D02*
X0075754Y0215638D01*
X0075754Y0218707D01*
X0084150Y0217940D02*
X0084150Y0215638D01*
X0088754Y0215638D01*
X0087219Y0215638D02*
X0087219Y0217940D01*
X0086452Y0218707D01*
X0084917Y0218707D01*
X0084150Y0217940D01*
X0084917Y0220242D02*
X0084150Y0221009D01*
X0084150Y0222544D01*
X0084917Y0223311D01*
X0085684Y0223311D01*
X0086452Y0222544D01*
X0087219Y0223311D01*
X0087986Y0223311D01*
X0088754Y0222544D01*
X0088754Y0221009D01*
X0087986Y0220242D01*
X0088754Y0218707D02*
X0087219Y0217173D01*
X0086452Y0221777D02*
X0086452Y0222544D01*
X0087986Y0224846D02*
X0084917Y0224846D01*
X0084150Y0225613D01*
X0084150Y0227148D01*
X0084917Y0227915D01*
X0087986Y0224846D01*
X0088754Y0225613D01*
X0088754Y0227148D01*
X0087986Y0227915D01*
X0084917Y0227915D01*
X0095311Y0220335D02*
X0098380Y0218033D01*
X0095311Y0215731D01*
X0099915Y0216499D02*
X0100682Y0215731D01*
X0102217Y0215731D01*
X0102984Y0216499D01*
X0102984Y0217266D01*
X0102217Y0218033D01*
X0100682Y0218033D01*
X0099915Y0218801D01*
X0099915Y0219568D01*
X0100682Y0220335D01*
X0102217Y0220335D01*
X0102984Y0219568D01*
X0104519Y0220335D02*
X0104519Y0215731D01*
X0106054Y0217266D01*
X0107588Y0215731D01*
X0107588Y0220335D01*
X0109123Y0218801D02*
X0111425Y0218801D01*
X0112192Y0218801D01*
X0112192Y0217266D02*
X0109123Y0217266D01*
X0109890Y0215731D02*
X0109890Y0220335D01*
X0111425Y0220335D02*
X0111425Y0215731D01*
X0123578Y0234231D02*
X0125880Y0234231D01*
X0126647Y0234998D01*
X0125880Y0235765D01*
X0124345Y0235765D01*
X0123578Y0236533D01*
X0124345Y0237300D01*
X0126647Y0237300D01*
X0128182Y0236533D02*
X0128949Y0235765D01*
X0130484Y0235765D01*
X0131251Y0234998D01*
X0130484Y0234231D01*
X0128182Y0234231D01*
X0128182Y0236533D02*
X0128949Y0237300D01*
X0131251Y0237300D01*
X0132786Y0235765D02*
X0135855Y0235765D01*
X0135855Y0234998D02*
X0135088Y0234231D01*
X0133553Y0234231D01*
X0132786Y0234998D01*
X0132786Y0235765D01*
X0133553Y0237300D02*
X0135088Y0237300D01*
X0135855Y0236533D01*
X0135855Y0234998D01*
X0137390Y0234231D02*
X0138157Y0234231D01*
X0139692Y0235765D01*
X0139692Y0234231D02*
X0139692Y0237300D01*
X0141226Y0237300D02*
X0143528Y0237300D01*
X0144296Y0236533D01*
X0144296Y0234998D01*
X0143528Y0234231D01*
X0141226Y0234231D01*
X0141226Y0232696D02*
X0141226Y0237300D01*
X0145830Y0237300D02*
X0145830Y0232696D01*
X0145830Y0234231D02*
X0148132Y0234231D01*
X0148900Y0234998D01*
X0148900Y0236533D01*
X0148132Y0237300D01*
X0145830Y0237300D01*
X0150434Y0237300D02*
X0150434Y0234998D01*
X0151202Y0234231D01*
X0152736Y0234231D01*
X0152736Y0235765D02*
X0150434Y0235765D01*
X0150434Y0237300D02*
X0152736Y0237300D01*
X0153504Y0236533D01*
X0152736Y0235765D01*
X0176150Y0205915D02*
X0176150Y0202846D01*
X0180754Y0202846D01*
X0180754Y0201311D02*
X0177684Y0201311D01*
X0178452Y0202846D02*
X0178452Y0204381D01*
X0180754Y0201311D02*
X0180754Y0199009D01*
X0179986Y0198242D01*
X0177684Y0198242D01*
X0176917Y0196707D02*
X0179986Y0193638D01*
X0180754Y0194405D01*
X0180754Y0195940D01*
X0179986Y0196707D01*
X0176917Y0196707D01*
X0176150Y0195940D01*
X0176150Y0194405D01*
X0176917Y0193638D01*
X0179986Y0193638D01*
X0180754Y0192104D02*
X0180754Y0189034D01*
X0180754Y0190569D02*
X0176150Y0190569D01*
X0177684Y0189034D01*
X0178452Y0183227D02*
X0179986Y0183227D01*
X0180754Y0182460D01*
X0180754Y0180925D01*
X0179986Y0180158D01*
X0178452Y0180158D02*
X0177684Y0181692D01*
X0177684Y0182460D01*
X0178452Y0183227D01*
X0176150Y0183227D02*
X0176150Y0180158D01*
X0178452Y0180158D01*
X0177684Y0178623D02*
X0176917Y0178623D01*
X0176150Y0177856D01*
X0176150Y0176321D01*
X0176917Y0175554D01*
X0176917Y0174019D02*
X0178452Y0174019D01*
X0179219Y0173252D01*
X0179219Y0170950D01*
X0180754Y0170950D02*
X0176150Y0170950D01*
X0176150Y0173252D01*
X0176917Y0174019D01*
X0179219Y0172485D02*
X0180754Y0174019D01*
X0180754Y0175554D02*
X0177684Y0178623D01*
X0180754Y0178623D02*
X0180754Y0175554D01*
X0189150Y0175554D02*
X0189150Y0178623D01*
X0189917Y0178623D01*
X0192986Y0175554D01*
X0193754Y0175554D01*
X0193754Y0173252D02*
X0189150Y0173252D01*
X0191452Y0170950D01*
X0191452Y0174019D01*
X0192986Y0180158D02*
X0189917Y0180158D01*
X0189150Y0180925D01*
X0189150Y0182460D01*
X0189917Y0183227D01*
X0192986Y0180158D01*
X0193754Y0180925D01*
X0193754Y0182460D01*
X0192986Y0183227D01*
X0189917Y0183227D01*
X0199540Y0191502D02*
X0202609Y0191502D01*
X0204144Y0189967D02*
X0204144Y0189200D01*
X0204911Y0189200D01*
X0204911Y0189967D01*
X0204144Y0189967D01*
X0206446Y0189967D02*
X0206446Y0189200D01*
X0206446Y0189967D02*
X0209515Y0193037D01*
X0209515Y0193804D01*
X0206446Y0193804D01*
X0207111Y0193325D02*
X0207879Y0194092D01*
X0207879Y0195627D01*
X0207111Y0196394D01*
X0206344Y0196394D01*
X0205577Y0195627D01*
X0205577Y0193325D01*
X0207111Y0193325D01*
X0205577Y0193325D02*
X0204042Y0194860D01*
X0203275Y0196394D01*
X0201842Y0193804D02*
X0199540Y0191502D01*
X0201842Y0189200D02*
X0201842Y0193804D01*
X0211050Y0193804D02*
X0211050Y0189200D01*
X0211050Y0190735D02*
X0214119Y0193804D01*
X0211817Y0191502D02*
X0214119Y0189200D01*
X0214119Y0180804D02*
X0212584Y0180037D01*
X0211050Y0178502D01*
X0213352Y0178502D01*
X0214119Y0177735D01*
X0214119Y0176967D01*
X0213352Y0176200D01*
X0211817Y0176200D01*
X0211050Y0176967D01*
X0211050Y0178502D01*
X0209515Y0179269D02*
X0209515Y0180037D01*
X0208748Y0180804D01*
X0207213Y0180804D01*
X0206446Y0180037D01*
X0204911Y0180037D02*
X0204911Y0178502D01*
X0204144Y0177735D01*
X0201842Y0177735D01*
X0203376Y0177735D02*
X0204911Y0176200D01*
X0206446Y0176200D02*
X0209515Y0179269D01*
X0209515Y0176200D02*
X0206446Y0176200D01*
X0204911Y0180037D02*
X0204144Y0180804D01*
X0201842Y0180804D01*
X0201842Y0176200D01*
X0210279Y0163179D02*
X0212580Y0163179D01*
X0213348Y0162412D01*
X0213348Y0160877D01*
X0212580Y0160110D01*
X0210279Y0160110D01*
X0211813Y0160110D02*
X0213348Y0158575D01*
X0214882Y0158575D02*
X0217952Y0161644D01*
X0217952Y0162412D01*
X0217184Y0163179D01*
X0215650Y0163179D01*
X0214882Y0162412D01*
X0214882Y0158575D02*
X0217952Y0158575D01*
X0219486Y0159342D02*
X0220254Y0158575D01*
X0221788Y0158575D01*
X0222556Y0159342D01*
X0222556Y0160110D01*
X0221788Y0160877D01*
X0221021Y0160877D01*
X0221788Y0160877D02*
X0222556Y0161644D01*
X0222556Y0162412D01*
X0221788Y0163179D01*
X0220254Y0163179D01*
X0219486Y0162412D01*
X0210279Y0163179D02*
X0210279Y0158575D01*
X0212580Y0150179D02*
X0210279Y0147877D01*
X0213348Y0147877D01*
X0214882Y0146342D02*
X0215650Y0146342D01*
X0215650Y0145575D01*
X0214882Y0145575D01*
X0214882Y0146342D01*
X0217184Y0146342D02*
X0217184Y0145575D01*
X0217184Y0146342D02*
X0220254Y0149412D01*
X0220254Y0150179D01*
X0217184Y0150179D01*
X0212580Y0150179D02*
X0212580Y0145575D01*
X0211675Y0142554D02*
X0211675Y0137950D01*
X0211675Y0139485D02*
X0214744Y0142554D01*
X0212442Y0140252D02*
X0214744Y0137950D01*
X0210140Y0141787D02*
X0210140Y0142554D01*
X0207071Y0142554D01*
X0207111Y0142700D02*
X0207879Y0143467D01*
X0207879Y0145002D01*
X0207111Y0145769D01*
X0205577Y0145769D01*
X0204809Y0145002D01*
X0204809Y0144235D01*
X0205577Y0142700D01*
X0203275Y0142700D01*
X0203275Y0145769D01*
X0202467Y0142554D02*
X0200165Y0140252D01*
X0203234Y0140252D01*
X0204769Y0138717D02*
X0205536Y0138717D01*
X0205536Y0137950D01*
X0204769Y0137950D01*
X0204769Y0138717D01*
X0207071Y0138717D02*
X0207071Y0137950D01*
X0207071Y0138717D02*
X0210140Y0141787D01*
X0202467Y0142554D02*
X0202467Y0137950D01*
X0202467Y0129554D02*
X0204769Y0129554D01*
X0205536Y0128787D01*
X0205536Y0127252D01*
X0204769Y0126485D01*
X0202467Y0126485D01*
X0204001Y0126485D02*
X0205536Y0124950D01*
X0207071Y0124950D02*
X0210140Y0128019D01*
X0210140Y0128787D01*
X0209373Y0129554D01*
X0207838Y0129554D01*
X0207071Y0128787D01*
X0207071Y0124950D02*
X0210140Y0124950D01*
X0211675Y0124950D02*
X0214744Y0128019D01*
X0214744Y0128787D01*
X0213977Y0129554D01*
X0212442Y0129554D01*
X0211675Y0128787D01*
X0211675Y0124950D02*
X0214744Y0124950D01*
X0202467Y0124950D02*
X0202467Y0129554D01*
X0193754Y0132175D02*
X0192986Y0131408D01*
X0189917Y0134477D01*
X0192986Y0134477D01*
X0193754Y0133710D01*
X0193754Y0132175D01*
X0192986Y0131408D02*
X0189917Y0131408D01*
X0189150Y0132175D01*
X0189150Y0133710D01*
X0189917Y0134477D01*
X0189917Y0129873D02*
X0189150Y0129873D01*
X0189150Y0126804D01*
X0189150Y0124502D02*
X0191452Y0122200D01*
X0191452Y0125269D01*
X0192986Y0126804D02*
X0193754Y0126804D01*
X0192986Y0126804D02*
X0189917Y0129873D01*
X0189150Y0124502D02*
X0193754Y0124502D01*
X0180754Y0125269D02*
X0179219Y0123735D01*
X0179219Y0124502D02*
X0179219Y0122200D01*
X0180754Y0122200D02*
X0176150Y0122200D01*
X0176150Y0124502D01*
X0176917Y0125269D01*
X0178452Y0125269D01*
X0179219Y0124502D01*
X0180754Y0126804D02*
X0177684Y0129873D01*
X0176917Y0129873D01*
X0176150Y0129106D01*
X0176150Y0127571D01*
X0176917Y0126804D01*
X0180754Y0126804D02*
X0180754Y0129873D01*
X0180754Y0131408D02*
X0180754Y0134477D01*
X0180754Y0132942D02*
X0176150Y0132942D01*
X0177684Y0131408D01*
X0177684Y0139034D02*
X0176150Y0140569D01*
X0180754Y0140569D01*
X0180754Y0139034D02*
X0180754Y0142104D01*
X0179986Y0143638D02*
X0176917Y0146707D01*
X0179986Y0146707D01*
X0180754Y0145940D01*
X0180754Y0144405D01*
X0179986Y0143638D01*
X0176917Y0143638D01*
X0176150Y0144405D01*
X0176150Y0145940D01*
X0176917Y0146707D01*
X0177684Y0148242D02*
X0179986Y0148242D01*
X0180754Y0149009D01*
X0180754Y0151311D01*
X0177684Y0151311D01*
X0178452Y0152846D02*
X0178452Y0154381D01*
X0180754Y0152846D02*
X0176150Y0152846D01*
X0176150Y0155915D01*
X0189150Y0155915D02*
X0189917Y0154381D01*
X0191452Y0152846D01*
X0191452Y0155148D01*
X0192219Y0155915D01*
X0192986Y0155915D01*
X0193754Y0155148D01*
X0193754Y0153613D01*
X0192986Y0152846D01*
X0191452Y0152846D01*
X0192986Y0151311D02*
X0193754Y0150544D01*
X0193754Y0149009D01*
X0192986Y0148242D01*
X0189917Y0148242D01*
X0189150Y0149009D01*
X0189150Y0150544D01*
X0189917Y0151311D01*
X0221788Y0150179D02*
X0221788Y0145575D01*
X0221788Y0147110D02*
X0224858Y0150179D01*
X0222556Y0147877D02*
X0224858Y0145575D01*
X0221163Y0112554D02*
X0219629Y0112554D01*
X0218861Y0111787D01*
X0218861Y0111019D01*
X0219629Y0110252D01*
X0221931Y0110252D01*
X0221931Y0111787D02*
X0221163Y0112554D01*
X0221931Y0111787D02*
X0221931Y0108717D01*
X0221163Y0107950D01*
X0219629Y0107950D01*
X0218861Y0108717D01*
X0217327Y0107950D02*
X0214257Y0107950D01*
X0212723Y0107950D02*
X0211188Y0109485D01*
X0211955Y0109485D02*
X0209654Y0109485D01*
X0209654Y0107950D02*
X0209654Y0112554D01*
X0211955Y0112554D01*
X0212723Y0111787D01*
X0212723Y0110252D01*
X0211955Y0109485D01*
X0214257Y0111019D02*
X0215792Y0112554D01*
X0215792Y0107950D01*
X0216559Y0099554D02*
X0219629Y0099554D01*
X0219629Y0098787D01*
X0216559Y0095717D01*
X0216559Y0094950D01*
X0215025Y0094950D02*
X0214257Y0094950D01*
X0214257Y0095717D01*
X0215025Y0095717D01*
X0215025Y0094950D01*
X0211955Y0094950D02*
X0211955Y0099554D01*
X0209654Y0097252D01*
X0212723Y0097252D01*
X0207879Y0093127D02*
X0203275Y0093127D01*
X0205577Y0090825D01*
X0205577Y0093894D01*
X0206446Y0091304D02*
X0209515Y0091304D01*
X0209515Y0090537D01*
X0206446Y0087467D01*
X0206446Y0086700D01*
X0204911Y0086700D02*
X0204911Y0087467D01*
X0204144Y0087467D01*
X0204144Y0086700D01*
X0204911Y0086700D01*
X0201842Y0086700D02*
X0201842Y0091304D01*
X0199540Y0089002D01*
X0202609Y0089002D01*
X0211050Y0088235D02*
X0214119Y0091304D01*
X0211817Y0089002D02*
X0214119Y0086700D01*
X0211050Y0086700D02*
X0211050Y0091304D01*
X0221163Y0094950D02*
X0221163Y0099554D01*
X0221931Y0097252D02*
X0224233Y0094950D01*
X0221163Y0096485D02*
X0224233Y0099554D01*
X0213352Y0078304D02*
X0214119Y0077537D01*
X0214119Y0076769D01*
X0213352Y0076002D01*
X0211817Y0076002D01*
X0211050Y0076769D01*
X0211050Y0077537D01*
X0211817Y0078304D01*
X0213352Y0078304D01*
X0213352Y0076002D02*
X0214119Y0075235D01*
X0214119Y0074467D01*
X0213352Y0073700D01*
X0211817Y0073700D01*
X0211050Y0074467D01*
X0211050Y0075235D01*
X0211817Y0076002D01*
X0209515Y0073700D02*
X0206446Y0073700D01*
X0207980Y0073700D02*
X0207980Y0078304D01*
X0206446Y0076769D01*
X0204911Y0076002D02*
X0204911Y0077537D01*
X0204144Y0078304D01*
X0201842Y0078304D01*
X0201842Y0073700D01*
X0201842Y0075235D02*
X0204144Y0075235D01*
X0204911Y0076002D01*
X0203376Y0075235D02*
X0204911Y0073700D01*
X0193754Y0073877D02*
X0189150Y0073877D01*
X0191452Y0071575D01*
X0191452Y0074644D01*
X0192986Y0076179D02*
X0193754Y0076179D01*
X0192986Y0076179D02*
X0189917Y0079248D01*
X0189150Y0079248D01*
X0189150Y0076179D01*
X0189917Y0080783D02*
X0189150Y0081550D01*
X0189150Y0083085D01*
X0189917Y0083852D01*
X0192986Y0080783D01*
X0193754Y0081550D01*
X0193754Y0083085D01*
X0192986Y0083852D01*
X0189917Y0083852D01*
X0189917Y0080783D02*
X0192986Y0080783D01*
X0180754Y0080783D02*
X0179986Y0080783D01*
X0176917Y0083852D01*
X0176150Y0083852D01*
X0176150Y0080783D01*
X0176150Y0077714D02*
X0180754Y0077714D01*
X0180754Y0079248D02*
X0180754Y0076179D01*
X0180754Y0074644D02*
X0179219Y0073110D01*
X0179219Y0073877D02*
X0179219Y0071575D01*
X0180754Y0071575D02*
X0176150Y0071575D01*
X0176150Y0073877D01*
X0176917Y0074644D01*
X0178452Y0074644D01*
X0179219Y0073877D01*
X0177684Y0076179D02*
X0176150Y0077714D01*
X0177684Y0089034D02*
X0176150Y0090569D01*
X0180754Y0090569D01*
X0180754Y0089034D02*
X0180754Y0092104D01*
X0179986Y0093638D02*
X0176917Y0096707D01*
X0179986Y0096707D01*
X0180754Y0095940D01*
X0180754Y0094405D01*
X0179986Y0093638D01*
X0176917Y0093638D01*
X0176150Y0094405D01*
X0176150Y0095940D01*
X0176917Y0096707D01*
X0177684Y0098242D02*
X0179986Y0098242D01*
X0180754Y0099009D01*
X0180754Y0101311D01*
X0177684Y0101311D01*
X0178452Y0102846D02*
X0178452Y0104381D01*
X0180754Y0102846D02*
X0176150Y0102846D01*
X0176150Y0105915D01*
X0189150Y0105915D02*
X0189150Y0102846D01*
X0191452Y0102846D01*
X0190684Y0104381D01*
X0190684Y0105148D01*
X0191452Y0105915D01*
X0192986Y0105915D01*
X0193754Y0105148D01*
X0193754Y0103613D01*
X0192986Y0102846D01*
X0192986Y0101311D02*
X0193754Y0100544D01*
X0193754Y0099009D01*
X0192986Y0098242D01*
X0189917Y0098242D01*
X0189150Y0099009D01*
X0189150Y0100544D01*
X0189917Y0101311D01*
X0210279Y0060679D02*
X0212580Y0060679D01*
X0213348Y0059912D01*
X0213348Y0058377D01*
X0212580Y0057610D01*
X0210279Y0057610D01*
X0211813Y0057610D02*
X0213348Y0056075D01*
X0214882Y0056075D02*
X0217952Y0056075D01*
X0216417Y0056075D02*
X0216417Y0060679D01*
X0214882Y0059144D01*
X0219486Y0058377D02*
X0221021Y0059144D01*
X0221788Y0059144D01*
X0222556Y0058377D01*
X0222556Y0056842D01*
X0221788Y0056075D01*
X0220254Y0056075D01*
X0219486Y0056842D01*
X0219486Y0058377D02*
X0219486Y0060679D01*
X0222556Y0060679D01*
X0210279Y0060679D02*
X0210279Y0056075D01*
X0212580Y0047679D02*
X0210279Y0045377D01*
X0213348Y0045377D01*
X0214882Y0043842D02*
X0215650Y0043842D01*
X0215650Y0043075D01*
X0214882Y0043075D01*
X0214882Y0043842D01*
X0217184Y0043842D02*
X0217184Y0043075D01*
X0217184Y0043842D02*
X0220254Y0046912D01*
X0220254Y0047679D01*
X0217184Y0047679D01*
X0212580Y0047679D02*
X0212580Y0043075D01*
X0211675Y0039429D02*
X0211675Y0034825D01*
X0211675Y0036360D02*
X0214744Y0039429D01*
X0212442Y0037127D02*
X0214744Y0034825D01*
X0210140Y0038662D02*
X0207071Y0035592D01*
X0207071Y0034825D01*
X0205536Y0034825D02*
X0205536Y0035592D01*
X0204769Y0035592D01*
X0204769Y0034825D01*
X0205536Y0034825D01*
X0202467Y0034825D02*
X0202467Y0039429D01*
X0200165Y0037127D01*
X0203234Y0037127D01*
X0204042Y0040200D02*
X0203275Y0040967D01*
X0203275Y0042502D01*
X0204042Y0043269D01*
X0204809Y0043269D01*
X0205577Y0042502D01*
X0206344Y0043269D01*
X0207111Y0043269D01*
X0207879Y0042502D01*
X0207879Y0040967D01*
X0207111Y0040200D01*
X0207071Y0039429D02*
X0210140Y0039429D01*
X0210140Y0038662D01*
X0205577Y0041735D02*
X0205577Y0042502D01*
X0193754Y0049009D02*
X0193754Y0050544D01*
X0192986Y0051311D01*
X0191452Y0052846D02*
X0191452Y0055915D01*
X0193754Y0055148D02*
X0189150Y0055148D01*
X0191452Y0052846D01*
X0189917Y0051311D02*
X0189150Y0050544D01*
X0189150Y0049009D01*
X0189917Y0048242D01*
X0192986Y0048242D01*
X0193754Y0049009D01*
X0180754Y0049009D02*
X0180754Y0051311D01*
X0177684Y0051311D01*
X0178452Y0052846D02*
X0178452Y0054381D01*
X0180754Y0052846D02*
X0176150Y0052846D01*
X0176150Y0055915D01*
X0177684Y0048242D02*
X0179986Y0048242D01*
X0180754Y0049009D01*
X0179986Y0046707D02*
X0180754Y0045940D01*
X0180754Y0044405D01*
X0179986Y0043638D01*
X0176917Y0046707D01*
X0179986Y0046707D01*
X0179986Y0043638D02*
X0176917Y0043638D01*
X0176150Y0044405D01*
X0176150Y0045940D01*
X0176917Y0046707D01*
X0180754Y0042104D02*
X0180754Y0039034D01*
X0180754Y0040569D02*
X0176150Y0040569D01*
X0177684Y0039034D01*
X0177684Y0033227D02*
X0176917Y0033227D01*
X0176150Y0032460D01*
X0176150Y0030925D01*
X0176917Y0030158D01*
X0178452Y0031692D02*
X0178452Y0032460D01*
X0179219Y0033227D01*
X0179986Y0033227D01*
X0180754Y0032460D01*
X0180754Y0030925D01*
X0179986Y0030158D01*
X0180754Y0028623D02*
X0180754Y0025554D01*
X0180754Y0027089D02*
X0176150Y0027089D01*
X0177684Y0025554D01*
X0176917Y0024019D02*
X0178452Y0024019D01*
X0179219Y0023252D01*
X0179219Y0020950D01*
X0180754Y0020950D02*
X0176150Y0020950D01*
X0176150Y0023252D01*
X0176917Y0024019D01*
X0179219Y0022485D02*
X0180754Y0024019D01*
X0189150Y0023252D02*
X0191452Y0020950D01*
X0191452Y0024019D01*
X0192986Y0025554D02*
X0193754Y0025554D01*
X0192986Y0025554D02*
X0189917Y0028623D01*
X0189150Y0028623D01*
X0189150Y0025554D01*
X0189150Y0023252D02*
X0193754Y0023252D01*
X0192986Y0030158D02*
X0189917Y0030158D01*
X0189150Y0030925D01*
X0189150Y0032460D01*
X0189917Y0033227D01*
X0192986Y0030158D01*
X0193754Y0030925D01*
X0193754Y0032460D01*
X0192986Y0033227D01*
X0189917Y0033227D01*
X0178452Y0032460D02*
X0177684Y0033227D01*
X0202467Y0026429D02*
X0202467Y0021825D01*
X0202467Y0023360D02*
X0204769Y0023360D01*
X0205536Y0024127D01*
X0205536Y0025662D01*
X0204769Y0026429D01*
X0202467Y0026429D01*
X0204001Y0023360D02*
X0205536Y0021825D01*
X0207071Y0021825D02*
X0210140Y0021825D01*
X0208605Y0021825D02*
X0208605Y0026429D01*
X0207071Y0024894D01*
X0211675Y0024127D02*
X0214744Y0024127D01*
X0213977Y0021825D02*
X0213977Y0026429D01*
X0211675Y0024127D01*
X0221788Y0043075D02*
X0221788Y0047679D01*
X0222556Y0045377D02*
X0224858Y0043075D01*
X0221788Y0044610D02*
X0224858Y0047679D01*
X0118129Y0097825D02*
X0118129Y0100894D01*
X0118129Y0099360D02*
X0113525Y0099360D01*
X0115059Y0097825D01*
X0113525Y0102429D02*
X0118129Y0102429D01*
X0116594Y0102429D02*
X0113525Y0105498D01*
X0115827Y0103196D02*
X0118129Y0105498D01*
X0105129Y0105498D02*
X0105129Y0102429D01*
X0102059Y0105498D01*
X0101292Y0105498D01*
X0100525Y0104731D01*
X0100525Y0103196D01*
X0101292Y0102429D01*
X0101292Y0100894D02*
X0100525Y0100127D01*
X0100525Y0097825D01*
X0105129Y0097825D01*
X0103594Y0097825D02*
X0103594Y0100127D01*
X0102827Y0100894D01*
X0101292Y0100894D01*
X0103594Y0099360D02*
X0105129Y0100894D01*
X0104361Y0107033D02*
X0105129Y0107800D01*
X0105129Y0109335D01*
X0104361Y0110102D01*
X0101292Y0110102D01*
X0100525Y0109335D01*
X0100525Y0107800D01*
X0101292Y0107033D01*
X0102059Y0107033D01*
X0102827Y0107800D01*
X0102827Y0110102D01*
X0063754Y0105898D02*
X0063754Y0104363D01*
X0062986Y0103596D01*
X0061452Y0103596D02*
X0060684Y0105131D01*
X0060684Y0105898D01*
X0061452Y0106665D01*
X0062986Y0106665D01*
X0063754Y0105898D01*
X0061452Y0103596D02*
X0059150Y0103596D01*
X0059150Y0106665D01*
X0059917Y0102061D02*
X0061452Y0102061D01*
X0062219Y0101294D01*
X0062219Y0098992D01*
X0063754Y0098992D02*
X0059150Y0098992D01*
X0059150Y0101294D01*
X0059917Y0102061D01*
X0062219Y0100527D02*
X0063754Y0102061D01*
X0050754Y0104363D02*
X0049986Y0103596D01*
X0046917Y0106665D01*
X0049986Y0106665D01*
X0050754Y0105898D01*
X0050754Y0104363D01*
X0049986Y0103596D02*
X0046917Y0103596D01*
X0046150Y0104363D01*
X0046150Y0105898D01*
X0046917Y0106665D01*
X0046917Y0102061D02*
X0049986Y0098992D01*
X0050754Y0098992D01*
X0050754Y0096690D02*
X0046150Y0096690D01*
X0048452Y0094388D01*
X0048452Y0097457D01*
X0046150Y0098992D02*
X0046150Y0102061D01*
X0046917Y0102061D01*
X0039233Y0097054D02*
X0036163Y0093985D01*
X0036931Y0094752D02*
X0039233Y0092450D01*
X0036163Y0092450D02*
X0036163Y0097054D01*
X0034629Y0097054D02*
X0034629Y0096287D01*
X0031559Y0093217D01*
X0031559Y0092450D01*
X0032029Y0092300D02*
X0032029Y0089231D01*
X0032029Y0090765D02*
X0036632Y0090765D01*
X0035098Y0092300D01*
X0034629Y0097054D02*
X0031559Y0097054D01*
X0030025Y0093217D02*
X0030025Y0092450D01*
X0029257Y0092450D01*
X0029257Y0093217D01*
X0030025Y0093217D01*
X0027723Y0094752D02*
X0024654Y0094752D01*
X0026955Y0097054D01*
X0026955Y0092450D01*
X0026050Y0089429D02*
X0026050Y0084825D01*
X0026050Y0086360D02*
X0029119Y0089429D01*
X0026817Y0087127D02*
X0029119Y0084825D01*
X0024515Y0088662D02*
X0021446Y0085592D01*
X0021446Y0084825D01*
X0019911Y0084825D02*
X0019144Y0084825D01*
X0019144Y0085592D01*
X0019911Y0085592D01*
X0019911Y0084825D01*
X0016842Y0084825D02*
X0016842Y0089429D01*
X0014540Y0087127D01*
X0017609Y0087127D01*
X0021446Y0089429D02*
X0024515Y0089429D01*
X0024515Y0088662D01*
X0023748Y0076429D02*
X0021446Y0076429D01*
X0021446Y0071825D01*
X0021446Y0073360D02*
X0023748Y0073360D01*
X0024515Y0074127D01*
X0024515Y0075662D01*
X0023748Y0076429D01*
X0026050Y0076429D02*
X0029119Y0076429D01*
X0029119Y0075662D01*
X0026050Y0072592D01*
X0026050Y0071825D01*
X0024515Y0071825D02*
X0022980Y0073360D01*
X0024654Y0058804D02*
X0026955Y0058804D01*
X0027723Y0058037D01*
X0027723Y0056502D01*
X0026955Y0055735D01*
X0024654Y0055735D01*
X0026188Y0055735D02*
X0027723Y0054200D01*
X0029257Y0054200D02*
X0032327Y0054200D01*
X0030792Y0054200D02*
X0030792Y0058804D01*
X0029257Y0057269D01*
X0033861Y0058037D02*
X0033861Y0054967D01*
X0036931Y0058037D01*
X0036931Y0054967D01*
X0036163Y0054200D01*
X0034629Y0054200D01*
X0033861Y0054967D01*
X0033861Y0058037D02*
X0034629Y0058804D01*
X0036163Y0058804D01*
X0036931Y0058037D01*
X0046150Y0055898D02*
X0046150Y0054363D01*
X0046917Y0053596D01*
X0049986Y0053596D01*
X0046917Y0056665D01*
X0049986Y0056665D01*
X0050754Y0055898D01*
X0050754Y0054363D01*
X0049986Y0053596D01*
X0046917Y0052061D02*
X0049986Y0048992D01*
X0050754Y0048992D01*
X0050754Y0046690D02*
X0046150Y0046690D01*
X0048452Y0044388D01*
X0048452Y0047457D01*
X0046150Y0048992D02*
X0046150Y0052061D01*
X0046917Y0052061D01*
X0046150Y0055898D02*
X0046917Y0056665D01*
X0039233Y0045804D02*
X0036163Y0042735D01*
X0036931Y0043502D02*
X0039233Y0041200D01*
X0037257Y0040908D02*
X0037257Y0039373D01*
X0036490Y0038606D01*
X0035723Y0038606D01*
X0032654Y0041675D01*
X0032654Y0038606D01*
X0031559Y0041200D02*
X0031559Y0041967D01*
X0034629Y0045037D01*
X0034629Y0045804D01*
X0031559Y0045804D01*
X0030025Y0041967D02*
X0030025Y0041200D01*
X0029257Y0041200D01*
X0029257Y0041967D01*
X0030025Y0041967D01*
X0027723Y0043502D02*
X0024654Y0043502D01*
X0026955Y0045804D01*
X0026955Y0041200D01*
X0026050Y0038179D02*
X0026050Y0033575D01*
X0026050Y0035110D02*
X0029119Y0038179D01*
X0026817Y0035877D02*
X0029119Y0033575D01*
X0024515Y0037412D02*
X0021446Y0034342D01*
X0021446Y0033575D01*
X0019911Y0033575D02*
X0019144Y0033575D01*
X0019144Y0034342D01*
X0019911Y0034342D01*
X0019911Y0033575D01*
X0016842Y0033575D02*
X0016842Y0038179D01*
X0014540Y0035877D01*
X0017609Y0035877D01*
X0021446Y0038179D02*
X0024515Y0038179D01*
X0024515Y0037412D01*
X0036163Y0041200D02*
X0036163Y0045804D01*
X0036490Y0041675D02*
X0037257Y0040908D01*
X0046917Y0029373D02*
X0047684Y0029373D01*
X0048452Y0028606D01*
X0049219Y0029373D01*
X0049986Y0029373D01*
X0050754Y0028606D01*
X0050754Y0027071D01*
X0049986Y0026304D01*
X0049986Y0024769D02*
X0050754Y0024002D01*
X0050754Y0022467D01*
X0049986Y0021700D01*
X0046917Y0021700D01*
X0046150Y0022467D01*
X0046150Y0024002D01*
X0046917Y0024769D01*
X0046917Y0026304D02*
X0046150Y0027071D01*
X0046150Y0028606D01*
X0046917Y0029373D01*
X0048452Y0028606D02*
X0048452Y0027839D01*
X0059150Y0027071D02*
X0059150Y0028606D01*
X0059917Y0029373D01*
X0062986Y0026304D01*
X0063754Y0027071D01*
X0063754Y0028606D01*
X0062986Y0029373D01*
X0059917Y0029373D01*
X0060684Y0030908D02*
X0062986Y0030908D01*
X0063754Y0031675D01*
X0063754Y0033977D01*
X0060684Y0033977D01*
X0061452Y0035512D02*
X0061452Y0037046D01*
X0063754Y0035512D02*
X0059150Y0035512D01*
X0059150Y0038581D01*
X0059150Y0048992D02*
X0059150Y0051294D01*
X0059917Y0052061D01*
X0061452Y0052061D01*
X0062219Y0051294D01*
X0062219Y0048992D01*
X0063754Y0048992D02*
X0059150Y0048992D01*
X0062219Y0050527D02*
X0063754Y0052061D01*
X0062986Y0053596D02*
X0063754Y0054363D01*
X0063754Y0055898D01*
X0062986Y0056665D01*
X0059917Y0056665D01*
X0059150Y0055898D01*
X0059150Y0054363D01*
X0059917Y0053596D01*
X0060684Y0053596D01*
X0061452Y0054363D01*
X0061452Y0056665D01*
X0060684Y0071700D02*
X0059150Y0073235D01*
X0063754Y0073235D01*
X0063754Y0074769D02*
X0063754Y0071700D01*
X0062986Y0076304D02*
X0059917Y0076304D01*
X0059150Y0077071D01*
X0059150Y0078606D01*
X0059917Y0079373D01*
X0062986Y0076304D01*
X0063754Y0077071D01*
X0063754Y0078606D01*
X0062986Y0079373D01*
X0059917Y0079373D01*
X0060684Y0080908D02*
X0062986Y0080908D01*
X0063754Y0081675D01*
X0063754Y0083977D01*
X0060684Y0083977D01*
X0061452Y0085512D02*
X0061452Y0087046D01*
X0063754Y0085512D02*
X0059150Y0085512D01*
X0059150Y0088581D01*
X0050754Y0079373D02*
X0050754Y0076304D01*
X0047684Y0079373D01*
X0046917Y0079373D01*
X0046150Y0078606D01*
X0046150Y0077071D01*
X0046917Y0076304D01*
X0046917Y0074769D02*
X0046150Y0074002D01*
X0046150Y0072467D01*
X0046917Y0071700D01*
X0049986Y0071700D01*
X0050754Y0072467D01*
X0050754Y0074002D01*
X0049986Y0074769D01*
X0024654Y0058804D02*
X0024654Y0054200D01*
X0022980Y0025179D02*
X0022980Y0020575D01*
X0021446Y0020575D02*
X0024515Y0020575D01*
X0026050Y0020575D02*
X0029119Y0020575D01*
X0027584Y0020575D02*
X0027584Y0025179D01*
X0026050Y0023644D01*
X0022980Y0025179D02*
X0021446Y0023644D01*
X0019911Y0022877D02*
X0019144Y0022110D01*
X0016842Y0022110D01*
X0018376Y0022110D02*
X0019911Y0020575D01*
X0019911Y0022877D02*
X0019911Y0024412D01*
X0019144Y0025179D01*
X0016842Y0025179D01*
X0016842Y0020575D01*
X0059150Y0023235D02*
X0063754Y0023235D01*
X0063754Y0024769D02*
X0063754Y0021700D01*
X0060684Y0021700D02*
X0059150Y0023235D01*
X0059917Y0026304D02*
X0059150Y0027071D01*
X0059917Y0026304D02*
X0062986Y0026304D01*
X0031559Y0105450D02*
X0030025Y0105450D01*
X0029257Y0106217D01*
X0029257Y0107752D01*
X0031559Y0107752D01*
X0032327Y0106985D01*
X0032327Y0106217D01*
X0031559Y0105450D01*
X0029257Y0107752D02*
X0030792Y0109287D01*
X0032327Y0110054D01*
X0027723Y0109287D02*
X0027723Y0107752D01*
X0026955Y0106985D01*
X0024654Y0106985D01*
X0026188Y0106985D02*
X0027723Y0105450D01*
X0024654Y0105450D02*
X0024654Y0110054D01*
X0026955Y0110054D01*
X0027723Y0109287D01*
X0028352Y0122450D02*
X0028352Y0127054D01*
X0026050Y0124752D01*
X0029119Y0124752D01*
X0024515Y0124752D02*
X0023748Y0123985D01*
X0021446Y0123985D01*
X0022980Y0123985D02*
X0024515Y0122450D01*
X0024515Y0124752D02*
X0024515Y0126287D01*
X0023748Y0127054D01*
X0021446Y0127054D01*
X0021446Y0122450D01*
X0021446Y0135450D02*
X0021446Y0136217D01*
X0024515Y0139287D01*
X0024515Y0140054D01*
X0021446Y0140054D01*
X0017609Y0137752D02*
X0014540Y0137752D01*
X0016842Y0140054D01*
X0016842Y0135450D01*
X0019144Y0135450D02*
X0019911Y0135450D01*
X0019911Y0136217D01*
X0019144Y0136217D01*
X0019144Y0135450D01*
X0026050Y0135450D02*
X0026050Y0140054D01*
X0026817Y0137752D02*
X0029119Y0135450D01*
X0026050Y0136985D02*
X0029119Y0140054D01*
X0032029Y0141248D02*
X0032029Y0142783D01*
X0032796Y0143550D01*
X0035865Y0140481D01*
X0032796Y0140481D01*
X0032029Y0141248D01*
X0032796Y0143550D02*
X0035865Y0143550D01*
X0036632Y0142783D01*
X0036632Y0141248D01*
X0035865Y0140481D01*
X0036163Y0143700D02*
X0036163Y0148304D01*
X0034629Y0148304D02*
X0034629Y0147537D01*
X0031559Y0144467D01*
X0031559Y0143700D01*
X0030025Y0143700D02*
X0030025Y0144467D01*
X0029257Y0144467D01*
X0029257Y0143700D01*
X0030025Y0143700D01*
X0026955Y0143700D02*
X0026955Y0148304D01*
X0024654Y0146002D01*
X0027723Y0146002D01*
X0031559Y0148304D02*
X0034629Y0148304D01*
X0036931Y0146002D02*
X0039233Y0143700D01*
X0036163Y0145235D02*
X0039233Y0148304D01*
X0046150Y0148992D02*
X0046150Y0152061D01*
X0046917Y0152061D01*
X0049986Y0148992D01*
X0050754Y0148992D01*
X0050754Y0146690D02*
X0046150Y0146690D01*
X0048452Y0144388D01*
X0048452Y0147457D01*
X0049986Y0153596D02*
X0046917Y0153596D01*
X0046150Y0154363D01*
X0046150Y0155898D01*
X0046917Y0156665D01*
X0049986Y0153596D01*
X0050754Y0154363D01*
X0050754Y0155898D01*
X0049986Y0156665D01*
X0046917Y0156665D01*
X0056205Y0165815D02*
X0053904Y0168884D01*
X0054671Y0170419D02*
X0053904Y0171186D01*
X0053904Y0172721D01*
X0054671Y0173488D01*
X0057740Y0170419D01*
X0054671Y0170419D01*
X0054671Y0173488D02*
X0057740Y0173488D01*
X0058507Y0172721D01*
X0058507Y0171186D01*
X0057740Y0170419D01*
X0058507Y0168884D02*
X0056205Y0165815D01*
X0056205Y0175023D02*
X0053904Y0175023D01*
X0056205Y0175023D02*
X0056973Y0175790D01*
X0056973Y0177325D01*
X0056205Y0178092D01*
X0056973Y0179627D02*
X0056973Y0181929D01*
X0056205Y0182696D01*
X0054671Y0182696D01*
X0053904Y0181929D01*
X0053904Y0179627D01*
X0054434Y0180950D02*
X0052900Y0182485D01*
X0057504Y0182485D01*
X0057504Y0184019D02*
X0057504Y0180950D01*
X0058507Y0178092D02*
X0053904Y0178092D01*
X0053904Y0184231D02*
X0056205Y0187300D01*
X0058507Y0184231D01*
X0057504Y0185554D02*
X0052900Y0185554D01*
X0055202Y0186321D02*
X0057504Y0188623D01*
X0055969Y0185554D02*
X0052900Y0188623D01*
X0044504Y0187856D02*
X0044504Y0186321D01*
X0043736Y0185554D01*
X0044504Y0184019D02*
X0042969Y0182485D01*
X0042969Y0183252D02*
X0042969Y0180950D01*
X0044504Y0180950D02*
X0039900Y0180950D01*
X0039900Y0183252D01*
X0040667Y0184019D01*
X0042202Y0184019D01*
X0042969Y0183252D01*
X0040667Y0185554D02*
X0039900Y0186321D01*
X0039900Y0187856D01*
X0040667Y0188623D01*
X0041434Y0188623D01*
X0042202Y0187856D01*
X0042969Y0188623D01*
X0043736Y0188623D01*
X0044504Y0187856D01*
X0044504Y0190158D02*
X0044504Y0193227D01*
X0044504Y0191692D02*
X0039900Y0191692D01*
X0041434Y0190158D01*
X0042202Y0187856D02*
X0042202Y0187089D01*
X0037119Y0184412D02*
X0036352Y0185179D01*
X0034817Y0185179D01*
X0034050Y0184412D01*
X0034050Y0183644D01*
X0034817Y0182877D01*
X0037119Y0182877D01*
X0036619Y0184200D02*
X0034317Y0186502D01*
X0033550Y0185735D02*
X0036619Y0188804D01*
X0037119Y0184412D02*
X0037119Y0181342D01*
X0036352Y0180575D01*
X0034817Y0180575D01*
X0034050Y0181342D01*
X0032515Y0181342D02*
X0031748Y0180575D01*
X0030213Y0180575D01*
X0029446Y0181342D01*
X0029446Y0184412D01*
X0030213Y0185179D01*
X0031748Y0185179D01*
X0032515Y0184412D01*
X0032015Y0184200D02*
X0028946Y0184200D01*
X0032015Y0187269D01*
X0032015Y0188037D01*
X0031248Y0188804D01*
X0029713Y0188804D01*
X0028946Y0188037D01*
X0033550Y0188804D02*
X0033550Y0184200D01*
X0027411Y0184200D02*
X0024342Y0184200D01*
X0025876Y0184200D02*
X0025876Y0188804D01*
X0024342Y0187269D01*
X0023307Y0193575D02*
X0020238Y0193575D01*
X0021772Y0193575D02*
X0021772Y0198179D01*
X0020238Y0196644D01*
X0024842Y0197412D02*
X0024842Y0194342D01*
X0027911Y0197412D01*
X0027911Y0194342D01*
X0027144Y0193575D01*
X0025609Y0193575D01*
X0024842Y0194342D01*
X0024842Y0197412D02*
X0025609Y0198179D01*
X0027144Y0198179D01*
X0027911Y0197412D01*
X0029446Y0196644D02*
X0029446Y0194342D01*
X0030213Y0193575D01*
X0032515Y0193575D01*
X0032515Y0196644D01*
X0034050Y0195877D02*
X0035584Y0195877D01*
X0034050Y0193575D02*
X0034050Y0198179D01*
X0037119Y0198179D01*
X0035852Y0175804D02*
X0034317Y0175804D01*
X0033550Y0175037D01*
X0032015Y0175037D02*
X0032015Y0174269D01*
X0031248Y0173502D01*
X0032015Y0172735D01*
X0032015Y0171967D01*
X0031248Y0171200D01*
X0029713Y0171200D01*
X0028946Y0171967D01*
X0027411Y0171200D02*
X0025876Y0172735D01*
X0026644Y0172735D02*
X0024342Y0172735D01*
X0024342Y0171200D02*
X0024342Y0175804D01*
X0026644Y0175804D01*
X0027411Y0175037D01*
X0027411Y0173502D01*
X0026644Y0172735D01*
X0028946Y0175037D02*
X0029713Y0175804D01*
X0031248Y0175804D01*
X0032015Y0175037D01*
X0031248Y0173502D02*
X0030480Y0173502D01*
X0033550Y0171200D02*
X0036619Y0174269D01*
X0036619Y0175037D01*
X0035852Y0175804D01*
X0036619Y0171200D02*
X0033550Y0171200D01*
X0031559Y0161304D02*
X0030025Y0161304D01*
X0029257Y0160537D01*
X0027723Y0160537D02*
X0027723Y0159002D01*
X0026955Y0158235D01*
X0024654Y0158235D01*
X0026188Y0158235D02*
X0027723Y0156700D01*
X0029257Y0157467D02*
X0030025Y0156700D01*
X0031559Y0156700D01*
X0032327Y0157467D01*
X0032327Y0158235D01*
X0031559Y0159002D01*
X0030792Y0159002D01*
X0031559Y0159002D02*
X0032327Y0159769D01*
X0032327Y0160537D01*
X0031559Y0161304D01*
X0027723Y0160537D02*
X0026955Y0161304D01*
X0024654Y0161304D01*
X0024654Y0156700D01*
X0046150Y0127839D02*
X0050754Y0127839D01*
X0050754Y0129373D02*
X0050754Y0126304D01*
X0049986Y0124769D02*
X0050754Y0124002D01*
X0050754Y0122467D01*
X0049986Y0121700D01*
X0046917Y0121700D01*
X0046150Y0122467D01*
X0046150Y0124002D01*
X0046917Y0124769D01*
X0047684Y0126304D02*
X0046150Y0127839D01*
X0059150Y0128606D02*
X0059917Y0129373D01*
X0062986Y0126304D01*
X0063754Y0127071D01*
X0063754Y0128606D01*
X0062986Y0129373D01*
X0059917Y0129373D01*
X0059150Y0128606D02*
X0059150Y0127071D01*
X0059917Y0126304D01*
X0062986Y0126304D01*
X0063754Y0124769D02*
X0063754Y0121700D01*
X0063754Y0123235D02*
X0059150Y0123235D01*
X0060684Y0121700D01*
X0060684Y0130908D02*
X0062986Y0130908D01*
X0063754Y0131675D01*
X0063754Y0133977D01*
X0060684Y0133977D01*
X0061452Y0135512D02*
X0061452Y0137046D01*
X0063754Y0135512D02*
X0059150Y0135512D01*
X0059150Y0138581D01*
X0059150Y0148992D02*
X0059150Y0151294D01*
X0059917Y0152061D01*
X0061452Y0152061D01*
X0062219Y0151294D01*
X0062219Y0148992D01*
X0063754Y0148992D02*
X0059150Y0148992D01*
X0062219Y0150527D02*
X0063754Y0152061D01*
X0063754Y0153596D02*
X0060684Y0156665D01*
X0059917Y0156665D01*
X0059150Y0155898D01*
X0059150Y0154363D01*
X0059917Y0153596D01*
X0063754Y0153596D02*
X0063754Y0156665D01*
X0106150Y0155569D02*
X0107684Y0154034D01*
X0106150Y0155569D02*
X0110754Y0155569D01*
X0110754Y0154034D02*
X0110754Y0157104D01*
X0109986Y0158638D02*
X0110754Y0159405D01*
X0110754Y0160940D01*
X0109986Y0161707D01*
X0106917Y0161707D01*
X0109986Y0158638D01*
X0106917Y0158638D01*
X0106150Y0159405D01*
X0106150Y0160940D01*
X0106917Y0161707D01*
X0107684Y0163242D02*
X0109986Y0163242D01*
X0110754Y0164009D01*
X0110754Y0166311D01*
X0107684Y0166311D01*
X0108452Y0167846D02*
X0108452Y0169381D01*
X0110754Y0167846D02*
X0106150Y0167846D01*
X0106150Y0170915D01*
X0108309Y0177159D02*
X0106775Y0178694D01*
X0111379Y0178694D01*
X0111379Y0177159D02*
X0111379Y0180229D01*
X0110611Y0181763D02*
X0107542Y0184832D01*
X0110611Y0184832D01*
X0111379Y0184065D01*
X0111379Y0182530D01*
X0110611Y0181763D01*
X0107542Y0181763D01*
X0106775Y0182530D01*
X0106775Y0184065D01*
X0107542Y0184832D01*
X0108309Y0186367D02*
X0110611Y0186367D01*
X0111379Y0187134D01*
X0111379Y0189436D01*
X0108309Y0189436D01*
X0109077Y0190971D02*
X0109077Y0192506D01*
X0111379Y0190971D02*
X0106775Y0190971D01*
X0106775Y0194040D01*
X0119775Y0193273D02*
X0120542Y0194040D01*
X0121309Y0194040D01*
X0122077Y0193273D01*
X0122077Y0191738D01*
X0121309Y0190971D01*
X0120542Y0190971D01*
X0119775Y0191738D01*
X0119775Y0193273D01*
X0122077Y0193273D02*
X0122844Y0194040D01*
X0123611Y0194040D01*
X0124379Y0193273D01*
X0124379Y0191738D01*
X0123611Y0190971D01*
X0122844Y0190971D01*
X0122077Y0191738D01*
X0123611Y0189436D02*
X0124379Y0188669D01*
X0124379Y0187134D01*
X0123611Y0186367D01*
X0120542Y0186367D01*
X0119775Y0187134D01*
X0119775Y0188669D01*
X0120542Y0189436D01*
X0119917Y0170915D02*
X0122986Y0167846D01*
X0123754Y0168613D01*
X0123754Y0170148D01*
X0122986Y0170915D01*
X0119917Y0170915D01*
X0119150Y0170148D01*
X0119150Y0168613D01*
X0119917Y0167846D01*
X0122986Y0167846D01*
X0123754Y0166311D02*
X0123754Y0163242D01*
X0123754Y0164777D02*
X0119150Y0164777D01*
X0120684Y0163242D01*
X0119917Y0161707D02*
X0119150Y0160940D01*
X0119150Y0159406D01*
X0119917Y0158638D01*
X0122986Y0158638D01*
X0123754Y0159406D01*
X0123754Y0160940D01*
X0122986Y0161707D01*
X0189150Y0199009D02*
X0189917Y0198242D01*
X0192986Y0198242D01*
X0193754Y0199009D01*
X0193754Y0200544D01*
X0192986Y0201311D01*
X0192986Y0202846D02*
X0193754Y0202846D01*
X0192986Y0202846D02*
X0189917Y0205915D01*
X0189150Y0205915D01*
X0189150Y0202846D01*
X0189917Y0201311D02*
X0189150Y0200544D01*
X0189150Y0199009D01*
X0209654Y0199127D02*
X0212723Y0199127D01*
X0214257Y0197592D02*
X0215025Y0197592D01*
X0215025Y0196825D01*
X0214257Y0196825D01*
X0214257Y0197592D01*
X0216559Y0197592D02*
X0216559Y0196825D01*
X0216559Y0197592D02*
X0219629Y0200662D01*
X0219629Y0201429D01*
X0216559Y0201429D01*
X0211955Y0201429D02*
X0211955Y0196825D01*
X0209654Y0199127D02*
X0211955Y0201429D01*
X0212723Y0209825D02*
X0211188Y0211360D01*
X0211955Y0211360D02*
X0209654Y0211360D01*
X0209654Y0209825D02*
X0209654Y0214429D01*
X0211955Y0214429D01*
X0212723Y0213662D01*
X0212723Y0212127D01*
X0211955Y0211360D01*
X0214257Y0209825D02*
X0217327Y0212894D01*
X0217327Y0213662D01*
X0216559Y0214429D01*
X0215025Y0214429D01*
X0214257Y0213662D01*
X0214257Y0209825D02*
X0217327Y0209825D01*
X0218861Y0209825D02*
X0218861Y0210592D01*
X0221931Y0213662D01*
X0221931Y0214429D01*
X0218861Y0214429D01*
X0221163Y0201429D02*
X0221163Y0196825D01*
X0221163Y0198360D02*
X0224233Y0201429D01*
X0221931Y0199127D02*
X0224233Y0196825D01*
D13*
X0216786Y0220644D02*
X0216786Y0225148D01*
X0215285Y0225148D02*
X0218287Y0225148D01*
X0213683Y0224397D02*
X0212933Y0225148D01*
X0211431Y0225148D01*
X0210681Y0224397D01*
X0210681Y0221394D01*
X0211431Y0220644D01*
X0212933Y0220644D01*
X0213683Y0221394D01*
X0213683Y0224397D01*
X0209079Y0224397D02*
X0209079Y0223646D01*
X0208329Y0222896D01*
X0206077Y0222896D01*
X0206077Y0220644D02*
X0206077Y0225148D01*
X0208329Y0225148D01*
X0209079Y0224397D01*
X0208329Y0222896D02*
X0209079Y0222145D01*
X0209079Y0221394D01*
X0208329Y0220644D01*
X0206077Y0220644D01*
X0204475Y0219893D02*
X0201473Y0219893D01*
X0199871Y0220644D02*
X0197619Y0222896D01*
X0196869Y0222145D02*
X0199871Y0225148D01*
X0196869Y0225148D02*
X0196869Y0220644D01*
X0195267Y0221394D02*
X0194517Y0220644D01*
X0193016Y0220644D01*
X0192265Y0221394D01*
X0192265Y0224397D01*
X0193016Y0225148D01*
X0194517Y0225148D01*
X0195267Y0224397D01*
X0190664Y0223646D02*
X0190664Y0220644D01*
X0190664Y0222896D02*
X0187661Y0222896D01*
X0187661Y0223646D02*
X0189162Y0225148D01*
X0190664Y0223646D01*
X0187661Y0223646D02*
X0187661Y0220644D01*
X0185309Y0221394D02*
X0185309Y0225148D01*
X0184558Y0225148D02*
X0186060Y0225148D01*
X0185309Y0221394D02*
X0184558Y0220644D01*
X0183808Y0220644D01*
X0183057Y0221394D01*
X0181456Y0219893D02*
X0178453Y0219893D01*
X0176852Y0221394D02*
X0176852Y0224397D01*
X0176101Y0225148D01*
X0174600Y0225148D01*
X0173849Y0224397D01*
X0173849Y0221394D01*
X0174600Y0220644D01*
X0176101Y0220644D01*
X0176852Y0221394D01*
X0172248Y0220644D02*
X0169245Y0220644D01*
X0169245Y0225148D01*
X0172248Y0225148D01*
X0170747Y0222896D02*
X0169245Y0222896D01*
X0167644Y0222896D02*
X0167644Y0224397D01*
X0166893Y0225148D01*
X0164641Y0225148D01*
X0164641Y0220644D01*
X0164641Y0222145D02*
X0166893Y0222145D01*
X0167644Y0222896D01*
X0166143Y0222145D02*
X0167644Y0220644D01*
X0163040Y0220644D02*
X0160037Y0220644D01*
X0160037Y0225148D01*
X0163040Y0225148D01*
X0161539Y0222896D02*
X0160037Y0222896D01*
X0158436Y0225148D02*
X0155433Y0225148D01*
X0154954Y0226250D02*
X0124954Y0226250D01*
X0124954Y0206250D01*
X0154954Y0206250D01*
X0154954Y0226250D01*
X0153832Y0224397D02*
X0153081Y0225148D01*
X0151580Y0225148D01*
X0150830Y0224397D01*
X0150830Y0223646D01*
X0151580Y0222896D01*
X0153081Y0222896D01*
X0153832Y0222145D01*
X0153832Y0221394D01*
X0153081Y0220644D01*
X0151580Y0220644D01*
X0150830Y0221394D01*
X0156935Y0220644D02*
X0156935Y0225148D01*
X0154954Y0205000D02*
X0084954Y0205000D01*
X0087237Y0213563D02*
X0122670Y0213563D01*
X0122670Y0221437D01*
X0087237Y0221437D01*
X0087237Y0213563D01*
X0075579Y0197500D02*
X0055579Y0197500D01*
X0055579Y0157500D01*
X0075579Y0157500D01*
X0075579Y0197500D01*
X0074954Y0195000D02*
X0074954Y0015000D01*
X0075766Y0014360D02*
X0078018Y0014360D01*
X0078768Y0013609D01*
X0078768Y0012859D01*
X0078018Y0012108D01*
X0075766Y0012108D01*
X0078018Y0012108D02*
X0078768Y0011358D01*
X0078768Y0010607D01*
X0078018Y0009856D01*
X0075766Y0009856D01*
X0075766Y0014360D01*
X0080370Y0013609D02*
X0080370Y0010607D01*
X0081120Y0009856D01*
X0082621Y0009856D01*
X0083372Y0010607D01*
X0083372Y0013609D01*
X0082621Y0014360D01*
X0081120Y0014360D01*
X0080370Y0013609D01*
X0084973Y0014360D02*
X0087976Y0014360D01*
X0086475Y0014360D02*
X0086475Y0009856D01*
X0084954Y0005000D02*
X0154954Y0005000D01*
X0155196Y0005003D01*
X0155437Y0005012D01*
X0155678Y0005026D01*
X0155919Y0005047D01*
X0156159Y0005073D01*
X0156399Y0005105D01*
X0156638Y0005143D01*
X0156875Y0005186D01*
X0157112Y0005236D01*
X0157347Y0005291D01*
X0157581Y0005351D01*
X0157813Y0005418D01*
X0158044Y0005489D01*
X0158273Y0005567D01*
X0158500Y0005650D01*
X0158725Y0005738D01*
X0158948Y0005832D01*
X0159168Y0005931D01*
X0159386Y0006036D01*
X0159601Y0006145D01*
X0159814Y0006260D01*
X0160024Y0006380D01*
X0160230Y0006505D01*
X0160434Y0006635D01*
X0160635Y0006770D01*
X0160832Y0006910D01*
X0161026Y0007054D01*
X0161216Y0007203D01*
X0161402Y0007357D01*
X0161585Y0007515D01*
X0161764Y0007677D01*
X0161939Y0007844D01*
X0162110Y0008015D01*
X0162277Y0008190D01*
X0162439Y0008369D01*
X0162597Y0008552D01*
X0162751Y0008738D01*
X0162900Y0008928D01*
X0163044Y0009122D01*
X0163184Y0009319D01*
X0163319Y0009520D01*
X0163449Y0009724D01*
X0163574Y0009930D01*
X0163694Y0010140D01*
X0163809Y0010353D01*
X0163918Y0010568D01*
X0164023Y0010786D01*
X0164122Y0011006D01*
X0164216Y0011229D01*
X0164304Y0011454D01*
X0164387Y0011681D01*
X0164465Y0011910D01*
X0164536Y0012141D01*
X0164603Y0012373D01*
X0164663Y0012607D01*
X0164718Y0012842D01*
X0164768Y0013079D01*
X0164811Y0013316D01*
X0164849Y0013555D01*
X0164881Y0013795D01*
X0164907Y0014035D01*
X0164928Y0014276D01*
X0164942Y0014517D01*
X0164951Y0014758D01*
X0164954Y0015000D01*
X0164954Y0195000D01*
X0164951Y0195242D01*
X0164942Y0195483D01*
X0164928Y0195724D01*
X0164907Y0195965D01*
X0164881Y0196205D01*
X0164849Y0196445D01*
X0164811Y0196684D01*
X0164768Y0196921D01*
X0164718Y0197158D01*
X0164663Y0197393D01*
X0164603Y0197627D01*
X0164536Y0197859D01*
X0164465Y0198090D01*
X0164387Y0198319D01*
X0164304Y0198546D01*
X0164216Y0198771D01*
X0164122Y0198994D01*
X0164023Y0199214D01*
X0163918Y0199432D01*
X0163809Y0199647D01*
X0163694Y0199860D01*
X0163574Y0200070D01*
X0163449Y0200276D01*
X0163319Y0200480D01*
X0163184Y0200681D01*
X0163044Y0200878D01*
X0162900Y0201072D01*
X0162751Y0201262D01*
X0162597Y0201448D01*
X0162439Y0201631D01*
X0162277Y0201810D01*
X0162110Y0201985D01*
X0161939Y0202156D01*
X0161764Y0202323D01*
X0161585Y0202485D01*
X0161402Y0202643D01*
X0161216Y0202797D01*
X0161026Y0202946D01*
X0160832Y0203090D01*
X0160635Y0203230D01*
X0160434Y0203365D01*
X0160230Y0203495D01*
X0160024Y0203620D01*
X0159814Y0203740D01*
X0159601Y0203855D01*
X0159386Y0203964D01*
X0159168Y0204069D01*
X0158948Y0204168D01*
X0158725Y0204262D01*
X0158500Y0204350D01*
X0158273Y0204433D01*
X0158044Y0204511D01*
X0157813Y0204582D01*
X0157581Y0204649D01*
X0157347Y0204709D01*
X0157112Y0204764D01*
X0156875Y0204814D01*
X0156638Y0204857D01*
X0156399Y0204895D01*
X0156159Y0204927D01*
X0155919Y0204953D01*
X0155678Y0204974D01*
X0155437Y0204988D01*
X0155196Y0204997D01*
X0154954Y0205000D01*
X0179950Y0202398D02*
X0179950Y0200897D01*
X0180700Y0200146D01*
X0181451Y0200146D01*
X0182202Y0200897D01*
X0182202Y0202398D01*
X0182952Y0203149D01*
X0183703Y0203149D01*
X0184454Y0202398D01*
X0184454Y0200897D01*
X0183703Y0200146D01*
X0182952Y0200146D01*
X0182202Y0200897D01*
X0182202Y0202398D02*
X0181451Y0203149D01*
X0180700Y0203149D01*
X0179950Y0202398D01*
X0184221Y0202542D02*
X0184971Y0203293D01*
X0184221Y0204044D01*
X0184971Y0204794D01*
X0187223Y0204794D01*
X0187223Y0203293D02*
X0184971Y0203293D01*
X0184221Y0202542D02*
X0184221Y0201792D01*
X0187223Y0201792D01*
X0187223Y0200190D02*
X0184971Y0200190D01*
X0184221Y0199440D01*
X0184971Y0198689D01*
X0187223Y0198689D01*
X0187223Y0197188D02*
X0184221Y0197188D01*
X0184221Y0197938D01*
X0184971Y0198689D01*
X0184454Y0198545D02*
X0184454Y0195542D01*
X0181451Y0198545D01*
X0180700Y0198545D01*
X0179950Y0197794D01*
X0179950Y0196293D01*
X0180700Y0195542D01*
X0180700Y0193941D02*
X0182202Y0193941D01*
X0182952Y0193190D01*
X0182952Y0190938D01*
X0182952Y0192439D02*
X0184454Y0193941D01*
X0184221Y0194085D02*
X0184221Y0194836D01*
X0184971Y0195586D01*
X0186473Y0195586D01*
X0187223Y0194836D01*
X0187223Y0193334D01*
X0186473Y0192584D01*
X0184971Y0192584D02*
X0184221Y0194085D01*
X0184971Y0192584D02*
X0182719Y0192584D01*
X0182719Y0195586D01*
X0180700Y0193941D02*
X0179950Y0193190D01*
X0179950Y0190938D01*
X0184454Y0190938D01*
X0186473Y0191016D02*
X0186473Y0190265D01*
X0187223Y0190265D01*
X0187223Y0191016D01*
X0186473Y0191016D01*
X0187223Y0191016D02*
X0188725Y0189515D01*
X0186473Y0187913D02*
X0187223Y0187163D01*
X0187223Y0185661D01*
X0186473Y0184911D01*
X0184971Y0186412D02*
X0184971Y0187163D01*
X0185722Y0187913D01*
X0186473Y0187913D01*
X0184971Y0187163D02*
X0184221Y0187913D01*
X0183470Y0187913D01*
X0182719Y0187163D01*
X0182719Y0185661D01*
X0183470Y0184911D01*
X0184558Y0173898D02*
X0186060Y0173898D01*
X0185309Y0173898D02*
X0185309Y0170144D01*
X0184558Y0169394D01*
X0183808Y0169394D01*
X0183057Y0170144D01*
X0181456Y0168643D02*
X0178453Y0168643D01*
X0176852Y0170144D02*
X0176852Y0173147D01*
X0176101Y0173898D01*
X0174600Y0173898D01*
X0173849Y0173147D01*
X0173849Y0170144D01*
X0174600Y0169394D01*
X0176101Y0169394D01*
X0176852Y0170144D01*
X0172248Y0169394D02*
X0169245Y0169394D01*
X0169245Y0173898D01*
X0172248Y0173898D01*
X0170747Y0171646D02*
X0169245Y0171646D01*
X0167644Y0171646D02*
X0167644Y0173147D01*
X0166893Y0173898D01*
X0164641Y0173898D01*
X0164641Y0169394D01*
X0164641Y0170895D02*
X0166893Y0170895D01*
X0167644Y0171646D01*
X0166143Y0170895D02*
X0167644Y0169394D01*
X0163040Y0169394D02*
X0160037Y0169394D01*
X0160037Y0173898D01*
X0163040Y0173898D01*
X0161539Y0171646D02*
X0160037Y0171646D01*
X0158436Y0173898D02*
X0155433Y0173898D01*
X0156935Y0173898D02*
X0156935Y0169394D01*
X0153832Y0170144D02*
X0153081Y0169394D01*
X0151580Y0169394D01*
X0150830Y0170144D01*
X0151580Y0171646D02*
X0150830Y0172396D01*
X0150830Y0173147D01*
X0151580Y0173898D01*
X0153081Y0173898D01*
X0153832Y0173147D01*
X0153081Y0171646D02*
X0153832Y0170895D01*
X0153832Y0170144D01*
X0153081Y0171646D02*
X0151580Y0171646D01*
X0126646Y0152047D02*
X0126646Y0112677D01*
X0113261Y0112677D01*
X0113261Y0152047D01*
X0126646Y0152047D01*
X0114048Y0150472D02*
X0114050Y0150528D01*
X0114056Y0150583D01*
X0114066Y0150637D01*
X0114079Y0150691D01*
X0114097Y0150744D01*
X0114118Y0150795D01*
X0114142Y0150845D01*
X0114170Y0150893D01*
X0114202Y0150939D01*
X0114236Y0150983D01*
X0114274Y0151024D01*
X0114314Y0151062D01*
X0114357Y0151097D01*
X0114402Y0151129D01*
X0114450Y0151158D01*
X0114499Y0151184D01*
X0114550Y0151206D01*
X0114602Y0151224D01*
X0114656Y0151238D01*
X0114711Y0151249D01*
X0114766Y0151256D01*
X0114821Y0151259D01*
X0114877Y0151258D01*
X0114932Y0151253D01*
X0114987Y0151244D01*
X0115041Y0151232D01*
X0115094Y0151215D01*
X0115146Y0151195D01*
X0115196Y0151171D01*
X0115244Y0151144D01*
X0115291Y0151114D01*
X0115335Y0151080D01*
X0115377Y0151043D01*
X0115415Y0151003D01*
X0115452Y0150961D01*
X0115485Y0150916D01*
X0115514Y0150870D01*
X0115541Y0150821D01*
X0115563Y0150770D01*
X0115583Y0150718D01*
X0115598Y0150664D01*
X0115610Y0150610D01*
X0115618Y0150555D01*
X0115622Y0150500D01*
X0115622Y0150444D01*
X0115618Y0150389D01*
X0115610Y0150334D01*
X0115598Y0150280D01*
X0115583Y0150226D01*
X0115563Y0150174D01*
X0115541Y0150123D01*
X0115514Y0150074D01*
X0115485Y0150028D01*
X0115452Y0149983D01*
X0115415Y0149941D01*
X0115377Y0149901D01*
X0115335Y0149864D01*
X0115291Y0149830D01*
X0115244Y0149800D01*
X0115196Y0149773D01*
X0115146Y0149749D01*
X0115094Y0149729D01*
X0115041Y0149712D01*
X0114987Y0149700D01*
X0114932Y0149691D01*
X0114877Y0149686D01*
X0114821Y0149685D01*
X0114766Y0149688D01*
X0114711Y0149695D01*
X0114656Y0149706D01*
X0114602Y0149720D01*
X0114550Y0149738D01*
X0114499Y0149760D01*
X0114450Y0149786D01*
X0114402Y0149815D01*
X0114357Y0149847D01*
X0114314Y0149882D01*
X0114274Y0149920D01*
X0114236Y0149961D01*
X0114202Y0150005D01*
X0114170Y0150051D01*
X0114142Y0150099D01*
X0114118Y0150149D01*
X0114097Y0150200D01*
X0114079Y0150253D01*
X0114066Y0150307D01*
X0114056Y0150361D01*
X0114050Y0150416D01*
X0114048Y0150472D01*
X0110859Y0182013D02*
X0099048Y0182013D01*
X0099048Y0186737D01*
X0110859Y0186737D01*
X0110859Y0182013D01*
X0084954Y0205000D02*
X0084712Y0204997D01*
X0084471Y0204988D01*
X0084230Y0204974D01*
X0083989Y0204953D01*
X0083749Y0204927D01*
X0083509Y0204895D01*
X0083270Y0204857D01*
X0083033Y0204814D01*
X0082796Y0204764D01*
X0082561Y0204709D01*
X0082327Y0204649D01*
X0082095Y0204582D01*
X0081864Y0204511D01*
X0081635Y0204433D01*
X0081408Y0204350D01*
X0081183Y0204262D01*
X0080960Y0204168D01*
X0080740Y0204069D01*
X0080522Y0203964D01*
X0080307Y0203855D01*
X0080094Y0203740D01*
X0079884Y0203620D01*
X0079678Y0203495D01*
X0079474Y0203365D01*
X0079273Y0203230D01*
X0079076Y0203090D01*
X0078882Y0202946D01*
X0078692Y0202797D01*
X0078506Y0202643D01*
X0078323Y0202485D01*
X0078144Y0202323D01*
X0077969Y0202156D01*
X0077798Y0201985D01*
X0077631Y0201810D01*
X0077469Y0201631D01*
X0077311Y0201448D01*
X0077157Y0201262D01*
X0077008Y0201072D01*
X0076864Y0200878D01*
X0076724Y0200681D01*
X0076589Y0200480D01*
X0076459Y0200276D01*
X0076334Y0200070D01*
X0076214Y0199860D01*
X0076099Y0199647D01*
X0075990Y0199432D01*
X0075885Y0199214D01*
X0075786Y0198994D01*
X0075692Y0198771D01*
X0075604Y0198546D01*
X0075521Y0198319D01*
X0075443Y0198090D01*
X0075372Y0197859D01*
X0075305Y0197627D01*
X0075245Y0197393D01*
X0075190Y0197158D01*
X0075140Y0196921D01*
X0075097Y0196684D01*
X0075059Y0196445D01*
X0075027Y0196205D01*
X0075001Y0195965D01*
X0074980Y0195724D01*
X0074966Y0195483D01*
X0074957Y0195242D01*
X0074954Y0195000D01*
X0035229Y0171860D02*
X0032226Y0171860D01*
X0032226Y0169608D01*
X0033728Y0170359D01*
X0034478Y0170359D01*
X0035229Y0169608D01*
X0035229Y0168107D01*
X0034478Y0167356D01*
X0032977Y0167356D01*
X0032226Y0168107D01*
X0030625Y0168107D02*
X0030625Y0168858D01*
X0029874Y0169608D01*
X0028373Y0169608D01*
X0027622Y0170359D01*
X0027622Y0171109D01*
X0028373Y0171860D01*
X0029874Y0171860D01*
X0030625Y0171109D01*
X0029124Y0172611D02*
X0029124Y0166606D01*
X0029874Y0167356D02*
X0028373Y0167356D01*
X0027622Y0168107D01*
X0026021Y0168107D02*
X0026021Y0171860D01*
X0023019Y0171860D02*
X0023019Y0168107D01*
X0023769Y0167356D01*
X0025270Y0167356D01*
X0026021Y0168107D01*
X0029874Y0167356D02*
X0030625Y0168107D01*
X0054181Y0150737D02*
X0054932Y0151488D01*
X0057184Y0151488D01*
X0057184Y0149987D02*
X0054932Y0149987D01*
X0054181Y0150737D01*
X0054932Y0149987D02*
X0054181Y0149236D01*
X0054181Y0148485D01*
X0057184Y0148485D01*
X0057184Y0146884D02*
X0054932Y0146884D01*
X0054181Y0146133D01*
X0054932Y0145383D01*
X0057184Y0145383D01*
X0057184Y0143881D02*
X0054181Y0143881D01*
X0054181Y0144632D01*
X0054932Y0145383D01*
X0054932Y0142280D02*
X0056433Y0142280D01*
X0057184Y0141529D01*
X0057184Y0140028D01*
X0056433Y0139278D01*
X0054932Y0139278D02*
X0054181Y0140779D01*
X0054181Y0141529D01*
X0054932Y0142280D01*
X0052680Y0142280D02*
X0052680Y0139278D01*
X0054932Y0139278D01*
X0056433Y0137710D02*
X0056433Y0136959D01*
X0057184Y0136959D01*
X0057184Y0137710D01*
X0056433Y0137710D01*
X0057184Y0137710D02*
X0058685Y0136208D01*
X0056433Y0134607D02*
X0057184Y0133856D01*
X0057184Y0132355D01*
X0056433Y0131604D01*
X0055450Y0130605D02*
X0059954Y0130605D01*
X0059954Y0129104D02*
X0059954Y0132106D01*
X0056951Y0129104D02*
X0055450Y0130605D01*
X0053431Y0131604D02*
X0052680Y0132355D01*
X0052680Y0133856D01*
X0053431Y0134607D01*
X0054181Y0134607D01*
X0054932Y0133856D01*
X0055683Y0134607D01*
X0056433Y0134607D01*
X0054932Y0133856D02*
X0054932Y0133106D01*
X0056200Y0127503D02*
X0057702Y0127503D01*
X0058452Y0126752D01*
X0058452Y0124500D01*
X0058452Y0126001D02*
X0059954Y0127503D01*
X0059954Y0124500D02*
X0055450Y0124500D01*
X0055450Y0126752D01*
X0056200Y0127503D01*
X0055749Y0116860D02*
X0054247Y0116860D01*
X0054998Y0116860D02*
X0054998Y0113107D01*
X0054247Y0112356D01*
X0053497Y0112356D01*
X0052746Y0113107D01*
X0051145Y0111606D02*
X0048142Y0111606D01*
X0046541Y0113107D02*
X0046541Y0116109D01*
X0045790Y0116860D01*
X0044289Y0116860D01*
X0043538Y0116109D01*
X0043538Y0113107D01*
X0044289Y0112356D01*
X0045790Y0112356D01*
X0046541Y0113107D01*
X0041937Y0112356D02*
X0038934Y0112356D01*
X0038934Y0116860D01*
X0041937Y0116860D01*
X0040435Y0114608D02*
X0038934Y0114608D01*
X0037333Y0114608D02*
X0036582Y0113858D01*
X0034330Y0113858D01*
X0035832Y0113858D02*
X0037333Y0112356D01*
X0037333Y0114608D02*
X0037333Y0116109D01*
X0036582Y0116860D01*
X0034330Y0116860D01*
X0034330Y0112356D01*
X0032729Y0112356D02*
X0029726Y0112356D01*
X0029726Y0116860D01*
X0032729Y0116860D01*
X0032226Y0116857D02*
X0032226Y0116106D01*
X0032226Y0116857D02*
X0035229Y0119859D01*
X0035229Y0120610D01*
X0032226Y0120610D01*
X0030625Y0119859D02*
X0029874Y0120610D01*
X0028373Y0120610D01*
X0027622Y0119859D01*
X0027622Y0119109D01*
X0028373Y0118358D01*
X0029874Y0118358D01*
X0030625Y0117608D01*
X0030625Y0116857D01*
X0029874Y0116106D01*
X0028373Y0116106D01*
X0027622Y0116857D01*
X0028125Y0116860D02*
X0025122Y0116860D01*
X0025270Y0116106D02*
X0026021Y0116857D01*
X0026021Y0120610D01*
X0023019Y0120610D02*
X0023019Y0116857D01*
X0023769Y0116106D01*
X0025270Y0116106D01*
X0026624Y0116860D02*
X0026624Y0112356D01*
X0029726Y0114608D02*
X0031228Y0114608D01*
X0029124Y0115356D02*
X0029124Y0121361D01*
X0023521Y0116109D02*
X0022770Y0116860D01*
X0021269Y0116860D01*
X0020519Y0116109D01*
X0020519Y0115359D01*
X0021269Y0114608D01*
X0022770Y0114608D01*
X0023521Y0113858D01*
X0023521Y0113107D01*
X0022770Y0112356D01*
X0021269Y0112356D01*
X0020519Y0113107D01*
X0052680Y0091030D02*
X0052680Y0088028D01*
X0054932Y0088028D01*
X0054181Y0089529D01*
X0054181Y0090279D01*
X0054932Y0091030D01*
X0056433Y0091030D01*
X0057184Y0090279D01*
X0057184Y0088778D01*
X0056433Y0088028D01*
X0056433Y0086460D02*
X0056433Y0085709D01*
X0057184Y0085709D01*
X0057184Y0086460D01*
X0056433Y0086460D01*
X0057184Y0086460D02*
X0058685Y0084958D01*
X0056433Y0083357D02*
X0057184Y0082606D01*
X0057184Y0081105D01*
X0056433Y0080354D01*
X0055450Y0079855D02*
X0055450Y0081356D01*
X0056200Y0082106D01*
X0056951Y0082106D01*
X0057702Y0081356D01*
X0057702Y0079855D01*
X0056951Y0079104D01*
X0056200Y0079104D01*
X0055450Y0079855D01*
X0054932Y0081856D02*
X0054932Y0082606D01*
X0055683Y0083357D01*
X0056433Y0083357D01*
X0054932Y0082606D02*
X0054181Y0083357D01*
X0053431Y0083357D01*
X0052680Y0082606D01*
X0052680Y0081105D01*
X0053431Y0080354D01*
X0056200Y0077503D02*
X0057702Y0077503D01*
X0058452Y0076752D01*
X0058452Y0074500D01*
X0058452Y0076001D02*
X0059954Y0077503D01*
X0059203Y0079104D02*
X0058452Y0079104D01*
X0057702Y0079855D01*
X0057702Y0081356D02*
X0058452Y0082106D01*
X0059203Y0082106D01*
X0059954Y0081356D01*
X0059954Y0079855D01*
X0059203Y0079104D01*
X0056200Y0077503D02*
X0055450Y0076752D01*
X0055450Y0074500D01*
X0059954Y0074500D01*
X0058851Y0065610D02*
X0060352Y0064109D01*
X0060352Y0061106D01*
X0061954Y0061857D02*
X0062704Y0061106D01*
X0064206Y0061106D01*
X0064956Y0061857D01*
X0066558Y0062608D02*
X0069560Y0065610D01*
X0066558Y0065610D02*
X0066558Y0061106D01*
X0067308Y0063358D02*
X0069560Y0061106D01*
X0071162Y0060356D02*
X0074164Y0060356D01*
X0075766Y0061106D02*
X0078018Y0061106D01*
X0078768Y0061857D01*
X0078768Y0062608D01*
X0078018Y0063358D01*
X0075766Y0063358D01*
X0078018Y0063358D02*
X0078768Y0064109D01*
X0078768Y0064859D01*
X0078018Y0065610D01*
X0075766Y0065610D01*
X0075766Y0061106D01*
X0080370Y0061857D02*
X0080370Y0064859D01*
X0081120Y0065610D01*
X0082621Y0065610D01*
X0083372Y0064859D01*
X0083372Y0061857D01*
X0082621Y0061106D01*
X0081120Y0061106D01*
X0080370Y0061857D01*
X0084973Y0065610D02*
X0087976Y0065610D01*
X0086475Y0065610D02*
X0086475Y0061106D01*
X0064956Y0064859D02*
X0064206Y0065610D01*
X0062704Y0065610D01*
X0061954Y0064859D01*
X0061954Y0061857D01*
X0060352Y0063358D02*
X0057350Y0063358D01*
X0057350Y0064109D02*
X0058851Y0065610D01*
X0057350Y0064109D02*
X0057350Y0061106D01*
X0054998Y0061857D02*
X0054998Y0065610D01*
X0054247Y0065610D02*
X0055749Y0065610D01*
X0054998Y0061857D02*
X0054247Y0061106D01*
X0053497Y0061106D01*
X0052746Y0061857D01*
X0051145Y0060356D02*
X0048142Y0060356D01*
X0046541Y0061857D02*
X0046541Y0064859D01*
X0045790Y0065610D01*
X0044289Y0065610D01*
X0043538Y0064859D01*
X0043538Y0061857D01*
X0044289Y0061106D01*
X0045790Y0061106D01*
X0046541Y0061857D01*
X0041937Y0061106D02*
X0038934Y0061106D01*
X0038934Y0065610D01*
X0041937Y0065610D01*
X0040435Y0063358D02*
X0038934Y0063358D01*
X0037333Y0063358D02*
X0037333Y0064859D01*
X0036582Y0065610D01*
X0034330Y0065610D01*
X0034330Y0061106D01*
X0034330Y0062608D02*
X0036582Y0062608D01*
X0037333Y0063358D01*
X0035832Y0062608D02*
X0037333Y0061106D01*
X0032729Y0061106D02*
X0029726Y0061106D01*
X0029726Y0065610D01*
X0032729Y0065610D01*
X0030625Y0064856D02*
X0027622Y0064856D01*
X0030625Y0067859D01*
X0030625Y0068609D01*
X0029874Y0069360D01*
X0028373Y0069360D01*
X0027622Y0068609D01*
X0026021Y0069360D02*
X0024520Y0069360D01*
X0025270Y0069360D02*
X0025270Y0065607D01*
X0024520Y0064856D01*
X0023769Y0064856D01*
X0023019Y0065607D01*
X0022770Y0065610D02*
X0021269Y0065610D01*
X0020519Y0064859D01*
X0020519Y0064109D01*
X0021269Y0063358D01*
X0022770Y0063358D01*
X0023521Y0062608D01*
X0023521Y0061857D01*
X0022770Y0061106D01*
X0021269Y0061106D01*
X0020519Y0061857D01*
X0023521Y0064859D02*
X0022770Y0065610D01*
X0025122Y0065610D02*
X0028125Y0065610D01*
X0026624Y0065610D02*
X0026624Y0061106D01*
X0029726Y0063358D02*
X0031228Y0063358D01*
X0054181Y0048237D02*
X0054932Y0048988D01*
X0057184Y0048988D01*
X0057184Y0047487D02*
X0054932Y0047487D01*
X0054181Y0048237D01*
X0054932Y0047487D02*
X0054181Y0046736D01*
X0054181Y0045985D01*
X0057184Y0045985D01*
X0057184Y0044384D02*
X0054932Y0044384D01*
X0054181Y0043633D01*
X0054932Y0042883D01*
X0057184Y0042883D01*
X0057184Y0041381D02*
X0054181Y0041381D01*
X0054181Y0042132D01*
X0054932Y0042883D01*
X0054932Y0039780D02*
X0056433Y0039780D01*
X0057184Y0039029D01*
X0057184Y0037528D01*
X0056433Y0036778D01*
X0056200Y0036710D02*
X0055450Y0035960D01*
X0055450Y0034458D01*
X0056200Y0033708D01*
X0056433Y0034459D02*
X0057184Y0034459D01*
X0057184Y0035210D01*
X0056433Y0035210D01*
X0056433Y0034459D01*
X0057184Y0035210D02*
X0058685Y0033708D01*
X0059954Y0033708D02*
X0056951Y0036710D01*
X0056200Y0036710D01*
X0054932Y0036778D02*
X0054181Y0038279D01*
X0054181Y0039029D01*
X0054932Y0039780D01*
X0052680Y0039780D02*
X0052680Y0036778D01*
X0054932Y0036778D01*
X0055683Y0032107D02*
X0054932Y0031356D01*
X0054932Y0030606D01*
X0055450Y0030605D02*
X0056951Y0029104D01*
X0056433Y0029104D02*
X0057184Y0029855D01*
X0057184Y0031356D01*
X0056433Y0032107D01*
X0055683Y0032107D01*
X0054932Y0031356D02*
X0054181Y0032107D01*
X0053431Y0032107D01*
X0052680Y0031356D01*
X0052680Y0029855D01*
X0053431Y0029104D01*
X0055450Y0030605D02*
X0059954Y0030605D01*
X0059954Y0029104D02*
X0059954Y0032106D01*
X0059954Y0033708D02*
X0059954Y0036710D01*
X0059954Y0027503D02*
X0058452Y0026001D01*
X0058452Y0026752D02*
X0058452Y0024500D01*
X0059954Y0024500D02*
X0055450Y0024500D01*
X0055450Y0026752D01*
X0056200Y0027503D01*
X0057702Y0027503D01*
X0058452Y0026752D01*
X0058851Y0014360D02*
X0057350Y0012859D01*
X0057350Y0009856D01*
X0057350Y0012108D02*
X0060352Y0012108D01*
X0060352Y0012859D02*
X0058851Y0014360D01*
X0060352Y0012859D02*
X0060352Y0009856D01*
X0061954Y0010607D02*
X0062704Y0009856D01*
X0064206Y0009856D01*
X0064956Y0010607D01*
X0066558Y0011358D02*
X0069560Y0014360D01*
X0066558Y0014360D02*
X0066558Y0009856D01*
X0067308Y0012108D02*
X0069560Y0009856D01*
X0071162Y0009106D02*
X0074164Y0009106D01*
X0064956Y0013609D02*
X0064206Y0014360D01*
X0062704Y0014360D01*
X0061954Y0013609D01*
X0061954Y0010607D01*
X0055749Y0014360D02*
X0054247Y0014360D01*
X0054998Y0014360D02*
X0054998Y0010607D01*
X0054247Y0009856D01*
X0053497Y0009856D01*
X0052746Y0010607D01*
X0051145Y0009106D02*
X0048142Y0009106D01*
X0046541Y0010607D02*
X0046541Y0013609D01*
X0045790Y0014360D01*
X0044289Y0014360D01*
X0043538Y0013609D01*
X0043538Y0010607D01*
X0044289Y0009856D01*
X0045790Y0009856D01*
X0046541Y0010607D01*
X0041937Y0009856D02*
X0038934Y0009856D01*
X0038934Y0014360D01*
X0041937Y0014360D01*
X0040435Y0012108D02*
X0038934Y0012108D01*
X0037333Y0012108D02*
X0037333Y0013609D01*
X0036582Y0014360D01*
X0034330Y0014360D01*
X0034330Y0009856D01*
X0034330Y0011358D02*
X0036582Y0011358D01*
X0037333Y0012108D01*
X0035832Y0011358D02*
X0037333Y0009856D01*
X0032729Y0009856D02*
X0029726Y0009856D01*
X0029726Y0014360D01*
X0032729Y0014360D01*
X0031228Y0012108D02*
X0029726Y0012108D01*
X0028125Y0014360D02*
X0025122Y0014360D01*
X0026624Y0014360D02*
X0026624Y0009856D01*
X0023521Y0010607D02*
X0022770Y0009856D01*
X0021269Y0009856D01*
X0020519Y0010607D01*
X0021269Y0012108D02*
X0022770Y0012108D01*
X0023521Y0011358D01*
X0023521Y0010607D01*
X0021269Y0012108D02*
X0020519Y0012859D01*
X0020519Y0013609D01*
X0021269Y0014360D01*
X0022770Y0014360D01*
X0023521Y0013609D01*
X0074954Y0015000D02*
X0074957Y0014758D01*
X0074966Y0014517D01*
X0074980Y0014276D01*
X0075001Y0014035D01*
X0075027Y0013795D01*
X0075059Y0013555D01*
X0075097Y0013316D01*
X0075140Y0013079D01*
X0075190Y0012842D01*
X0075245Y0012607D01*
X0075305Y0012373D01*
X0075372Y0012141D01*
X0075443Y0011910D01*
X0075521Y0011681D01*
X0075604Y0011454D01*
X0075692Y0011229D01*
X0075786Y0011006D01*
X0075885Y0010786D01*
X0075990Y0010568D01*
X0076099Y0010353D01*
X0076214Y0010140D01*
X0076334Y0009930D01*
X0076459Y0009724D01*
X0076589Y0009520D01*
X0076724Y0009319D01*
X0076864Y0009122D01*
X0077008Y0008928D01*
X0077157Y0008738D01*
X0077311Y0008552D01*
X0077469Y0008369D01*
X0077631Y0008190D01*
X0077798Y0008015D01*
X0077969Y0007844D01*
X0078144Y0007677D01*
X0078323Y0007515D01*
X0078506Y0007357D01*
X0078692Y0007203D01*
X0078882Y0007054D01*
X0079076Y0006910D01*
X0079273Y0006770D01*
X0079474Y0006635D01*
X0079678Y0006505D01*
X0079884Y0006380D01*
X0080094Y0006260D01*
X0080307Y0006145D01*
X0080522Y0006036D01*
X0080740Y0005931D01*
X0080960Y0005832D01*
X0081183Y0005738D01*
X0081408Y0005650D01*
X0081635Y0005567D01*
X0081864Y0005489D01*
X0082095Y0005418D01*
X0082327Y0005351D01*
X0082561Y0005291D01*
X0082796Y0005236D01*
X0083033Y0005186D01*
X0083270Y0005143D01*
X0083509Y0005105D01*
X0083749Y0005073D01*
X0083989Y0005047D01*
X0084230Y0005026D01*
X0084471Y0005012D01*
X0084712Y0005003D01*
X0084954Y0005000D01*
X0150830Y0067644D02*
X0151580Y0066894D01*
X0153081Y0066894D01*
X0153832Y0067644D01*
X0153832Y0068395D01*
X0153081Y0069146D01*
X0151580Y0069146D01*
X0150830Y0069896D01*
X0150830Y0070647D01*
X0151580Y0071398D01*
X0153081Y0071398D01*
X0153832Y0070647D01*
X0155433Y0071398D02*
X0158436Y0071398D01*
X0156935Y0071398D02*
X0156935Y0066894D01*
X0160037Y0066894D02*
X0163040Y0066894D01*
X0164641Y0066894D02*
X0164641Y0071398D01*
X0166893Y0071398D01*
X0167644Y0070647D01*
X0167644Y0069146D01*
X0166893Y0068395D01*
X0164641Y0068395D01*
X0166143Y0068395D02*
X0167644Y0066894D01*
X0169245Y0066894D02*
X0172248Y0066894D01*
X0173849Y0067644D02*
X0174600Y0066894D01*
X0176101Y0066894D01*
X0176852Y0067644D01*
X0176852Y0070647D01*
X0176101Y0071398D01*
X0174600Y0071398D01*
X0173849Y0070647D01*
X0173849Y0067644D01*
X0170747Y0069146D02*
X0169245Y0069146D01*
X0169245Y0071398D02*
X0169245Y0066894D01*
X0169245Y0071398D02*
X0172248Y0071398D01*
X0178453Y0066143D02*
X0181456Y0066143D01*
X0183057Y0067644D02*
X0183808Y0066894D01*
X0184558Y0066894D01*
X0185309Y0067644D01*
X0185309Y0071398D01*
X0184558Y0071398D02*
X0186060Y0071398D01*
X0187661Y0069896D02*
X0189162Y0071398D01*
X0190664Y0069896D01*
X0190664Y0066894D01*
X0192265Y0067644D02*
X0193016Y0066894D01*
X0194517Y0066894D01*
X0195267Y0067644D01*
X0196869Y0066894D02*
X0196869Y0071398D01*
X0195267Y0070647D02*
X0194517Y0071398D01*
X0193016Y0071398D01*
X0192265Y0070647D01*
X0192265Y0067644D01*
X0190664Y0069146D02*
X0187661Y0069146D01*
X0187661Y0069896D02*
X0187661Y0066894D01*
X0196869Y0068395D02*
X0199871Y0071398D01*
X0197619Y0069146D02*
X0199871Y0066894D01*
X0201473Y0066143D02*
X0204475Y0066143D01*
X0206077Y0066894D02*
X0208329Y0066894D01*
X0209079Y0067644D01*
X0209079Y0068395D01*
X0208329Y0069146D01*
X0206077Y0069146D01*
X0206077Y0066894D02*
X0206077Y0071398D01*
X0208329Y0071398D01*
X0209079Y0070647D01*
X0209079Y0069896D01*
X0208329Y0069146D01*
X0209682Y0067648D02*
X0211183Y0067648D01*
X0210681Y0067644D02*
X0210681Y0070647D01*
X0211431Y0071398D01*
X0212933Y0071398D01*
X0213683Y0070647D01*
X0213683Y0067644D01*
X0212933Y0066894D01*
X0211431Y0066894D01*
X0210681Y0067644D01*
X0210433Y0067648D02*
X0210433Y0063894D01*
X0209682Y0063144D01*
X0208931Y0063144D01*
X0208181Y0063894D01*
X0212785Y0065396D02*
X0215787Y0065396D01*
X0216786Y0066894D02*
X0216786Y0071398D01*
X0215285Y0071398D02*
X0218287Y0071398D01*
X0215037Y0067648D02*
X0212785Y0065396D01*
X0215037Y0063144D02*
X0215037Y0067648D01*
X0187223Y0083161D02*
X0186473Y0082411D01*
X0187223Y0083161D02*
X0187223Y0084663D01*
X0186473Y0085413D01*
X0185722Y0085413D01*
X0184971Y0084663D01*
X0184971Y0083912D01*
X0184971Y0084663D02*
X0184221Y0085413D01*
X0183470Y0085413D01*
X0182719Y0084663D01*
X0182719Y0083161D01*
X0183470Y0082411D01*
X0186473Y0087765D02*
X0187223Y0087765D01*
X0187223Y0088516D01*
X0186473Y0088516D01*
X0186473Y0087765D01*
X0187223Y0088516D02*
X0188725Y0087015D01*
X0186473Y0090084D02*
X0187223Y0090834D01*
X0187223Y0092336D01*
X0186473Y0093086D01*
X0184971Y0093086D01*
X0184221Y0092336D01*
X0184221Y0091585D01*
X0184971Y0090084D01*
X0182719Y0090084D01*
X0182719Y0093086D01*
X0183829Y0092691D02*
X0182327Y0091189D01*
X0182327Y0091940D02*
X0182327Y0089688D01*
X0183829Y0089688D02*
X0179325Y0089688D01*
X0179325Y0091940D01*
X0180075Y0092691D01*
X0181577Y0092691D01*
X0182327Y0091940D01*
X0183829Y0094292D02*
X0180826Y0097295D01*
X0180075Y0097295D01*
X0179325Y0096544D01*
X0179325Y0095043D01*
X0180075Y0094292D01*
X0183829Y0094292D02*
X0183829Y0097295D01*
X0184221Y0096940D02*
X0184971Y0097690D01*
X0187223Y0097690D01*
X0187223Y0096189D02*
X0184971Y0096189D01*
X0184221Y0096940D01*
X0184971Y0096189D02*
X0184221Y0095438D01*
X0184221Y0094688D01*
X0187223Y0094688D01*
X0187223Y0099292D02*
X0184221Y0099292D01*
X0184221Y0100042D01*
X0184971Y0100793D01*
X0184221Y0101544D01*
X0184971Y0102294D01*
X0187223Y0102294D01*
X0187223Y0100793D02*
X0184971Y0100793D01*
X0183829Y0101148D02*
X0183829Y0099647D01*
X0183078Y0098896D01*
X0180075Y0101899D01*
X0183078Y0101899D01*
X0183829Y0101148D01*
X0183078Y0098896D02*
X0180075Y0098896D01*
X0179325Y0099647D01*
X0179325Y0101148D01*
X0180075Y0101899D01*
X0181456Y0117393D02*
X0178453Y0117393D01*
X0176852Y0118894D02*
X0176852Y0121897D01*
X0176101Y0122648D01*
X0174600Y0122648D01*
X0173849Y0121897D01*
X0173849Y0118894D01*
X0174600Y0118144D01*
X0176101Y0118144D01*
X0176852Y0118894D01*
X0172248Y0118144D02*
X0169245Y0118144D01*
X0169245Y0122648D01*
X0172248Y0122648D01*
X0170747Y0120396D02*
X0169245Y0120396D01*
X0167644Y0120396D02*
X0166893Y0119645D01*
X0164641Y0119645D01*
X0164641Y0118144D02*
X0164641Y0122648D01*
X0166893Y0122648D01*
X0167644Y0121897D01*
X0167644Y0120396D01*
X0166143Y0119645D02*
X0167644Y0118144D01*
X0163040Y0118144D02*
X0160037Y0118144D01*
X0160037Y0122648D01*
X0163040Y0122648D01*
X0161539Y0120396D02*
X0160037Y0120396D01*
X0158436Y0122648D02*
X0155433Y0122648D01*
X0156935Y0122648D02*
X0156935Y0118144D01*
X0153832Y0118894D02*
X0153832Y0119645D01*
X0153081Y0120396D01*
X0151580Y0120396D01*
X0150830Y0121146D01*
X0150830Y0121897D01*
X0151580Y0122648D01*
X0153081Y0122648D01*
X0153832Y0121897D01*
X0153832Y0118894D02*
X0153081Y0118144D01*
X0151580Y0118144D01*
X0150830Y0118894D01*
X0129422Y0106531D02*
X0129422Y0102594D01*
X0129422Y0106531D02*
X0125485Y0106531D01*
X0125485Y0102200D02*
X0125485Y0099050D01*
X0129422Y0098656D02*
X0129422Y0094719D01*
X0125485Y0094719D01*
X0160037Y0071398D02*
X0160037Y0066894D01*
X0160037Y0069146D02*
X0161539Y0069146D01*
X0163040Y0071398D02*
X0160037Y0071398D01*
X0179950Y0053149D02*
X0180700Y0051647D01*
X0182202Y0050146D01*
X0182202Y0052398D01*
X0182952Y0053149D01*
X0183703Y0053149D01*
X0184454Y0052398D01*
X0184454Y0050897D01*
X0183703Y0050146D01*
X0182202Y0050146D01*
X0184221Y0050294D02*
X0184971Y0051044D01*
X0187223Y0051044D01*
X0187223Y0049543D02*
X0184971Y0049543D01*
X0184221Y0050294D01*
X0184971Y0049543D02*
X0184221Y0048792D01*
X0184221Y0048042D01*
X0187223Y0048042D01*
X0187223Y0046440D02*
X0184971Y0046440D01*
X0184221Y0045690D01*
X0184971Y0044939D01*
X0187223Y0044939D01*
X0187223Y0043438D02*
X0184221Y0043438D01*
X0184221Y0044188D01*
X0184971Y0044939D01*
X0184454Y0045542D02*
X0184454Y0048545D01*
X0184454Y0047043D02*
X0179950Y0047043D01*
X0181451Y0045542D01*
X0182202Y0043941D02*
X0182952Y0043190D01*
X0182952Y0040938D01*
X0182719Y0041836D02*
X0182719Y0038834D01*
X0184971Y0038834D01*
X0184221Y0040335D01*
X0184221Y0041086D01*
X0184971Y0041836D01*
X0186473Y0041836D01*
X0187223Y0041086D01*
X0187223Y0039584D01*
X0186473Y0038834D01*
X0186473Y0037266D02*
X0186473Y0036515D01*
X0187223Y0036515D01*
X0187223Y0037266D01*
X0186473Y0037266D01*
X0187223Y0037266D02*
X0188725Y0035765D01*
X0186473Y0034163D02*
X0187223Y0033413D01*
X0187223Y0031911D01*
X0186473Y0031161D01*
X0184971Y0032662D02*
X0184971Y0033413D01*
X0185722Y0034163D01*
X0186473Y0034163D01*
X0184971Y0033413D02*
X0184221Y0034163D01*
X0183470Y0034163D01*
X0182719Y0033413D01*
X0182719Y0031911D01*
X0183470Y0031161D01*
X0184454Y0040938D02*
X0179950Y0040938D01*
X0179950Y0043190D01*
X0180700Y0043941D01*
X0182202Y0043941D01*
X0182952Y0042439D02*
X0184454Y0043941D01*
X0209682Y0016398D02*
X0211183Y0016398D01*
X0210433Y0016398D02*
X0210433Y0012644D01*
X0209682Y0011894D01*
X0208931Y0011894D01*
X0208181Y0012644D01*
X0212785Y0012644D02*
X0213535Y0011894D01*
X0215037Y0011894D01*
X0215787Y0012644D01*
X0215787Y0013395D01*
X0215037Y0014146D01*
X0214286Y0014146D01*
X0215037Y0014146D02*
X0215787Y0014896D01*
X0215787Y0015647D01*
X0215037Y0016398D01*
X0213535Y0016398D01*
X0212785Y0015647D01*
X0213535Y0114394D02*
X0212785Y0115144D01*
X0213535Y0114394D02*
X0215037Y0114394D01*
X0215787Y0115144D01*
X0215787Y0116646D01*
X0215037Y0117396D01*
X0214286Y0117396D01*
X0212785Y0116646D01*
X0212785Y0118898D01*
X0215787Y0118898D01*
X0216786Y0118144D02*
X0216786Y0122648D01*
X0215285Y0122648D02*
X0218287Y0122648D01*
X0213683Y0121897D02*
X0212933Y0122648D01*
X0211431Y0122648D01*
X0210681Y0121897D01*
X0210681Y0118894D01*
X0211431Y0118144D01*
X0212933Y0118144D01*
X0213683Y0118894D01*
X0213683Y0121897D01*
X0211183Y0118898D02*
X0209682Y0118898D01*
X0209079Y0118894D02*
X0208329Y0118144D01*
X0206077Y0118144D01*
X0206077Y0122648D01*
X0208329Y0122648D01*
X0209079Y0121897D01*
X0209079Y0121146D01*
X0208329Y0120396D01*
X0206077Y0120396D01*
X0208329Y0120396D02*
X0209079Y0119645D01*
X0209079Y0118894D01*
X0210433Y0118898D02*
X0210433Y0115144D01*
X0209682Y0114394D01*
X0208931Y0114394D01*
X0208181Y0115144D01*
X0204475Y0117393D02*
X0201473Y0117393D01*
X0199871Y0118144D02*
X0197619Y0120396D01*
X0196869Y0119645D02*
X0199871Y0122648D01*
X0196869Y0122648D02*
X0196869Y0118144D01*
X0195267Y0118894D02*
X0194517Y0118144D01*
X0193016Y0118144D01*
X0192265Y0118894D01*
X0192265Y0121897D01*
X0193016Y0122648D01*
X0194517Y0122648D01*
X0195267Y0121897D01*
X0190664Y0121146D02*
X0190664Y0118144D01*
X0190664Y0120396D02*
X0187661Y0120396D01*
X0187661Y0121146D02*
X0189162Y0122648D01*
X0190664Y0121146D01*
X0187661Y0121146D02*
X0187661Y0118144D01*
X0185309Y0118894D02*
X0185309Y0122648D01*
X0184558Y0122648D02*
X0186060Y0122648D01*
X0185309Y0118894D02*
X0184558Y0118144D01*
X0183808Y0118144D01*
X0183057Y0118894D01*
X0183470Y0133661D02*
X0182719Y0134411D01*
X0182719Y0135913D01*
X0183470Y0136663D01*
X0184221Y0136663D01*
X0184971Y0135913D01*
X0185722Y0136663D01*
X0186473Y0136663D01*
X0187223Y0135913D01*
X0187223Y0134411D01*
X0186473Y0133661D01*
X0184971Y0135162D02*
X0184971Y0135913D01*
X0186473Y0139015D02*
X0187223Y0139015D01*
X0187223Y0139766D01*
X0186473Y0139766D01*
X0186473Y0139015D01*
X0187223Y0139766D02*
X0188725Y0138265D01*
X0186473Y0141334D02*
X0187223Y0142084D01*
X0187223Y0143586D01*
X0186473Y0144336D01*
X0184971Y0144336D01*
X0184221Y0143586D01*
X0184221Y0142835D01*
X0184971Y0141334D01*
X0182719Y0141334D01*
X0182719Y0144336D01*
X0182202Y0142691D02*
X0182952Y0141940D01*
X0182952Y0139688D01*
X0182952Y0141189D02*
X0184454Y0142691D01*
X0184454Y0144292D02*
X0181451Y0147295D01*
X0180700Y0147295D01*
X0179950Y0146544D01*
X0179950Y0145043D01*
X0180700Y0144292D01*
X0180700Y0142691D02*
X0182202Y0142691D01*
X0180700Y0142691D02*
X0179950Y0141940D01*
X0179950Y0139688D01*
X0184454Y0139688D01*
X0184454Y0144292D02*
X0184454Y0147295D01*
X0184971Y0147439D02*
X0184221Y0148190D01*
X0184971Y0148940D01*
X0187223Y0148940D01*
X0187223Y0147439D02*
X0184971Y0147439D01*
X0184221Y0146688D01*
X0184221Y0145938D01*
X0187223Y0145938D01*
X0187223Y0150542D02*
X0184221Y0150542D01*
X0184221Y0151292D01*
X0184971Y0152043D01*
X0184221Y0152794D01*
X0184971Y0153544D01*
X0187223Y0153544D01*
X0187223Y0152043D02*
X0184971Y0152043D01*
X0184454Y0151148D02*
X0179950Y0151148D01*
X0182202Y0148896D01*
X0182202Y0151899D01*
X0187661Y0169394D02*
X0187661Y0172396D01*
X0189162Y0173898D01*
X0190664Y0172396D01*
X0190664Y0169394D01*
X0192265Y0170144D02*
X0192265Y0173147D01*
X0193016Y0173898D01*
X0194517Y0173898D01*
X0195267Y0173147D01*
X0196869Y0173898D02*
X0196869Y0169394D01*
X0196869Y0170895D02*
X0199871Y0173898D01*
X0197619Y0171646D02*
X0199871Y0169394D01*
X0201473Y0168643D02*
X0204475Y0168643D01*
X0206077Y0169394D02*
X0208329Y0169394D01*
X0209079Y0170144D01*
X0209079Y0170895D01*
X0208329Y0171646D01*
X0206077Y0171646D01*
X0206077Y0169394D02*
X0206077Y0173898D01*
X0208329Y0173898D01*
X0209079Y0173147D01*
X0209079Y0172396D01*
X0208329Y0171646D01*
X0209682Y0170148D02*
X0211183Y0170148D01*
X0210681Y0170144D02*
X0211431Y0169394D01*
X0212933Y0169394D01*
X0213683Y0170144D01*
X0213683Y0173147D01*
X0212933Y0173898D01*
X0211431Y0173898D01*
X0210681Y0173147D01*
X0210681Y0170144D01*
X0210433Y0170148D02*
X0210433Y0166394D01*
X0209682Y0165644D01*
X0208931Y0165644D01*
X0208181Y0166394D01*
X0212785Y0166394D02*
X0213535Y0165644D01*
X0215037Y0165644D01*
X0215787Y0166394D01*
X0215787Y0167145D01*
X0215037Y0167896D01*
X0212785Y0167896D01*
X0212785Y0166394D01*
X0212785Y0167896D02*
X0214286Y0169397D01*
X0215787Y0170148D01*
X0216786Y0169394D02*
X0216786Y0173898D01*
X0215285Y0173898D02*
X0218287Y0173898D01*
X0195267Y0170144D02*
X0194517Y0169394D01*
X0193016Y0169394D01*
X0192265Y0170144D01*
X0190664Y0171646D02*
X0187661Y0171646D01*
X0087976Y0116860D02*
X0084973Y0116860D01*
X0086475Y0116860D02*
X0086475Y0112356D01*
X0083372Y0113107D02*
X0083372Y0116109D01*
X0082621Y0116860D01*
X0081120Y0116860D01*
X0080370Y0116109D01*
X0080370Y0113107D01*
X0081120Y0112356D01*
X0082621Y0112356D01*
X0083372Y0113107D01*
X0078768Y0113107D02*
X0078018Y0112356D01*
X0075766Y0112356D01*
X0075766Y0116860D01*
X0078018Y0116860D01*
X0078768Y0116109D01*
X0078768Y0115359D01*
X0078018Y0114608D01*
X0075766Y0114608D01*
X0078018Y0114608D02*
X0078768Y0113858D01*
X0078768Y0113107D01*
X0074164Y0111606D02*
X0071162Y0111606D01*
X0069560Y0112356D02*
X0067308Y0114608D01*
X0066558Y0113858D02*
X0069560Y0116860D01*
X0066558Y0116860D02*
X0066558Y0112356D01*
X0064956Y0113107D02*
X0064206Y0112356D01*
X0062704Y0112356D01*
X0061954Y0113107D01*
X0061954Y0116109D01*
X0062704Y0116860D01*
X0064206Y0116860D01*
X0064956Y0116109D01*
X0060352Y0115359D02*
X0060352Y0112356D01*
X0060352Y0114608D02*
X0057350Y0114608D01*
X0057350Y0115359D02*
X0058851Y0116860D01*
X0060352Y0115359D01*
X0057350Y0115359D02*
X0057350Y0112356D01*
X0057184Y0100238D02*
X0054932Y0100238D01*
X0054181Y0099487D01*
X0054932Y0098737D01*
X0057184Y0098737D01*
X0057184Y0097235D02*
X0054181Y0097235D01*
X0054181Y0097986D01*
X0054932Y0098737D01*
X0054932Y0095634D02*
X0057184Y0095634D01*
X0057184Y0094133D02*
X0054932Y0094133D01*
X0054181Y0094883D01*
X0054932Y0095634D01*
X0054932Y0094133D02*
X0054181Y0093382D01*
X0054181Y0092631D01*
X0057184Y0092631D01*
D14*
X0125004Y0108175D02*
X0125004Y0109176D01*
X0125504Y0109676D01*
X0126004Y0109176D01*
X0126004Y0108175D01*
X0126477Y0108175D02*
X0127227Y0108175D01*
X0127478Y0108425D01*
X0127478Y0109426D01*
X0127227Y0109676D01*
X0126477Y0109676D01*
X0126477Y0108175D01*
X0126004Y0108926D02*
X0125004Y0108926D01*
X0127950Y0108675D02*
X0128701Y0108675D01*
X0128951Y0108926D01*
X0128951Y0109426D01*
X0128701Y0109676D01*
X0127950Y0109676D01*
X0127950Y0108175D01*
X0128450Y0108675D02*
X0128951Y0108175D01*
X0129423Y0108425D02*
X0129674Y0108175D01*
X0130174Y0108175D01*
X0130424Y0108425D01*
X0130424Y0108926D01*
X0130174Y0109176D01*
X0129924Y0109176D01*
X0129423Y0108926D01*
X0129423Y0109676D01*
X0130424Y0109676D01*
X0130897Y0109176D02*
X0131397Y0109676D01*
X0131397Y0108175D01*
X0130897Y0108175D02*
X0131897Y0108175D01*
X0132370Y0108425D02*
X0133371Y0109426D01*
X0133371Y0108425D01*
X0133120Y0108175D01*
X0132620Y0108175D01*
X0132370Y0108425D01*
X0132370Y0109426D01*
X0132620Y0109676D01*
X0133120Y0109676D01*
X0133371Y0109426D01*
X0097404Y0179425D02*
X0095902Y0179425D01*
X0096403Y0179925D01*
X0095902Y0180426D01*
X0097404Y0180426D01*
X0097404Y0180898D02*
X0097404Y0181399D01*
X0097404Y0181148D02*
X0095902Y0181148D01*
X0095902Y0180898D02*
X0095902Y0181399D01*
X0096152Y0181880D02*
X0095902Y0182131D01*
X0095902Y0182631D01*
X0096152Y0182881D01*
X0095902Y0183354D02*
X0096653Y0183354D01*
X0096403Y0183854D01*
X0096403Y0184104D01*
X0096653Y0184355D01*
X0097153Y0184355D01*
X0097404Y0184104D01*
X0097404Y0183604D01*
X0097153Y0183354D01*
X0097153Y0182881D02*
X0097404Y0182631D01*
X0097404Y0182131D01*
X0097153Y0181880D01*
X0096152Y0181880D01*
X0095902Y0183354D02*
X0095902Y0184355D01*
X0096152Y0184827D02*
X0095902Y0185077D01*
X0095902Y0185578D01*
X0096152Y0185828D01*
X0096403Y0185828D01*
X0097404Y0184827D01*
X0097404Y0185828D01*
X0097153Y0186300D02*
X0097404Y0186550D01*
X0097404Y0187051D01*
X0097153Y0187301D01*
X0096903Y0187301D01*
X0096653Y0187051D01*
X0096653Y0186801D01*
X0096653Y0187051D02*
X0096403Y0187301D01*
X0096152Y0187301D01*
X0095902Y0187051D01*
X0095902Y0186550D01*
X0096152Y0186300D01*
X0096152Y0187773D02*
X0095902Y0188024D01*
X0095902Y0188524D01*
X0096152Y0188774D01*
X0096403Y0188774D01*
X0097404Y0187773D01*
X0097404Y0188774D01*
X0096653Y0189247D02*
X0096653Y0190248D01*
X0096403Y0190720D02*
X0095902Y0191220D01*
X0097404Y0191220D01*
X0097404Y0190720D02*
X0097404Y0191721D01*
X0097404Y0192193D02*
X0097404Y0192443D01*
X0097153Y0192443D01*
X0097153Y0192193D01*
X0097404Y0192193D01*
X0097404Y0192930D02*
X0096403Y0193931D01*
X0096152Y0193931D01*
X0095902Y0193680D01*
X0095902Y0193180D01*
X0096152Y0192930D01*
X0097404Y0192930D02*
X0097404Y0193931D01*
D15*
X0066204Y0147450D03*
X0066204Y0125050D03*
X0066204Y0097450D03*
X0066204Y0075050D03*
X0066204Y0047450D03*
X0066204Y0025050D03*
X0173704Y0031300D03*
X0173704Y0053700D03*
X0173079Y0080050D03*
X0173079Y0102450D03*
X0173704Y0130050D03*
X0173704Y0152450D03*
X0173704Y0181300D03*
X0173704Y0203700D03*
D16*
X0173709Y0195420D03*
X0173709Y0189620D03*
X0184948Y0176630D03*
X0184948Y0170830D03*
X0173709Y0144170D03*
X0173709Y0138370D03*
X0184948Y0127880D03*
X0184948Y0122080D03*
X0173084Y0094170D03*
X0173084Y0088370D03*
X0184948Y0077255D03*
X0184948Y0071455D03*
X0173709Y0045420D03*
X0173709Y0039620D03*
X0184948Y0026630D03*
X0184948Y0020830D03*
X0109323Y0097705D03*
X0109323Y0103505D03*
X0066198Y0089130D03*
X0066198Y0083330D03*
X0054959Y0102120D03*
X0054959Y0107920D03*
X0066198Y0133330D03*
X0066198Y0139130D03*
X0054959Y0152120D03*
X0054959Y0157920D03*
X0048698Y0180830D03*
X0048698Y0186630D03*
X0079959Y0223370D03*
X0079959Y0229170D03*
X0054959Y0057920D03*
X0054959Y0052120D03*
X0066198Y0039130D03*
X0066198Y0033330D03*
D17*
X0030374Y0029369D03*
X0024574Y0029369D03*
X0024533Y0050006D03*
X0030333Y0050006D03*
X0030374Y0080619D03*
X0024574Y0080619D03*
X0024533Y0101256D03*
X0030333Y0101256D03*
X0030374Y0131244D03*
X0024574Y0131244D03*
X0024533Y0152506D03*
X0030333Y0152506D03*
X0032074Y0179994D03*
X0037874Y0179994D03*
X0209574Y0184994D03*
X0215374Y0184994D03*
X0215333Y0205631D03*
X0209533Y0205631D03*
X0210158Y0154381D03*
X0215958Y0154381D03*
X0215999Y0133744D03*
X0210199Y0133744D03*
X0209533Y0103756D03*
X0215333Y0103756D03*
X0215374Y0082494D03*
X0209574Y0082494D03*
X0210158Y0051881D03*
X0215958Y0051881D03*
X0215999Y0030619D03*
X0210199Y0030619D03*
M02*
