999
dxfrw 0.6.3
  0
SECTION
  2
HEADER
  9
$ACADVER
  1
AC1021
  9
$DWGCODEPAGE
  3
ANSI_1252
  9
$INSBASE
 10
0
 20
0
 30
0
  9
$EXTMIN
 10
20.93326305608954
 20
73.38438767907289
 30
0
  9
$EXTMAX
 10
199.2724475540695
 20
281.4269230416902
 30
0
  9
$LIMMIN
 10
0
 20
0
  9
$LIMMAX
 10
210
 20
297
  9
$ORTHOMODE
 70
    0
  9
$REGENMODE
 70
    1
  9
$FILLMODE
 70
    1
  9
$QTEXTMODE
 70
    0
  9
$MIRRTEXT
 70
    0
  9
$LTSCALE
 40
1
  9
$ATTMODE
 70
    1
  9
$TEXTSIZE
 40
0.2
  9
$TRACEWID
 40
0.05
  9
$TEXTSTYLE
  7
Standard
  9
$CLAYER
  8
0
  9
$CELTYPE
  6
ByLayer
  9
$CECOLOR
 62
  256
  9
$CELTSCALE
 40
1
  9
$DISPSILH
 70
    0
  9
$DIMSCALE
 40
1
  9
$DIMASZ
 40
1.799999999999999
  9
$DIMEXO
 40
0.0625
  9
$DIMDLI
 40
0.38
  9
$DIMRND
 40
0
  9
$DIMDLE
 40
0
  9
$DIMEXE
 40
0.18
  9
$DIMTP
 40
0
  9
$DIMTM
 40
0
  9
$DIMTXT
 40
0.25
  9
$DIMCEN
 40
0.09
  9
$DIMTSZ
 40
0
  9
$DIMTOL
 70
    0
  9
$DIMLIM
 70
    0
  9
$DIMTIH
 70
    1
  9
$DIMTOH
 70
    1
  9
$DIMSE1
 70
    0
  9
$DIMSE2
 70
    0
  9
$DIMTAD
 70
    0
  9
$DIMZIN
 70
    0
  9
$DIMBLK
  1

  9
$DIMASO
 70
    1
  9
$DIMSHO
 70
    1
  9
$DIMPOST
  1

  9
$DIMAPOST
  1

  9
$DIMALT
 70
    0
  9
$DIMALTD
 70
    2
  9
$DIMALTF
 40
25.4
  9
$DIMLFAC
 40
1
  9
$DIMTOFL
 70
    0
  9
$DIMTVP
 40
0
  9
$DIMTIX
 70
    0
  9
$DIMSOXD
 70
    0
  9
$DIMSAH
 70
    0
  9
$DIMBLK1
  1

  9
$DIMBLK2
  1

  9
$DIMSTYLE
  2
Standard
  9
$DIMCLRD
 70
    0
  9
$DIMCLRE
 70
    0
  9
$DIMCLRT
 70
    0
  9
$DIMTFAC
 40
1
  9
$DIMGAP
 40
0.09
  9
$DIMJUST
 70
    0
  9
$DIMSD1
 70
    0
  9
$DIMSD2
 70
    0
  9
$DIMTOLJ
 70
    1
  9
$DIMTZIN
 70
    0
  9
$DIMALTZ
 70
    0
  9
$DIMALTTZ
 70
    0
  9
$DIMUPT
 70
    0
  9
$DIMDEC
 70
    4
  9
$DIMTDEC
 70
    4
  9
$DIMALTU
 70
    2
  9
$DIMALTTD
 70
    2
  9
$DIMTXSTY
  7
Standard
  9
$DIMAUNIT
 70
    0
  9
$DIMADEC
 70
    0
  9
$DIMALTRND
 40
0
  9
$DIMAZIN
 70
    0
  9
$DIMDSEP
 70
   46
  9
$DIMATFIT
 70
    3
  9
$DIMFRAC
 70
    0
  9
$DIMLDRBLK
  1

  9
$DIMLUNIT
 70
    2
  9
$DIMLWD
 70
   -2
  9
$DIMLWE
 70
   -2
  9
$DIMTMOVE
 70
    0
  9
$DIMFXL
 40
1
  9
$DIMFXLON
 70
    0
  9
$DIMJOGANG
 40
0.7854
  9
$DIMTFILL
 70
    0
  9
$DIMTFILLCLR
 70
    0
  9
$DIMARCSYM
 70
    0
  9
$DIMLTYPE
  6

  9
$DIMLTEX1
  6

  9
$DIMLTEX2
  6

  9
$LUNITS
 70
    2
  9
$LUPREC
 70
    4
  9
$SKETCHINC
 40
0.1
  9
$FILLETRAD
 40
0
  9
$AUNITS
 70
    0
  9
$AUPREC
 70
    0
  9
$MENU
  1
.
  9
$ELEVATION
 40
0
  9
$PELEVATION
 40
0
  9
$THICKNESS
 40
0
  9
$LIMCHECK
 70
    0
  9
$CHAMFERA
 40
0
  9
$CHAMFERB
 40
0
  9
$CHAMFERC
 40
0
  9
$CHAMFERD
 40
0
  9
$SKPOLY
 70
    0
  9
$USRTIMER
 70
    1
  9
$ANGBASE
 50
0
  9
$ANGDIR
 70
    0
  9
$PDMODE
 70
    0
  9
$PDSIZE
 40
0
  9
$PLINEWID
 40
0
  9
$SPLFRAME
 70
    0
  9
$SPLINETYPE
 70
    6
  9
$SPLINESEGS
 70
    8
  9
$HANDSEED
  5
20000
  9
$SURFTAB1
 70
    6
  9
$SURFTAB2
 70
    6
  9
$SURFTYPE
 70
    6
  9
$SURFU
 70
    6
  9
$SURFV
 70
    6
  9
$UCSBASE
  2

  9
$UCSNAME
  2

  9
$UCSORG
 10
0
 20
0
 30
0
  9
$UCSXDIR
 10
1
 20
0
 30
0
  9
$UCSYDIR
 10
0
 20
1
 30
0
  9
$UCSORTHOREF
  2

  9
$UCSORTHOVIEW
 70
    0
  9
$UCSORGTOP
 10
0
 20
0
 30
0
  9
$UCSORGBOTTOM
 10
0
 20
0
 30
0
  9
$UCSORGLEFT
 10
0
 20
0
 30
0
  9
$UCSORGRIGHT
 10
0
 20
0
 30
0
  9
$UCSORGFRONT
 10
0
 20
0
 30
0
  9
$UCSORGBACK
 10
0
 20
0
 30
0
  9
$PUCSBASE
  2

  9
$PUCSNAME
  2

  9
$PUCSORG
 10
0
 20
0
 30
0
  9
$PUCSXDIR
 10
1
 20
0
 30
0
  9
$PUCSYDIR
 10
0
 20
1
 30
0
  9
$PUCSORTHOREF
  2

  9
$PUCSORTHOVIEW
 70
    0
  9
$PUCSORGTOP
 10
0
 20
0
 30
0
  9
$PUCSORGBOTTOM
 10
0
 20
0
 30
0
  9
$PUCSORGLEFT
 10
0
 20
0
 30
0
  9
$PUCSORGRIGHT
 10
0
 20
0
 30
0
  9
$PUCSORGFRONT
 10
0
 20
0
 30
0
  9
$PUCSORGBACK
 10
0
 20
0
 30
0
  9
$USERI1
 70
    0
  9
$USERI2
 70
    0
  9
$USERI3
 70
    0
  9
$USERI4
 70
    0
  9
$USERI5
 70
    0
  9
$USERR1
 40
0
  9
$USERR2
 40
0
  9
$USERR3
 40
0
  9
$USERR4
 40
0
  9
$USERR5
 40
0
  9
$WORLDVIEW
 70
    1
  9
$SHADEDGE
 70
    3
  9
$SHADEDIF
 70
   70
  9
$TILEMODE
 70
    1
  9
$MAXACTVP
 70
   64
  9
$PINSBASE
 10
0
 20
0
 30
0
  9
$PLIMCHECK
 70
    0
  9
$PEXTMIN
 10
0
 20
0
 30
0
  9
$PEXTMAX
 10
210
 20
297
 30
0
  9
$GRIDMODE
 70
    0
  9
$SNAPSTYLE
 70
    0
  9
$PLIMMIN
 10
0
 20
0
  9
$PLIMMAX
 10
210
 20
297
  9
$UNITMODE
 70
    0
  9
$VISRETAIN
 70
    1
  9
$PLINEGEN
 70
    0
  9
$PSLTSCALE
 70
    1
  9
$TREEDEPTH
 70
 3020
  9
$CMLSTYLE
  2
Standard
  9
$CMLJUST
 70
    0
  9
$CMLSCALE
 40
1
  9
$PROXYGRAPHICS
 70
    1
  9
$MEASUREMENT
 70
    1
  9
$CELWEIGHT
370
   -1
  9
$ENDCAPS
280
    0
  9
$JOINSTYLE
280
    0
  9
$LWDISPLAY
290
    0
  9
$INSUNITS
 70
    4
  9
$HYPERLINKBASE
  1

  9
$STYLESHEET
  1

  9
$XEDIT
290
    1
  9
$CEPSNTYPE
380
    0
  9
$PSTYLEMODE
290
    1
  9
$EXTNAMES
290
    1
  9
$PSVPSCALE
 40
0
  9
$OLESTARTUP
290
    0
  9
$SORTENTS
280
  127
  9
$INDEXCTL
280
    0
  9
$HIDETEXT
280
    1
  9
$XCLIPFRAME
290
    0
  9
$HALOGAP
280
    0
  9
$OBSCOLOR
 70
  257
  9
$OBSLTYPE
280
    0
  9
$INTERSECTIONDISPLAY
280
    0
  9
$INTERSECTIONCOLOR
 70
  257
  9
$DIMASSOC
280
    1
  9
$PROJECTNAME
  1

  9
$CAMERADISPLAY
290
    0
  9
$LENSLENGTH
 40
50
  9
$CAMERAHEIGHT
 40
0
  9
$STEPSPERSEC
 40
2
  9
$STEPSIZE
 40
50
  9
$3DDWFPREC
 40
2
  9
$PSOLWIDTH
 40
5
  9
$PSOLHEIGHT
 40
80
  9
$LOFTANG1
 40
1.570796326794897
  9
$LOFTANG2
 40
1.570796326794897
  9
$LOFTMAG1
 40
0
  9
$LOFTMAG2
 40
0
  9
$LOFTPARAM
 70
    7
  9
$LOFTNORMALS
280
    1
  9
$LATITUDE
 40
1
  9
$LONGITUDE
 40
1
  9
$NORTHDIRECTION
 40
0
  9
$TIMEZONE
 70
-8000
  9
$LIGHTGLYPHDISPLAY
280
    1
  9
$TILEMODELIGHTSYNCH
280
    1
  9
$SOLIDHIST
280
    1
  9
$SHOWHIST
280
    1
  9
$DWFFRAME
280
    2
  9
$DGNFRAME
280
    0
  9
$REALWORLDSCALE
290
    1
  9
$INTERFERECOLOR
 62
    1
  9
$CSHADOW
280
    0
  9
$SHADOWPLANELOCATION
 40
0
  0
ENDSEC
  0
SECTION
  2
CLASSES
  0
ENDSEC
  0
SECTION
  2
TABLES
  0
TABLE
  2
VPORT
  5
8
330
0
100
AcDbSymbolTable
 70
    1
  0
VPORT
  5
31
330
2
100
AcDbSymbolTableRecord
100
AcDbViewportTableRecord
  2
*ACTIVE
 70
    0
 10
0
 20
0
 11
1
 21
1
 12
150.4407531782204
 22
146.5279443511635
 13
0
 23
0
 14
10
 24
10
 15
10
 25
10
 16
0
 26
0
 36
1
 17
0
 27
0
 37
0
 40
261.213720316623
 41
1.638429752066116
 42
50
 43
0
 44
0
 50
0
 51
0
 71
    0
 72
  100
 73
    1
 74
    3
 75
    0
 76
    0
 77
    0
 78
    0
281
    0
 65
    1
110
0
120
0
130
0
111
1
121
0
131
0
112
0
122
1
132
0
 79
    0
146
0
348
10020
 60
    7
 61
    5
292
1
282
    1
141
0
142
0
 63
  250
421
3358443
  0
ENDTAB
  0
TABLE
  2
LTYPE
  5
5
330
0
100
AcDbSymbolTable
 70
    4
  0
LTYPE
  5
14
330
5
100
AcDbSymbolTableRecord
100
AcDbLinetypeTableRecord
  2
ByBlock
 70
    0
  3

 72
   65
 73
    0
 40
0
  0
LTYPE
  5
15
330
5
100
AcDbSymbolTableRecord
100
AcDbLinetypeTableRecord
  2
ByLayer
 70
    0
  3

 72
   65
 73
    0
 40
0
  0
LTYPE
  5
16
330
5
100
AcDbSymbolTableRecord
100
AcDbLinetypeTableRecord
  2
Continuous
 70
    0
  3
Solid line
 72
   65
 73
    0
 40
0
  0
LTYPE
  5
32
330
5
100
AcDbSymbolTableRecord
100
AcDbLinetypeTableRecord
  2
DOT
 70
    0
  3
Dot . . . . . . . . . . . . . . . . . . . . . .
 72
   65
 73
    2
 40
6.35
 49
0
 74
    0
 49
-6.35
 74
    0
  0
LTYPE
  5
33
330
5
100
AcDbSymbolTableRecord
100
AcDbLinetypeTableRecord
  2
DOTTINY
 70
    0
  3
Dot (.15x) .....................................
 72
   65
 73
    2
 40
0.9525
 49
0
 74
    0
 49
-0.9525
 74
    0
  0
LTYPE
  5
34
330
5
100
AcDbSymbolTableRecord
100
AcDbLinetypeTableRecord
  2
DOT2
 70
    0
  3
Dot (.5x) .....................................
 72
   65
 73
    2
 40
3.175
 49
0
 74
    0
 49
-3.175
 74
    0
  0
LTYPE
  5
35
330
5
100
AcDbSymbolTableRecord
100
AcDbLinetypeTableRecord
  2
DOTX2
 70
    0
  3
Dot (2x) .  .  .  .  .  .  .  .  .  .  .  .  .
 72
   65
 73
    2
 40
12.7
 49
0
 74
    0
 49
-12.7
 74
    0
  0
LTYPE
  5
36
330
5
100
AcDbSymbolTableRecord
100
AcDbLinetypeTableRecord
  2
DASHED
 70
    0
  3
Dashed _ _ _ _ _ _ _ _ _ _ _ _ _ _ _ _ _
 72
   65
 73
    2
 40
19.05
 49
12.7
 74
    0
 49
-6.35
 74
    0
  0
LTYPE
  5
37
330
5
100
AcDbSymbolTableRecord
100
AcDbLinetypeTableRecord
  2
DASHEDTINY
 70
    0
  3
Dashed (.15x) _ _ _ _ _ _ _ _ _ _ _ _ _ _ _ _ _
 72
   65
 73
    2
 40
2.8575
 49
1.905
 74
    0
 49
-0.9525
 74
    0
  0
LTYPE
  5
38
330
5
100
AcDbSymbolTableRecord
100
AcDbLinetypeTableRecord
  2
DASHED2
 70
    0
  3
Dashed (.5x) _ _ _ _ _ _ _ _ _ _ _ _ _ _ _ _ _
 72
   65
 73
    2
 40
9.524999999999999
 49
6.35
 74
    0
 49
-3.175
 74
    0
  0
LTYPE
  5
39
330
5
100
AcDbSymbolTableRecord
100
AcDbLinetypeTableRecord
  2
DASHEDX2
 70
    0
  3
Dashed (2x) ____  ____  ____  ____  ____  ___
 72
   65
 73
    2
 40
38.09999999999999
 49
25.4
 74
    0
 49
-12.7
 74
    0
  0
LTYPE
  5
3A
330
5
100
AcDbSymbolTableRecord
100
AcDbLinetypeTableRecord
  2
DASHDOT
 70
    0
  3
Dash dot __ . __ . __ . __ . __ . __ . __ . __
 72
   65
 73
    4
 40
25.4
 49
12.7
 74
    0
 49
-6.35
 74
    0
 49
0
 74
    0
 49
-6.35
 74
    0
  0
LTYPE
  5
3B
330
5
100
AcDbSymbolTableRecord
100
AcDbLinetypeTableRecord
  2
DASHDOTTINY
 70
    0
  3
Dash dot (.15x) _._._._._._._._._._._._._._._.
 72
   65
 73
    4
 40
3.81
 49
1.905
 74
    0
 49
-0.9525
 74
    0
 49
0
 74
    0
 49
-0.9525
 74
    0
  0
LTYPE
  5
3C
330
5
100
AcDbSymbolTableRecord
100
AcDbLinetypeTableRecord
  2
DASHDOT2
 70
    0
  3
Dash dot (.5x) _._._._._._._._._._._._._._._.
 72
   65
 73
    4
 40
12.7
 49
6.35
 74
    0
 49
-3.175
 74
    0
 49
0
 74
    0
 49
-3.175
 74
    0
  0
LTYPE
  5
3D
330
5
100
AcDbSymbolTableRecord
100
AcDbLinetypeTableRecord
  2
DASHDOTX2
 70
    0
  3
Dash dot (2x) ____  .  ____  .  ____  .  ___
 72
   65
 73
    4
 40
50.8
 49
25.4
 74
    0
 49
-12.7
 74
    0
 49
0
 74
    0
 49
-12.7
 74
    0
  0
LTYPE
  5
3E
330
5
100
AcDbSymbolTableRecord
100
AcDbLinetypeTableRecord
  2
DIVIDE
 70
    0
  3
Divide ____ . . ____ . . ____ . . ____ . . ____
 72
   65
 73
    6
 40
31.75
 49
12.7
 74
    0
 49
-6.35
 74
    0
 49
0
 74
    0
 49
-6.35
 74
    0
 49
0
 74
    0
 49
-6.35
 74
    0
  0
LTYPE
  5
3F
330
5
100
AcDbSymbolTableRecord
100
AcDbLinetypeTableRecord
  2
DIVIDETINY
 70
    0
  3
Divide (.15x) __..__..__..__..__..__..__..__.._
 72
   65
 73
    6
 40
4.7625
 49
1.905
 74
    0
 49
-0.9525
 74
    0
 49
0
 74
    0
 49
-0.9525
 74
    0
 49
0
 74
    0
 49
-0.9525
 74
    0
  0
LTYPE
  5
40
330
5
100
AcDbSymbolTableRecord
100
AcDbLinetypeTableRecord
  2
DIVIDE2
 70
    0
  3
Divide (.5x) __..__..__..__..__..__..__..__.._
 72
   65
 73
    6
 40
15.875
 49
6.35
 74
    0
 49
-3.175
 74
    0
 49
0
 74
    0
 49
-3.175
 74
    0
 49
0
 74
    0
 49
-3.175
 74
    0
  0
LTYPE
  5
41
330
5
100
AcDbSymbolTableRecord
100
AcDbLinetypeTableRecord
  2
DIVIDEX2
 70
    0
  3
Divide (2x) ________  .  .  ________  .  .  _
 72
   65
 73
    6
 40
63.5
 49
25.4
 74
    0
 49
-12.7
 74
    0
 49
0
 74
    0
 49
-12.7
 74
    0
 49
0
 74
    0
 49
-12.7
 74
    0
  0
LTYPE
  5
42
330
5
100
AcDbSymbolTableRecord
100
AcDbLinetypeTableRecord
  2
BORDER
 70
    0
  3
Border __ __ . __ __ . __ __ . __ __ . __ __ .
 72
   65
 73
    6
 40
44.45
 49
12.7
 74
    0
 49
-6.35
 74
    0
 49
12.7
 74
    0
 49
-6.35
 74
    0
 49
0
 74
    0
 49
-6.35
 74
    0
  0
LTYPE
  5
43
330
5
100
AcDbSymbolTableRecord
100
AcDbLinetypeTableRecord
  2
BORDERTINY
 70
    0
  3
Border (.15x) __.__.__.__.__.__.__.__.__.__.__.
 72
   65
 73
    6
 40
6.6675
 49
1.905
 74
    0
 49
-0.9525
 74
    0
 49
1.905
 74
    0
 49
-0.9525
 74
    0
 49
0
 74
    0
 49
-0.9525
 74
    0
  0
LTYPE
  5
44
330
5
100
AcDbSymbolTableRecord
100
AcDbLinetypeTableRecord
  2
BORDER2
 70
    0
  3
Border (.5x) __.__.__.__.__.__.__.__.__.__.__.
 72
   65
 73
    6
 40
22.225
 49
6.35
 74
    0
 49
-3.175
 74
    0
 49
6.35
 74
    0
 49
-3.175
 74
    0
 49
0
 74
    0
 49
-3.175
 74
    0
  0
LTYPE
  5
45
330
5
100
AcDbSymbolTableRecord
100
AcDbLinetypeTableRecord
  2
BORDERX2
 70
    0
  3
Border (2x) ____  ____  .  ____  ____  .  ___
 72
   65
 73
    6
 40
88.89999999999999
 49
25.4
 74
    0
 49
-12.7
 74
    0
 49
25.4
 74
    0
 49
-12.7
 74
    0
 49
0
 74
    0
 49
-12.7
 74
    0
  0
LTYPE
  5
46
330
5
100
AcDbSymbolTableRecord
100
AcDbLinetypeTableRecord
  2
CENTER
 70
    0
  3
Center ____ _ ____ _ ____ _ ____ _ ____ _ ____
 72
   65
 73
    4
 40
50.8
 49
31.75
 74
    0
 49
-6.35
 74
    0
 49
6.35
 74
    0
 49
-6.35
 74
    0
  0
LTYPE
  5
47
330
5
100
AcDbSymbolTableRecord
100
AcDbLinetypeTableRecord
  2
CENTERTINY
 70
    0
  3
Center (.15x) ___ _ ___ _ ___ _ ___ _ ___ _ ___
 72
   65
 73
    4
 40
7.62
 49
4.7625
 74
    0
 49
-0.9525
 74
    0
 49
0.9525
 74
    0
 49
-0.9525
 74
    0
  0
LTYPE
  5
48
330
5
100
AcDbSymbolTableRecord
100
AcDbLinetypeTableRecord
  2
CENTER2
 70
    0
  3
Center (.5x) ___ _ ___ _ ___ _ ___ _ ___ _ ___
 72
   65
 73
    4
 40
28.575
 49
19.05
 74
    0
 49
-3.175
 74
    0
 49
3.175
 74
    0
 49
-3.175
 74
    0
  0
LTYPE
  5
49
330
5
100
AcDbSymbolTableRecord
100
AcDbLinetypeTableRecord
  2
CENTERX2
 70
    0
  3
Center (2x) ________  __  ________  __  _____
 72
   65
 73
    4
 40
101.6
 49
63.5
 74
    0
 49
-12.7
 74
    0
 49
12.7
 74
    0
 49
-12.7
 74
    0
  0
ENDTAB
  0
TABLE
  2
LAYER
  5
2
330
0
100
AcDbSymbolTable
 70
    1
  0
LAYER
  5
10
330
2
100
AcDbSymbolTableRecord
100
AcDbLayerTableRecord
  2
0
 70
    0
 62
    7
  6
CONTINUOUS
370
   25
390
F
  0
LAYER
  5
4A
330
2
100
AcDbSymbolTableRecord
100
AcDbLayerTableRecord
  2
AM_0
 70
    0
 62
    7
  6
CONTINUOUS
370
   30
390
F
  0
LAYER
  5
4B
330
2
100
AcDbSymbolTableRecord
100
AcDbLayerTableRecord
  2
AM_7
 70
    0
 62
    4
  6
CENTER
370
   15
390
F
  0
LAYER
  5
4C
330
2
100
AcDbSymbolTableRecord
100
AcDbLayerTableRecord
  2
Bordo_0
 70
    0
 62
    7
  6
CONTINUOUS
370
   50
390
F
  0
LAYER
  5
4D
330
2
100
AcDbSymbolTableRecord
100
AcDbLayerTableRecord
  2
Centro(ISO)
 70
    0
 62
  137
  6
CONTINUOUS
370
   18
390
F
  0
LAYER
  5
4E
330
2
100
AcDbSymbolTableRecord
100
AcDbLayerTableRecord
  2
Defpoints
 70
    0
 62
    7
  6
CONTINUOUS
290
0
370
   -3
390
F
  0
LAYER
  5
4F
330
2
100
AcDbSymbolTableRecord
100
AcDbLayerTableRecord
  2
Linea d'asse(ISO)
 70
    0
 62
  137
  6
CONTINUOUS
370
   18
390
F
  0
LAYER
  5
50
330
2
100
AcDbSymbolTableRecord
100
AcDbLayerTableRecord
  2
Quote(ISO)
 70
    0
 62
    7
  6
CONTINUOUS
370
   25
390
F
  0
LAYER
  5
51
330
2
100
AcDbSymbolTableRecord
100
AcDbLayerTableRecord
  2
Simboli(ISO)
 70
    0
 62
    7
  6
CONTINUOUS
370
   25
390
F
  0
LAYER
  5
52
330
2
100
AcDbSymbolTableRecord
100
AcDbLayerTableRecord
  2
Spigoli visibili(ISO)
 70
    0
 62
  176
  6
CONTINUOUS
370
   25
390
F
  0
ENDTAB
  0
TABLE
  2
STYLE
  5
3
330
0
100
AcDbSymbolTable
 70
    3
  0
STYLE
  5
53
330
2
100
AcDbSymbolTableRecord
100
AcDbTextStyleTableRecord
  2
gruppo2_70
 70
    0
 40
0
 41
1
 50
0
 71
    0
 42
1
  3
gruppo2_70
  4

  0
STYLE
  5
54
330
2
100
AcDbSymbolTableRecord
100
AcDbTextStyleTableRecord
  2
stile testo42
 70
    0
 40
0
 41
1
 50
0
 71
    0
 42
1
  3
stile testo42
  4

  0
STYLE
  5
55
330
2
100
AcDbSymbolTableRecord
100
AcDbTextStyleTableRecord
  2
stile testo18
 70
    0
 40
0
 41
1
 50
0
 71
    0
 42
1
  3
stile testo18
  4

  0
STYLE
  5
56
330
2
100
AcDbSymbolTableRecord
100
AcDbTextStyleTableRecord
  2
stile testo43
 70
    0
 40
0
 41
1
 50
0
 71
    0
 42
1
  3
stile testo43
  4

  0
STYLE
  5
57
330
2
100
AcDbSymbolTableRecord
100
AcDbTextStyleTableRecord
  2
stile testo77
 70
    0
 40
0
 41
1
 50
0
 71
    0
 42
1
  3
stile testo77
  4

  0
STYLE
  5
58
330
2
100
AcDbSymbolTableRecord
100
AcDbTextStyleTableRecord
  2
corrente-iso
 70
    0
 40
0
 41
1
 50
0
 71
    0
 42
1
  3
corrente-iso
  4

  0
STYLE
  5
59
330
2
100
AcDbSymbolTableRecord
100
AcDbTextStyleTableRecord
  2
gruppo1
 70
    0
 40
0
 41
1
 50
0
 71
    0
 42
1
  3
gruppo1
  4

  0
STYLE
  5
5A
330
2
100
AcDbSymbolTableRecord
100
AcDbTextStyleTableRecord
  2
stile testo76
 70
    0
 40
0
 41
1
 50
0
 71
    0
 42
1
  3
stile testo76
  4

  0
STYLE
  5
5B
330
2
100
AcDbSymbolTableRecord
100
AcDbTextStyleTableRecord
  2
stile testo75
 70
    0
 40
0
 41
1
 50
0
 71
    0
 42
1
  3
stile testo75
  4

  0
STYLE
  5
5C
330
2
100
AcDbSymbolTableRecord
100
AcDbTextStyleTableRecord
  2
Standard
 70
    0
 40
0
 41
1
 50
0
 71
    0
 42
1
  3
txt
  4

  0
ENDTAB
  0
TABLE
  2
VIEW
  5
6
330
0
100
AcDbSymbolTable
 70
    0
  0
ENDTAB
  0
TABLE
  2
UCS
  5
7
330
0
100
AcDbSymbolTable
 70
    0
  0
ENDTAB
  0
TABLE
  2
APPID
  5
9
330
0
100
AcDbSymbolTable
 70
    1
  0
APPID
  5
12
330
9
100
AcDbSymbolTableRecord
100
AcDbRegAppTableRecord
  2
ACAD
 70
    0
  0
APPID
  5
5D
330
9
100
AcDbSymbolTableRecord
100
AcDbRegAppTableRecord
  2
LibreCad
 70
    0
  0
ENDTAB
  0
TABLE
  2
DIMSTYLE
  5
A
330
0
100
AcDbSymbolTable
 70
    1
100
AcDbDimStyleTable
 71
    1
  0
DIMSTYLE
105
5E
330
A
100
AcDbSymbolTableRecord
100
AcDbDimStyleTableRecord
  2
Standard
 70
    0
 40
1
 41
1.799999999999999
 42
0.0625
 43
0.38
 44
0.18
 45
0
 46
0
 47
0
 48
0
 49
1
140
0.25
141
0.09
142
0
143
25.4
144
1
145
0
146
1
147
0.09
148
0
 71
    0
 72
    0
 73
    1
 74
    1
 75
    0
 76
    0
 77
    0
 78
    0
 79
    0
170
    0
171
    2
172
    0
173
    0
174
    0
175
    0
176
    0
177
    0
178
    0
179
    0
271
    4
272
    4
273
    2
274
    2
275
    0
276
    0
277
    2
278
   46
279
    0
280
    0
281
    0
282
    0
283
    1
284
    0
285
    0
286
    0
288
    0
289
    3
340
Standard
341

371
   -2
372
   -2
  0
ENDTAB
  0
TABLE
  2
BLOCK_RECORD
  5
1
330
0
100
AcDbSymbolTable
 70
    2
  0
BLOCK_RECORD
  5
1F
330
1
100
AcDbSymbolTableRecord
100
AcDbBlockTableRecord
  2
*Model_Space
 70
    0
280
    1
281
    0
  0
BLOCK_RECORD
  5
1E
330
1
100
AcDbSymbolTableRecord
100
AcDbBlockTableRecord
  2
*Paper_Space
 70
    0
280
    1
281
    0
  0
BLOCK_RECORD
  5
5F
330
1
100
AcDbSymbolTableRecord
100
AcDbBlockTableRecord
  2
*D6
 70
    0
280
    1
281
    0
  0
BLOCK_RECORD
  5
62
330
1
100
AcDbSymbolTableRecord
100
AcDbBlockTableRecord
  2
*D3
 70
    0
280
    1
281
    0
  0
BLOCK_RECORD
  5
65
330
1
100
AcDbSymbolTableRecord
100
AcDbBlockTableRecord
  2
*D11
 70
    0
280
    1
281
    0
  0
BLOCK_RECORD
  5
68
330
1
100
AcDbSymbolTableRecord
100
AcDbBlockTableRecord
  2
*D1
 70
    0
280
    1
281
    0
  0
BLOCK_RECORD
  5
6B
330
1
100
AcDbSymbolTableRecord
100
AcDbBlockTableRecord
  2
*D2
 70
    0
280
    1
281
    0
  0
BLOCK_RECORD
  5
6E
330
1
100
AcDbSymbolTableRecord
100
AcDbBlockTableRecord
  2
*D5
 70
    0
280
    1
281
    0
  0
BLOCK_RECORD
  5
71
330
1
100
AcDbSymbolTableRecord
100
AcDbBlockTableRecord
  2
*D7
 70
    0
280
    1
281
    0
  0
BLOCK_RECORD
  5
74
330
1
100
AcDbSymbolTableRecord
100
AcDbBlockTableRecord
  2
*D8
 70
    0
280
    1
281
    0
  0
BLOCK_RECORD
  5
77
330
1
100
AcDbSymbolTableRecord
100
AcDbBlockTableRecord
  2
*D4
 70
    0
280
    1
281
    0
  0
BLOCK_RECORD
  5
7A
330
1
100
AcDbSymbolTableRecord
100
AcDbBlockTableRecord
  2
*D10
 70
    0
280
    1
281
    0
  0
BLOCK_RECORD
  5
7D
330
1
100
AcDbSymbolTableRecord
100
AcDbBlockTableRecord
  2
*D9
 70
    0
280
    1
281
    0
  0
BLOCK_RECORD
  5
80
330
1
100
AcDbSymbolTableRecord
100
AcDbBlockTableRecord
  2
Filled-1
 70
    0
280
    1
281
    0
  0
BLOCK_RECORD
  5
83
330
1
100
AcDbSymbolTableRecord
100
AcDbBlockTableRecord
  2
_Open
 70
    0
280
    1
281
    0
  0
BLOCK_RECORD
  5
86
330
1
100
AcDbSymbolTableRecord
100
AcDbBlockTableRecord
  2
_Closed
 70
    0
280
    1
281
    0
  0
BLOCK_RECORD
  5
89
330
1
100
AcDbSymbolTableRecord
100
AcDbBlockTableRecord
  2
DatumFilled45
 70
    0
280
    1
281
    0
  0
BLOCK_RECORD
  5
8C
330
1
100
AcDbSymbolTableRecord
100
AcDbBlockTableRecord
  2
DatumThickLine
 70
    0
280
    1
281
    0
  0
BLOCK_RECORD
  5
8F
330
1
100
AcDbSymbolTableRecord
100
AcDbBlockTableRecord
  2
Bordi Bordo di default
 70
    0
280
    1
281
    0
  0
BLOCK_RECORD
  5
92
330
1
100
AcDbSymbolTableRecord
100
AcDbBlockTableRecord
  2
Cartigli Italtronic
 70
    0
280
    1
281
    0
  0
BLOCK_RECORD
  5
95
330
1
100
AcDbSymbolTableRecord
100
AcDbBlockTableRecord
  2
Contrassegno di revisione1
 70
    0
280
    1
281
    0
  0
ENDTAB
  0
ENDSEC
  0
SECTION
  2
BLOCKS
  0
BLOCK
  5
20
330
1F
100
AcDbEntity
  8
0
100
AcDbBlockBegin
  2
*Model_Space
 70
    0
 10
0
 20
0
 30
0
  3
*Model_Space
  1

  0
ENDBLK
  5
21
330
1F
100
AcDbEntity
  8
0
100
AcDbBlockEnd
  0
BLOCK
  5
1C
330
1B
100
AcDbEntity
  8
0
100
AcDbBlockBegin
  2
*Paper_Space
 70
    0
 10
0
 20
0
 30
0
  3
*Paper_Space
  1

  0
ENDBLK
  5
1D
330
1F
100
AcDbEntity
  8
0
100
AcDbBlockEnd
  0
BLOCK
  5
60
330
5F
100
AcDbEntity
  8
0
100
AcDbBlockBegin
  2
*D6
 70
    1
 10
0
 20
0
  3
*D6
  1

  0
LINE
  5
98
100
AcDbEntity
  8
Quote(ISO)
  6
ByBlock
 62
    0
370
   -2
100
AcDbLine
 10
59.72427619326914
 20
164.604487173615
 11
87.05094285993583
 21
164.604487173615
  0
SOLID
  5
99
100
AcDbEntity
  8
Quote(ISO)
  6
ByBlock
 62
    0
370
   -2
100
AcDbTrace
 10
59.72427619326914
 20
164.604487173615
 30
0
 11
61.52427619326914
 21
164.9042121272115
 31
0
 12
61.52427619326914
 22
164.3047622200186
 32
0
 13
61.52427619326914
 23
164.3047622200186
 33
0
  0
SOLID
  5
9A
100
AcDbEntity
  8
Quote(ISO)
  6
ByBlock
 62
    0
370
   -2
100
AcDbTrace
 10
115.7242761932691
 20
164.604487173615
 30
0
 11
113.9242761932691
 21
164.3047622200186
 31
0
 12
113.9242761932691
 22
164.9042121272115
 32
0
 13
113.9242761932691
 23
164.9042121272115
 33
0
  0
LINE
  5
9B
100
AcDbEntity
  8
Quote(ISO)
  6
ByBlock
 62
    0
370
   -2
100
AcDbLine
 10
88.39760952660252
 20
164.604487173615
 11
115.7242761932691
 21
164.604487173615
  0
MTEXT
  5
9C
100
AcDbEntity
  8
Quote(ISO)
  6
CONTINUOUS
 62
    0
370
   -2
100
AcDbMText
 10
87.72427619326918
 20
164.604487173615
 30
0
 40
0.25
 41
1.166666666666698
 71
    5
 72
    1
  1
56.0000
  7
Standard
210
0
220
0
230
1
 50
0
 73
    2
 44
1
  0
LINE
  5
9D
100
AcDbEntity
  8
Quote(ISO)
  6
ByBlock
 62
    0
370
   -2
100
AcDbLine
 10
59.72427619326914
 20
126.9665559530248
 11
59.72427619326914
 21
164.784487173615
  0
LINE
  5
9E
100
AcDbEntity
  8
Quote(ISO)
  6
ByBlock
 62
    0
370
   -2
100
AcDbLine
 10
115.7242761932691
 20
126.9665559530248
 11
115.7242761932691
 21
164.784487173615
  0
ENDBLK
  5
61
330
5F
100
AcDbEntity
  8
0
100
AcDbBlockEnd
  0
BLOCK
  5
63
330
62
100
AcDbEntity
  8
0
100
AcDbBlockBegin
  2
*D3
 70
    1
 10
0
 20
0
  3
*D3
  1

  0
LINE
  5
9F
100
AcDbEntity
  8
Quote(ISO)
  6
ByBlock
 62
    0
370
   -2
100
AcDbLine
 10
60.82427619334535
 20
201.2269230416901
 11
88.27594286001199
 21
201.2269230416901
  0
SOLID
  5
A0
100
AcDbEntity
  8
Quote(ISO)
  6
ByBlock
 62
    0
370
   -2
100
AcDbTrace
 10
60.82427619334535
 20
201.2269230416901
 30
0
 11
62.62427619334535
 21
201.5266479952865
 31
0
 12
62.62427619334535
 22
200.9271980880937
 32
0
 13
62.62427619334535
 23
200.9271980880937
 33
0
  0
SOLID
  5
A1
100
AcDbEntity
  8
Quote(ISO)
  6
ByBlock
 62
    0
370
   -2
100
AcDbTrace
 10
117.0742761933453
 20
201.2269230416901
 30
0
 11
115.2742761933453
 21
200.9271980880937
 31
0
 12
115.2742761933453
 22
201.5266479952865
 32
0
 13
115.2742761933453
 23
201.5266479952865
 33
0
  0
LINE
  5
A2
100
AcDbEntity
  8
Quote(ISO)
  6
ByBlock
 62
    0
370
   -2
100
AcDbLine
 10
89.62260952667872
 20
201.2269230416901
 11
117.0742761933453
 21
201.2269230416901
  0
MTEXT
  5
A3
100
AcDbEntity
  8
Quote(ISO)
  6
CONTINUOUS
 62
    0
370
   -2
100
AcDbMText
 10
88.94927619334536
 20
201.2269230416901
 30
0
 40
0.25
 41
1.166666666666713
 71
    5
 72
    1
  1
56.2500
  7
Standard
210
0
220
0
230
1
 50
0
 73
    2
 44
1
  0
LINE
  5
A4
100
AcDbEntity
  8
Quote(ISO)
  6
ByBlock
 62
    0
370
   -2
100
AcDbLine
 10
60.82427619334534
 20
210.0644230416902
 11
60.82427619334535
 21
201.0469230416901
  0
LINE
  5
A5
100
AcDbEntity
  8
Quote(ISO)
  6
ByBlock
 62
    0
370
   -2
100
AcDbLine
 10
117.0742761933453
 20
211.2644230416901
 11
117.0742761933453
 21
201.0469230416901
  0
ENDBLK
  5
64
330
62
100
AcDbEntity
  8
0
100
AcDbBlockEnd
  0
BLOCK
  5
66
330
65
100
AcDbEntity
  8
0
100
AcDbBlockBegin
  2
*D11
 70
    1
 10
0
 20
0
  3
*D11
  1

  0
LINE
  5
A6
100
AcDbEntity
  8
Quote(ISO)
  6
ByBlock
 62
    0
370
   -2
100
AcDbLine
 10
64.83781233003654
 20
217.2735923410405
 11
56.8107400566541
 21
210.9802537423398
  0
SOLID
  5
A7
100
AcDbEntity
  8
Quote(ISO)
  6
ByBlock
 62
    0
370
   -2
100
AcDbTrace
 10
62.00472799825451
 20
215.0524140120873
 30
0
 11
63.23634167204138
 21
216.3988770848634
 31
0
 12
63.60619865624967
 22
215.9271292682644
 32
0
 13
63.60619865624967
 23
215.9271292682644
 33
0
  0
SOLID
  5
A8
100
AcDbEntity
  8
Quote(ISO)
  6
ByBlock
 62
    0
370
   -2
100
AcDbTrace
 10
59.64382438843614
 20
213.201432071293
 30
0
 11
58.41221071464926
 21
211.8549689985169
 31
0
 12
58.04235373044098
 22
212.3267168151159
 32
0
 13
58.04235373044098
 23
212.3267168151159
 33
0
  0
MTEXT
  5
A9
100
AcDbEntity
  8
Quote(ISO)
  6
CONTINUOUS
 62
    0
370
   -2
100
AcDbMText
 10
51.31353109745646
 20
206.670363890873
 30
0
 40
0.25
 41
0.9722222222222376
 71
    5
 72
    1
  1
3.0000
  7
Standard
210
0
220
0
230
1
 50
0
 73
    2
 44
1
  0
ENDBLK
  5
67
330
65
100
AcDbEntity
  8
0
100
AcDbBlockEnd
  0
BLOCK
  5
69
330
68
100
AcDbEntity
  8
0
100
AcDbBlockBegin
  2
*D1
 70
    1
 10
0
 20
0
  3
*D1
  1

  0
LINE
  5
AA
100
AcDbEntity
  8
Quote(ISO)
  6
ByBlock
 62
    0
370
   -2
100
AcDbLine
 10
128.6242761933453
 20
276.1269230416901
 11
128.6242761933453
 21
245.3419230416901
  0
SOLID
  5
AB
100
AcDbEntity
  8
Quote(ISO)
  6
ByBlock
 62
    0
370
   -2
100
AcDbTrace
 10
128.6242761933453
 20
276.1269230416901
 30
0
 11
128.9240011469417
 21
274.3269230416901
 31
0
 12
128.3245512397489
 22
274.3269230416901
 32
0
 13
128.3245512397489
 23
274.3269230416901
 33
0
  0
SOLID
  5
AC
100
AcDbEntity
  8
Quote(ISO)
  6
ByBlock
 62
    0
370
   -2
100
AcDbTrace
 10
128.6242761933453
 20
214.1269230416902
 30
0
 11
128.3245512397489
 21
215.9269230416902
 31
0
 12
128.9240011469417
 22
215.9269230416902
 32
0
 13
128.9240011469417
 23
215.9269230416902
 33
0
  0
LINE
  5
AD
100
AcDbEntity
  8
Quote(ISO)
  6
ByBlock
 62
    0
370
   -2
100
AcDbLine
 10
128.6242761933453
 20
244.9119230416901
 11
128.6242761933453
 21
214.1269230416902
  0
MTEXT
  5
AE
100
AcDbEntity
  8
Quote(ISO)
  6
CONTINUOUS
 62
    0
370
   -2
100
AcDbMText
 10
128.6242761933453
 20
245.1269230416901
 30
0
 40
0.25
 41
1.166666666666682
 71
    5
 72
    1
  1
62.0000
  7
Standard
210
0
220
0
230
1
 50
0
 73
    2
 44
1
  0
LINE
  5
AF
100
AcDbEntity
  8
Quote(ISO)
  6
ByBlock
 62
    0
370
   -2
100
AcDbLine
 10
118.6867761933453
 20
276.1269230416901
 11
128.8042761933453
 21
276.1269230416901
  0
LINE
  5
B0
100
AcDbEntity
  8
Quote(ISO)
  6
ByBlock
 62
    0
370
   -2
100
AcDbLine
 10
118.6867761933453
 20
214.1269230416902
 11
128.8042761933453
 21
214.1269230416902
  0
ENDBLK
  5
6A
330
68
100
AcDbEntity
  8
0
100
AcDbBlockEnd
  0
BLOCK
  5
6C
330
6B
100
AcDbEntity
  8
0
100
AcDbBlockBegin
  2
*D2
 70
    1
 10
0
 20
0
  3
*D2
  1

  0
LINE
  5
B1
100
AcDbEntity
  8
Quote(ISO)
  6
ByBlock
 62
    0
370
   -2
100
AcDbLine
 10
139.0742761933453
 20
278.9269230416902
 11
139.0742761933453
 21
245.2419230416902
  0
SOLID
  5
B2
100
AcDbEntity
  8
Quote(ISO)
  6
ByBlock
 62
    0
370
   -2
100
AcDbTrace
 10
139.0742761933453
 20
278.9269230416902
 30
0
 11
139.3740011469417
 21
277.1269230416902
 31
0
 12
138.7745512397489
 22
277.1269230416902
 32
0
 13
138.7745512397489
 23
277.1269230416902
 33
0
  0
SOLID
  5
B3
100
AcDbEntity
  8
Quote(ISO)
  6
ByBlock
 62
    0
370
   -2
100
AcDbTrace
 10
139.0742761933453
 20
211.3269230416901
 30
0
 11
138.7745512397489
 21
213.1269230416901
 31
0
 12
139.3740011469417
 22
213.1269230416901
 32
0
 13
139.3740011469417
 23
213.1269230416901
 33
0
  0
LINE
  5
B4
100
AcDbEntity
  8
Quote(ISO)
  6
ByBlock
 62
    0
370
   -2
100
AcDbLine
 10
139.0742761933453
 20
244.8119230416902
 11
139.0742761933453
 21
211.3269230416901
  0
MTEXT
  5
B5
100
AcDbEntity
  8
Quote(ISO)
  6
CONTINUOUS
 62
    0
370
   -2
100
AcDbMText
 10
139.0742761933453
 20
245.0269230416902
 30
0
 40
0.25
 41
1.166666666666698
 71
    5
 72
    1
  1
67.6000
  7
Standard
210
0
220
0
230
1
 50
0
 73
    2
 44
1
  0
LINE
  5
B6
100
AcDbEntity
  8
Quote(ISO)
  6
ByBlock
 62
    0
370
   -2
100
AcDbLine
 10
117.1367761933453
 20
278.9269230416902
 11
139.2542761933453
 21
278.9269230416902
  0
LINE
  5
B7
100
AcDbEntity
  8
Quote(ISO)
  6
ByBlock
 62
    0
370
   -2
100
AcDbLine
 10
117.1367761933453
 20
211.3269230416901
 11
139.2542761933453
 21
211.3269230416901
  0
ENDBLK
  5
6D
330
6B
100
AcDbEntity
  8
0
100
AcDbBlockEnd
  0
BLOCK
  5
6F
330
6E
100
AcDbEntity
  8
0
100
AcDbBlockBegin
  2
*D5
 70
    1
 10
0
 20
0
  3
*D5
  1

  0
LINE
  5
B8
100
AcDbEntity
  8
Quote(ISO)
  6
ByBlock
 62
    0
370
   -2
100
AcDbLine
 10
127.0742761933087
 20
184.8004312205908
 11
127.0742761933087
 21
193.6004312205908
  0
SOLID
  5
B9
100
AcDbEntity
  8
Quote(ISO)
  6
ByBlock
 62
    0
370
   -2
100
AcDbTrace
 10
127.0742761933087
 20
188.4004312205908
 30
0
 11
127.3740011469051
 21
186.6004312205908
 31
0
 12
126.7745512397123
 22
186.6004312205908
 32
0
 13
126.7745512397123
 23
186.6004312205908
 33
0
  0
SOLID
  5
BA
100
AcDbEntity
  8
Quote(ISO)
  6
ByBlock
 62
    0
370
   -2
100
AcDbTrace
 10
127.0742761933087
 20
190.0004312205908
 30
0
 11
126.7745512397123
 21
191.8004312205908
 31
0
 12
127.3740011469051
 22
191.8004312205908
 32
0
 13
127.3740011469051
 23
191.8004312205908
 33
0
  0
MTEXT
  5
BB
100
AcDbEntity
  8
Quote(ISO)
  6
CONTINUOUS
 62
    0
370
   -2
100
AcDbMText
 10
127.0742761933086
 20
197.919661779936
 30
0
 40
0.25
 41
0.9166666666666823
 71
    5
 72
    1
  1
1.6000
  7
Standard
210
0
220
0
230
1
 50
0
 73
    2
 44
1
  0
LINE
  5
BC
100
AcDbEntity
  8
Quote(ISO)
  6
ByBlock
 62
    0
370
   -2
100
AcDbLine
 10
117.1367761933086
 20
188.4004312205908
 11
127.2542761933087
 21
188.4004312205908
  0
LINE
  5
BD
100
AcDbEntity
  8
Quote(ISO)
  6
ByBlock
 62
    0
370
   -2
100
AcDbLine
 10
117.1367761933086
 20
190.0004312205908
 11
127.2542761933087
 21
190.0004312205908
  0
ENDBLK
  5
70
330
6E
100
AcDbEntity
  8
0
100
AcDbBlockEnd
  0
BLOCK
  5
72
330
71
100
AcDbEntity
  8
0
100
AcDbBlockBegin
  2
*D7
 70
    1
 10
0
 20
0
  3
*D7
  1

  0
LINE
  5
BE
100
AcDbEntity
  8
Quote(ISO)
  6
ByBlock
 62
    0
370
   -2
100
AcDbLine
 10
125.7242761932692
 20
126.9040559530248
 11
125.7242761932692
 21
124.1190559530248
  0
SOLID
  5
BF
100
AcDbEntity
  8
Quote(ISO)
  6
ByBlock
 62
    0
370
   -2
100
AcDbTrace
 10
125.7242761932692
 20
126.9040559530248
 30
0
 11
126.0240011468656
 21
125.1040559530248
 31
0
 12
125.4245512396728
 22
125.1040559530248
 32
0
 13
125.4245512396728
 23
125.1040559530248
 33
0
  0
SOLID
  5
C0
100
AcDbEntity
  8
Quote(ISO)
  6
ByBlock
 62
    0
370
   -2
100
AcDbTrace
 10
125.7242761932692
 20
120.9040559530248
 30
0
 11
125.4245512396728
 21
122.7040559530248
 31
0
 12
126.0240011468656
 22
122.7040559530248
 32
0
 13
126.0240011468656
 23
122.7040559530248
 33
0
  0
LINE
  5
C1
100
AcDbEntity
  8
Quote(ISO)
  6
ByBlock
 62
    0
370
   -2
100
AcDbLine
 10
125.7242761932692
 20
123.6890559530248
 11
125.7242761932692
 21
120.9040559530248
  0
MTEXT
  5
C2
100
AcDbEntity
  8
Quote(ISO)
  6
CONTINUOUS
 62
    0
370
   -2
100
AcDbMText
 10
125.7242761932691
 20
123.9040559530248
 30
0
 40
0.25
 41
0.9722222222222376
 71
    5
 72
    1
  1
6.0000
  7
Standard
210
0
220
0
230
1
 50
0
 73
    2
 44
1
  0
LINE
  5
C3
100
AcDbEntity
  8
Quote(ISO)
  6
ByBlock
 62
    0
370
   -2
100
AcDbLine
 10
117.1367761932691
 20
126.9040559530248
 11
125.9042761932692
 21
126.9040559530248
  0
LINE
  5
C4
100
AcDbEntity
  8
Quote(ISO)
  6
ByBlock
 62
    0
370
   -2
100
AcDbLine
 10
115.7867761932691
 20
120.9040559530248
 11
125.9042761932692
 21
120.9040559530248
  0
ENDBLK
  5
73
330
71
100
AcDbEntity
  8
0
100
AcDbBlockEnd
  0
BLOCK
  5
75
330
74
100
AcDbEntity
  8
0
100
AcDbBlockBegin
  2
*D8
 70
    1
 10
0
 20
0
  3
*D8
  1

  0
LINE
  5
C5
100
AcDbEntity
  8
Simboli(ISO)
  6
CONTINUOUS
 62
    7
370
    0
100
AcDbLine
 10
60.35036467116419
 20
213.5964180101553
 11
49.44551697895258
 21
244.6129078442885
  0
LINE
  5
C6
100
AcDbEntity
  8
Simboli(ISO)
  6
CONTINUOUS
 62
    7
370
    0
100
AcDbLine
 10
49.44551697895258
 20
244.6129078442885
 11
46.94551697895258
 21
244.6129078442885
  0
SOLID
  5
C7
100
AcDbEntity
  8
Simboli(ISO)
  6
CONTINUOUS
 62
    7
370
    0
100
AcDbTrace
 10
60.35036467116419
 20
213.5964180101553
 30
0
 11
59.47058274568609
 21
215.1951108547663
 31
0
 12
60.03609898743193
 22
215.3939363349122
 32
0
 13
60.03609898743193
 23
215.3939363349122
 33
0
  0
ENDBLK
  5
76
330
74
100
AcDbEntity
  8
0
100
AcDbBlockEnd
  0
BLOCK
  5
78
330
77
100
AcDbEntity
  8
0
100
AcDbBlockBegin
  2
*D4
 70
    1
 10
0
 20
0
  3
*D4
  1

  0
LINE
  5
C8
100
AcDbEntity
  8
Quote(ISO)
  6
ByBlock
 62
    0
370
   -2
100
AcDbLine
 10
58.37427619330863
 20
178.4004312205908
 11
87.05094285997529
 21
178.4004312205908
  0
SOLID
  5
C9
100
AcDbEntity
  8
Quote(ISO)
  6
ByBlock
 62
    0
370
   -2
100
AcDbTrace
 10
58.37427619330863
 20
178.4004312205908
 30
0
 11
60.17427619330863
 21
178.7001561741872
 31
0
 12
60.17427619330863
 22
178.1007062669944
 32
0
 13
60.17427619330863
 23
178.1007062669944
 33
0
  0
SOLID
  5
CA
100
AcDbEntity
  8
Quote(ISO)
  6
ByBlock
 62
    0
370
   -2
100
AcDbTrace
 10
117.0742761933086
 20
178.4004312205908
 30
0
 11
115.2742761933086
 21
178.1007062669944
 31
0
 12
115.2742761933086
 22
178.7001561741872
 32
0
 13
115.2742761933086
 23
178.7001561741872
 33
0
  0
LINE
  5
CB
100
AcDbEntity
  8
Quote(ISO)
  6
ByBlock
 62
    0
370
   -2
100
AcDbLine
 10
88.39760952664199
 20
178.4004312205908
 11
117.0742761933086
 21
178.4004312205908
  0
MTEXT
  5
CC
100
AcDbEntity
  8
Quote(ISO)
  6
CONTINUOUS
 62
    0
370
   -2
100
AcDbMText
 10
87.72427619330864
 20
178.4004312205908
 30
0
 40
0.25
 41
1.166666666666682
 71
    5
 72
    1
  1
58.7000
  7
Standard
210
0
220
0
230
1
 50
0
 73
    2
 44
1
  0
LINE
  5
CD
100
AcDbEntity
  8
Quote(ISO)
  6
ByBlock
 62
    0
370
   -2
100
AcDbLine
 10
58.37427619330863
 20
188.3379312205908
 11
58.37427619330863
 21
178.2204312205908
  0
LINE
  5
CE
100
AcDbEntity
  8
Quote(ISO)
  6
ByBlock
 62
    0
370
   -2
100
AcDbLine
 10
117.0742761933086
 20
188.3379312205908
 11
117.0742761933086
 21
178.2204312205908
  0
ENDBLK
  5
79
330
77
100
AcDbEntity
  8
0
100
AcDbBlockEnd
  0
BLOCK
  5
7B
330
7A
100
AcDbEntity
  8
0
100
AcDbBlockBegin
  2
*D10
 70
    1
 10
0
 20
0
  3
*D10
  1

  0
LINE
  5
CF
100
AcDbEntity
  8
Simboli(ISO)
  6
CONTINUOUS
 62
    7
370
    0
100
AcDbLine
 10
58.37427619326915
 20
125.2116301670191
 11
50.62226324857324
 21
133.1611162014324
  0
LINE
  5
D0
100
AcDbEntity
  8
Simboli(ISO)
  6
CONTINUOUS
 62
    7
370
    0
100
AcDbLine
 10
50.62226324857324
 20
133.1611162014324
 11
48.12226324857324
 21
133.1611162014324
  0
SOLID
  5
D1
100
AcDbEntity
  8
Simboli(ISO)
  6
CONTINUOUS
 62
    7
370
    0
100
AcDbTrace
 10
58.37427619326915
 20
125.2116301670191
 30
0
 11
56.90300484739167
 21
126.2910724649713
 31
0
 12
57.33217695245499
 22
126.7095835107862
 32
0
 13
57.33217695245499
 23
126.7095835107862
 33
0
  0
ENDBLK
  5
7C
330
7A
100
AcDbEntity
  8
0
100
AcDbBlockEnd
  0
BLOCK
  5
7E
330
7D
100
AcDbEntity
  8
0
100
AcDbBlockBegin
  2
*D9
 70
    1
 10
0
 20
0
  3
*D9
  1

  0
LINE
  5
D2
100
AcDbEntity
  8
Simboli(ISO)
  6
CONTINUOUS
 62
    7
370
    0
100
AcDbLine
 10
60.31472430273673
 20
275.4883062195007
 11
49.51648776869887
 21
246.8390237812779
  0
LINE
  5
D3
100
AcDbEntity
  8
Simboli(ISO)
  6
CONTINUOUS
 62
    7
370
    0
100
AcDbLine
 10
49.51648776869887
 20
246.8390237812779
 11
47.01648776869887
 21
246.8390237812779
  0
SOLID
  5
D4
100
AcDbEntity
  8
Simboli(ISO)
  6
CONTINUOUS
 62
    7
370
    0
100
AcDbTrace
 10
60.31472430273673
 20
275.4883062195007
 30
0
 11
59.96034531171857
 21
273.698264158952
 31
0
 12
59.3994161213223
 22
273.9096846749739
 32
0
 13
59.3994161213223
 23
273.9096846749739
 33
0
  0
ENDBLK
  5
7F
330
7D
100
AcDbEntity
  8
0
100
AcDbBlockEnd
  0
BLOCK
  5
81
330
80
100
AcDbEntity
  8
0
100
AcDbBlockBegin
  2
Filled-1
 70
    0
 10
0
 20
0
  3
Filled-1
  1

  0
LINE
  5
D5
100
AcDbEntity
  8
0
  6
ByLayer
 62
    0
370
   -1
100
AcDbLine
 10
-1
 20
0
 11
0
 21
0
  0
LWPOLYLINE
  5
D6
100
AcDbEntity
  8
0
  6
ByLayer
 62
    0
370
   -1
100
AcDbPolyline
 90
    4
 70
    0
 43
0
 10
-1
 20
-0.125
 10
0
 20
0
 10
-1
 20
0.125
 10
-1
 20
-0.125
  0
SOLID
  5
D7
100
AcDbEntity
  8
0
  6
ByLayer
 62
    0
370
   -1
100
AcDbTrace
 10
-1
 20
-0.125
 30
0
 11
0
 21
0
 31
0
 12
-1
 22
0.125
 32
0
 13
-1
 23
-0.125
 33
0
  0
LINE
  5
D8
100
AcDbEntity
  8
0
  6
ByLayer
 62
    0
370
   -1
100
AcDbLine
 10
-1
 20
-0.125
 11
0
 21
0
  0
LINE
  5
D9
100
AcDbEntity
  8
0
  6
ByLayer
 62
    0
370
   -1
100
AcDbLine
 10
0
 20
0
 11
-1
 21
0.125
  0
LINE
  5
DA
100
AcDbEntity
  8
0
  6
ByLayer
 62
    0
370
   -1
100
AcDbLine
 10
-1
 20
0.125
 11
-1
 21
-0.125
  0
ENDBLK
  5
82
330
80
100
AcDbEntity
  8
0
100
AcDbBlockEnd
  0
BLOCK
  5
84
330
83
100
AcDbEntity
  8
0
100
AcDbBlockBegin
  2
_Open
 70
    0
 10
0
 20
0
  3
_Open
  1

  0
LINE
  5
DB
100
AcDbEntity
  8
0
  6
ByBlock
 62
    0
370
   -2
100
AcDbLine
 10
-1
 20
0.1666666666666666
 11
0
 21
0
  0
LINE
  5
DC
100
AcDbEntity
  8
0
  6
ByBlock
 62
    0
370
   -2
100
AcDbLine
 10
-1
 20
-0.1666666666666666
 11
0
 21
0
  0
LINE
  5
DD
100
AcDbEntity
  8
0
  6
ByBlock
 62
    0
370
   -2
100
AcDbLine
 10
0
 20
0
 11
-1
 21
0
  0
ENDBLK
  5
85
330
83
100
AcDbEntity
  8
0
100
AcDbBlockEnd
  0
BLOCK
  5
87
330
86
100
AcDbEntity
  8
0
100
AcDbBlockBegin
  2
_Closed
 70
    0
 10
0
 20
0
  3
_Closed
  1

  0
LINE
  5
DE
100
AcDbEntity
  8
0
  6
ByBlock
 62
    0
370
   -2
100
AcDbLine
 10
-1
 20
0.1666666666666666
 11
0
 21
0
  0
LINE
  5
DF
100
AcDbEntity
  8
0
  6
ByBlock
 62
    0
370
   -2
100
AcDbLine
 10
0
 20
0
 11
-1
 21
-0.1666666666666666
  0
LINE
  5
E0
100
AcDbEntity
  8
0
  6
ByBlock
 62
    0
370
   -2
100
AcDbLine
 10
-1
 20
0.1666666666666666
 11
-1
 21
-0.1666666666666666
  0
LINE
  5
E1
100
AcDbEntity
  8
0
  6
ByBlock
 62
    0
370
   -2
100
AcDbLine
 10
0
 20
0
 11
-1
 21
0
  0
ENDBLK
  5
88
330
86
100
AcDbEntity
  8
0
100
AcDbBlockEnd
  0
BLOCK
  5
8A
330
89
100
AcDbEntity
  8
0
100
AcDbBlockBegin
  2
DatumFilled45
 70
    0
 10
0
 20
0
  3
DatumFilled45
  1

  0
LWPOLYLINE
  5
E2
100
AcDbEntity
  8
0
  6
ByLayer
 62
    0
370
   -1
100
AcDbPolyline
 90
    4
 70
    0
 43
0
 10
0
 20
1
 10
0
 20
-1
 10
-1
 20
0
 10
0
 20
1
  0
SOLID
  5
E3
100
AcDbEntity
  8
0
  6
ByLayer
 62
    0
370
   -1
100
AcDbTrace
 10
0
 20
1
 30
0
 11
0
 21
-1
 31
0
 12
-1
 22
0
 32
0
 13
0
 23
1
 33
0
  0
ENDBLK
  5
8B
330
89
100
AcDbEntity
  8
0
100
AcDbBlockEnd
  0
BLOCK
  5
8D
330
8C
100
AcDbEntity
  8
0
100
AcDbBlockBegin
  2
DatumThickLine
 70
    0
 10
0
 20
0
  3
DatumThickLine
  1

  0
LWPOLYLINE
  5
E4
100
AcDbEntity
  8
0
  6
ByLayer
 62
    0
370
   -1
100
AcDbPolyline
 90
    4
 70
    0
 43
0
 10
-0.25
 20
1
 10
-0.25
 20
-1
 10
-0.5
 20
-1
 10
-0.25
 20
1
  0
SOLID
  5
E5
100
AcDbEntity
  8
0
  6
ByLayer
 62
    0
370
   -1
100
AcDbTrace
 10
-0.25
 20
1
 30
0
 11
-0.25
 21
-1
 31
0
 12
-0.5
 22
-1
 32
0
 13
-0.25
 23
1
 33
0
  0
LWPOLYLINE
  5
E6
100
AcDbEntity
  8
0
  6
ByLayer
 62
    0
370
   -1
100
AcDbPolyline
 90
    4
 70
    0
 43
0
 10
-0.25
 20
1
 10
-0.5
 20
-1
 10
-0.5
 20
-1
 10
-0.25
 20
1
  0
SOLID
  5
E7
100
AcDbEntity
  8
0
  6
ByLayer
 62
    0
370
   -1
100
AcDbTrace
 10
-0.25
 20
1
 30
0
 11
-0.5
 21
-1
 31
0
 12
-0.5
 22
-1
 32
0
 13
-0.25
 23
1
 33
0
  0
LWPOLYLINE
  5
E8
100
AcDbEntity
  8
0
  6
ByLayer
 62
    0
370
   -1
100
AcDbPolyline
 90
    4
 70
    0
 43
0
 10
-0.25
 20
1
 10
-0.5
 20
-1
 10
-0.5
 20
1
 10
-0.25
 20
1
  0
SOLID
  5
E9
100
AcDbEntity
  8
0
  6
ByLayer
 62
    0
370
   -1
100
AcDbTrace
 10
-0.25
 20
1
 30
0
 11
-0.5
 21
-1
 31
0
 12
-0.5
 22
1
 32
0
 13
-0.25
 23
1
 33
0
  0
LWPOLYLINE
  5
EA
100
AcDbEntity
  8
0
  6
ByLayer
 62
    0
370
   -1
100
AcDbPolyline
 90
    4
 70
    0
 43
0
 10
-0.25
 20
1
 10
-0.5
 20
1
 10
-0.25
 20
1
 10
-0.25
 20
1
  0
SOLID
  5
EB
100
AcDbEntity
  8
0
  6
ByLayer
 62
    0
370
   -1
100
AcDbTrace
 10
-0.25
 20
1
 30
0
 11
-0.5
 21
1
 31
0
 12
-0.25
 22
1
 32
0
 13
-0.25
 23
1
 33
0
  0
LINE
  5
EC
100
AcDbEntity
  8
0
  6
ByLayer
 62
    0
370
   -1
100
AcDbLine
 10
-1
 20
0
 11
-0.5
 21
0
  0
LINE
  5
ED
100
AcDbEntity
  8
0
  6
ByLayer
 62
    0
370
   -1
100
AcDbLine
 10
-0.5
 20
0
 11
-1
 21
0
  0
ENDBLK
  5
8E
330
8C
100
AcDbEntity
  8
0
100
AcDbBlockEnd
  0
BLOCK
  5
90
330
8F
100
AcDbEntity
  8
0
100
AcDbBlockBegin
  2
Bordi Bordo di default
 70
    0
 10
0
 20
0
  3
Bordi Bordo di default
  1

  0
LWPOLYLINE
  5
EE
100
AcDbEntity
  8
Bordo_0
  6
ByLayer
 62
  256
370
   -1
100
AcDbPolyline
 90
    5
 70
    0
 43
0
 10
10
 20
10
 10
10
 20
287.0000076293946
 10
200
 20
287.0000076293946
 10
200
 20
10
 10
10
 20
10
  0
LWPOLYLINE
  5
EF
100
AcDbEntity
  8
Bordo_0
  6
ByLayer
 62
  256
370
   -1
100
AcDbPolyline
 90
    5
 70
    0
 43
0
 10
105
 20
0
 10
105
 20
10
 10
102.1132469177246
 20
5
 10
107.8867530822754
 20
5
 10
105
 20
10
  0
LWPOLYLINE
  5
F0
100
AcDbEntity
  8
Bordo_0
  6
ByLayer
 62
  256
370
   -1
100
AcDbPolyline
 90
    5
 70
    0
 43
0
 10
105
 20
297.0000076293946
 10
105
 20
287.0000076293946
 10
102.1132469177246
 20
292.0000076293945
 10
107.8867530822754
 20
292.0000076293945
 10
105
 20
287.0000076293946
  0
LWPOLYLINE
  5
F1
100
AcDbEntity
  8
Bordo_0
  6
ByLayer
 62
  256
370
   -1
100
AcDbPolyline
 90
    5
 70
    0
 43
0
 10
0
 20
148.5000038146973
 10
10
 20
148.5000038146973
 10
5
 20
151.3867473602295
 10
5
 20
145.6132507324219
 10
10
 20
148.5000038146973
  0
LWPOLYLINE
  5
F2
100
AcDbEntity
  8
Bordo_0
  6
ByLayer
 62
  256
370
   -1
100
AcDbPolyline
 90
    5
 70
    0
 43
0
 10
210
 20
148.5000038146973
 10
200
 20
148.5000038146973
 10
205
 20
151.3867473602295
 10
205
 20
145.6132507324219
 10
200
 20
148.5000038146973
  0
ENDBLK
  5
91
330
8F
100
AcDbEntity
  8
0
100
AcDbBlockEnd
  0
BLOCK
  5
93
330
92
100
AcDbEntity
  8
0
100
AcDbBlockBegin
  2
Cartigli Italtronic
 70
    0
 10
0
 20
0
  3
Cartigli Italtronic
  1

  0
IMAGE
  5
F5
100
AcDbEntity
  8
0
  6
ByLayer
 62
  256
370
   -1
100
AcDbRasterImage
 10
95.50809230106327
 20
10.07425645242605
 30
0
 11
0.1469224717694125
 21
0
 31
0
 12
-1.52e-014
 22
0.1469224717694125
 32
0
 13
479
 23
282
340
F3
 70
    1
280
    0
281
   50
282
   50
283
    0
360
F4
  0
LINE
  5
F6
100
AcDbEntity
  8
AM_0
  6
ByLayer
 62
  256
370
   15
100
AcDbLine
 10
284.699834796709
 20
286.1639660543226
 11
259.860344337334
 21
286.1639660543226
  0
LINE
  5
F7
100
AcDbEntity
  8
AM_0
  6
ByLayer
 62
  256
370
   15
100
AcDbLine
 10
94.69983451915728
 20
59.49960219557006
 11
259.8603443373307
 21
59.49960219556944
  0
LINE
  5
F8
100
AcDbEntity
  8
AM_0
  6
ByLayer
 62
  256
370
   15
100
AcDbLine
 10
94.69983451915724
 20
52.32374939619565
 11
284.6998347967001
 21
52.32374939619505
  0
LINE
  5
F9
100
AcDbEntity
  8
AM_0
  6
ByLayer
 62
  256
370
   15
100
AcDbLine
 10
144.3176614941553
 20
66.12346631807013
 11
284.6998347967058
 21
66.12346631807013
  0
LINE
  5
FA
100
AcDbEntity
  8
AM_0
  6
ByLayer
 62
  256
370
   15
100
AcDbLine
 10
94.69983451915726
 20
9.163966054322611
 11
94.69983451915726
 21
66.12346631807019
  0
LINE
  5
FB
100
AcDbEntity
  8
AM_0
  6
ByLayer
 62
  166
370
    5
100
AcDbLine
 10
176.6015343333958
 20
12.87294070870272
 11
178.2046790218558
 21
25.51450081405146
  0
LINE
  5
FC
100
AcDbEntity
  8
AM_0
  6
ByLayer
 62
  166
370
    5
100
AcDbLine
 10
170.8321163205559
 20
12.87294070870272
 11
172.4352610090158
 21
25.51450081405146
  0
LINE
  5
FD
100
AcDbEntity
  8
AM_0
  6
ByLayer
 62
  166
370
    5
100
AcDbLine
 10
172.405594113655
 20
12.87294070870272
 11
174.008738802115
 21
25.51450081405146
  0
LINE
  5
FE
100
AcDbEntity
  8
AM_0
  6
ByLayer
 62
  166
370
    5
100
AcDbLine
 10
174.5035642235255
 20
12.87294070870272
 11
176.1067089119854
 21
25.51450081405146
  0
LINE
  5
FF
100
AcDbEntity
  8
AM_0
  6
ByLayer
 62
  166
370
    5
100
AcDbLine
 10
172.9300864304263
 20
12.87294070870272
 11
174.5332311188863
 21
25.51450081405146
  0
LINE
  5
100
100
AcDbEntity
  8
AM_0
  6
ByLayer
 62
  166
370
    5
100
AcDbLine
 10
175.0280565402967
 20
12.87294070870272
 11
176.6312012287567
 21
25.51450081405146
  0
LINE
  5
101
100
AcDbEntity
  8
AM_0
  6
ByLayer
 62
  166
370
    5
100
AcDbLine
 10
172.9300864304263
 20
12.87294070870272
 11
174.5035642235255
 21
12.87294070870272
  0
LINE
  5
102
100
AcDbEntity
  8
AM_0
  6
ByLayer
 62
  166
370
    5
100
AcDbLine
 10
170.8321163205559
 20
12.87294070870272
 11
172.405594113655
 21
12.87294070870272
  0
LINE
  5
103
100
AcDbEntity
  8
AM_0
  6
ByLayer
 62
  166
370
    5
100
AcDbLine
 10
175.0280565402967
 20
12.87294070870272
 11
176.6015343333958
 21
12.87294070870272
  0
LINE
  5
104
100
AcDbEntity
  8
AM_0
  6
ByLayer
 62
  166
370
    5
100
AcDbLine
 10
172.4352610090158
 20
25.51450081405146
 11
174.008738802115
 21
25.51450081405146
  0
LINE
  5
105
100
AcDbEntity
  8
AM_0
  6
ByLayer
 62
  166
370
    5
100
AcDbLine
 10
171.697177449545
 20
23.71702115581568
 11
171.9107686922446
 21
25.51450081405146
  0
LINE
  5
106
100
AcDbEntity
  8
AM_0
  6
ByLayer
 62
  166
370
    5
100
AcDbLine
 10
170.1236996564458
 20
23.71702115581568
 11
170.3372908991454
 21
25.51450081405146
  0
LINE
  5
107
100
AcDbEntity
  8
AM_0
  6
ByLayer
 62
  166
370
    5
100
AcDbLine
 10
171.3835202220041
 20
24.13118697568565
 11
171.4986823206024
 21
25.10033499418149
  0
LINE
  5
108
100
AcDbEntity
  8
AM_0
  6
ByLayer
 62
  166
370
    5
100
AcDbLine
 10
170.535786028088
 20
24.13118697568565
 11
170.6509481266863
 21
25.10033499418149
  0
LINE
  5
109
100
AcDbEntity
  8
AM_0
  6
ByLayer
 62
  166
370
    5
100
AcDbLine
 10
169.9838541023584
 20
19.48639725167369
 11
170.0990162009567
 21
20.45554527016951
  0
LINE
  5
10A
100
AcDbEntity
  8
AM_0
  6
ByLayer
 62
  166
370
    5
100
AcDbLine
 10
169.5717677307164
 20
19.0722314318037
 11
171.1452455238155
 21
19.0722314318037
  0
LINE
  5
10B
100
AcDbEntity
  8
AM_0
  6
ByLayer
 62
  166
370
    5
100
AcDbLine
 10
169.9838541023584
 20
19.48639725167369
 11
170.8315882962745
 21
19.48639725167369
  0
LINE
  5
10C
100
AcDbEntity
  8
AM_0
  6
ByLayer
 62
  166
370
    5
100
AcDbLine
 10
169.8477336935811
 20
21.3946262938097
 11
171.4212114866802
 21
21.3946262938097
  0
LINE
  5
10D
100
AcDbEntity
  8
AM_0
  6
ByLayer
 62
  166
370
    5
100
AcDbLine
 10
169.7853589734159
 20
20.8697110900395
 11
171.358836766515
 21
20.8697110900395
  0
LINE
  5
10E
100
AcDbEntity
  8
AM_0
  6
ByLayer
 62
  166
370
    5
100
AcDbLine
 10
170.0613249362807
 20
23.19210595204545
 11
171.6348027293798
 21
23.19210595204545
  0
LINE
  5
10F
100
AcDbEntity
  8
AM_0
  6
ByLayer
 62
  166
370
    5
100
AcDbLine
 10
169.5717677307164
 20
19.0722314318037
 11
169.7853589734159
 21
20.8697110900395
  0
LINE
  5
110
100
AcDbEntity
  8
AM_0
  6
ByLayer
 62
  166
370
    5
100
AcDbLine
 10
169.8477336935811
 20
21.3946262938097
 11
170.0613249362807
 21
23.19210595204545
  0
LINE
  5
111
100
AcDbEntity
  8
AM_0
  6
ByLayer
 62
  166
370
    5
100
AcDbLine
 10
171.1452455238155
 20
19.0722314318037
 11
171.358836766515
 21
20.8697110900395
  0
LINE
  5
112
100
AcDbEntity
  8
AM_0
  6
ByLayer
 62
  166
370
    5
100
AcDbLine
 10
170.8315882962745
 20
19.48639725167369
 11
170.9467503948729
 21
20.45554527016951
  0
LINE
  5
113
100
AcDbEntity
  8
AM_0
  6
ByLayer
 62
  166
370
    5
100
AcDbLine
 10
170.0990162009567
 20
20.45554527016951
 11
170.9467503948729
 21
20.45554527016951
  0
LINE
  5
114
100
AcDbEntity
  8
AM_0
  6
ByLayer
 62
  166
370
    5
100
AcDbLine
 10
170.1236996564458
 20
23.71702115581568
 11
171.697177449545
 21
23.71702115581568
  0
LINE
  5
115
100
AcDbEntity
  8
AM_0
  6
ByLayer
 62
  166
370
    5
100
AcDbLine
 10
170.535786028088
 20
24.13118697568565
 11
171.3835202220041
 21
24.13118697568565
  0
LINE
  5
116
100
AcDbEntity
  8
AM_0
  6
ByLayer
 62
  166
370
    5
100
AcDbLine
 10
170.3749821638215
 20
22.77794013217551
 11
171.2227163577377
 21
22.77794013217551
  0
LINE
  5
117
100
AcDbEntity
  8
AM_0
  6
ByLayer
 62
  166
370
    5
100
AcDbLine
 10
170.2598200652232
 20
21.8087921136797
 11
171.1075542591393
 21
21.8087921136797
  0
LINE
  5
118
100
AcDbEntity
  8
AM_0
  6
ByLayer
 62
  166
370
    5
100
AcDbLine
 10
171.4212114866802
 20
21.3946262938097
 11
171.6348027293798
 21
23.19210595204545
  0
LINE
  5
119
100
AcDbEntity
  8
AM_0
  6
ByLayer
 62
  166
370
    5
100
AcDbLine
 10
170.2598200652232
 20
21.8087921136797
 11
170.3749821638215
 21
22.77794013217551
  0
LINE
  5
11A
100
AcDbEntity
  8
AM_0
  6
ByLayer
 62
  166
370
    5
100
AcDbLine
 10
171.1075542591393
 20
21.8087921136797
 11
171.2227163577377
 21
22.77794013217551
  0
LINE
  5
11B
100
AcDbEntity
  8
AM_0
  6
ByLayer
 62
  166
370
    5
100
AcDbLine
 10
170.3372908991454
 20
25.51450081405146
 11
171.9107686922446
 21
25.51450081405146
  0
LINE
  5
11C
100
AcDbEntity
  8
AM_0
  6
ByLayer
 62
  166
370
    5
100
AcDbLine
 10
170.6509481266863
 20
25.10033499418149
 11
171.4986823206024
 21
25.10033499418149
  0
LINE
  5
11D
100
AcDbEntity
  8
AM_0
  6
ByLayer
 62
  166
370
    5
100
AcDbLine
 10
178.5155800959276
 20
23.71702115581568
 11
180.0890578890267
 21
23.71702115581568
  0
LINE
  5
11E
100
AcDbEntity
  8
AM_0
  6
ByLayer
 62
  166
370
    5
100
AcDbLine
 10
178.4532053757623
 20
23.19210595204545
 11
180.0266831688614
 21
23.19210595204545
  0
LINE
  5
11F
100
AcDbEntity
  8
AM_0
  6
ByLayer
 62
  166
370
    5
100
AcDbLine
 10
179.8130919261619
 20
21.3946262938097
 11
180.0266831688614
 21
23.19210595204545
  0
LINE
  5
120
100
AcDbEntity
  8
AM_0
  6
ByLayer
 62
  166
370
    5
100
AcDbLine
 10
178.7291713386271
 20
25.51450081405146
 11
180.3026491317262
 21
25.51450081405146
  0
LINE
  5
121
100
AcDbEntity
  8
AM_0
  6
ByLayer
 62
  166
370
    5
100
AcDbLine
 10
178.5155800959276
 20
23.71702115581568
 11
178.7291713386271
 21
25.51450081405146
  0
LINE
  5
122
100
AcDbEntity
  8
AM_0
  6
ByLayer
 62
  166
370
    5
100
AcDbLine
 10
178.9276664675696
 20
24.13118697568565
 11
179.042828566168
 21
25.10033499418149
  0
LINE
  5
123
100
AcDbEntity
  8
AM_0
  6
ByLayer
 62
  166
370
    5
100
AcDbLine
 10
179.7754006614857
 20
24.13118697568565
 11
179.8905627600841
 21
25.10033499418149
  0
LINE
  5
124
100
AcDbEntity
  8
AM_0
  6
ByLayer
 62
  166
370
    5
100
AcDbLine
 10
177.963648170198
 20
19.0722314318037
 11
178.1772394128975
 21
20.8697110900395
  0
LINE
  5
125
100
AcDbEntity
  8
AM_0
  6
ByLayer
 62
  166
370
    5
100
AcDbLine
 10
179.5371259632972
 20
19.0722314318037
 11
179.7507172059967
 21
20.8697110900395
  0
LINE
  5
126
100
AcDbEntity
  8
AM_0
  6
ByLayer
 62
  166
370
    5
100
AcDbLine
 10
177.963648170198
 20
19.0722314318037
 11
179.5371259632971
 21
19.0722314318037
  0
LINE
  5
127
100
AcDbEntity
  8
AM_0
  6
ByLayer
 62
  166
370
    5
100
AcDbLine
 10
179.2234687357561
 20
19.48639725167369
 11
179.3386308343545
 21
20.45554527016951
  0
LINE
  5
128
100
AcDbEntity
  8
AM_0
  6
ByLayer
 62
  166
370
    5
100
AcDbLine
 10
178.3757345418401
 20
19.48639725167369
 11
178.4908966404384
 21
20.45554527016951
  0
LINE
  5
129
100
AcDbEntity
  8
AM_0
  6
ByLayer
 62
  166
370
    5
100
AcDbLine
 10
178.3757345418401
 20
19.48639725167369
 11
179.2234687357561
 21
19.48639725167369
  0
LINE
  5
12A
100
AcDbEntity
  8
AM_0
  6
ByLayer
 62
  166
370
    5
100
AcDbLine
 10
178.4908966404384
 20
20.45554527016951
 11
179.3386308343545
 21
20.45554527016951
  0
LINE
  5
12B
100
AcDbEntity
  8
AM_0
  6
ByLayer
 62
  166
370
    5
100
AcDbLine
 10
178.2396141330628
 20
21.3946262938097
 11
179.8130919261619
 21
21.3946262938097
  0
LINE
  5
12C
100
AcDbEntity
  8
AM_0
  6
ByLayer
 62
  166
370
    5
100
AcDbLine
 10
178.1772394128975
 20
20.8697110900395
 11
179.7507172059967
 21
20.8697110900395
  0
LINE
  5
12D
100
AcDbEntity
  8
AM_0
  6
ByLayer
 62
  166
370
    5
100
AcDbLine
 10
178.2396141330628
 20
21.3946262938097
 11
178.4532053757623
 21
23.19210595204545
  0
LINE
  5
12E
100
AcDbEntity
  8
AM_0
  6
ByLayer
 62
  166
370
    5
100
AcDbLine
 10
178.7668626033032
 20
22.77794013217551
 11
179.6145967972193
 21
22.77794013217551
  0
LINE
  5
12F
100
AcDbEntity
  8
AM_0
  6
ByLayer
 62
  166
370
    5
100
AcDbLine
 10
178.9276664675696
 20
24.13118697568565
 11
179.7754006614857
 21
24.13118697568565
  0
LINE
  5
130
100
AcDbEntity
  8
AM_0
  6
ByLayer
 62
  166
370
    5
100
AcDbLine
 10
178.6517005047048
 20
21.8087921136797
 11
179.4994346986209
 21
21.8087921136797
  0
LINE
  5
131
100
AcDbEntity
  8
AM_0
  6
ByLayer
 62
  166
370
    5
100
AcDbLine
 10
178.6517005047048
 20
21.8087921136797
 11
178.7668626033032
 21
22.77794013217551
  0
LINE
  5
132
100
AcDbEntity
  8
AM_0
  6
ByLayer
 62
  166
370
    5
100
AcDbLine
 10
179.4994346986209
 20
21.8087921136797
 11
179.6145967972193
 21
22.77794013217551
  0
LINE
  5
133
100
AcDbEntity
  8
AM_0
  6
ByLayer
 62
  166
370
    5
100
AcDbLine
 10
174.5332311188863
 20
25.51450081405146
 11
176.1067089119854
 21
25.51450081405146
  0
LINE
  5
134
100
AcDbEntity
  8
AM_0
  6
ByLayer
 62
  166
370
    5
100
AcDbLine
 10
176.6312012287567
 20
25.51450081405146
 11
178.2046790218558
 21
25.51450081405146
  0
LINE
  5
135
100
AcDbEntity
  8
AM_0
  6
ByLayer
 62
  166
370
    5
100
AcDbLine
 10
179.042828566168
 20
25.10033499418149
 11
179.8905627600841
 21
25.10033499418149
  0
LINE
  5
136
100
AcDbEntity
  8
AM_0
  6
ByLayer
 62
  166
370
    5
100
AcDbLine
 10
180.0890578890267
 20
23.71702115581568
 11
180.3026491317262
 21
25.51450081405146
  0
LINE
  5
137
100
AcDbEntity
  8
AM_0
  6
ByLayer
 62
  256
370
   15
100
AcDbLine
 10
166.6494501824581
 20
27.4382732790542
 11
284.6998347967042
 21
27.4382732790542
  0
LINE
  5
138
100
AcDbEntity
  8
AM_0
  6
ByLayer
 62
  256
370
   15
100
AcDbLine
 10
168.3533057538834
 20
40.17560881341625
 11
281.2326769765349
 21
40.17560881341625
  0
LINE
  5
139
100
AcDbEntity
  8
AM_0
  6
ByLayer
 62
  256
370
   15
100
AcDbLine
 10
168.3533057538834
 20
30.94922799782227
 11
281.2326769765349
 21
30.94922799782227
  0
LINE
  5
13A
100
AcDbEntity
  8
AM_0
  6
ByLayer
 62
  256
370
   15
100
AcDbLine
 10
233.5544516604036
 20
12.53241607893609
 11
281.8047396339505
 21
12.53241607893609
  0
LINE
  5
13B
100
AcDbEntity
  8
AM_0
  6
ByLayer
 62
  256
370
   15
100
AcDbLine
 10
166.6494501824579
 20
9.163966054322582
 11
166.6494501824579
 21
52.32374939619545
  0
LINE
  5
13C
100
AcDbEntity
  8
AM_0
  6
ByLayer
 62
  256
370
   15
100
AcDbLine
 10
144.3176614941553
 20
52.32374939619546
 11
144.3176614941553
 21
66.12346631807013
  0
LINE
  5
13D
100
AcDbEntity
  8
AM_0
  6
ByLayer
 62
  256
370
   15
100
AcDbLine
 10
206.2215858224126
 20
52.32374939619546
 11
206.2215858224126
 21
66.12346631807013
  0
LINE
  5
13E
100
AcDbEntity
  8
AM_0
  6
ByLayer
 62
  256
370
   15
100
AcDbLine
 10
259.8603443373307
 20
71.64335308682011
 11
284.6998347967058
 21
71.64335308682011
  0
LINE
  5
13F
100
AcDbEntity
  8
AM_0
  6
ByLayer
 62
  256
370
   15
100
AcDbLine
 10
259.8603443373307
 20
52.32374939619511
 11
259.8603443373307
 21
66.12346631807013
  0
LINE
  5
140
100
AcDbEntity
  8
AM_0
  6
ByLayer
 62
  256
370
   15
100
AcDbLine
 10
284.6998347967069
 20
9.163966054322582
 11
94.69983451915726
 21
9.163966054322611
  0
LINE
  5
141
100
AcDbEntity
  8
AM_0
  6
ByLayer
 62
  256
370
   15
100
AcDbLine
 10
94.69983445279638
 20
66.12346631807019
 11
94.69983445279638
 21
81.70703504726804
  0
LINE
  5
142
100
AcDbEntity
  8
AM_0
  6
ByLayer
 62
  256
370
   15
100
AcDbLine
 10
94.69983445279637
 20
81.70703504726805
 11
259.860344337331
 21
81.70703504726804
  0
LINE
  5
143
100
AcDbEntity
  8
AM_0
  6
ByLayer
 62
  256
370
   15
100
AcDbLine
 10
206.2215858224126
 20
66.12346631807013
 11
206.2215858224126
 21
81.70703504726799
  0
LINE
  5
144
100
AcDbEntity
  8
AM_0
  6
ByLayer
 62
  256
370
   15
100
AcDbLine
 10
229.3459842930541
 20
66.12346631807019
 11
229.3459842930541
 21
81.70703504726804
  0
CIRCLE
  5
145
100
AcDbEntity
  8
AM_0
  6
ByLayer
 62
  256
370
   -1
100
AcDbCircle
 10
167.9341164919808
 20
73.62346631807019
 40
2.5
  0
CIRCLE
  5
146
100
AcDbEntity
  8
AM_0
  6
ByLayer
 62
  256
370
   -1
100
AcDbCircle
 10
167.9341164919808
 20
73.62346631807019
 40
4.5
  0
LINE
  5
147
100
AcDbEntity
  8
AM_0
  6
ByLayer
 62
  256
370
   -1
100
AcDbLine
 10
157.9341164919807
 20
69.12346631807019
 11
157.9341164919807
 21
78.12346631807019
  0
LINE
  5
148
100
AcDbEntity
  8
AM_0
  6
ByLayer
 62
  256
370
   -1
100
AcDbLine
 10
147.4222500832433
 20
71.12346631807019
 11
147.4222500832433
 21
76.12346631807019
  0
LINE
  5
149
100
AcDbEntity
  8
AM_0
  6
ByLayer
 62
  256
370
   -1
100
AcDbLine
 10
157.9341164919807
 20
78.12346631807019
 11
147.4222500832433
 21
76.12346631807019
  0
LINE
  5
14A
100
AcDbEntity
  8
AM_0
  6
ByLayer
 62
  256
370
   -1
100
AcDbLine
 10
157.9341164919807
 20
69.12346631807019
 11
147.4222500832433
 21
71.12346631807019
  0
LINE
  5
14B
100
AcDbEntity
  8
AM_0
  6
ByLayer
 62
  256
370
   15
100
AcDbLine
 10
230.9450731242316
 20
9.163966054322582
 11
230.9450731242316
 21
27.4382732790542
  0
LINE
  5
14C
100
AcDbEntity
  8
AM_0
  6
CONTINUOUS
 62
  256
370
   30
100
AcDbLine
 10
216.8404250712499
 20
77.26121619226716
 11
216.2644250712499
 21
74.95721619226775
  0
LINE
  5
14D
100
AcDbEntity
  8
AM_0
  6
CONTINUOUS
 62
  256
370
   30
100
AcDbLine
 10
216.0484250712499
 20
77.26121619226716
 11
214.5364250712502
 21
77.26121619226716
  0
LINE
  5
14E
100
AcDbEntity
  8
AM_0
  6
CONTINUOUS
 62
  256
370
   30
100
AcDbLine
 10
216.07242507125
 20
74.18921619226749
 11
215.6884250712503
 21
72.65321619226766
  0
LINE
  5
14F
100
AcDbEntity
  8
AM_0
  6
CONTINUOUS
 62
  256
370
   30
100
AcDbLine
 10
218.3764250712501
 20
77.26121619226716
 11
218.9524250712501
 21
74.95721619226775
  0
LINE
  5
150
100
AcDbEntity
  8
AM_0
  6
CONTINUOUS
 62
  256
370
   30
100
AcDbLine
 10
219.14442507125
 20
74.18921619226749
 11
219.5284250712501
 21
72.65321619226766
  0
LINE
  5
151
100
AcDbEntity
  8
AM_0
  6
CONTINUOUS
 62
  256
370
   30
100
AcDbLine
 10
214.8964250712502
 20
72.65321619226766
 11
215.28042507125
 21
74.18921619226749
  0
ARC
  5
152
100
AcDbEntity
  8
AM_0
  6
CONTINUOUS
 62
  256
370
   30
100
AcDbCircle
 10
214.5364250712502
 20
74.95721619226775
 40
2.303999999999404
100
AcDbArc
 50
90
 51
270
  0
LINE
  5
153
100
AcDbEntity
  8
AM_0
  6
CONTINUOUS
 62
  256
370
   30
100
AcDbLine
 10
216.07242507125
 20
74.18921619226749
 11
219.14442507125
 21
74.18921619226749
  0
LINE
  5
154
100
AcDbEntity
  8
AM_0
  6
CONTINUOUS
 62
  256
370
   30
100
AcDbLine
 10
216.2644250712499
 20
74.95721619226775
 11
218.9524250712501
 21
74.95721619226775
  0
ARC
  5
155
100
AcDbEntity
  8
AM_0
  6
CONTINUOUS
 62
  256
370
   30
100
AcDbCircle
 10
220.6804250712502
 20
74.95721619226775
 40
2.304000000000087
100
AcDbArc
 50
270
 51
90
  0
LINE
  5
156
100
AcDbEntity
  8
AM_0
  6
CONTINUOUS
 62
  256
370
   30
100
AcDbLine
 10
220.3204250712502
 20
72.65321619226766
 11
219.93642507125
 21
74.18921619226749
  0
LINE
  5
157
100
AcDbEntity
  8
AM_0
  6
CONTINUOUS
 62
  256
370
   30
100
AcDbLine
 10
214.8964250712502
 20
72.65321619226766
 11
214.5364250712502
 21
72.65321619226766
  0
LINE
  5
158
100
AcDbEntity
  8
AM_0
  6
CONTINUOUS
 62
  256
370
   30
100
AcDbLine
 10
219.1684250712501
 20
77.26121619226716
 11
220.6804250712502
 21
77.26121619226716
  0
LINE
  5
159
100
AcDbEntity
  8
AM_0
  6
CONTINUOUS
 62
  256
370
   30
100
AcDbLine
 10
219.7444250712502
 20
74.95721619226775
 11
219.1684250712501
 21
77.26121619226716
  0
LINE
  5
15A
100
AcDbEntity
  8
AM_0
  6
CONTINUOUS
 62
  256
370
   30
100
AcDbLine
 10
219.7444250712502
 20
74.95721619226775
 11
221.4484250712501
 21
74.95721619226775
  0
LINE
  5
15B
100
AcDbEntity
  8
AM_0
  6
CONTINUOUS
 62
  256
370
   30
100
AcDbLine
 10
221.4484250712501
 20
74.18921619226749
 11
221.4484250712501
 21
74.95721619226775
  0
LINE
  5
15C
100
AcDbEntity
  8
AM_0
  6
CONTINUOUS
 62
  256
370
   30
100
AcDbLine
 10
219.93642507125
 20
74.18921619226749
 11
221.4484250712501
 21
74.18921619226749
  0
LINE
  5
15D
100
AcDbEntity
  8
AM_0
  6
CONTINUOUS
 62
  256
370
   30
100
AcDbLine
 10
220.3204250712502
 20
72.65321619226766
 11
220.6804250712502
 21
72.65321619226766
  0
LINE
  5
15E
100
AcDbEntity
  8
AM_0
  6
CONTINUOUS
 62
  256
370
   30
100
AcDbLine
 10
213.7684250712499
 20
74.18921619226749
 11
213.7684250712499
 21
74.95721619226775
  0
LINE
  5
15F
100
AcDbEntity
  8
AM_0
  6
CONTINUOUS
 62
  256
370
   30
100
AcDbLine
 10
215.4724250712502
 20
74.95721619226775
 11
216.0484250712499
 21
77.26121619226716
  0
LINE
  5
160
100
AcDbEntity
  8
AM_0
  6
CONTINUOUS
 62
  256
370
   30
100
AcDbLine
 10
216.8404250712499
 20
77.26121619226716
 11
218.3764250712501
 21
77.26121619226716
  0
LINE
  5
161
100
AcDbEntity
  8
AM_0
  6
CONTINUOUS
 62
  256
370
   30
100
AcDbLine
 10
213.7684250712499
 20
74.95721619226775
 11
215.4724250712502
 21
74.95721619226775
  0
LINE
  5
162
100
AcDbEntity
  8
AM_0
  6
CONTINUOUS
 62
  256
370
   30
100
AcDbLine
 10
213.7684250712499
 20
74.18921619226749
 11
215.28042507125
 21
74.18921619226749
  0
LINE
  5
163
100
AcDbEntity
  8
AM_0
  6
CONTINUOUS
 62
  256
370
   30
100
AcDbLine
 10
215.6884250712503
 20
72.65321619226766
 11
219.5284250712501
 21
72.65321619226766
  0
LINE
  5
164
100
AcDbEntity
  8
AM_0
  6
ByLayer
 62
  256
370
   15
100
AcDbLine
 10
144.3176614941553
 20
66.12346631807013
 11
144.3176614941553
 21
81.70703504726799
  0
LINE
  5
165
100
AcDbEntity
  8
AM_0
  6
ByLayer
 62
  256
370
   15
100
AcDbLine
 10
284.6998347966576
 20
286.1639660543226
 11
284.6998347967068
 21
9.163966054322614
  0
LINE
  5
166
100
AcDbEntity
  8
AM_0
  6
ByLayer
 62
  256
370
   15
100
AcDbLine
 10
279.7319367048308
 20
66.12346631807013
 11
279.7319367048341
 21
286.1639660543226
  0
LINE
  5
167
100
AcDbEntity
  8
AM_0
  6
ByLayer
 62
  256
370
   15
100
AcDbLine
 10
274.7640386129558
 20
66.12346631807013
 11
274.7640386129588
 21
286.1639660543226
  0
LINE
  5
168
100
AcDbEntity
  8
AM_0
  6
ByLayer
 62
  256
370
   15
100
AcDbLine
 10
269.7961405210808
 20
66.12346631807013
 11
269.7961405210841
 21
286.1639660543226
  0
LINE
  5
169
100
AcDbEntity
  8
AM_0
  6
ByLayer
 62
  256
370
   15
100
AcDbLine
 10
264.8282424292058
 20
66.12346631807013
 11
264.8282424292091
 21
286.1639660543226
  0
LINE
  5
16A
100
AcDbEntity
  8
AM_0
  6
ByLayer
 62
  256
370
   15
100
AcDbLine
 10
259.8603443373307
 20
66.12346631807013
 11
259.860344337334
 21
286.1639660543226
  0
LINE
  5
16B
100
AcDbEntity
  8
AM_7
  6
ByLayer
 62
    7
370
   -1
100
AcDbLine
 10
146.4222500832432
 20
73.62346631807019
 11
158.9341164919807
 21
73.62346631807019
  0
LINE
  5
16C
100
AcDbEntity
  8
AM_7
  6
ByLayer
 62
    7
370
   -1
100
AcDbLine
 10
167.9341164919808
 20
68.12346631807019
 11
167.9341164919808
 21
79.12346631807019
  0
LINE
  5
16D
100
AcDbEntity
  8
AM_7
  6
ByLayer
 62
    7
370
   -1
100
AcDbLine
 10
162.4341164919808
 20
73.62346631807019
 11
173.4341164919808
 21
73.62346631807019
  0
LINE
  5
16E
100
AcDbEntity
  8
AM_0
  6
ByLayer
 62
  256
370
   -1
100
AcDbLine
 10
191.6173703112454
 20
81.70703504726805
 11
191.6173703112454
 21
66.12346631807013
  0
MTEXT
  5
16F
100
AcDbEntity
  8
0
  6
ByLayer
 62
  256
370
   -1
100
AcDbMText
 10
120.1014175645786
 20
74.9844115508548
 30
0
 40
1.700000017881393
 41
161.8777812290621
 71
    2
 72
    1
  1
\fArial|b0|i0;\H1.7000;The present drawing cannot be reproduced or comunicated to 3d parties, even partially, without the authorization of \PITALTRONIC Srl. Italtronic reserves to protect its own rights according to the law.
  7
gruppo1
210
0
220
0
230
1
 50
0
 73
    2
 44
0.9959999918937683
  0
TEXT
  5
170
100
AcDbEntity
  8
0
  6
ByLayer
 62
    5
370
   -1
100
AcDbText
 10
281.2170861928156
 20
67.53255693861421
 30
0
 40
2.5
  1
1
 50
0
 41
1
 51
0
  7
stile testo43
 71
    0
210
0
220
0
230
1
100
AcDbText
  0
TEXT
  5
171
100
AcDbEntity
  8
0
  6
ByLayer
 62
    5
370
   -1
100
AcDbText
 10
276.2491881009406
 20
67.53255693861421
 30
0
 40
2.5
  1
2
 50
0
 41
1
 51
0
  7
stile testo43
 71
    0
210
0
220
0
230
1
100
AcDbText
  0
TEXT
  5
172
100
AcDbEntity
  8
0
  6
ByLayer
 62
    5
370
   -1
100
AcDbText
 10
271.2812900090656
 20
67.53255693861421
 30
0
 40
2.5
  1
3
 50
0
 41
1
 51
0
  7
stile testo43
 71
    0
210
0
220
0
230
1
100
AcDbText
  0
TEXT
  5
173
100
AcDbEntity
  8
0
  6
ByLayer
 62
    5
370
   -1
100
AcDbText
 10
266.3133919171906
 20
67.53255693861421
 30
0
 40
2.5
  1
4
 50
0
 41
1
 51
0
  7
stile testo43
 71
    0
210
0
220
0
230
1
100
AcDbText
  0
TEXT
  5
174
100
AcDbEntity
  8
0
  6
ByLayer
 62
    5
370
   -1
100
AcDbText
 10
261.3454938253156
 20
67.53255693861421
 30
0
 40
2.5
  1
5
 50
0
 41
1
 51
0
  7
stile testo43
 71
    0
210
0
220
0
230
1
100
AcDbText
  0
TEXT
  5
175
100
AcDbEntity
  8
AM_0
  6
ByLayer
 62
  256
370
   -1
100
AcDbText
 10
181.9950637642292
 20
21.16553464767186
 30
0
 40
4.124999940395355
  1
ITALTRONIC
 50
0
 41
1
 51
0
  7
gruppo2_70
 71
    0
210
0
220
0
230
1
100
AcDbText
  0
TEXT
  5
176
100
AcDbEntity
  8
AM_0
  6
ByLayer
 62
  256
370
   -1
100
AcDbText
 10
188.133163299974
 20
17.9990599320326
 30
0
 40
2.000000029802322
  1
VIA AUSTRIA 25/D  35127
 50
0
 41
1
 51
0
  7
stile testo42
 71
    0
210
0
220
0
230
1
100
AcDbText
  0
TEXT
  5
177
100
AcDbEntity
  8
AM_0
  6
ByLayer
 62
  256
370
   -1
100
AcDbText
 10
99.90123556186381
 20
77.38687250891962
 30
0
 40
2.5
  1
RESERVED PROPERTY
 50
0
 41
1
 51
0
  7
stile testo43
 71
    0
210
0
220
0
230
1
100
AcDbText
  0
TEXT
  5
178
100
AcDbEntity
  8
AM_0
  6
ByLayer
 62
  256
370
   -1
100
AcDbText
 10
232.2164393173668
 20
24.59393279253679
 30
0
 40
2.000000029802322
  1
Drawing nr.
 50
0
 41
1
 51
0
  7
stile testo42
 71
    0
210
0
220
0
230
1
100
AcDbText
  0
TEXT
  5
179
100
AcDbEntity
  8
AM_0
  6
ByLayer
 62
  256
370
   -1
100
AcDbText
 10
194.0837289163447
 20
14.92269897427202
 30
0
 40
2.000000029802322
  1
PADOVA - ITALY
 50
0
 41
1
 51
0
  7
stile testo42
 71
    0
210
0
220
0
230
1
100
AcDbText
  0
TEXT
  5
17A
100
AcDbEntity
  8
AM_0
  6
ByLayer
 62
  256
370
   -1
100
AcDbText
 10
168.4307182626204
 20
48.42227159871389
 30
0
 40
2.000000029802322
  1
Denomination:
 50
0
 41
1
 51
0
  7
stile testo42
 71
    0
210
0
220
0
230
1
100
AcDbText
  0
TEXT
  5
17B
100
AcDbEntity
  8
AM_0
  6
ByLayer
 62
  256
370
   -1
100
AcDbText
 10
217.8588074462199
 20
21.53900455419888
 30
0
 40
2.62499988079071
  1
S.R.L.
 50
0
 41
1
 51
0
  7
stile testo75
 71
    0
210
0
220
0
230
1
100
AcDbText
  0
TEXT
  5
17C
100
AcDbEntity
  8
AM_0
  6
ByLayer
 62
  256
370
   -1
100
AcDbText
 10
145.3019167450588
 20
55.18767416097688
 30
0
 40
2.000000029802322
  1
Checked:
 50
0
 41
1
 51
0
  7
stile testo42
 71
    0
210
0
220
0
230
1
100
AcDbText
  0
TEXT
  5
17D
100
AcDbEntity
  8
AM_0
  6
ByLayer
 62
  256
370
   -1
100
AcDbText
 10
145.1303143901679
 20
61.6181631606925
 30
0
 40
2.000000029802322
  1
Date:
 50
0
 41
1
 51
0
  7
stile testo42
 71
    0
210
0
220
0
230
1
100
AcDbText
  0
TEXT
  5
17E
100
AcDbEntity
  8
AM_0
  6
ByLayer
 62
  256
370
   -1
100
AcDbText
 10
207.0063161364586
 20
61.60600274248769
 30
0
 40
2.000000029802322
  1
Replace nr.
 50
0
 41
1
 51
0
  7
stile testo42
 71
    0
210
0
220
0
230
1
100
AcDbText
  0
TEXT
  5
17F
100
AcDbEntity
  8
AM_0
  6
ByLayer
 62
  256
370
   -1
100
AcDbText
 10
266.3191067400235
 20
60.12511670506761
 30
0
 40
2.000000029802322
  1
Revision
 50
0
 41
1
 51
0
  7
stile testo42
 71
    0
210
0
220
0
230
1
100
AcDbText
  0
TEXT
  5
180
100
AcDbEntity
  8
AM_0
  6
ByLayer
 62
  256
370
   -1
100
AcDbText
 10
265.1526308096935
 20
56.90518275663025
 30
0
 40
2.000000029802322
  1
description
 50
0
 41
1
 51
0
  7
stile testo42
 71
    0
210
0
220
0
230
1
100
AcDbText
  0
TEXT
  5
181
100
AcDbEntity
  8
AM_0
  6
ByLayer
 62
  256
370
   -1
100
AcDbText
 10
177.0907032812407
 20
74.97739780769494
 30
0
 40
2.000000029802322
  1
Dimension
 50
0
 41
1
 51
0
  7
stile testo42
 71
    0
210
0
220
0
230
1
100
AcDbText
  0
TEXT
  5
182
100
AcDbEntity
  8
AM_0
  6
ByLayer
 62
  256
370
   -1
100
AcDbText
 10
180.2401672030466
 20
71.33051536505148
 30
0
 40
2.000000029802322
  1
in mm
 50
0
 41
1
 51
0
  7
stile testo42
 71
    0
210
0
220
0
230
1
100
AcDbText
  0
TEXT
  5
183
100
AcDbEntity
  8
AM_0
  6
ByLayer
 62
  256
370
   -1
100
AcDbText
 10
232.7395381386926
 20
77.25152948566743
 30
0
 40
1.500000059604644
  1
GENERAL TOLERANCE
 50
0
 41
1
 51
0
  7
stile testo76
 71
    0
210
0
220
0
230
1
100
AcDbText
  0
TEXT
  5
184
100
AcDbEntity
  8
AM_0
  6
ByLayer
 62
  256
370
   -1
100
AcDbText
 10
232.0808387831126
 20
68.97629357213781
 30
0
 40
5.003799796104431
  1
 0.2
 50
0
 41
1
 51
0
  7
stile testo18
 71
    0
210
0
220
0
230
1
100
AcDbText
  0
TEXT
  5
185
100
AcDbEntity
  8
AM_0
  6
ByLayer
 62
  256
370
   -1
100
AcDbText
 10
207.2058410733161
 20
55.18767416097688
 30
0
 40
2.000000029802322
  1
Scale:
 50
0
 41
1
 51
0
  7
stile testo42
 71
    0
210
0
220
0
230
1
100
AcDbText
  0
TEXT
  5
186
100
AcDbEntity
  8
AM_0
  6
ByLayer
 62
  256
370
   -1
100
AcDbText
 10
95.68408977006077
 20
55.18767416097704
 30
0
 40
2.000000029802322
  1
Drawed:
 50
0
 41
1
 51
0
  7
stile testo42
 71
    0
210
0
220
0
230
1
100
AcDbText
  0
TEXT
  5
187
100
AcDbEntity
  8
AM_0
  6
ByLayer
 62
  256
370
   -1
100
AcDbText
 10
249.7239995509783
 20
68.97629357213781
 30
0
 40
3.000000119209289
  1
mm
 50
0
 41
1
 51
0
  7
stile testo77
 71
    0
210
0
220
0
230
1
100
AcDbText
  0
TEXT
  5
188
100
AcDbEntity
  8
AM_0
  6
ByLayer
 62
  256
370
   -1
100
AcDbText
 10
210.7550172865473
 20
78.93161619226736
 30
0
 40
1.500000059604644
  1
DRAWING BY
 50
0
 41
1
 51
0
  7
stile testo76
 71
    0
210
0
220
0
230
1
100
AcDbText
  0
TEXT
  5
189
100
AcDbEntity
  8
AM_0
  6
ByLayer
 62
  256
370
   -1
100
AcDbText
 10
211.3793079777212
 20
66.87881619226764
 30
0
 40
1.500000059604644
  1
are not allowed
 50
0
 41
1
 51
0
  7
stile testo76
 71
    0
210
0
220
0
230
1
100
AcDbText
  0
TEXT
  5
18A
100
AcDbEntity
  8
AM_0
  6
ByLayer
 62
  256
370
   -1
100
AcDbText
 10
208.8042244955312
 20
69.56681619226752
 30
0
 40
1.500000059604644
  1
Manual modification
 50
0
 41
1
 51
0
  7
stile testo76
 71
    0
210
0
220
0
230
1
100
AcDbText
  0
TEXT
  5
18B
100
AcDbEntity
  8
AM_0
  6
ByLayer
 62
  184
370
   -1
100
AcDbText
 10
189.4425850731534
 20
11.02535466088075
 30
0
 40
2.5
  1
www.italtronic.com
 50
0
 41
1
 51
0
  7
stile testo43
 71
    0
210
0
220
0
230
1
100
AcDbText
  0
TEXT
  5
18C
100
AcDbEntity
  8
AM_0
  6
ByLayer
 62
  256
370
   -1
100
AcDbText
 10
193.0318170618831
 20
78.93161619226734
 30
0
 40
1.500000059604644
  1
SHEET NR.
 50
0
 41
1
 51
0
  7
stile testo76
 71
    0
210
0
220
0
230
1
100
AcDbText
  0
TEXT
  5
18D
100
AcDbEntity
  8
AM_0
  6
ByLayer
 62
  256
370
   -1
100
AcDbText
 10
198.9138480825453
 20
72.12721935022168
 30
0
 40
2.5
  1
1 / 1 
 50
0
 41
1
 51
0
  7
stile testo43
 71
    0
 72
    1
 11
198.9138480825453
 21
72.12721935022168
 31
0
210
0
220
0
230
1
100
AcDbText
 73
    2
  0
ENDBLK
  5
94
330
92
100
AcDbEntity
  8
0
100
AcDbBlockEnd
  0
BLOCK
  5
96
330
95
100
AcDbEntity
  8
0
100
AcDbBlockBegin
  2
Contrassegno di revisione1
 70
    0
 10
0
 20
0
  3
Contrassegno di revisione1
  1

  0
LINE
  5
18E
100
AcDbEntity
  8
Simboli(ISO)
  6
CONTINUOUS
 62
    7
370
   25
100
AcDbLine
 10
144.7494852070246
 20
235.9420050308165
 11
142.6294894324567
 21
237.2670023575361
  0
LWPOLYLINE
  5
18F
100
AcDbEntity
  8
Simboli(ISO)
  6
CONTINUOUS
 62
    7
370
   25
100
AcDbPolyline
 90
    4
 70
    0
 43
0
 10
145.0144863128662
 20
236.3660049438477
 10
142.6294898986816
 20
237.2669982910156
 10
144.4844818115234
 20
235.5179977416992
 10
145.0144863128662
 20
236.3660049438477
  0
SOLID
  5
190
100
AcDbEntity
  8
Simboli(ISO)
  6
ByLayer
 62
    7
370
   -1
100
AcDbTrace
 10
145.0144863128662
 20
236.3660049438477
 30
0
 11
142.6294898986816
 21
237.2669982910156
 31
0
 12
144.4844818115234
 22
235.5179977416992
 32
0
 13
145.0144863128662
 23
236.3660049438477
 33
0
  0
LINE
  5
191
100
AcDbEntity
  8
Simboli(ISO)
  6
CONTINUOUS
 62
    7
370
   25
100
AcDbLine
 10
145.0144846723685
 20
236.3660041857301
 11
142.6294894324567
 21
237.2670023575361
  0
LINE
  5
192
100
AcDbEntity
  8
Simboli(ISO)
  6
CONTINUOUS
 62
    7
370
   25
100
AcDbLine
 10
142.6294894324567
 20
237.2670023575361
 11
144.4844857416806
 21
235.5180058759029
  0
LINE
  5
193
100
AcDbEntity
  8
Simboli(ISO)
  6
CONTINUOUS
 62
    7
370
   25
100
AcDbLine
 10
144.4844857416806
 20
235.5180058759029
 11
145.0144846723685
 21
236.3660041857301
  0
LINE
  5
194
100
AcDbEntity
  8
Simboli(ISO)
  6
CONTINUOUS
 62
    7
370
   25
100
AcDbLine
 10
144.7494852070246
 20
235.9420050308165
 11
150.3483590596273
 21
232.4427089584688
  0
LINE
  5
195
100
AcDbEntity
  8
Simboli(ISO)
  6
CONTINUOUS
 62
    7
370
   25
100
AcDbLine
 10
150.3483590596273
 20
232.4427089584688
 11
155.2340543214284
 21
232.4427089584688
  0
MTEXT
  5
196
100
AcDbEntity
  8
Simboli(ISO)
  6
ByLayer
 62
    7
370
   -1
100
AcDbMText
 10
157.0469046345807
 20
229.8105635536531
 30
0
 40
2.5
 41
0.5555555555555556
 71
    7
 72
    1
  1
1
  7
corrente-iso
210
0
220
0
230
1
 50
0
 73
    1
 44
1
  0
LINE
  5
197
100
AcDbEntity
  8
Simboli(ISO)
  6
ByLayer
 62
  256
370
   -1
100
AcDbLine
 10
157.6197495832293
 20
236.5748543632845
 11
162.3911401068313
 21
228.3105635536531
  0
LINE
  5
198
100
AcDbEntity
  8
Simboli(ISO)
  6
ByLayer
 62
  256
370
   -1
100
AcDbLine
 10
162.3911401068313
 20
228.3105635536531
 11
152.8483590596272
 21
228.3105635536531
  0
LINE
  5
199
100
AcDbEntity
  8
Simboli(ISO)
  6
ByLayer
 62
  256
370
   -1
100
AcDbLine
 10
152.8483590596272
 20
228.3105635536531
 11
157.6197495832293
 21
236.5748543632845
  0
ENDBLK
  5
97
330
95
100
AcDbEntity
  8
0
100
AcDbBlockEnd
  0
ENDSEC
  0
SECTION
  2
ENTITIES
  0
INSERT
  5
19A
100
AcDbEntity
  8
0
  6
ByLayer
 62
  256
370
   -1
100
AcDbBlockReference
  2
Bordi Bordo di default
 10
0
 20
0
 30
0
 41
1
 42
1
 43
0
 50
0
 70
    1
 71
    1
 44
0
 45
0
  0
INSERT
  5
19B
100
AcDbEntity
  8
0
  6
ByLayer
 62
  256
370
   -1
100
AcDbBlockReference
  2
Cartigli Italtronic
 10
-84.69983479670901
 20
0.8360339456774168
 30
0
 41
1
 42
1
 43
0
 50
0
 70
    1
 71
    1
 44
0
 45
0
  0
LINE
  5
19C
100
AcDbEntity
  8
Spigoli visibili(ISO)
  6
ByLayer
 62
  256
370
   -1
100
AcDbLine
 10
58.37427619330863
 20
190.0004312205908
 11
117.0742761933086
 21
190.0004312205908
  0
LINE
  5
19D
100
AcDbEntity
  8
Spigoli visibili(ISO)
  6
ByLayer
 62
  256
370
   -1
100
AcDbLine
 10
58.37427619330863
 20
190.0004312205908
 11
58.37427619330863
 21
188.4004312205908
  0
LINE
  5
19E
100
AcDbEntity
  8
Spigoli visibili(ISO)
  6
ByLayer
 62
  256
370
   -1
100
AcDbLine
 10
117.0742761933086
 20
190.0004312205908
 11
117.0742761933086
 21
188.4004312205908
  0
LINE
  5
19F
100
AcDbEntity
  8
Spigoli visibili(ISO)
  6
ByLayer
 62
  256
370
   -1
100
AcDbLine
 10
58.37427619330863
 20
188.4004312205908
 11
117.0742761933086
 21
188.4004312205908
  0
LINE
  5
1A0
100
AcDbEntity
  8
Spigoli visibili(ISO)
  6
ByLayer
 62
  256
370
   -1
100
AcDbLine
 10
58.37427619334533
 20
211.3269230416901
 11
58.37427619334533
 21
278.9269230416902
  0
LINE
  5
1A1
100
AcDbEntity
  8
Spigoli visibili(ISO)
  6
ByLayer
 62
  256
370
   -1
100
AcDbLine
 10
117.0742761933453
 20
278.9269230416902
 11
117.0742761933453
 21
211.3269230416901
  0
LINE
  5
1A2
100
AcDbEntity
  8
Spigoli visibili(ISO)
  6
ByLayer
 62
  256
370
   -1
100
AcDbLine
 10
117.0742761933453
 20
211.3269230416901
 11
58.37427619334533
 21
211.3269230416901
  0
LINE
  5
1A3
100
AcDbEntity
  8
Spigoli visibili(ISO)
  6
ByLayer
 62
  256
370
   -1
100
AcDbLine
 10
58.37427619334533
 20
278.9269230416902
 11
117.0742761933453
 21
278.9269230416902
  0
CIRCLE
  5
1A4
100
AcDbEntity
  8
Spigoli visibili(ISO)
  6
ByLayer
 62
  256
370
   -1
100
AcDbCircle
 10
60.82427619334534
 20
214.1269230416902
 40
1.5
  0
CIRCLE
  5
1A5
100
AcDbEntity
  8
Spigoli visibili(ISO)
  6
ByLayer
 62
  256
370
   -1
100
AcDbCircle
 10
114.6242761933453
 20
214.1269230416902
 40
1.5
  0
CIRCLE
  5
1A6
100
AcDbEntity
  8
Spigoli visibili(ISO)
  6
ByLayer
 62
  256
370
   -1
100
AcDbCircle
 10
114.6242761933453
 20
276.1269230416901
 40
1.5
  0
CIRCLE
  5
1A7
100
AcDbEntity
  8
Spigoli visibili(ISO)
  6
ByLayer
 62
  256
370
   -1
100
AcDbCircle
 10
60.82427619334534
 20
276.1269230416901
 40
1.5
  0
LINE
  5
1A8
100
AcDbEntity
  8
Spigoli visibili(ISO)
  6
ByLayer
 62
  256
370
   -1
100
AcDbLine
 10
115.7242761932691
 20
126.9040559530248
 11
117.0742761932691
 21
126.9040559530248
  0
LINE
  5
1A9
100
AcDbEntity
  8
Spigoli visibili(ISO)
  6
ByLayer
 62
  256
370
   -1
100
AcDbLine
 10
115.7242761932691
 20
120.9040559530248
 11
115.7242761932691
 21
126.9040559530248
  0
LINE
  5
1AA
100
AcDbEntity
  8
Spigoli visibili(ISO)
  6
ByLayer
 62
  256
370
   -1
100
AcDbLine
 10
117.0742761932691
 20
120.9040559530248
 11
115.7242761932691
 21
120.9040559530248
  0
LINE
  5
1AB
100
AcDbEntity
  8
Spigoli visibili(ISO)
  6
ByLayer
 62
  256
370
   -1
100
AcDbLine
 10
117.0742761932691
 20
126.9040559530248
 11
117.0742761932691
 21
120.9040559530248
  0
LINE
  5
1AC
100
AcDbEntity
  8
Spigoli visibili(ISO)
  6
ByLayer
 62
  256
370
   -1
100
AcDbLine
 10
59.72427619326914
 20
120.9040559530248
 11
58.37427619326915
 21
120.9040559530248
  0
LINE
  5
1AD
100
AcDbEntity
  8
Spigoli visibili(ISO)
  6
ByLayer
 62
  256
370
   -1
100
AcDbLine
 10
59.72427619326914
 20
126.9040559530248
 11
59.72427619326914
 21
120.9040559530248
  0
LINE
  5
1AE
100
AcDbEntity
  8
Spigoli visibili(ISO)
  6
ByLayer
 62
  256
370
   -1
100
AcDbLine
 10
58.37427619326915
 20
126.9040559530248
 11
59.72427619326914
 21
126.9040559530248
  0
LINE
  5
1AF
100
AcDbEntity
  8
Spigoli visibili(ISO)
  6
ByLayer
 62
  256
370
   -1
100
AcDbLine
 10
58.37427619326915
 20
120.9040559530248
 11
58.37427619326915
 21
126.9040559530248
  0
LINE
  5
1B0
100
AcDbEntity
  8
Spigoli visibili(ISO)
  6
ByLayer
 62
  256
370
   -1
100
AcDbLine
 10
117.0742761932691
 20
126.9040559530248
 11
117.0742761932691
 21
157.7040559530248
  0
LINE
  5
1B1
100
AcDbEntity
  8
Spigoli visibili(ISO)
  6
ByLayer
 62
  256
370
   -1
100
AcDbLine
 10
117.0742761932691
 20
157.7040559530248
 11
58.37427619326915
 21
157.7040559530248
  0
LINE
  5
1B2
100
AcDbEntity
  8
Spigoli visibili(ISO)
  6
ByLayer
 62
  256
370
   -1
100
AcDbLine
 10
58.37427619326915
 20
157.7040559530248
 11
58.37427619326915
 21
126.9040559530248
  0
LINE
  5
1B3
100
AcDbEntity
  8
Spigoli visibili(ISO)
  6
ByLayer
 62
  256
370
   -1
100
AcDbLine
 10
58.37427619326915
 20
120.9040559530248
 11
58.37427619326915
 21
90.10405595302478
  0
LINE
  5
1B4
100
AcDbEntity
  8
Spigoli visibili(ISO)
  6
ByLayer
 62
  256
370
   -1
100
AcDbLine
 10
58.37427619326915
 20
90.10405595302478
 11
117.0742761932691
 21
90.10405595302478
  0
LINE
  5
1B5
100
AcDbEntity
  8
Spigoli visibili(ISO)
  6
ByLayer
 62
  256
370
   -1
100
AcDbLine
 10
117.0742761932691
 20
90.10405595302478
 11
117.0742761932691
 21
120.9040559530248
  0
LINE
  5
1B6
100
AcDbEntity
  8
Linea d'asse(ISO)
  6
CONTINUOUS
 62
  256
370
   -1
100
AcDbLine
 10
87.72427619334535
 20
208.8269230416901
 11
87.72427619334535
 21
281.4269230416902
  0
LINE
  5
1B7
100
AcDbEntity
  8
Linea d'asse(ISO)
  6
CONTINUOUS
 62
  256
370
   -1
100
AcDbLine
 10
119.5742761933453
 20
245.1269230416901
 11
55.87427619334533
 21
245.1269230416901
  0
LINE
  5
1B8
100
AcDbEntity
  8
Linea d'asse(ISO)
  6
CONTINUOUS
 62
  256
370
   -1
100
AcDbLine
 10
119.5742761932691
 20
123.9040559530248
 11
55.87427619326915
 21
123.9040559530248
  0
LINE
  5
1B9
100
AcDbEntity
  8
Linea d'asse(ISO)
  6
CONTINUOUS
 62
  256
370
   -1
100
AcDbLine
 10
87.72427619326918
 20
87.60405595302478
 11
87.72427619326918
 21
161.6763985965943
  0
LINE
  5
1BA
100
AcDbEntity
  8
Centro(ISO)
  6
CONTINUOUS
 62
  256
370
   -1
100
AcDbLine
 10
64.82427619334536
 20
276.1269230416901
 11
56.82427619334534
 21
276.1269230416901
  0
LINE
  5
1BB
100
AcDbEntity
  8
Centro(ISO)
  6
CONTINUOUS
 62
  256
370
   -1
100
AcDbLine
 10
60.82427619334534
 20
280.1269230416902
 11
60.82427619334534
 21
272.1269230416902
  0
LINE
  5
1BC
100
AcDbEntity
  8
Centro(ISO)
  6
CONTINUOUS
 62
  256
370
   -1
100
AcDbLine
 10
118.6242761933453
 20
276.1269230416901
 11
110.6242761933453
 21
276.1269230416901
  0
LINE
  5
1BD
100
AcDbEntity
  8
Centro(ISO)
  6
CONTINUOUS
 62
  256
370
   -1
100
AcDbLine
 10
114.6242761933453
 20
280.1269230416902
 11
114.6242761933453
 21
272.1269230416902
  0
LINE
  5
1BE
100
AcDbEntity
  8
Centro(ISO)
  6
CONTINUOUS
 62
  256
370
   -1
100
AcDbLine
 10
118.6242761933453
 20
214.1269230416902
 11
110.6242761933453
 21
214.1269230416902
  0
LINE
  5
1BF
100
AcDbEntity
  8
Centro(ISO)
  6
CONTINUOUS
 62
  256
370
   -1
100
AcDbLine
 10
114.6242761933453
 20
218.1269230416901
 11
114.6242761933453
 21
210.1269230416902
  0
LINE
  5
1C0
100
AcDbEntity
  8
Centro(ISO)
  6
CONTINUOUS
 62
  256
370
   -1
100
AcDbLine
 10
64.82427619334536
 20
214.1269230416902
 11
56.82427619334534
 21
214.1269230416902
  0
LINE
  5
1C1
100
AcDbEntity
  8
Centro(ISO)
  6
CONTINUOUS
 62
  256
370
   -1
100
AcDbLine
 10
60.82427619334534
 20
218.1269230416901
 11
60.82427619334534
 21
210.1269230416902
  0
DIMENSION
  5
1C2
100
AcDbEntity
  8
Quote(ISO)
  6
CONTINUOUS
 62
    7
370
   25
100
AcDbDimension
  2
*D1
 10
128.6242761933453
 20
214.1269230416902
 30
0
 11
128.6242761933453
 21
245.1269230416901
 31
0
 70
   32
  1
<>
 71
    5
 72
    0
  3
X.XXX
 53
0
210
0
220
0
230
1
100
AcDbAlignedDimension
 13
118.6242761933453
 23
276.1269230416901
 33
0
 14
118.6242761933453
 24
214.1269230416902
 34
0
 50
90
100
AcDbRotatedDimension
  0
DIMENSION
  5
1C3
100
AcDbEntity
  8
Quote(ISO)
  6
CONTINUOUS
 62
    7
370
   25
100
AcDbDimension
  2
*D2
 10
139.0742761933453
 20
211.3269230416901
 30
0
 11
139.0742761933453
 21
245.0269230416902
 31
0
 70
   32
  1
<>
 71
    5
 72
    0
  3
X.XXX
 53
0
210
0
220
0
230
1
100
AcDbAlignedDimension
 13
117.0742761933453
 23
278.9269230416902
 33
0
 14
117.0742761933453
 24
211.3269230416901
 34
0
 50
90
100
AcDbRotatedDimension
  0
DIMENSION
  5
1C4
100
AcDbEntity
  8
Quote(ISO)
  6
CONTINUOUS
 62
    7
370
   25
100
AcDbDimension
  2
*D3
 10
117.0742761933453
 20
201.2269230416901
 30
0
 11
88.94927619334536
 21
201.2269230416901
 31
0
 70
   32
  1
<>
 71
    5
 72
    0
  3
X.XXX
 53
0
210
0
220
0
230
1
100
AcDbAlignedDimension
 13
60.82427619334534
 23
210.1269230416902
 33
0
 14
117.0742761933453
 24
211.3269230416901
 34
0
 50
180
100
AcDbRotatedDimension
  0
DIMENSION
  5
1C5
100
AcDbEntity
  8
Quote(ISO)
  6
CONTINUOUS
 62
    7
370
   25
100
AcDbDimension
  2
*D4
 10
117.0742761933086
 20
178.4004312205908
 30
0
 11
87.72427619330864
 21
178.4004312205908
 31
0
 70
   32
  1
<>
 71
    5
 72
    0
  3
X.XXX
 53
0
210
0
220
0
230
1
100
AcDbAlignedDimension
 13
58.37427619330863
 23
188.4004312205908
 33
0
 14
117.0742761933086
 24
188.4004312205908
 34
0
 50
180
100
AcDbRotatedDimension
  0
DIMENSION
  5
1C6
100
AcDbEntity
  8
Quote(ISO)
  6
CONTINUOUS
 62
    7
370
   25
100
AcDbDimension
  2
*D5
 10
127.0742761933087
 20
190.0004312205908
 30
0
 11
127.0742761933086
 21
197.919661779936
 31
0
 70
   32
  1
<>
 71
    5
 72
    0
  3
X.XXX
 53
0
210
0
220
0
230
1
100
AcDbAlignedDimension
 13
117.0742761933086
 23
188.4004312205908
 33
0
 14
117.0742761933086
 24
190.0004312205908
 34
0
 50
270
100
AcDbRotatedDimension
  0
DIMENSION
  5
1C7
100
AcDbEntity
  8
Quote(ISO)
  6
CONTINUOUS
 62
    7
370
   25
100
AcDbDimension
  2
*D6
 10
115.7242761932691
 20
164.604487173615
 30
0
 11
87.72427619326918
 21
164.604487173615
 31
0
 70
   32
  1
<>
 71
    5
 72
    0
  3
X.XXX
 53
0
210
0
220
0
230
1
100
AcDbAlignedDimension
 13
59.72427619326914
 23
126.9040559530248
 33
0
 14
115.7242761932691
 24
126.9040559530248
 34
0
 50
180
100
AcDbRotatedDimension
  0
DIMENSION
  5
1C8
100
AcDbEntity
  8
Quote(ISO)
  6
CONTINUOUS
 62
    7
370
   25
100
AcDbDimension
  2
*D7
 10
125.7242761932692
 20
120.9040559530248
 30
0
 11
125.7242761932691
 21
123.9040559530248
 31
0
 70
   32
  1
<>
 71
    5
 72
    0
  3
X.XXX
 53
0
210
0
220
0
230
1
100
AcDbAlignedDimension
 13
117.0742761932691
 23
126.9040559530248
 33
0
 14
115.7242761932691
 24
120.9040559530248
 34
0
 50
90
100
AcDbRotatedDimension
  0
MTEXT
  5
1C9
100
AcDbEntity
  8
Simboli(ISO)
  6
ByLayer
 62
    7
370
   -1
100
AcDbMText
 10
33.95409703228205
 20
244.6129078442885
 30
0
 40
2.5
 41
26.04166795238501
 71
    5
 72
    1
  1
{No components\Pzone}
  7
corrente-iso
210
0
220
0
230
1
 50
0
 73
    2
 44
0.9442214965820312
  0
LEADER
  5
1CA
100
AcDbEntity
  8
Simboli(ISO)
  6
CONTINUOUS
 62
    7
370
   25
100
AcDbLeader
  3
Standard
 71
    1
 72
    0
 73
    3
 74
    0
 75
    0
 40
1
 41
10
 76
3
 76
3
 10
60.35036467116419
 20
213.5964180101553
 30
0
 10
49.44551697895258
 20
244.6129078442885
 30
0
 10
46.94551697895258
 20
244.6129078442885
 30
0
  0
MTEXT
  5
1CB
100
AcDbEntity
  8
Simboli(ISO)
  6
ByLayer
 62
    7
370
   -1
100
AcDbMText
 10
45.28459450690859
 20
248.0890237812779
 30
0
 40
2.5
 41
3.819444444444445
 71
    1
 72
    1
  1
{ }
  7
corrente-iso
210
0
220
0
230
1
 50
0
 73
    1
 44
1
  0
LEADER
  5
1CC
100
AcDbEntity
  8
Simboli(ISO)
  6
CONTINUOUS
 62
    7
370
   25
100
AcDbLeader
  3
Standard
 71
    1
 72
    0
 73
    3
 74
    0
 75
    0
 40
1
 41
10
 76
3
 76
3
 10
60.31472430273673
 20
275.4883062195007
 30
0
 10
49.51648776869887
 20
246.8390237812779
 30
0
 10
47.01648776869887
 20
246.8390237812779
 30
0
  0
MTEXT
  5
1CD
100
AcDbEntity
  8
Simboli(ISO)
  6
ByLayer
 62
    7
370
   -1
100
AcDbMText
 10
35.1308433019027
 20
133.1611162014324
 30
0
 40
2.5
 41
26.04166795238501
 71
    5
 72
    1
  1
{No components\Pzone}
  7
corrente-iso
210
0
220
0
230
1
 50
0
 73
    2
 44
0.9442214965820312
  0
LEADER
  5
1CE
100
AcDbEntity
  8
Simboli(ISO)
  6
CONTINUOUS
 62
    7
370
   25
100
AcDbLeader
  3
Standard
 71
    1
 72
    0
 73
    3
 74
    0
 75
    0
 40
1
 41
10
 76
3
 76
3
 10
58.37427619326915
 20
125.2116301670191
 30
0
 10
50.62226324857324
 20
133.1611162014324
 30
0
 10
48.12226324857324
 20
133.1611162014324
 30
0
  0
MTEXT
  5
1CF
100
AcDbEntity
  8
Simboli(ISO)
  6
ByLayer
 62
    7
370
   -1
100
AcDbMText
 10
103.1158991561815
 20
227.1657578612554
 30
0
 40
2.5
 41
21.11111058110589
 71
    5
 72
    1
  1
COMPONENTS \PSIDE
  7
corrente-iso
210
0
220
0
230
1
 50
0
 73
    2
 44
0.9442214965820312
  0
DIMENSION
  5
1D0
100
AcDbEntity
  8
Quote(ISO)
  6
CONTINUOUS
 62
    7
370
   25
100
AcDbDimension
  2
*D11
 10
62.00472799825451
 20
215.0524140120873
 30
0
 11
51.31353109745646
 21
206.670363890873
 31
0
 70
   35
  1
<>
 71
    5
 72
    0
  3
X.XXX
 53
0
210
0
220
0
230
1
100
AcDbDiametricDimension
 15
59.64382438843614
 25
213.201432071293
 35
0
 40
0
  0
MTEXT
  5
1D1
100
AcDbEntity
  8
Simboli(ISO)
  6
ByLayer
 62
    7
370
   -1
100
AcDbMText
 10
103.3801978146224
 20
104.6016310752434
 30
0
 40
2.5
 41
11.94444391443923
 71
    5
 72
    1
  1
SOLDER\PSIDE
  7
corrente-iso
210
0
220
0
230
1
 50
0
 73
    2
 44
0.9442214965820312
  0
MTEXT
  5
1D2
100
AcDbEntity
  8
Simboli(ISO)
  6
ByLayer
 62
    7
370
   -1
100
AcDbMText
 10
195.9391142207351
 20
73.38438767907326
 30
0
 40
2.5
 41
81.7361123968296
 71
    1
 72
    1
  1
{Updated dimension of PCB - 04/02/2010  M.F.}
  7
corrente-iso
210
0
220
0
230
1
 50
89.999999999983
 73
    1
 44
1
  0
INSERT
  5
1D3
100
AcDbEntity
  8
Simboli(ISO)
  6
ByLayer
 62
  256
370
   -1
100
AcDbBlockReference
  2
Contrassegno di revisione1
 10
0
 20
0
 30
0
 41
1
 42
1
 43
0
 50
0
 70
    1
 71
    1
 44
0
 45
0
  0
ENDSEC
  0
SECTION
  2
OBJECTS
  0
DICTIONARY
  5
C
330
0
100
AcDbDictionary
281
    1
  3
ACAD_GROUP
350
D
  3
ACAD_IMAGE_DICT
350
1D4
  0
DICTIONARY
  5
D
330
C
100
AcDbDictionary
281
    1
  0
IMAGEDEF_REACTOR
  5
F4
330
F5
100
AcDbRasterImageDefReactor
 90
    2
330
F5
  0
DICTIONARY
  5
1D4
330
C
100
AcDbDictionary
281
    1
  3
M-02339-010
350
F3
  0
IMAGEDEF
  5
F3
102
{ACAD_REACTORS
330
F4
102
}
100
AcDbRasterImageDef
 90
    0
  1
\\itserver\ut$\Progetti\Modulbox XT\4-MXT\Dxf\M-02339-010.bmp
 10
479
 20
282
 11
1
 21
1
280
    1
281
    0
  0
ENDSEC
  0
EOF
